<svg xmlns="http://www.w3.org/2000/svg" width="24.763" height="29.716" viewBox="0 0 24.763 29.716">
  <defs>
    <style>
      .cls-1 {
        fill: #382f9c;
      }
    </style>
  </defs>
  <g id="surface1059115" transform="translate(-6 -4)">
    <path id="Path_11196" data-name="Path 11196" class="cls-1" d="M18.382,4A12.4,12.4,0,0,0,6,16.382v4.45h.039a3.469,3.469,0,0,0-.039.5,3.7,3.7,0,0,0,2.515,3.521,9.924,9.924,0,0,0,19.733,0,3.7,3.7,0,0,0,2.515-3.521,3.474,3.474,0,0,0-.039-.5h.039v-4.45A12.4,12.4,0,0,0,18.382,4Zm0,2.476a9.887,9.887,0,0,1,9.905,9.905v1.432c-.039-.015-.077-.024-.116-.039a4.945,4.945,0,0,0-4.837-3.869A1.241,1.241,0,0,1,22.1,12.667V11.429H19.62v1.238a1.241,1.241,0,0,1-1.238,1.238H13.429a4.945,4.945,0,0,0-4.837,3.869c-.039.014-.077.024-.116.039V16.382A9.887,9.887,0,0,1,18.382,6.476Zm2.476,8.938a3.709,3.709,0,0,0,2.476.967,2.481,2.481,0,0,1,2.476,2.476V20.1h1.238a1.238,1.238,0,0,1,0,2.476H25.811v1.238a7.429,7.429,0,0,1-14.858,0V22.573H9.715a1.238,1.238,0,0,1,0-2.476h1.238V18.858a2.481,2.481,0,0,1,2.476-2.476h4.953A3.709,3.709,0,0,0,20.858,15.414ZM14.667,20.1a1.238,1.238,0,1,0,1.238,1.238A1.241,1.241,0,0,0,14.667,20.1Zm7.429,0a1.238,1.238,0,1,0,1.238,1.238A1.241,1.241,0,0,0,22.1,20.1Zm0,0"/>
  </g>
</svg>
