<svg xmlns="http://www.w3.org/2000/svg" xmlns:xlink="http://www.w3.org/1999/xlink" width="300" height="300" viewBox="0 0 300 300">
  <defs>
    <style>
      .cls-1 {
        fill: #fff;
        stroke: rgba(33,37,41,0.1);
      }

      .cls-2 {
        fill: #212529;
        font-size: 30px;
        font-family: Graphik-Medium, Graphik;
        font-weight: 500;
      }

      .cls-3, .cls-4, .cls-6 {
        fill: none;
      }

      .cls-3, .cls-4 {
        stroke: #ff616e;
        stroke-linejoin: round;
        stroke-miterlimit: 10;
        stroke-width: 4px;
      }

      .cls-4 {
        stroke-linecap: round;
      }

      .cls-5 {
        stroke: none;
      }

      .cls-7 {
        filter: url(#Rectangle_1257);
      }
    </style>
    <filter id="Rectangle_1257" x="0" y="0" width="300" height="300" filterUnits="userSpaceOnUse">
      <feOffset dy="13" input="SourceAlpha"/>
      <feGaussianBlur stdDeviation="12.5" result="blur"/>
      <feFlood flood-color="#665cd7" flood-opacity="0.059"/>
      <feComposite operator="in" in2="blur"/>
      <feComposite in="SourceGraphic"/>
    </filter>
  </defs>
  <g id="Group_5884" data-name="Group 5884" transform="translate(1991.5 8250.5)">
    <g class="cls-7" transform="matrix(1, 0, 0, 1, -1991.5, -8250.5)">
      <g id="Rectangle_1257-2" data-name="Rectangle 1257" class="cls-1" transform="translate(37.5 24.5)">
        <rect class="cls-5" width="225" height="225" rx="15"/>
        <rect class="cls-6" x="0.5" y="0.5" width="224" height="224" rx="14.5"/>
      </g>
    </g>
    <g id="Group_5881" data-name="Group 5881" transform="translate(13 1)">
      <text id="Design" class="cls-2" transform="translate(-1904 -8058)"><tspan x="0" y="0">Design</tspan></text>
      <g id="icons8-design" transform="translate(-1887.5 -8182.5)">
        <path id="Path_17521" data-name="Path 17521" class="cls-3" d="M6.5,59.271,10.975,43.6a3.006,3.006,0,0,1,.767-1.3L45.115,8.929A8.292,8.292,0,0,1,56.841,20.656L23.47,54.028a3.027,3.027,0,0,1-1.3.767Z" transform="translate(0 0)"/>
        <line id="Line_261" data-name="Line 261" class="cls-4" x2="10" y2="10" transform="translate(42.349 13.5)"/>
        <path id="Path_17522" data-name="Path 17522" class="cls-3" d="M19.8,31.409,7.35,18.954a2.9,2.9,0,0,1,0-4.1l7.5-7.5a2.9,2.9,0,0,1,4.1,0L31.409,19.8" transform="translate(0)"/>
        <path id="Path_17523" data-name="Path 17523" class="cls-3" d="M38.6,27l8.828,8.828a2.9,2.9,0,0,1,0,4.1l-7.5,7.5a2.9,2.9,0,0,1-4.1,0L27,38.6" transform="translate(11.238 11.238)"/>
        <line id="Line_262" data-name="Line 262" class="cls-4" y1="2.176" x2="2.176" transform="translate(20.09 10.126)"/>
        <line id="Line_263" data-name="Line 263" class="cls-4" y1="2.176" x2="2.176" transform="translate(26.13 16.315)"/>
        <line id="Line_264" data-name="Line 264" class="cls-4" y1="2.176" x2="2.176" transform="translate(53.469 43.495)"/>
      </g>
    </g>
  </g>
</svg>
