<svg xmlns="http://www.w3.org/2000/svg" width="261" height="269" viewBox="0 0 261 269"><defs><style>.a{fill:#ff616e;}.b{fill:#fff;}</style></defs><path class="a" d="M0,261V0H139.368V.3a130.505,130.505,0,0,1,0,260.407v.3Z" transform="translate(0 8)"/><g transform="translate(56 0)"><circle class="b" cx="1" cy="1" r="1"/><circle class="b" cx="1" cy="1" r="1" transform="translate(15)"/><circle class="b" cx="1" cy="1" r="1" transform="translate(28)"/><circle class="b" cx="1" cy="1" r="1" transform="translate(41)"/><circle class="b" cx="1" cy="1" r="1" transform="translate(55)"/><circle class="b" cx="1" cy="1" r="1" transform="translate(68)"/><circle class="b" cx="1" cy="1" r="1" transform="translate(81)"/><circle class="b" cx="1" cy="1" r="1" transform="translate(95)"/><circle class="b" cx="1" cy="1" r="1" transform="translate(108)"/><circle class="b" cx="1" cy="1" r="1" transform="translate(121)"/><circle class="b" cx="1" cy="1" r="1" transform="translate(135)"/><circle class="b" cx="1" cy="1" r="1" transform="translate(148)"/><circle class="b" cx="1" cy="1" r="1" transform="translate(162)"/><circle class="b" cx="1" cy="1" r="1" transform="translate(175)"/><circle class="b" cx="1" cy="1" r="1" transform="translate(188)"/><circle class="b" cx="1" cy="1" r="1" transform="translate(202)"/><circle class="b" cx="1.5" cy="1.5" r="1.5" transform="translate(0 13)"/><circle class="b" cx="1" cy="1" r="1" transform="translate(15 13)"/><circle class="b" cx="1" cy="1" r="1" transform="translate(28 13)"/><circle class="b" cx="1.5" cy="1.5" r="1.5" transform="translate(41 13)"/><circle class="b" cx="1" cy="1" r="1" transform="translate(55 13)"/><circle class="b" cx="1.5" cy="1.5" r="1.5" transform="translate(68 13)"/><circle class="b" cx="1.5" cy="1.5" r="1.5" transform="translate(81 13)"/><circle class="b" cx="1" cy="1" r="1" transform="translate(95 13)"/><circle class="b" cx="1.5" cy="1.5" r="1.5" transform="translate(108 13)"/><circle class="b" cx="1.5" cy="1.5" r="1.5" transform="translate(121 13)"/><circle class="b" cx="1" cy="1" r="1" transform="translate(135 13)"/><circle class="b" cx="1.5" cy="1.5" r="1.5" transform="translate(148 13)"/><circle class="b" cx="1" cy="1" r="1" transform="translate(162 13)"/><circle class="b" cx="1" cy="1" r="1" transform="translate(175 13)"/><circle class="b" cx="1.5" cy="1.5" r="1.5" transform="translate(188 13)"/><circle class="b" cx="1" cy="1" r="1" transform="translate(202 13)"/><circle class="b" cx="1" cy="1" r="1" transform="translate(0 27)"/><circle class="b" cx="1" cy="1" r="1" transform="translate(15 27)"/><circle class="b" cx="1" cy="1" r="1" transform="translate(28 27)"/><circle class="b" cx="1" cy="1" r="1" transform="translate(41 27)"/><circle class="b" cx="1" cy="1" r="1" transform="translate(55 27)"/><circle class="b" cx="1" cy="1" r="1" transform="translate(68 27)"/><circle class="b" cx="1" cy="1" r="1" transform="translate(81 27)"/><circle class="b" cx="1" cy="1" r="1" transform="translate(95 27)"/><circle class="b" cx="1" cy="1" r="1" transform="translate(108 27)"/><circle class="b" cx="1" cy="1" r="1" transform="translate(121 27)"/><circle class="b" cx="1" cy="1" r="1" transform="translate(135 27)"/><circle class="b" cx="1" cy="1" r="1" transform="translate(148 27)"/><circle class="b" cx="1" cy="1" r="1" transform="translate(162 27)"/><circle class="b" cx="1" cy="1" r="1" transform="translate(175 27)"/><circle class="b" cx="1" cy="1" r="1" transform="translate(188 27)"/><circle class="b" cx="1" cy="1" r="1" transform="translate(202 27)"/><circle class="b" cx="1" cy="1" r="1" transform="translate(0 40)"/><circle class="b" cx="1" cy="1" r="1" transform="translate(15 40)"/><circle class="b" cx="1" cy="1" r="1" transform="translate(28 40)"/><circle class="b" cx="1" cy="1" r="1" transform="translate(41 40)"/><circle class="b" cx="1" cy="1" r="1" transform="translate(55 40)"/><circle class="b" cx="1" cy="1" r="1" transform="translate(68 40)"/><circle class="b" cx="1" cy="1" r="1" transform="translate(81 40)"/><circle class="b" cx="1" cy="1" r="1" transform="translate(95 40)"/><circle class="b" cx="1" cy="1" r="1" transform="translate(108 40)"/><circle class="b" cx="1" cy="1" r="1" transform="translate(121 40)"/><circle class="b" cx="1" cy="1" r="1" transform="translate(135 40)"/><circle class="b" cx="1" cy="1" r="1" transform="translate(148 40)"/><circle class="b" cx="1" cy="1" r="1" transform="translate(162 40)"/><circle class="b" cx="1" cy="1" r="1" transform="translate(175 40)"/><circle class="b" cx="1" cy="1" r="1" transform="translate(188 40)"/><circle class="b" cx="1" cy="1" r="1" transform="translate(202 40)"/><circle class="b" cx="2" cy="2" r="2" transform="translate(0 53)"/><circle class="b" cx="1" cy="1" r="1" transform="translate(15 53)"/><circle class="b" cx="1" cy="1" r="1" transform="translate(28 53)"/><circle class="b" cx="1.5" cy="1.5" r="1.5" transform="translate(41 53)"/><circle class="b" cx="1" cy="1" r="1" transform="translate(55 53)"/><circle class="b" cx="1.5" cy="1.5" r="1.5" transform="translate(68 53)"/><circle class="b" cx="1.5" cy="1.5" r="1.5" transform="translate(81 53)"/><circle class="b" cx="1.5" cy="1.5" r="1.5" transform="translate(95 53)"/><circle class="b" cx="1.5" cy="1.5" r="1.5" transform="translate(108 53)"/><circle class="b" cx="2" cy="2" r="2" transform="translate(121 53)"/><circle class="b" cx="1.5" cy="1.5" r="1.5" transform="translate(135 53)"/><circle class="b" cx="2" cy="2" r="2" transform="translate(148 53)"/><circle class="b" cx="1.5" cy="1.5" r="1.5" transform="translate(162 53)"/><circle class="b" cx="1.5" cy="1.5" r="1.5" transform="translate(175 53)"/><circle class="b" cx="2" cy="2" r="2" transform="translate(188 53)"/><circle class="b" cx="1.5" cy="1.5" r="1.5" transform="translate(202 53)"/><circle class="b" cx="1.5" cy="1.5" r="1.5" transform="translate(0 67)"/><circle class="b" cx="1" cy="1" r="1" transform="translate(15 67)"/><circle class="b" cx="1" cy="1" r="1" transform="translate(28 67)"/><circle class="b" cx="1" cy="1" r="1" transform="translate(41 67)"/><circle class="b" cx="1" cy="1" r="1" transform="translate(55 67)"/><circle class="b" cx="1" cy="1" r="1" transform="translate(68 67)"/><circle class="b" cx="1" cy="1" r="1" transform="translate(81 67)"/><circle class="b" cx="1.5" cy="1.5" r="1.5" transform="translate(95 67)"/><circle class="b" cx="1.5" cy="1.5" r="1.5" transform="translate(108 67)"/><circle class="b" cx="1.5" cy="1.5" r="1.5" transform="translate(121 67)"/><circle class="b" cx="1.5" cy="1.5" r="1.5" transform="translate(135 67)"/><circle class="b" cx="1.5" cy="1.5" r="1.5" transform="translate(148 67)"/><circle class="b" cx="1.5" cy="1.5" r="1.5" transform="translate(162 67)"/><circle class="b" cx="1.5" cy="1.5" r="1.5" transform="translate(175 67)"/><circle class="b" cx="1.5" cy="1.5" r="1.5" transform="translate(188 67)"/><circle class="b" cx="1.5" cy="1.5" r="1.5" transform="translate(202 67)"/><circle class="b" cx="1.5" cy="1.5" r="1.5" transform="translate(0 80)"/><circle class="b" cx="1" cy="1" r="1" transform="translate(15 80)"/><circle class="b" cx="1" cy="1" r="1" transform="translate(28 80)"/><circle class="b" cx="1.5" cy="1.5" r="1.5" transform="translate(41 80)"/><circle class="b" cx="1" cy="1" r="1" transform="translate(55 80)"/><circle class="b" cx="1.5" cy="1.5" r="1.5" transform="translate(68 80)"/><circle class="b" cx="1.5" cy="1.5" r="1.5" transform="translate(81 80)"/><circle class="b" cx="1.5" cy="1.5" r="1.5" transform="translate(95 80)"/><circle class="b" cx="1.5" cy="1.5" r="1.5" transform="translate(108 80)"/><circle class="b" cx="1.5" cy="1.5" r="1.5" transform="translate(121 80)"/><circle class="b" cx="1.5" cy="1.5" r="1.5" transform="translate(135 80)"/><circle class="b" cx="1.5" cy="1.5" r="1.5" transform="translate(148 80)"/><circle class="b" cx="1.5" cy="1.5" r="1.5" transform="translate(162 80)"/><circle class="b" cx="1.5" cy="1.5" r="1.5" transform="translate(175 80)"/><circle class="b" cx="1.5" cy="1.5" r="1.5" transform="translate(188 80)"/><circle class="b" cx="1.5" cy="1.5" r="1.5" transform="translate(202 80)"/><circle class="b" cx="2" cy="2" r="2" transform="translate(0 93)"/><circle class="b" cx="1" cy="1" r="1" transform="translate(15 93)"/><circle class="b" cx="1" cy="1" r="1" transform="translate(28 93)"/><circle class="b" cx="1.5" cy="1.5" r="1.5" transform="translate(41 93)"/><circle class="b" cx="1" cy="1" r="1" transform="translate(55 93)"/><circle class="b" cx="1.5" cy="1.5" r="1.5" transform="translate(68 93)"/><circle class="b" cx="1.5" cy="1.5" r="1.5" transform="translate(81 93)"/><circle class="b" cx="1.5" cy="1.5" r="1.5" transform="translate(95 93)"/><circle class="b" cx="1.5" cy="1.5" r="1.5" transform="translate(108 93)"/><circle class="b" cx="2" cy="2" r="2" transform="translate(121 93)"/><circle class="b" cx="1.5" cy="1.5" r="1.5" transform="translate(135 93)"/><circle class="b" cx="2" cy="2" r="2" transform="translate(148 93)"/><circle class="b" cx="1.5" cy="1.5" r="1.5" transform="translate(162 93)"/><circle class="b" cx="1.5" cy="1.5" r="1.5" transform="translate(175 93)"/><circle class="b" cx="2" cy="2" r="2" transform="translate(188 93)"/><circle class="b" cx="1.5" cy="1.5" r="1.5" transform="translate(202 93)"/><circle class="b" cx="1.5" cy="1.5" r="1.5" transform="translate(0 107)"/><circle class="b" cx="1" cy="1" r="1" transform="translate(15 107)"/><circle class="b" cx="1" cy="1" r="1" transform="translate(28 107)"/><circle class="b" cx="1" cy="1" r="1" transform="translate(41 107)"/><circle class="b" cx="1" cy="1" r="1" transform="translate(55 107)"/><circle class="b" cx="1" cy="1" r="1" transform="translate(68 107)"/><circle class="b" cx="1" cy="1" r="1" transform="translate(81 107)"/><circle class="b" cx="1.5" cy="1.5" r="1.5" transform="translate(95 107)"/><circle class="b" cx="1.5" cy="1.5" r="1.5" transform="translate(108 107)"/><circle class="b" cx="1.5" cy="1.5" r="1.5" transform="translate(121 107)"/><circle class="b" cx="1.5" cy="1.5" r="1.5" transform="translate(135 107)"/><circle class="b" cx="1.5" cy="1.5" r="1.5" transform="translate(148 107)"/><circle class="b" cx="1.5" cy="1.5" r="1.5" transform="translate(162 107)"/><circle class="b" cx="1.5" cy="1.5" r="1.5" transform="translate(175 107)"/><circle class="b" cx="1.5" cy="1.5" r="1.5" transform="translate(188 107)"/><circle class="b" cx="1.5" cy="1.5" r="1.5" transform="translate(202 107)"/><circle class="b" cx="2" cy="2" r="2" transform="translate(0 120)"/><circle class="b" cx="1" cy="1" r="1" transform="translate(15 120)"/><circle class="b" cx="1" cy="1" r="1" transform="translate(28 120)"/><circle class="b" cx="1.5" cy="1.5" r="1.5" transform="translate(41 120)"/><circle class="b" cx="1" cy="1" r="1" transform="translate(55 120)"/><circle class="b" cx="1.5" cy="1.5" r="1.5" transform="translate(68 120)"/><circle class="b" cx="1.5" cy="1.5" r="1.5" transform="translate(81 120)"/><circle class="b" cx="1.5" cy="1.5" r="1.5" transform="translate(95 120)"/><circle class="b" cx="1.5" cy="1.5" r="1.5" transform="translate(108 120)"/><circle class="b" cx="2" cy="2" r="2" transform="translate(121 120)"/><circle class="b" cx="1.5" cy="1.5" r="1.5" transform="translate(135 120)"/><circle class="b" cx="2" cy="2" r="2" transform="translate(148 120)"/><circle class="b" cx="1.5" cy="1.5" r="1.5" transform="translate(162 120)"/><circle class="b" cx="1.5" cy="1.5" r="1.5" transform="translate(175 120)"/><circle class="b" cx="2" cy="2" r="2" transform="translate(188 120)"/><circle class="b" cx="1.5" cy="1.5" r="1.5" transform="translate(202 120)"/><circle class="b" cx="1.5" cy="1.5" r="1.5" transform="translate(0 134)"/><circle class="b" cx="1" cy="1" r="1" transform="translate(15 134)"/><circle class="b" cx="1" cy="1" r="1" transform="translate(28 134)"/><circle class="b" cx="1" cy="1" r="1" transform="translate(41 134)"/><circle class="b" cx="1" cy="1" r="1" transform="translate(55 134)"/><circle class="b" cx="1" cy="1" r="1" transform="translate(68 134)"/><circle class="b" cx="1" cy="1" r="1" transform="translate(81 134)"/><circle class="b" cx="1.5" cy="1.5" r="1.5" transform="translate(95 134)"/><circle class="b" cx="1.5" cy="1.5" r="1.5" transform="translate(108 134)"/><circle class="b" cx="1.5" cy="1.5" r="1.5" transform="translate(121 134)"/><circle class="b" cx="1.5" cy="1.5" r="1.5" transform="translate(135 134)"/><circle class="b" cx="1.5" cy="1.5" r="1.5" transform="translate(148 134)"/><circle class="b" cx="1.5" cy="1.5" r="1.5" transform="translate(162 134)"/><circle class="b" cx="1.5" cy="1.5" r="1.5" transform="translate(175 134)"/><circle class="b" cx="1.5" cy="1.5" r="1.5" transform="translate(188 134)"/><circle class="b" cx="1.5" cy="1.5" r="1.5" transform="translate(202 134)"/><circle class="b" cx="1.5" cy="1.5" r="1.5" transform="translate(0 147)"/><circle class="b" cx="1" cy="1" r="1" transform="translate(15 147)"/><circle class="b" cx="1" cy="1" r="1" transform="translate(28 147)"/><circle class="b" cx="1" cy="1" r="1" transform="translate(41 147)"/><circle class="b" cx="1" cy="1" r="1" transform="translate(55 147)"/><circle class="b" cx="1" cy="1" r="1" transform="translate(68 147)"/><circle class="b" cx="1" cy="1" r="1" transform="translate(81 147)"/><circle class="b" cx="1.5" cy="1.5" r="1.5" transform="translate(95 147)"/><circle class="b" cx="1.5" cy="1.5" r="1.5" transform="translate(108 147)"/><circle class="b" cx="1.5" cy="1.5" r="1.5" transform="translate(121 147)"/><circle class="b" cx="1.5" cy="1.5" r="1.5" transform="translate(135 147)"/><circle class="b" cx="1.5" cy="1.5" r="1.5" transform="translate(148 147)"/><circle class="b" cx="1.5" cy="1.5" r="1.5" transform="translate(162 147)"/><circle class="b" cx="1.5" cy="1.5" r="1.5" transform="translate(175 147)"/><circle class="b" cx="1.5" cy="1.5" r="1.5" transform="translate(188 147)"/><circle class="b" cx="1.5" cy="1.5" r="1.5" transform="translate(202 147)"/></g></svg>