<svg xmlns="http://www.w3.org/2000/svg" width="320" height="236" viewBox="0 0 320 236"><defs><style>.a{fill:#ff616e;}</style></defs><g transform="translate(-1407 -552)"><circle class="a" cx="2.5" cy="2.5" r="2.5" transform="translate(1407 552)"/><circle class="a" cx="2.5" cy="2.5" r="2.5" transform="translate(1428 552)"/><circle class="a" cx="2.5" cy="2.5" r="2.5" transform="translate(1449 552)"/><circle class="a" cx="2.5" cy="2.5" r="2.5" transform="translate(1470 552)"/><circle class="a" cx="2.5" cy="2.5" r="2.5" transform="translate(1491 552)"/><circle class="a" cx="2.5" cy="2.5" r="2.5" transform="translate(1512 552)"/><circle class="a" cx="2.5" cy="2.5" r="2.5" transform="translate(1533 552)"/><circle class="a" cx="2.5" cy="2.5" r="2.5" transform="translate(1554 552)"/><circle class="a" cx="2.5" cy="2.5" r="2.5" transform="translate(1575 552)"/><circle class="a" cx="2.5" cy="2.5" r="2.5" transform="translate(1596 552)"/><circle class="a" cx="2.5" cy="2.5" r="2.5" transform="translate(1617 552)"/><circle class="a" cx="2.5" cy="2.5" r="2.5" transform="translate(1638 552)"/><circle class="a" cx="2.5" cy="2.5" r="2.5" transform="translate(1659 552)"/><circle class="a" cx="2.5" cy="2.5" r="2.5" transform="translate(1680 552)"/><circle class="a" cx="2.5" cy="2.5" r="2.5" transform="translate(1701 552)"/><circle class="a" cx="2.5" cy="2.5" r="2.5" transform="translate(1722 552)"/><circle class="a" cx="2.5" cy="2.5" r="2.5" transform="translate(1407 573)"/><circle class="a" cx="2.5" cy="2.5" r="2.5" transform="translate(1428 573)"/><circle class="a" cx="2.5" cy="2.5" r="2.5" transform="translate(1449 573)"/><circle class="a" cx="2.5" cy="2.5" r="2.5" transform="translate(1470 573)"/><circle class="a" cx="2.5" cy="2.5" r="2.5" transform="translate(1491 573)"/><circle class="a" cx="2.5" cy="2.5" r="2.5" transform="translate(1512 573)"/><circle class="a" cx="2.5" cy="2.5" r="2.5" transform="translate(1533 573)"/><circle class="a" cx="2.5" cy="2.5" r="2.5" transform="translate(1554 573)"/><circle class="a" cx="2.5" cy="2.5" r="2.5" transform="translate(1575 573)"/><circle class="a" cx="2.5" cy="2.5" r="2.5" transform="translate(1596 573)"/><circle class="a" cx="2.5" cy="2.5" r="2.5" transform="translate(1617 573)"/><circle class="a" cx="2.5" cy="2.5" r="2.5" transform="translate(1638 573)"/><circle class="a" cx="2.5" cy="2.5" r="2.5" transform="translate(1659 573)"/><circle class="a" cx="2.5" cy="2.5" r="2.5" transform="translate(1680 573)"/><circle class="a" cx="2.5" cy="2.5" r="2.5" transform="translate(1701 573)"/><circle class="a" cx="2.5" cy="2.5" r="2.5" transform="translate(1722 573)"/><circle class="a" cx="2.5" cy="2.5" r="2.5" transform="translate(1407 594)"/><circle class="a" cx="2.5" cy="2.5" r="2.5" transform="translate(1428 594)"/><circle class="a" cx="2.5" cy="2.5" r="2.5" transform="translate(1449 594)"/><circle class="a" cx="2.5" cy="2.5" r="2.5" transform="translate(1470 594)"/><circle class="a" cx="2.5" cy="2.5" r="2.5" transform="translate(1491 594)"/><circle class="a" cx="2.5" cy="2.5" r="2.5" transform="translate(1512 594)"/><circle class="a" cx="2.5" cy="2.5" r="2.5" transform="translate(1533 594)"/><circle class="a" cx="2.5" cy="2.5" r="2.5" transform="translate(1554 594)"/><circle class="a" cx="2.5" cy="2.5" r="2.5" transform="translate(1575 594)"/><circle class="a" cx="2.5" cy="2.5" r="2.5" transform="translate(1596 594)"/><circle class="a" cx="2.5" cy="2.5" r="2.5" transform="translate(1617 594)"/><circle class="a" cx="2.5" cy="2.5" r="2.5" transform="translate(1638 594)"/><circle class="a" cx="2.5" cy="2.5" r="2.5" transform="translate(1659 594)"/><circle class="a" cx="2.5" cy="2.5" r="2.5" transform="translate(1680 594)"/><circle class="a" cx="2.5" cy="2.5" r="2.5" transform="translate(1701 594)"/><circle class="a" cx="2.5" cy="2.5" r="2.5" transform="translate(1722 594)"/><circle class="a" cx="2.5" cy="2.5" r="2.5" transform="translate(1407 615)"/><circle class="a" cx="2.5" cy="2.5" r="2.5" transform="translate(1428 615)"/><circle class="a" cx="2.5" cy="2.5" r="2.5" transform="translate(1449 615)"/><circle class="a" cx="2.5" cy="2.5" r="2.5" transform="translate(1470 615)"/><circle class="a" cx="2.5" cy="2.5" r="2.5" transform="translate(1491 615)"/><circle class="a" cx="2.5" cy="2.5" r="2.5" transform="translate(1512 615)"/><circle class="a" cx="2.5" cy="2.5" r="2.5" transform="translate(1533 615)"/><circle class="a" cx="2.5" cy="2.5" r="2.5" transform="translate(1554 615)"/><circle class="a" cx="2.5" cy="2.5" r="2.5" transform="translate(1575 615)"/><circle class="a" cx="2.5" cy="2.5" r="2.5" transform="translate(1596 615)"/><circle class="a" cx="2.5" cy="2.5" r="2.5" transform="translate(1617 615)"/><circle class="a" cx="2.5" cy="2.5" r="2.5" transform="translate(1638 615)"/><circle class="a" cx="2.5" cy="2.5" r="2.5" transform="translate(1659 615)"/><circle class="a" cx="2.5" cy="2.5" r="2.5" transform="translate(1680 615)"/><circle class="a" cx="2.5" cy="2.5" r="2.5" transform="translate(1701 615)"/><circle class="a" cx="2.5" cy="2.5" r="2.5" transform="translate(1722 615)"/><circle class="a" cx="2.5" cy="2.5" r="2.5" transform="translate(1407 636)"/><circle class="a" cx="2.5" cy="2.5" r="2.5" transform="translate(1428 636)"/><circle class="a" cx="2.5" cy="2.5" r="2.5" transform="translate(1449 636)"/><circle class="a" cx="2.5" cy="2.5" r="2.5" transform="translate(1470 636)"/><circle class="a" cx="2.5" cy="2.5" r="2.5" transform="translate(1491 636)"/><circle class="a" cx="2.5" cy="2.5" r="2.5" transform="translate(1512 636)"/><circle class="a" cx="2.5" cy="2.5" r="2.5" transform="translate(1533 636)"/><circle class="a" cx="2.5" cy="2.5" r="2.5" transform="translate(1554 636)"/><circle class="a" cx="2.5" cy="2.5" r="2.5" transform="translate(1575 636)"/><circle class="a" cx="2.5" cy="2.5" r="2.5" transform="translate(1596 636)"/><circle class="a" cx="2.5" cy="2.5" r="2.5" transform="translate(1617 636)"/><circle class="a" cx="2.5" cy="2.5" r="2.5" transform="translate(1638 636)"/><circle class="a" cx="2.5" cy="2.5" r="2.5" transform="translate(1659 636)"/><circle class="a" cx="2.5" cy="2.5" r="2.5" transform="translate(1680 636)"/><circle class="a" cx="2.5" cy="2.5" r="2.5" transform="translate(1701 636)"/><circle class="a" cx="2.5" cy="2.5" r="2.5" transform="translate(1722 636)"/><circle class="a" cx="2.5" cy="2.5" r="2.5" transform="translate(1407 657)"/><circle class="a" cx="2.5" cy="2.5" r="2.5" transform="translate(1428 657)"/><circle class="a" cx="2.5" cy="2.5" r="2.5" transform="translate(1449 657)"/><circle class="a" cx="2.5" cy="2.5" r="2.5" transform="translate(1470 657)"/><circle class="a" cx="2.5" cy="2.5" r="2.5" transform="translate(1491 657)"/><circle class="a" cx="2.5" cy="2.5" r="2.5" transform="translate(1512 657)"/><circle class="a" cx="2.5" cy="2.5" r="2.5" transform="translate(1533 657)"/><circle class="a" cx="2.5" cy="2.5" r="2.5" transform="translate(1554 657)"/><circle class="a" cx="2.5" cy="2.5" r="2.5" transform="translate(1575 657)"/><circle class="a" cx="2.5" cy="2.5" r="2.5" transform="translate(1596 657)"/><circle class="a" cx="2.5" cy="2.5" r="2.5" transform="translate(1617 657)"/><circle class="a" cx="2.5" cy="2.5" r="2.5" transform="translate(1638 657)"/><circle class="a" cx="2.5" cy="2.5" r="2.5" transform="translate(1659 657)"/><circle class="a" cx="2.5" cy="2.5" r="2.5" transform="translate(1680 657)"/><circle class="a" cx="2.5" cy="2.5" r="2.5" transform="translate(1701 657)"/><circle class="a" cx="2.5" cy="2.5" r="2.5" transform="translate(1722 657)"/><circle class="a" cx="2.5" cy="2.5" r="2.5" transform="translate(1407 678)"/><circle class="a" cx="2.5" cy="2.5" r="2.5" transform="translate(1428 678)"/><circle class="a" cx="2.5" cy="2.5" r="2.5" transform="translate(1449 678)"/><circle class="a" cx="2.5" cy="2.5" r="2.5" transform="translate(1470 678)"/><circle class="a" cx="2.5" cy="2.5" r="2.5" transform="translate(1491 678)"/><circle class="a" cx="2.5" cy="2.5" r="2.5" transform="translate(1512 678)"/><circle class="a" cx="2.5" cy="2.5" r="2.5" transform="translate(1533 678)"/><circle class="a" cx="2.5" cy="2.5" r="2.5" transform="translate(1554 678)"/><circle class="a" cx="2.5" cy="2.5" r="2.5" transform="translate(1575 678)"/><circle class="a" cx="2.5" cy="2.5" r="2.5" transform="translate(1596 678)"/><circle class="a" cx="2.5" cy="2.5" r="2.5" transform="translate(1617 678)"/><circle class="a" cx="2.5" cy="2.5" r="2.5" transform="translate(1638 678)"/><circle class="a" cx="2.5" cy="2.5" r="2.5" transform="translate(1659 678)"/><circle class="a" cx="2.5" cy="2.5" r="2.5" transform="translate(1680 678)"/><circle class="a" cx="2.5" cy="2.5" r="2.5" transform="translate(1701 678)"/><circle class="a" cx="2.5" cy="2.5" r="2.5" transform="translate(1722 678)"/><circle class="a" cx="2.5" cy="2.5" r="2.5" transform="translate(1407 699)"/><circle class="a" cx="2.5" cy="2.5" r="2.5" transform="translate(1428 699)"/><circle class="a" cx="2.5" cy="2.5" r="2.5" transform="translate(1449 699)"/><circle class="a" cx="2.5" cy="2.5" r="2.5" transform="translate(1470 699)"/><circle class="a" cx="2.5" cy="2.5" r="2.5" transform="translate(1491 699)"/><circle class="a" cx="2.5" cy="2.5" r="2.5" transform="translate(1512 699)"/><circle class="a" cx="2.5" cy="2.5" r="2.5" transform="translate(1533 699)"/><circle class="a" cx="2.5" cy="2.5" r="2.5" transform="translate(1554 699)"/><circle class="a" cx="2.5" cy="2.5" r="2.5" transform="translate(1575 699)"/><circle class="a" cx="2.5" cy="2.5" r="2.5" transform="translate(1596 699)"/><circle class="a" cx="2.5" cy="2.5" r="2.5" transform="translate(1617 699)"/><circle class="a" cx="2.5" cy="2.5" r="2.5" transform="translate(1638 699)"/><circle class="a" cx="2.5" cy="2.5" r="2.5" transform="translate(1659 699)"/><circle class="a" cx="2.5" cy="2.5" r="2.5" transform="translate(1680 699)"/><circle class="a" cx="2.5" cy="2.5" r="2.5" transform="translate(1701 699)"/><circle class="a" cx="2.5" cy="2.5" r="2.5" transform="translate(1722 699)"/><circle class="a" cx="2.5" cy="2.5" r="2.5" transform="translate(1407 720)"/><circle class="a" cx="2.5" cy="2.5" r="2.5" transform="translate(1428 720)"/><circle class="a" cx="2.5" cy="2.5" r="2.5" transform="translate(1449 720)"/><circle class="a" cx="2.5" cy="2.5" r="2.5" transform="translate(1470 720)"/><circle class="a" cx="2.5" cy="2.5" r="2.5" transform="translate(1491 720)"/><circle class="a" cx="2.5" cy="2.5" r="2.5" transform="translate(1512 720)"/><circle class="a" cx="2.5" cy="2.5" r="2.5" transform="translate(1533 720)"/><circle class="a" cx="2.5" cy="2.5" r="2.5" transform="translate(1554 720)"/><circle class="a" cx="2.5" cy="2.5" r="2.5" transform="translate(1575 720)"/><circle class="a" cx="2.5" cy="2.5" r="2.5" transform="translate(1596 720)"/><circle class="a" cx="2.5" cy="2.5" r="2.5" transform="translate(1617 720)"/><circle class="a" cx="2.5" cy="2.5" r="2.5" transform="translate(1638 720)"/><circle class="a" cx="2.5" cy="2.5" r="2.5" transform="translate(1659 720)"/><circle class="a" cx="2.5" cy="2.5" r="2.5" transform="translate(1680 720)"/><circle class="a" cx="2.5" cy="2.5" r="2.5" transform="translate(1701 720)"/><circle class="a" cx="2.5" cy="2.5" r="2.5" transform="translate(1722 720)"/><circle class="a" cx="2.5" cy="2.5" r="2.5" transform="translate(1407 741)"/><circle class="a" cx="2.5" cy="2.5" r="2.5" transform="translate(1428 741)"/><circle class="a" cx="2.5" cy="2.5" r="2.5" transform="translate(1449 741)"/><circle class="a" cx="2.5" cy="2.5" r="2.5" transform="translate(1470 741)"/><circle class="a" cx="2.5" cy="2.5" r="2.5" transform="translate(1491 741)"/><circle class="a" cx="2.5" cy="2.5" r="2.5" transform="translate(1512 741)"/><circle class="a" cx="2.5" cy="2.5" r="2.5" transform="translate(1533 741)"/><circle class="a" cx="2.5" cy="2.5" r="2.5" transform="translate(1554 741)"/><circle class="a" cx="2.5" cy="2.5" r="2.5" transform="translate(1575 741)"/><circle class="a" cx="2.5" cy="2.5" r="2.5" transform="translate(1596 741)"/><circle class="a" cx="2.5" cy="2.5" r="2.5" transform="translate(1617 741)"/><circle class="a" cx="2.5" cy="2.5" r="2.5" transform="translate(1638 741)"/><circle class="a" cx="2.5" cy="2.5" r="2.5" transform="translate(1659 741)"/><circle class="a" cx="2.5" cy="2.5" r="2.5" transform="translate(1680 741)"/><circle class="a" cx="2.5" cy="2.5" r="2.5" transform="translate(1701 741)"/><circle class="a" cx="2.5" cy="2.5" r="2.5" transform="translate(1722 741)"/><circle class="a" cx="2.5" cy="2.5" r="2.5" transform="translate(1407 762)"/><circle class="a" cx="2.5" cy="2.5" r="2.5" transform="translate(1428 762)"/><circle class="a" cx="2.5" cy="2.5" r="2.5" transform="translate(1449 762)"/><circle class="a" cx="2.5" cy="2.5" r="2.5" transform="translate(1470 762)"/><circle class="a" cx="2.5" cy="2.5" r="2.5" transform="translate(1491 762)"/><circle class="a" cx="2.5" cy="2.5" r="2.5" transform="translate(1512 762)"/><circle class="a" cx="2.5" cy="2.5" r="2.5" transform="translate(1533 762)"/><circle class="a" cx="2.5" cy="2.5" r="2.5" transform="translate(1554 762)"/><circle class="a" cx="2.5" cy="2.5" r="2.5" transform="translate(1575 762)"/><circle class="a" cx="2.5" cy="2.5" r="2.5" transform="translate(1596 762)"/><circle class="a" cx="2.5" cy="2.5" r="2.5" transform="translate(1617 762)"/><circle class="a" cx="2.5" cy="2.5" r="2.5" transform="translate(1638 762)"/><circle class="a" cx="2.5" cy="2.5" r="2.5" transform="translate(1659 762)"/><circle class="a" cx="2.5" cy="2.5" r="2.5" transform="translate(1680 762)"/><circle class="a" cx="2.5" cy="2.5" r="2.5" transform="translate(1701 762)"/><circle class="a" cx="2.5" cy="2.5" r="2.5" transform="translate(1722 762)"/><circle class="a" cx="2.5" cy="2.5" r="2.5" transform="translate(1407 783)"/><circle class="a" cx="2.5" cy="2.5" r="2.5" transform="translate(1428 783)"/><circle class="a" cx="2.5" cy="2.5" r="2.5" transform="translate(1449 783)"/><circle class="a" cx="2.5" cy="2.5" r="2.5" transform="translate(1470 783)"/><circle class="a" cx="2.5" cy="2.5" r="2.5" transform="translate(1491 783)"/><circle class="a" cx="2.5" cy="2.5" r="2.5" transform="translate(1512 783)"/><circle class="a" cx="2.5" cy="2.5" r="2.5" transform="translate(1533 783)"/><circle class="a" cx="2.5" cy="2.5" r="2.5" transform="translate(1554 783)"/><circle class="a" cx="2.5" cy="2.5" r="2.5" transform="translate(1575 783)"/><circle class="a" cx="2.5" cy="2.5" r="2.5" transform="translate(1596 783)"/><circle class="a" cx="2.5" cy="2.5" r="2.5" transform="translate(1617 783)"/><circle class="a" cx="2.5" cy="2.5" r="2.5" transform="translate(1638 783)"/><circle class="a" cx="2.5" cy="2.5" r="2.5" transform="translate(1659 783)"/><circle class="a" cx="2.5" cy="2.5" r="2.5" transform="translate(1680 783)"/><circle class="a" cx="2.5" cy="2.5" r="2.5" transform="translate(1701 783)"/><circle class="a" cx="2.5" cy="2.5" r="2.5" transform="translate(1722 783)"/></g></svg>