<svg xmlns="http://www.w3.org/2000/svg" width="75.16" height="55" viewBox="0 0 75.16 55">
  <defs>
    <style>
      .cls-1 {
        fill: #665cd7;
      }
    </style>
  </defs>
  <g id="Group_4873" data-name="Group 4873" transform="translate(0 55) rotate(-90)">
    <g id="Group_4859" data-name="Group 4859" transform="translate(0 0)">
      <path id="Path_11148" data-name="Path 11148" class="cls-1" d="M54.679,0A176.686,176.686,0,0,0,23.612,2.756c-4.658.835-9.941,2.007-13.694,5.386C6.56,11.166,5.039,15.428,3.769,19.534,1.9,25.588.145,32.125.008,38.9c-.1,5.14.758,12.617,5.45,19.042,3.778,5.177,9.8,9.343,17.906,12.384,11.093,4.163,17.575,5.926,29.045,4.133l-.282-1.547c-11.044,1.727-17.336.009-28.127-4.04C16.214,65.952,10.448,61.98,6.861,57.066,2.418,50.98,1.6,43.846,1.7,38.932c.133-6.6,1.855-13.014,3.7-18.966,1.207-3.9,2.641-7.944,5.7-10.7,3.418-3.077,8.416-4.18,12.835-4.971A174.817,174.817,0,0,1,54.679,1.57H55L55,0Z" transform="translate(0 0)"/>
    </g>
    <g id="Group_4860" data-name="Group 4860" transform="translate(4.532 4.723)">
      <path id="Path_11149" data-name="Path 11149" class="cls-1" d="M42.273,0C32.586,0,23.617,2.15,16.466,6.258,6,12.27-.453,22.733.025,32.914a24.892,24.892,0,0,0,5.033,13.7,33.82,33.82,0,0,0,7.136,6.821,51.716,51.716,0,0,0,35.969,9.343l-.207-1.557a49.9,49.9,0,0,1-34.7-9.013,32.22,32.22,0,0,1-6.8-6.49A23.388,23.388,0,0,1,1.732,32.847C1.28,23.22,7.42,13.306,17.372,7.589c8.651-4.97,20.105-6.96,32.256-5.605L49.834.426A68.172,68.172,0,0,0,42.273,0Z" transform="translate(0 0)"/>
    </g>
    <g id="Group_4861" data-name="Group 4861" transform="translate(17.114 9.83)">
      <path id="Path_11150" data-name="Path 11150" class="cls-1" d="M32.019,0a56.266,56.266,0,0,0-9.383.65,24.716,24.716,0,0,0-12.522,5.53C5.889,9.924,3.663,15.4,2.356,19.191-.723,28.125-.784,35.481,2.173,41.056c2.633,4.966,7.985,8.815,14.682,10.559,5.926,1.543,12.092,1.426,18.061,1.3a.613.613,0,0,0,.349.114V51.982a.43.43,0,0,1,.247.073.769.769,0,0,0-.459-.19c-5.948.128-12.1.258-17.935-1.262C10.7,48.932,5.594,45.274,3.1,40.566.282,35.257.365,28.18,3.346,19.531c1.269-3.68,3.422-8.988,7.463-12.569a23.7,23.7,0,0,1,12-5.281A72.888,72.888,0,0,1,36.257,1.1L36.276.052C34.869.026,33.447,0,32.019,0Z" transform="translate(0 0)"/>
    </g>
    <g id="Group_4862" data-name="Group 4862" transform="translate(24.321 13.229)">
      <path id="Path_11151" data-name="Path 11151" class="cls-1" d="M21.359,0A35.322,35.322,0,0,0,16.31.329,19.009,19.009,0,0,0,5.774,5.079,18.773,18.773,0,0,0,.843,14.764a55.065,55.065,0,0,0-.83,10.771c-.049,4.4-.115,10.422,3.026,14.8,2.4,3.346,6.658,5.6,11.683,6.19,4.467.523,8.931-.2,13.247-.9L27.8,44.591c-4.246.689-8.635,1.4-12.958.894-4.733-.555-8.725-2.654-10.954-5.761C1.168,35.934,1,31.061,1.059,25.547A54.22,54.22,0,0,1,1.867,14.98,17.737,17.737,0,0,1,6.5,5.829a17.98,17.98,0,0,1,9.954-4.465A54.254,54.254,0,0,1,27.75,1.33L27.819.286C25.7.144,23.531,0,21.359,0Z" transform="translate(0 0)"/>
    </g>
    <g id="Group_4863" data-name="Group 4863" transform="translate(28.822 18.694)">
      <path id="Path_11152" data-name="Path 11152" class="cls-1" d="M22.723,0a60.3,60.3,0,0,0-14.6,1.972,10.576,10.576,0,0,0-5.3,2.676C1.3,6.317.881,8.6.558,11-.182,16.5-.7,22.768,2.514,27.5a16.265,16.265,0,0,0,9.6,6.2,47.343,47.343,0,0,0,11.357,1.023l.009-1.046a46.562,46.562,0,0,1-11.107-.99,15.233,15.233,0,0,1-9-5.771C.37,22.485.881,16.447,1.6,11.135c.3-2.222.677-4.335,2-5.781a9.64,9.64,0,0,1,4.8-2.37A59.269,59.269,0,0,1,22.736,1.046Z" transform="translate(0)"/>
    </g>
    <g id="Group_4864" data-name="Group 4864" transform="translate(32.051 23.582)">
      <path id="Path_11153" data-name="Path 11153" class="cls-1" d="M19.242,0A48.04,48.04,0,0,0,9.965,2.028a16.446,16.446,0,0,0-7.841,5.5A10.16,10.16,0,0,0,.546,16.925a10.8,10.8,0,0,0,4.384,5.1,24.071,24.071,0,0,0,6.108,2.585,67.23,67.23,0,0,0,9.544,2.11l.151-1.036a66.265,66.265,0,0,1-9.4-2.077,23.137,23.137,0,0,1-5.843-2.465,9.77,9.77,0,0,1-3.969-4.59A9.1,9.1,0,0,1,2.97,8.146a15.411,15.411,0,0,1,7.35-5.134A47.3,47.3,0,0,1,19.4,1.034Z" transform="translate(0 0)"/>
    </g>
    <g id="Group_4865" data-name="Group 4865" transform="translate(37.674 28.265)">
      <path id="Path_11154" data-name="Path 11154" class="cls-1" d="M12.223,0A12.721,12.721,0,0,0,.67,7.785a7.4,7.4,0,0,0-.317,5.237,7.73,7.73,0,0,0,4.158,4,15.834,15.834,0,0,0,8.639,1.419l-.126-1.038a14.79,14.79,0,0,1-8.061-1.324,6.911,6.911,0,0,1-3.63-3.426,6.389,6.389,0,0,1,.309-4.483A11.616,11.616,0,0,1,12.787,1.062L12.844.017C12.637.005,12.429,0,12.223,0Z" transform="translate(0)"/>
    </g>
    <g id="Group_4866" data-name="Group 4866" transform="translate(43.246 29.82)">
      <path id="Path_11155" data-name="Path 11155" class="cls-1" d="M7.008,0l-3.7,2.728A12.294,12.294,0,0,0,1.163,4.582,4.513,4.513,0,0,0,0,7.368,4.487,4.487,0,0,0,2.089,11a12.392,12.392,0,0,0,3.7,1.539l.292-1a11.466,11.466,0,0,1-3.393-1.392A3.548,3.548,0,0,1,1.047,7.385a3.471,3.471,0,0,1,.912-2.124,11.472,11.472,0,0,1,1.967-1.69L7.628.843Z" transform="translate(0)"/>
    </g>
    <g id="Group_4867" data-name="Group 4867" transform="translate(46.916 33.342)">
      <path id="Path_11156" data-name="Path 11156" class="cls-1" d="M5.505,0A7.844,7.844,0,0,0,1.852,1.094,3.845,3.845,0,0,0,.019,4.608a2.878,2.878,0,0,0,1.223,2A2.362,2.362,0,0,0,3.175,7a2.1,2.1,0,0,1,.91.091,4.13,4.13,0,0,0,.942.142V6.19a3.293,3.293,0,0,1-.7-.115,2.948,2.948,0,0,0-1.4-.087,1.333,1.333,0,0,1-1.084-.241,1.848,1.848,0,0,1-.78-1.256A2.862,2.862,0,0,1,2.43,1.966,6.659,6.659,0,0,1,5.6,1.042Z" transform="translate(0)"/>
    </g>
  </g>
</svg>
