<svg xmlns="http://www.w3.org/2000/svg" width="699.324" height="296.603" viewBox="0 0 699.324 296.603"><defs><style>.a{fill:#3f3d56;}.b{fill:#fff;}.c{fill:#78fff1;}.d{fill:#2f2e41;}.e{fill:#ccc;}.f{fill:#ff6495;}.g{fill:#31b198;}.h{fill:#e6e6e6;}</style></defs><g transform="translate(0 0)"><path class="a" d="M816.79,568.695H473.914a.95.95,0,0,1-.95-.95V343.593a.95.95,0,1,1,1.9,0V566.8H816.79a.95.95,0,0,1,0,1.9Z" transform="translate(-229.634 -282.726)"/><path class="a" d="M816.79,562.587H473.914a.95.95,0,0,1,0-1.9H816.79a.95.95,0,0,1,0,1.9Z" transform="translate(-229.634 -321.259)"/><path class="a" d="M817.367,518.748H474.491a.95.95,0,0,1,0-1.9H817.367a.95.95,0,1,1,0,1.9Z" transform="translate(-229.736 -313.512)"/><path class="a" d="M817.367,474.908H474.491a.95.95,0,0,1,0-1.9H817.367a.95.95,0,1,1,0,1.9Z" transform="translate(-229.736 -305.765)"/><path class="a" d="M817.367,431.068H474.491a.95.95,0,0,1,0-1.9H817.367a.95.95,0,1,1,0,1.9Z" transform="translate(-229.736 -298.017)"/><path class="a" d="M817.367,387.229H474.491a.95.95,0,1,1,0-1.9H817.367a.95.95,0,1,1,0,1.9Z" transform="translate(-229.736 -290.27)"/><path class="a" d="M817.367,343.389H474.491a.95.95,0,0,1,0-1.9H817.367a.95.95,0,1,1,0,1.9Z" transform="translate(-229.736 -282.522)"/><path class="a" d="M511.221,605.8H499.247a5.559,5.559,0,0,1-5.553-5.553V567.222a5.559,5.559,0,0,1,5.553-5.553H511.22a5.559,5.559,0,0,1,5.553,5.553v33.023a5.559,5.559,0,0,1-5.553,5.553Z" transform="translate(-233.297 -321.433)"/><path class="a" d="M571.789,599.8H559.815a5.559,5.559,0,0,1-5.553-5.553V533.26a5.559,5.559,0,0,1,5.553-5.553h11.973a5.559,5.559,0,0,1,5.553,5.553v60.983a5.559,5.559,0,0,1-5.553,5.553Z" transform="translate(-244.001 -315.431)"/><path class="b" d="M692.924,585.673H680.951a5.559,5.559,0,0,1-5.553-5.553V453.345a5.559,5.559,0,0,1,5.553-5.553h11.973a5.559,5.559,0,0,1,5.553,5.553V580.12a5.559,5.559,0,0,1-5.553,5.553Z" transform="translate(-265.409 -301.308)"/><path class="a" d="M631.78,594.992H619.806a5.559,5.559,0,0,1-5.553-5.553V506.077a5.559,5.559,0,0,1,5.553-5.553h11.973a5.559,5.559,0,0,1,5.553,5.553v83.362a5.559,5.559,0,0,1-5.552,5.553Z" transform="translate(-254.603 -310.627)"/><path class="a" d="M753.492,578.511H741.519a5.559,5.559,0,0,1-5.553-5.553V412.817a5.559,5.559,0,0,1,5.553-5.553h11.974a5.559,5.559,0,0,1,5.553,5.553V572.958a5.559,5.559,0,0,1-5.554,5.553Z" transform="translate(-276.112 -294.146)"/><path class="a" d="M814.061,585.673H802.087a5.559,5.559,0,0,1-5.553-5.553V453.345a5.559,5.559,0,0,1,5.553-5.553h11.974a5.559,5.559,0,0,1,5.553,5.553V580.12a5.559,5.559,0,0,1-5.553,5.553Z" transform="translate(-286.816 -301.308)"/><path class="c" d="M874.628,566.857H862.655A5.559,5.559,0,0,1,857.1,561.3V346.87a5.559,5.559,0,0,1,5.553-5.553h11.973a5.559,5.559,0,0,1,5.553,5.553V561.3a5.559,5.559,0,0,1-5.553,5.553Z" transform="translate(-297.52 -282.492)"/><circle class="d" cx="34.588" cy="34.588" r="34.588" transform="translate(383.669 27.289)"/><rect class="d" width="18.826" height="10.508" transform="translate(388.271 93.034) rotate(-26.601)"/><ellipse class="d" cx="3.284" cy="8.756" rx="3.284" ry="8.756" transform="translate(378.765 94.572) rotate(-56.601)"/><rect class="d" width="10.508" height="18.826" transform="translate(426.703 93.993) rotate(-63.399)"/><ellipse class="d" cx="8.756" cy="3.284" rx="8.756" ry="3.284" transform="translate(439.51 98.733) rotate(-33.399)"/><circle class="b" cx="11.821" cy="11.821" r="11.821" transform="translate(404.014 41.595)"/><ellipse class="a" cx="3.924" cy="3.952" rx="3.924" ry="3.952" transform="translate(410.35 58.214) rotate(-45)"/><path class="b" d="M707.59,294.113c.52-12.8-10.516-23.651-24.65-24.225s-26.013,9.341-26.533,22.146,9.3,15.714,23.438,16.288S707.07,306.918,707.59,294.113Z" transform="translate(-262.049 -269.865)"/><ellipse class="d" cx="5.429" cy="17.294" rx="5.429" ry="17.294" transform="translate(438.83 57.283) rotate(-40.645)"/><ellipse class="d" cx="17.294" cy="5.429" rx="17.294" ry="5.429" transform="translate(367.011 76.45) rotate(-49.355)"/><path class="b" d="M693.625,360.7a7.881,7.881,0,0,1-15.507,2.823l0-.015c-.775-4.283,2.536-5.8,6.819-6.574S692.849,356.415,693.625,360.7Z" transform="translate(-265.869 -285.191)"/><ellipse class="d" cx="5.565" cy="17.728" rx="5.565" ry="17.728" transform="translate(668.028 233.21) rotate(-39.938)"/><circle class="d" cx="35.456" cy="35.456" r="35.456" transform="matrix(0.316, -0.949, 0.949, 0.316, 601.113, 259.496)"/><rect class="d" width="10.772" height="19.299" transform="translate(650.198 264.895)"/><rect class="d" width="10.772" height="19.299" transform="translate(628.655 264.895)"/><ellipse class="d" cx="8.976" cy="3.366" rx="8.976" ry="3.366" transform="translate(643.017 281.052)"/><ellipse class="d" cx="8.976" cy="3.366" rx="8.976" ry="3.366" transform="translate(621.474 280.604)"/><path class="e" d="M948.393,499.9c3.166-12.75,17.141-20.253,31.214-16.759s22.915,16.663,19.749,29.413-13.67,12.791-27.743,9.3S945.227,512.654,948.393,499.9Z" transform="translate(-313.564 -307.404)"/><ellipse class="d" cx="5.565" cy="17.728" rx="5.565" ry="17.728" transform="translate(587.625 218.046) rotate(-64.626)"/><circle class="b" cx="11.821" cy="11.821" r="11.821" transform="translate(628.841 217.766)"/><circle class="a" cx="3.94" cy="3.94" r="3.94" transform="translate(631.862 221.41)"/><path class="b" d="M961.24,577.767a7.881,7.881,0,0,1-15.507,2.823l0-.015c-.775-4.283,2.536-5.8,6.819-6.574S960.464,573.484,961.24,577.767Z" transform="translate(-313.162 -323.552)"/><path class="f" d="M899.8,581.722H887.83a5.559,5.559,0,0,1-5.553-5.553V361.736a5.559,5.559,0,0,1,5.553-5.553H899.8a5.559,5.559,0,0,1,5.553,5.553V576.169A5.559,5.559,0,0,1,899.8,581.722Z" transform="translate(-301.969 -285.119)"/><circle class="d" cx="35.456" cy="35.456" r="35.456" transform="translate(58.516 201.612)"/><rect class="d" width="10.772" height="19.299" transform="translate(77.815 264.895)"/><rect class="d" width="10.772" height="19.299" transform="translate(99.358 264.895)"/><ellipse class="d" cx="8.976" cy="3.366" rx="8.976" ry="3.366" transform="translate(77.815 281.052)"/><ellipse class="d" cx="8.976" cy="3.366" rx="8.976" ry="3.366" transform="translate(99.358 280.604)"/><circle class="b" cx="12.118" cy="12.118" r="12.118" transform="translate(82.752 215.974)"/><circle class="a" cx="4.039" cy="4.039" r="4.039" transform="translate(90.831 224.053)"/><path class="e" d="M249.656,511.408c-2.863-12.822,6.289-25.777,20.441-28.937s27.945,4.672,30.808,17.494-6.516,17.55-20.668,20.71S252.519,524.23,249.656,511.408Z" transform="translate(-190.078 -307.313)"/><ellipse class="d" cx="17.728" cy="5.565" rx="17.728" ry="5.565" transform="matrix(0.357, -0.934, 0.934, 0.357, 103.098, 122.987)"/><circle class="d" cx="35.456" cy="35.456" r="35.456" transform="translate(41.177 164.506) rotate(-80.783)"/><rect class="d" width="10.772" height="19.299" transform="translate(65.697 163.014)"/><rect class="d" width="10.772" height="19.299" transform="translate(87.24 163.014)"/><ellipse class="d" cx="8.976" cy="3.366" rx="8.976" ry="3.366" transform="translate(65.697 179.171)"/><ellipse class="d" cx="8.976" cy="3.366" rx="8.976" ry="3.366" transform="translate(87.24 178.722)"/><circle class="b" cx="12.118" cy="12.118" r="12.118" transform="matrix(1, -0.029, 0.029, 1, 70.283, 114.456)"/><circle class="a" cx="4.039" cy="4.039" r="4.039" transform="translate(78.712 122.172)"/><path class="b" d="M234.938,387.657c-2.863-12.822,6.289-25.777,20.441-28.937s27.946,4.672,30.808,17.494-6.516,17.55-20.668,20.71S237.8,400.479,234.938,387.657Z" transform="translate(-187.477 -285.444)"/><ellipse class="d" cx="5.565" cy="17.728" rx="5.565" ry="17.728" transform="translate(23.516 116.167) rotate(-64.626)"/><path class="b" d="M255.672,448.684c0,3.47,8.935,10.323,18.85,10.323s19.211-9.77,19.211-13.24-9.3.673-19.211.673S255.672,445.214,255.672,448.684Z" transform="translate(-191.234 -300.706)"/><path class="g" d="M684.852,472.818l-11.62,2.888a5.559,5.559,0,0,1-6.728-4.05L635.93,348.623a5.559,5.559,0,0,1,4.05-6.728l11.62-2.888a5.559,5.559,0,0,1,6.728,4.05L688.9,466.09a5.559,5.559,0,0,1-4.05,6.728Z" transform="translate(-258.405 -282.055)"/><path class="f" d="M352.244,416.653l-26.1,5.095a2.832,2.832,0,0,1-2.4-.636,2.88,2.88,0,0,1-1-2.322,68.245,68.245,0,0,0-6.072-31.108,2.88,2.88,0,0,1,.055-2.528,2.832,2.832,0,0,1,1.988-1.493l26.1-5.095a2.869,2.869,0,0,1,3.234,1.819,111.712,111.712,0,0,1,6.513,33.367,2.869,2.869,0,0,1-2.313,2.9Z" transform="translate(-201.966 -289.065)"/><path class="c" d="M213.244,445.653l-26.1,5.095a2.832,2.832,0,0,1-2.4-.636,2.88,2.88,0,0,1-1-2.322,68.245,68.245,0,0,0-6.073-31.108,2.881,2.881,0,0,1,.055-2.528,2.832,2.832,0,0,1,1.988-1.493l26.1-5.095a2.869,2.869,0,0,1,3.234,1.819,111.713,111.713,0,0,1,6.513,33.367,2.869,2.869,0,0,1-2.313,2.9Z" transform="translate(-177.402 -294.19)"/><circle class="h" cx="9.056" cy="9.056" r="9.056" transform="translate(197.524 50.861)"/><circle class="h" cx="9.056" cy="9.056" r="9.056" transform="translate(197.524 86.954)"/><circle class="h" cx="9.056" cy="9.056" r="9.056" transform="translate(197.524 123.045)"/><circle class="h" cx="9.056" cy="9.056" r="9.056" transform="translate(197.524 159.138)"/><circle class="h" cx="9.056" cy="9.056" r="9.056" transform="translate(197.524 195.23)"/><circle class="h" cx="9.056" cy="9.056" r="9.056" transform="translate(197.524 231.322)"/></g></svg>