<svg xmlns="http://www.w3.org/2000/svg" xmlns:xlink="http://www.w3.org/1999/xlink" width="279.024" height="192.594" viewBox="0 0 279.024 192.594"><defs><style>.a,.c,.f{fill:#fff;}.a,.g,.p{opacity:0.1;}.b{fill:#30374e;}.d{fill:#444053;}.e{fill:#afc0e0;}.f{opacity:0.2;}.h{fill:#e3e8f4;}.i{fill:none;stroke:#535461;stroke-miterlimit:10;stroke-width:2px;}.j{opacity:0.25;}.k{fill:url(#a);}.l{fill:#434175;}.m{opacity:0.05;}.n{fill:#565387;}.o{fill:#ee8e9e;}</style><linearGradient id="a" x1="0.5" y1="1" x2="0.5" gradientUnits="objectBoundingBox"><stop offset="0" stop-color="gray" stop-opacity="0.251"/><stop offset="0.54" stop-color="gray" stop-opacity="0.122"/><stop offset="1" stop-color="gray" stop-opacity="0.102"/></linearGradient></defs><g transform="translate(0.001)"><path class="a" d="M31.862,231.118c4.932-8.056,16.085-6.652,23.994-2.446s15.8,10.483,24.505,9.277c7.339-1.018,13.357-7.417,16.608-14.8s4.205-15.708,5.12-23.862q1.725-15.366,3.447-30.751c.421-3.75.917-7.708,3.026-10.676,2.786-3.914,7.894-5.118,12.264-3.941s8.095,4.333,11.283,7.853c10.211,11.273,16,26.511,24.923,39.056,1.818,2.554,3.87,5.079,6.586,6.312,3.914,1.774,8.408.519,12.232-1.456,12.476-6.431,20.858-19.556,29.094-31.8,4.007-5.952,8.892-12.317,15.559-12.966,7.014-.7,13.1,5.279,17.225,11.608,13.23,20.363,16.065,48.164,32.047,65.924a25.98,25.98,0,0,0,6.7,5.6,17.282,17.282,0,0,0,2.593,1.138c13.944,4.827,18.592,24.2,8.278,35.69-.223.245-.45.489-.68.734-1.531,1.617-3.266,3.146-5.336,3.628a11.653,11.653,0,0,1-5.822-.624c-12.2-3.559-24.248-9-36.859-8.736-12.271.245-23.911,5.913-36.045,7.953-8.159,1.372-16.459,1.1-24.708.8q-41.211-1.483-82.406-3.449c-13.631-.626-27.267-1.223-40.9-1.92-10.5-.546-17.188-1.747-18.406-13.932C35.118,254.664,25.538,241.451,31.862,231.118Z" transform="translate(-29.72 -129.726)"/><ellipse class="b" cx="66.049" cy="9.23" rx="66.049" ry="9.23" transform="translate(127.188 174.134)"/><path class="c" d="M178.46,642.761s3.229-.734,5.345,1.436c0,0-1.36,1.223-4.56-.132Z" transform="translate(-142.074 -499.216)"/><path class="c" d="M173.6,643s-1.913,2.711-.7,5.492c0,0,1.654-.8,1.607-4.269Z" transform="translate(-137.566 -499.487)"/><path class="c" d="M168.2,623.322s1.147-2.483,6.605.519a2.938,2.938,0,0,1-2.906,1.683A3.552,3.552,0,0,1,168.2,623.322Z" transform="translate(-134.324 -483.894)"/><path class="c" d="M158.8,625.679s-2.733-.127-2.578,6.1a2.934,2.934,0,0,0,2.833-1.805A3.549,3.549,0,0,0,158.8,625.679Z" transform="translate(-125.27 -486.404)"/><path class="c" d="M159,598.043s1.223-4.325,6.965-1.683c0,0-1,3.961-6.312,3.092Z" transform="translate(-127.374 -463.611)"/><path class="c" d="M150.29,573.567s2.588-4.462,7.948-.842c0,0-1.514,4.127-7.41,2.336Z" transform="translate(-120.795 -445.334)"/><path class="c" d="M146.15,549.9s3.09-4.147,8.406-.565c0,0-2.95,3.655-8.34,1.566Z" transform="translate(-117.668 -427.631)"/><path class="c" d="M142.41,525.718s3.122-4.32,8.217-.771c0,0-3.591,3.873-8.154,1.73Z" transform="translate(-114.843 -409.257)"/><path class="c" d="M142.23,501.035s3.217-5.512,7.987-2.243c0,0-3.528,4.788-7.919,3.244Z" transform="translate(-114.707 -389.775)"/><path class="c" d="M144,476.753s3.425-5.48,8.095-1.757c0,0-4.183,4.832-8.041,2.728Z" transform="translate(-116.044 -371.604)"/><path class="c" d="M147.29,451.816s4.159-5.213,8.208-3.515c0,0-4.325,5.529-8.318,4.834Z" transform="translate(-118.446 -352.161)"/><path class="c" d="M151.716,427.259s4.78-6.361,7.919-4.555c0,0-3.5,4.915-8.215,5.712Z" transform="translate(-121.649 -332.839)"/><path class="c" d="M158.664,403.966s4.2-5.216,7.584-4.218c0,0-3.535,5.355-8.1,5.793Z" transform="translate(-126.732 -315.647)"/><path class="c" d="M166.639,380.414s4.692-5.039,6.926-4.359c0,0-3.266,5.47-7.075,5.419Z" transform="translate(-133.032 -297.799)"/><path class="c" d="M173.87,355.107s3.936-5.908,6.316-5.627c0,0-2.278,5.184-6.277,6.2Z" transform="translate(-138.606 -277.765)"/><path class="c" d="M180.664,329.112s3.52-4.565,5.58-4.692c0,0-2.62,5.954-5.644,6.116Z" transform="translate(-143.69 -258.843)"/><path class="c" d="M183.787,295.92l3.078-9.22s.734,8.1-3.425,10.916Z" transform="translate(-145.835 -230.351)"/><path class="c" d="M187.245,258.475s.108-7.532-.325-8.115c0,0,3.051,6.052.524,11.427Z" transform="translate(-148.464 -202.901)"/><path class="c" d="M139.65,604.391s-3.978-2.109-6.06,3.848c0,0,3.547,2.026,6.605-2.4Z" transform="translate(-108.18 -470.05)"/><path class="c" d="M129.061,578.818s-4.824-1.823-6.691,4.374c0,0,3.785,2.238,7.219-2.877Z" transform="translate(-99.705 -450.817)"/><path class="c" d="M119.406,553.081s-3.618-3.7-8.406.57c0,0,3.41,3.227,8.472.438Z" transform="translate(-91.117 -430.443)"/><path class="c" d="M116.477,527.444s-3.67-3.868-8.247.333c0,0,4.076,3.359,8.318.624Z" transform="translate(-89.024 -410.973)"/><path class="c" d="M118.227,500.439s-2.779-5.742-7.787-2.855c0,0,3.146,5.047,7.642,3.851Z" transform="translate(-90.694 -389.032)"/><path class="c" d="M120.953,474.779s-2.772-5.847-7.843-2.708c0,0,3.586,5.287,7.667,3.652Z" transform="translate(-92.711 -369.674)"/><path class="c" d="M131.911,442.648s-1.38-6.52-5.761-6.818c0,0,1.39,6.882,5.262,8.044Z" transform="translate(-102.56 -342.998)"/><path class="c" d="M139.146,417.821s-.9-7.9-4.516-7.941c0,0,.526,6.011,4.186,9.088Z" transform="translate(-108.966 -323.396)"/><path class="c" d="M146.258,394.444s-1.519-6.522-5.008-7.094c0,0,.856,6.361,4.778,8.738Z" transform="translate(-113.966 -306.378)"/><path class="c" d="M160.172,370.265s-.489-6.867-2.667-7.735c0,0-.883,6.307,2.116,8.655Z" transform="translate(-126.154 -287.63)"/><path class="c" d="M165.17,347.747s-.771-7.058-3.011-7.907c0,0-.367,5.649,2.715,8.391Z" transform="translate(-129.749 -270.491)"/><path class="c" d="M175.156,324.209s-.4-5.751-2.043-7c0,0-1.12,6.407,1.309,8.21Z" transform="translate(-137.84 -253.397)"/><path class="c" d="M176.438,294.017l-2.153-9.477s-1.524,7.985,2.341,11.2Z" transform="translate(-138.696 -228.719)"/><path class="c" d="M169.418,262.964s-4.313-6.184-4.279-6.9c0,0,.866,6.723,5.972,9.758Z" transform="translate(-132.012 -207.206)"/><path class="c" d="M165.546,246.931s-4.271-8.9-5.976-9.541a11.624,11.624,0,0,1,6.265,9.247Z" transform="translate(-127.805 -193.104)"/><path class="d" d="M179.785,292.482l-.245-.061c2.41-10.275,2.75-16.753.954-18.24l.166-.2C182.554,275.555,182.255,281.955,179.785,292.482Z" transform="translate(-142.889 -220.742)"/><path class="d" d="M151.089,371.389l-.379-.105c.267-.944.555-1.906.864-2.852,2.691-8.249,4.927-15.9,6.3-21.758l.311-.183c-1.375,5.871-3.55,13.8-6.236,22.061C151.642,369.5,151.353,370.45,151.089,371.389Z" transform="translate(-121.112 -275.514)"/><path class="d" d="M154.967,500.515a50.975,50.975,0,0,1-9.57-14.737,56.847,56.847,0,0,1-4.553-17.313,66.6,66.6,0,0,1,2.446-23.705l.313.323c-4.893,17.445-1.514,31.886,2.258,40.463a50.55,50.55,0,0,0,9.467,14.595Z" transform="translate(-113.48 -349.744)"/><path class="c" d="M223.53,558.233a3.706,3.706,0,0,1,3.234.868s-.824.734-2.757-.081Z" transform="translate(-176.118 -435.402)"/><path class="c" d="M220.607,558.39a3.7,3.7,0,0,0-.421,3.32s1-.489.979-2.581Z" transform="translate(-173.408 -435.576)"/><path class="c" d="M217.34,546.483s.692-1.5,3.988.316a1.775,1.775,0,0,1-1.756,1.015A2.143,2.143,0,0,1,217.34,546.483Z" transform="translate(-171.442 -426.142)"/><path class="c" d="M211.649,547.909s-1.654-.076-1.561,3.684A1.776,1.776,0,0,0,211.8,550.5,2.146,2.146,0,0,0,211.649,547.909Z" transform="translate(-165.962 -427.659)"/><path class="c" d="M211.75,531.195s.751-2.615,4.215-1.023c0,0-.6,2.395-3.814,1.869Z" transform="translate(-167.22 -413.873)"/><path class="c" d="M206.51,516.413s1.563-2.691,4.8-.509c0,0-.917,2.5-4.479,1.411Z" transform="translate(-163.262 -402.839)"/><path class="c" d="M204,502.093s1.869-2.508,5.081-.342a4.363,4.363,0,0,1-5.039.947Z" transform="translate(-161.366 -392.127)"/><path class="c" d="M201.74,487.478s1.889-2.613,4.969-.465a4.436,4.436,0,0,1-4.929,1.045Z" transform="translate(-159.658 -381.02)"/><path class="c" d="M201.64,472.554s1.957-3.329,4.827-1.355c0,0-2.133,2.894-4.788,1.957Z" transform="translate(-159.583 -369.242)"/><path class="c" d="M202.68,457.866s2.077-3.315,4.893-1.072c0,0-2.53,2.921-4.863,1.649Z" transform="translate(-160.369 -358.246)"/><path class="c" d="M204.711,442.807s2.512-3.151,4.961-2.123c0,0-2.615,3.342-5.022,2.921Z" transform="translate(-161.857 -346.509)"/><path class="c" d="M207.369,427.955s2.889-3.843,4.788-2.755c0,0-2.116,2.972-4.966,3.454Z" transform="translate(-163.775 -334.822)"/><path class="c" d="M211.593,413.892s2.539-3.153,4.589-2.549c0,0-2.136,3.237-4.893,3.5Z" transform="translate(-166.872 -324.443)"/><path class="c" d="M216.391,399.637s2.835-3.046,4.186-2.635c0,0-1.972,3.305-4.276,3.276Z" transform="translate(-170.657 -313.64)"/><path class="c" d="M220.76,384.328s2.38-3.572,3.819-3.405c0,0-1.375,3.134-3.794,3.748Z" transform="translate(-174.025 -301.519)"/><path class="c" d="M224.879,368.618s2.128-2.759,3.374-2.838c0,0-1.585,3.6-3.413,3.692Z" transform="translate(-177.107 -290.085)"/><path class="c" d="M226.73,348.568,228.587,343s.44,4.893-2.077,6.605Z" transform="translate(-178.369 -272.878)"/><path class="c" d="M228.848,325.915s.064-4.553-.2-4.9c0,0,1.845,3.657.316,6.908Z" transform="translate(-179.985 -256.267)"/><path class="c" d="M200.05,535.041s-2.4-1.277-3.67,2.324c0,0,2.145,1.223,3.995-1.448Z" transform="translate(-155.61 -417.773)"/><path class="c" d="M193.676,519.534s-2.918-1.1-4.046,2.644c0,0,2.287,1.353,4.364-1.737Z" transform="translate(-150.511 -406.111)"/><path class="c" d="M187.831,504.016s-2.185-2.234-5.081.343a4.343,4.343,0,0,0,5.123.264Z" transform="translate(-145.314 -393.825)"/><path class="c" d="M186.066,488.522s-2.219-2.336-4.986.2a4.441,4.441,0,0,0,5.025.377Z" transform="translate(-144.053 -382.059)"/><path class="c" d="M187.119,472.154s-1.681-3.471-4.709-1.727c0,0,1.9,3.051,4.621,2.329Z" transform="translate(-145.057 -368.761)"/><path class="c" d="M188.748,456.667s-1.676-3.535-4.748-1.637c0,0,2.167,3.2,4.636,2.2Z" transform="translate(-146.258 -357.078)"/><path class="c" d="M195.394,437.272s-.834-3.944-3.484-4.122c0,0,.839,4.159,3.18,4.861Z" transform="translate(-152.233 -340.974)"/><path class="c" d="M199.74,422.242s-.538-4.778-2.74-4.8c0,0,.318,3.635,2.53,5.5Z" transform="translate(-156.078 -329.107)"/><path class="c" d="M204.066,408.111s-.917-3.944-3.026-4.291c0,0,.519,3.843,2.889,5.282Z" transform="translate(-159.13 -318.819)"/><path class="c" d="M212.481,393.5s-.3-4.159-1.61-4.677c0,0-.536,3.814,1.277,5.233Z" transform="translate(-166.5 -307.488)"/><path class="c" d="M215.5,379.88s-.465-4.266-1.82-4.78c0,0-.223,3.425,1.641,5.074Z" transform="translate(-168.675 -297.125)"/><path class="c" d="M221.571,365.652s-.245-3.476-1.223-4.232c0,0-.678,3.875.79,4.964Z" transform="translate(-173.596 -286.792)"/><path class="c" d="M222.337,347.4l-1.3-5.729s-.922,4.829,1.414,6.771Z" transform="translate(-174.098 -271.873)"/><path class="c" d="M218.075,328.633s-2.605-3.736-2.586-4.173c0,0,.521,4.063,3.608,5.9Z" transform="translate(-170.044 -258.873)"/><path class="c" d="M215.7,318.951s-2.583-5.382-3.613-5.761a7.023,7.023,0,0,1,3.787,5.592Z" transform="translate(-167.477 -250.36)"/><path class="d" d="M224.314,346.465l-.154-.037c1.468-6.211,1.664-10.128.577-11.026l.1-.122C225.99,336.234,225.809,340.1,224.314,346.465Z" transform="translate(-176.594 -267.046)"/><path class="d" d="M206.99,394.205l-.23-.066c.161-.57.338-1.15.524-1.712,1.622-4.988,2.977-9.614,3.807-13.154l.188-.113c-.832,3.547-2.145,8.347-3.77,13.34C207.323,393.065,207.149,393.635,206.99,394.205Z" transform="translate(-163.45 -300.192)"/><path class="d" d="M209.329,472.238a30.858,30.858,0,0,1-5.786-8.91,34.424,34.424,0,0,1-2.752-10.465,40.134,40.134,0,0,1,1.482-14.333l.188.2a36.416,36.416,0,0,0,1.365,24.464,30.409,30.409,0,0,0,5.724,8.822Z" transform="translate(-158.832 -345.038)"/><path class="e" d="M185.945,516.875a9.359,9.359,0,0,0-1.835.524c-13.2,5.269-12.975,39.763-12.975,39.763H167.25A245.258,245.258,0,0,0,160.7,521.24c-4.8-19,14.893-36.03,18.893-39.259.45-.36.7-.55.7-.55C200.127,488.72,185.945,516.875,185.945,516.875Z" transform="translate(-128.089 -377.443)"/><path class="f" d="M181.77,482.044c-.457-.21-.93-.411-1.431-.594,0,0-.245.191-.7.55-4,3.229-23.7,20.258-18.893,39.259a244.032,244.032,0,0,1,6.542,35.917h2.185a243.239,243.239,0,0,0-6.554-35.922C158.136,502.342,177.641,485.376,181.77,482.044Z" transform="translate(-128.127 -377.458)"/><path class="e" d="M440.627,521.244a242.513,242.513,0,0,0-6.546,35.917h-3.892s.245-36.049-13.878-40.074a7.717,7.717,0,0,0-.932-.218s-14.189-28.155,5.656-35.44c0,0,.2.149.563.44C425.274,484.813,445.483,502.023,440.627,521.244Z" transform="translate(-317.322 -377.443)"/><path class="g" d="M246.6,516.89a9.36,9.36,0,0,0-1.835.524A239.547,239.547,0,0,1,240.24,482c.45-.36.7-.55.7-.55C260.777,488.735,246.6,516.89,246.6,516.89Z" transform="translate(-188.74 -377.458)"/><path class="g" d="M421.627,481.919a220.412,220.412,0,0,1-5.287,35.227,7.728,7.728,0,0,0-.932-.218s-14.189-28.155,5.656-35.44C421.057,481.479,421.257,481.628,421.627,481.919Z" transform="translate(-317.344 -377.487)"/><path class="h" d="M287.115,201.13q-2.055,8.107-4.817,16.635s-8.738,9.1-29.846,0a160.084,160.084,0,0,1-4.428-16.051c-5.106-22.22-11.229-64.564,1.818-108.058a161.887,161.887,0,0,1,16.435-37.3s11.146,12.8,19.326,37.29S298.989,154.337,287.115,201.13Z" transform="translate(-190.095 -56.36)"/><circle class="e" cx="17.523" cy="17.523" r="17.523" transform="translate(60.432 54.302)"/><path class="c" d="M322.443,311.635a12.427,12.427,0,0,1-20.3,9.612,12.556,12.556,0,0,1-2.329-2.527,12.225,12.225,0,0,1-.8-1.319,12.4,12.4,0,0,1-1.416-5.766v-.3a12.442,12.442,0,0,1,9.052-11.674,12.853,12.853,0,0,1,2.994-.455h.372A12.428,12.428,0,0,1,322.443,311.635Z" transform="translate(-232.06 -239.8)"/><path class="e" d="M309.671,93.65c-19.882,9.519-35.771,0-35.771,0a161.888,161.888,0,0,1,16.447-37.29S301.492,69.157,309.671,93.65Z" transform="translate(-214.166 -56.36)"/><path class="e" d="M305.58,648.14q-1.394,5.49-3.107,11.168-.812,2.708-1.712,5.46s-8.738,9.1-29.846,0c0,0-.685-1.93-1.712-5.46-.768-2.667-1.725-6.241-2.723-10.59a52.955,52.955,0,0,0,19.011,3.354A52.38,52.38,0,0,0,305.58,648.14Z" transform="translate(-208.561 -503.37)"/><path class="h" d="M310.88,693.79q-.812,2.708-1.712,5.46s-8.738,9.1-29.846,0c0,0-.685-1.93-1.712-5.46C277.608,693.79,299.121,699.979,310.88,693.79Z" transform="translate(-216.968 -537.852)"/><path class="f" d="M306.664,299.595l-.027.02-9.027,11.654v.3a12.4,12.4,0,0,0,1.416,5.766l10.637-18.191Z" transform="translate(-232.075 -239.747)"/><path class="f" d="M316.382,341.19l-7.393,11.07a12.558,12.558,0,0,1-2.329-2.527l8.807-9.453Z" transform="translate(-238.911 -270.823)"/><path class="f" d="M257.136,217.768a160.358,160.358,0,0,1-4.428-16.051c-5.106-22.223-11.229-64.567,1.818-108.06a162.48,162.48,0,0,1,14.4-33.782c-1.656-2.322-2.691-3.506-2.691-3.506a161.871,161.871,0,0,0-16.44,37.287c-13.046,43.494-6.923,85.838-1.818,108.06a160.35,160.35,0,0,0,4.428,16.051c8.34,3.594,14.747,4.347,19.449,3.946A46.332,46.332,0,0,1,257.136,217.768Z" transform="translate(-190.058 -56.368)"/><path class="i" d="M966.7,624.8s11.434-14.228,10.676-28.478a27.655,27.655,0,0,1,4.536-16.894,46.534,46.534,0,0,1,5.382-6.605" transform="translate(-737.482 -446.475)"/><path class="c" d="M1048.241,528.707c-.817,1.984.406,9.218.406,9.218s5.962-4.276,6.779-6.26a3.885,3.885,0,1,0-7.185-2.958Z" transform="translate(-798.863 -411.336)"/><path class="c" d="M1006.125,556.882c.394,2.109,5.353,7.515,5.353,7.515s2.691-6.828,2.287-8.939a3.886,3.886,0,0,0-7.64,1.424Z" transform="translate(-767.212 -430.963)"/><path class="c" d="M972.874,628.453c1.4,1.622,8.415,3.787,8.415,3.787s-1.135-7.249-2.539-8.873a3.884,3.884,0,1,0-5.872,5.087Z" transform="translate(-741.432 -483.643)"/><path class="c" d="M964.109,693.724c1.108,1.837,7.652,5.155,7.652,5.155s.108-7.339-1-9.174a3.886,3.886,0,0,0-6.652,4.019Z" transform="translate(-735.101 -533.349)"/><path class="c" d="M1029.953,592.927c-1.991.8-9.213-.5-9.213-.5s4.335-5.918,6.329-6.715a3.886,3.886,0,0,1,2.884,7.217Z" transform="translate(-778.302 -456.002)"/><path class="c" d="M1019.14,666.374c-2.138.164-8.641-3.234-8.641-3.234s5.906-4.352,8.046-4.516a3.887,3.887,0,1,1,.595,7.751Z" transform="translate(-770.567 -511.28)"/><path class="c" d="M995.7,737.209c-2.082.524-9.064-1.727-9.064-1.727s5.086-5.287,7.168-5.808a3.885,3.885,0,1,1,1.9,7.535Z" transform="translate(-752.544 -564.869)"/><path class="j" d="M1048.241,528.707c-.817,1.984.406,9.218.406,9.218s5.962-4.276,6.779-6.26a3.885,3.885,0,1,0-7.185-2.958Z" transform="translate(-798.863 -411.336)"/><path class="j" d="M1006.125,556.882c.394,2.109,5.353,7.515,5.353,7.515s2.691-6.828,2.287-8.939a3.886,3.886,0,0,0-7.64,1.424Z" transform="translate(-767.212 -430.963)"/><path class="j" d="M972.874,628.453c1.4,1.622,8.415,3.787,8.415,3.787s-1.135-7.249-2.539-8.873a3.884,3.884,0,1,0-5.872,5.087Z" transform="translate(-741.432 -483.643)"/><path class="j" d="M964.109,693.724c1.108,1.837,7.652,5.155,7.652,5.155s.108-7.339-1-9.174a3.886,3.886,0,0,0-6.652,4.019Z" transform="translate(-735.101 -533.349)"/><path class="j" d="M1029.953,592.927c-1.991.8-9.213-.5-9.213-.5s4.335-5.918,6.329-6.715a3.886,3.886,0,0,1,2.884,7.217Z" transform="translate(-778.302 -456.002)"/><path class="j" d="M1019.14,666.374c-2.138.164-8.641-3.234-8.641-3.234s5.906-4.352,8.046-4.516a3.887,3.887,0,1,1,.595,7.751Z" transform="translate(-770.567 -511.28)"/><path class="j" d="M995.7,737.209c-2.082.524-9.064-1.727-9.064-1.727s5.086-5.287,7.168-5.808a3.885,3.885,0,1,1,1.9,7.535Z" transform="translate(-752.544 -564.869)"/><path class="i" d="M967.12,661.9s16.219-8.376,21.3-21.709a27.644,27.644,0,0,1,10.994-13.609A46.46,46.46,0,0,1,1007,622.73" transform="translate(-737.799 -484.176)"/><path class="c" d="M1133.034,585.109c-1.551,1.485-3.364,8.594-3.364,8.594s7.182-1.495,8.733-2.977a3.889,3.889,0,1,0-5.37-5.627Z" transform="translate(-860.584 -454.938)"/><path class="c" d="M1089.952,593.844c-.489,2.089,1.847,9.052,1.847,9.052s5.208-5.155,5.712-7.256a3.885,3.885,0,0,0-7.559-1.8Z" transform="translate(-830.531 -460.1)"/><path class="c" d="M1030.416,645.791c.626,2.053,6.16,6.872,6.16,6.872s1.9-7.094,1.275-9.137a3.886,3.886,0,1,0-7.434,2.265Z" transform="translate(-785.482 -497.803)"/><path class="c" d="M995.963,701.922c.269,2.131,4.907,7.814,4.907,7.814s3.073-6.661,2.8-8.792a3.885,3.885,0,1,0-7.708.978Z" transform="translate(-759.563 -540.69)"/><path class="c" d="M1094.15,641.321c-2.146-.078-8.22-4.191-8.22-4.191s6.36-3.652,8.506-3.574a3.885,3.885,0,1,1-.286,7.765Z" transform="translate(-827.544 -492.353)"/><path class="c" d="M1057.581,704.909c-2.023-.717-6.59-6.458-6.59-6.458s7.165-1.583,9.186-.866a3.885,3.885,0,0,1-2.6,7.324Z" transform="translate(-801.152 -540.578)"/><path class="c" d="M1005.7,759.845c-2.114-.365-7.584-5.252-7.584-5.252s6.793-2.769,8.907-2.4a3.885,3.885,0,1,1-1.321,7.657Z" transform="translate(-761.216 -581.939)"/><path class="k" d="M745.647,439.225l-12.572-18.233s-.245-4.513-1.057-5.568-.176-3.4-.176-3.4.881-1.289.117-1.407-.117-2.992-.117-2.992l-.059-4.572s.7-4.4.117-5.451a1.73,1.73,0,0,1,.059-1.876s.7-2.522,0-3.166-.528-4.575-.352-7.682-1.235-4.866-1.235-5.336-4.648-5.042-4.648-5.45-2.936-2.111-4.7-2.581-2.645-.82-2.586-1.054-2.762-1.172-2.762-1.172-2.468-.176-3.41-1.409-3.814-1.585-3.9-1.6c-.017-.081-.037-.164-.054-.245s-.037-.176-.054-.264c.223-.374.428-.756.614-1.15.056-.12.11-.245.161-.357a5.018,5.018,0,0,0,2.894-.9,3.941,3.941,0,0,0,1.407-2.811,6.163,6.163,0,0,0-.687-3.124c-.514-1.057-1.27-2.15-1.01-3.3.115-.489.411-.93.563-1.414a3.725,3.725,0,0,0-.423-2.777c-.445-.851-1.064-1.6-1.558-2.424a9.468,9.468,0,0,1-1.24-3.425,5.357,5.357,0,0,0-.46-1.867,3.477,3.477,0,0,0-1.03-1.04,10.292,10.292,0,0,0-6.317-1.916,30.27,30.27,0,0,1-4.783.291,17.208,17.208,0,0,1-2.794-.734c-1.972-.582-4.245-.822-5.962.306s-2.4,3.347-3.562,5.081c-1.027,1.536-2.534,2.823-3.317,4.447a.35.35,0,0,1,.024-.093,5.312,5.312,0,0,0-.438,1.184,8.437,8.437,0,0,0,.262,3.887,2.7,2.7,0,0,0,.949,1.737,5.649,5.649,0,0,0,2.052.4c-.025.11-.054.223-.078.335a13.43,13.43,0,0,0,9.318,15.657v.357a8.887,8.887,0,0,1-.061,1.008h0s-5.908-1.223-7.5-.391-4.7,1.468-5.172,1.933-1.644.117-2.691,2.874-1.174,5.568-2.527,6.85-2.055,2.17-2.114,3.109.176,1.172-.355,1.468-1.292,1.524-1.057,1.994a1.667,1.667,0,0,1-.646,1.756,1.964,1.964,0,0,0-.824,1.759s-.352,1.292-1.174,1.583-1.353,2.229-1.353,2.229l-2.674,3.07-5.282-5.847a2.226,2.226,0,0,0-3.144-.161l-2.593,2.339a5.122,5.122,0,0,0-2.6,1.546,6.692,6.692,0,0,0-1.343,2l-1.421,1.277a3.609,3.609,0,0,0-.365,3.983l3.383,3.74.022.032a5.976,5.976,0,0,0-3.273,1.333c-5.052,4.455-5.113,8.562-4.347,10.434s7.168,9.088,7.168,9.088a28.642,28.642,0,0,0,9.093,7.41h0l-.042.042c-.105.113-.21.245-.313.367l-.088.113-.081.113-.1.142c-.027.037-.051.076-.076.115s-.068.11-.1.169l-.066.113c-.039.073-.081.149-.12.228l-.039.076c-.049.1-.1.208-.144.318-.017.039-.032.081-.049.12-.029.076-.061.154-.091.245s-.037.1-.054.152-.051.152-.076.23-.034.11-.049.164-.049.171-.071.259-.027.1-.042.159c-.032.135-.064.274-.09.421a1.037,1.037,0,0,1-.029.166q-.029.147-.051.3c-.012.071-.02.142-.029.213s-.024.193-.037.291l-.022.225c0,.108-.02.22-.027.333a1.156,1.156,0,0,1-.012.206c0,.186-.02.372-.022.568-.117,6.85.284,7.855.284,7.855a3.8,3.8,0,0,0,3.119,2.341,3.988,3.988,0,0,0,1.005-.054c3.055-.528,10.223-1.759,12.75-1.289a21.783,21.783,0,0,0,6.336-.514l.526-.1.367,1.164,1.162-.318.979.57.624.357c1.16,3.934,5.871,2.593,5.871,2.593l1.106.641,11.341.294a23.234,23.234,0,0,0,4.015,1.928,3.715,3.715,0,0,0,.57.125,25.726,25.726,0,0,0,3.161.059c.868-.022,1.541-.059,1.541-.059s-.115-3.08-.281-6.527a92.928,92.928,0,0,0,10.5-.861c6.057-1.064,8.584-6.571,9.514-9.514a27.656,27.656,0,0,1,.594,3.652,26.144,26.144,0,0,0,.942,3.166,10.7,10.7,0,0,0,1.292,2.344c4.467-1.524,1.764-3.809.822-4.807s.648-1.818.648-1.818,1.223-.819,1.116-1.583-.176-1.583,3.819-1.524S745.647,439.225,745.647,439.225ZM683.592,401.8a27.183,27.183,0,0,0,1.113,4.893,6.458,6.458,0,0,1,.132,1.93c-2.368-.188-4.834-.289-4.834-.289a.568.568,0,0,1,.127.3l-.372-.083-.541-.132,4.362-6.635Zm-8.641,13.748,4.1.651.345.054a13.481,13.481,0,0,0-.213,1.935c0,.061.093.135.225.22a5.269,5.269,0,0,0-.081.979c.066.325,1.981,1.025,4.178,1.607-.029.117-.059.23-.088.335h0c-1.94-1.02-5-1.5-5.35-2.255s-10.764-4.4-10.764-4.4-.379-.2-1.035-.519l2.74.519.753-.076a41.078,41.078,0,0,0,5.191.949Z" transform="translate(-493.264 -269.36)"/><path class="l" d="M778.11,693.154s-1.629,9.842-9.9,11.3-35.878,1.164-35.878,1.164-15.784-2.27-21.491-15.608-9.377-18.639-4.484-18.871,31.277,8.912,32.781,9.027S779.566,659.9,778.11,693.154Z" transform="translate(-539.104 -520.737)"/><path class="m" d="M778.11,693.154s-1.629,9.842-9.9,11.3-35.878,1.164-35.878,1.164-15.784-2.27-21.491-15.608-9.377-18.639-4.484-18.871,31.277,8.912,32.781,9.027S779.566,659.9,778.11,693.154Z" transform="translate(-539.104 -520.737)"/><path class="n" d="M703.132,759.853a3.777,3.777,0,0,0,3.092,2.326,4.023,4.023,0,0,0,1-.054c3.029-.524,10.135-1.747,12.638-1.282a21.533,21.533,0,0,0,6.277-.509c1.321-.245,2.285-.489,2.285-.489s-2.329-7.745-2.622-7.978-10.483-6.348-10.483-6.348l-8.073-.58h-.024a4.243,4.243,0,0,0-2.735,1.607,8.589,8.589,0,0,0-1.634,5.5C702.735,758.862,703.132,759.853,703.132,759.853Z" transform="translate(-538.162 -576.489)"/><path class="m" d="M703.135,759.876a3.777,3.777,0,0,0,3.092,2.327,33.158,33.158,0,0,1-2.2-3.2l.042-5.649a9.93,9.93,0,0,1,3.18-8.384h-.024s-4.252.289-4.369,7.094S703.135,759.876,703.135,759.876Z" transform="translate(-538.165 -576.512)"/><path class="g" d="M832.682,700.885l7.513-5.871,11.823-11.65s-1.277-.061-3.2-.144c-.489.306-1.823,1.267-1.872,2.446-.059,1.424-3.2.1-4.827.912s-9.609,11.028-11.009,10.962-2.5-.709-3.087.281c0,.022-.027.042-.042.064Z" transform="translate(-632.698 -529.868)"/><path class="g" d="M709.6,746.552c.267.13.536.245.812.372,5.71,2.446,12.755,7.584,13.281,8.5.318.568,4.4,3.048,7.557,4.907,1.321-.245,2.285-.489,2.285-.489s-2.329-7.745-2.622-7.978-10.483-6.348-10.483-6.348l-8.073-.58h-.024A4.262,4.262,0,0,0,709.6,746.552Z" transform="translate(-543.278 -576.489)"/><path class="l" d="M643.733,647.008c.756,1.864,7.094,9.029,7.094,9.029a27.843,27.843,0,0,0,9.727,7.686c5.71,2.446,12.755,7.584,13.279,8.5.338.6,4.893,3.339,8.093,5.223l.717.418,1.59.922.842.489s1.957-1.566,3.892-3.141,3.824-3.119,3.855-3.207c.056-.174.812-2.155.638-2.27-.09-.061-.489-.868-1.223-1.8a8.273,8.273,0,0,0-2.967-2.446,8.359,8.359,0,0,1-3.843-4.007s-.245-.186-.643-.431a7.791,7.791,0,0,0-2.618-1.167c-1.284-.161-3.669-2.781-3.669-2.781a7.193,7.193,0,0,1-2.273-2.388c-.612-1.277-9.644-7.481-10.48-8.053l21.9,14.062,5.24,3.369,7.513-5.871,11.826-11.65s-1.59-.078-3.914-.176c-5.746-.245-15.953-.638-17.242-.347a9.824,9.824,0,0,1-3.2.208,11.221,11.221,0,0,1-4.829-.883c-1.923-1.015-4.954-1.49-5.3-2.241s-10.659-4.367-10.659-4.367-14.035-7.454-19.045-3.026S642.975,645.146,643.733,647.008Z" transform="translate(-493.254 -493.638)"/><path class="o" d="M829.82,455.2l1.805,6,2.329,13.511,8.562.582,2.478-4.11,2.483-4.1s1.541-5.46,2.649-10.742c.979-4.673,1.62-9.208.553-9.7-.944-.438-1.566-2.011-1.957-3.7-.051-.208-.1-.421-.142-.634a32.912,32.912,0,0,1-.568-4.342s-17.939-.93-15.434,6.466a11.786,11.786,0,0,1,.675,3.934,9.386,9.386,0,0,1-.061,1,8.391,8.391,0,0,1-3.374,5.842Z" transform="translate(-634.088 -344.574)"/><path class="h" d="M814.58,489.468l.641,10.191,1.456,8.677,1.632,4.019,1.455,21.988s14.045,1.624,17.46-.029a1.5,1.5,0,0,0,.619-.489c4.125-6.221,2.772-24.265,2.772-24.265l1.573-11.652-1.05-6.047-2.532-.269-1.957-.208s-.44.543-1.076,1.382c-1.727,2.28-4.893,6.764-4.69,8.636.289,2.564-.35,5.184-1.341,5.592s-1.805,1.106-1.979.408a3.167,3.167,0,0,1-.176-1.864c.174-.991-.758-4.019-.758-4.019s-1.571-3.552-1.468-5.066-.174-3.263-.641-3.67-1.106-.817-.582-2.691-2.3-5.492-2.3-5.492Z" transform="translate(-622.576 -379.837)"/><path class="g" d="M890.333,494.769l.582,17.416,3.364,1.864a1.5,1.5,0,0,0,.619-.489c4.127-6.231,2.774-24.273,2.774-24.273l1.573-11.65-1.049-6.045-2.534-.269c.979-4.673,1.62-9.208.555-9.7-.947-.438-1.568-2.011-1.972-3.7h0l-1.81,12.33s.152,1.111.206,2.256a6.47,6.47,0,0,1-.147,2.17,7.243,7.243,0,0,0-.117,2.914c-1.049,1.849-1.573,5.277-1.83,8.587C890.2,490.576,890.333,494.769,890.333,494.769Z" transform="translate(-679.779 -359.684)"/><path class="n" d="M895.288,456.82s2.936.364,3.865,1.588,3.378,1.392,3.378,1.392,2.8.932,2.738,1.164.815.585,2.564,1.049,4.648,2.155,4.648,2.564,4.6,4.949,4.6,5.416,1.4,2.2,1.223,5.3-.35,6.989.35,7.63,0,3.146,0,3.146a1.713,1.713,0,0,0-.037,1.864c.582,1.049-.115,5.419-.115,5.419l.056,4.543s-.641,2.852.117,2.97-.117,1.4-.117,1.4-.641,2.331.176,3.378,1.047,5.534,1.047,5.534l12.476,18.1s.176,3.32-3.784,3.261-3.914.758-3.787,1.514-1.106,1.573-1.106,1.573-1.573.815-.641,1.805,3.611,3.261-.815,4.775a10.555,10.555,0,0,1-1.282-2.329,26.346,26.346,0,0,1-.932-3.144s-.409-4.428-1.223-5.01-.7-3.378-.7-3.378,1.164-2.27-.465-3.2-25.3-14.025-25.3-14.025l-.582-17.416s-.408-12.87,2.038-17.181a7.234,7.234,0,0,1,.117-2.911c.409-1.047-.059-4.428-.059-4.428Z" transform="translate(-680.766 -358.853)"/><path class="g" d="M778.5,483.3s-5.854-1.206-7.427-.391-4.648,1.468-5.137,1.923-1.632.117-2.679,2.855-1.167,5.531-2.505,6.813-2.038,2.155-2.1,3.087.174,1.164-.35,1.468-1.282,1.514-1.049,1.982,12.136,10.7,12.136,10.7a27.823,27.823,0,0,0,1.108,4.893c.523.979-.582,14.62-1.747,15.552s7.863.846,7.863.846.406-8.941.756-9.409-.245-10.03-.245-10.03-.059-8.154.7-10.309.673-9.311.673-9.311.67-4.3,1.485-5.3S778.5,483.3,778.5,483.3Z" transform="translate(-579.244 -378.345)"/><path class="n" d="M777.791,482.589s-5.857-1.206-7.43-.391-4.648,1.456-5.125,1.923-1.629.115-2.691,2.852-1.164,5.534-2.505,6.816-2.038,2.155-2.1,3.087.176,1.164-.347,1.456-1.282,1.514-1.049,1.979,12.114,10.717,12.114,10.717a27.765,27.765,0,0,0,1.106,4.893c.523.979-.582,14.617-1.747,15.549s7.863.846,7.863.846.409-8.941.758-9.406-.245-10.03-.245-10.03-.056-8.154.7-10.309.673-9.321.673-9.321.67-4.3,1.482-5.3S777.791,482.589,777.791,482.589Z" transform="translate(-578.707 -377.809)"/><path class="g" d="M840.26,444.42a11.788,11.788,0,0,1,.675,3.934,13.364,13.364,0,0,0,15.326-6.057,32.953,32.953,0,0,1-.568-4.342S837.758,437.025,840.26,444.42Z" transform="translate(-641.793 -344.574)"/><path class="o" d="M804.82,385.656a13.338,13.338,0,1,0,.289-2.772A13.338,13.338,0,0,0,804.82,385.656Z" transform="translate(-615.204 -295.014)"/><path class="n" d="M733.676,553.06l-3.2.991a1.66,1.66,0,0,1-.641,1.747,1.949,1.949,0,0,0-.815,1.749s-.35,1.279-1.164,1.571-1.341,2.2-1.341,2.2l-2.679,3.087s-.991.815-.815,1.223-1.049.523-1.049.523l.641,10.378,5.534,1.049,3.425-.35,2.8-1.049,2.446-1.468,1.116-2.83,4.893-7.454Z" transform="translate(-552.622 -431.55)"/><path class="o" d="M681.2,590.368s-7.094-10.253-12.406-4.719,2.155,14.5,3.9,14.211,10.077-.756,10.077-.756Z" transform="translate(-511.036 -454.928)"/><rect class="b" width="15.026" height="17.076" rx="7.513" transform="translate(153.179 136.292) rotate(-42.05)"/><rect class="g" width="15.026" height="17.076" rx="7.513" transform="translate(153.179 136.292) rotate(-42.05)"/><rect class="b" width="15.026" height="17.076" rx="7.513" transform="translate(153.379 135.448) rotate(-42.05)"/><circle class="c" cx="3.32" cy="3.32" r="3.32" transform="translate(161.17 133.857)"/><circle class="g" cx="3.32" cy="3.32" r="3.32" transform="translate(161.17 133.857)"/><circle class="c" cx="3.32" cy="3.32" r="3.32" transform="translate(161.356 133.436)"/><path class="o" d="M706.5,607.631c-.059,7.689,15.843,9.318,15.843,9.318l4.061.646,1.82.289.758-7.505s-.834-.125-1.876-.367c-1.539-.36-3.532-.979-3.951-1.847C722.457,606.709,706.556,599.945,706.5,607.631Z" transform="translate(-540.936 -470.046)"/><path class="g" d="M806,383.055a1.583,1.583,0,0,1,.979.435c.45.477.475,1.324,1.059,1.617a1.2,1.2,0,0,0,.695.081c1.549-.22,2.446-1.957,3.931-2.446a3.963,3.963,0,0,1,2.605.223,1.939,1.939,0,0,1,.864.555c.489.643.149,1.59.379,2.371.32,1.081,1.612,1.512,2.73,1.654s2.378.22,3.124,1.064a2.835,2.835,0,0,1,.555,2.253,1.781,1.781,0,0,0,0,.834c.308.873,1.82.734,2.214.054.289-.5.2-.917.881-1.057a2.9,2.9,0,0,1,1.426.245,10.448,10.448,0,0,0,3.689.568A13.34,13.34,0,1,0,806,383.055Z" transform="translate(-616.095 -295.184)"/><path class="l" d="M812.8,369.279a1.783,1.783,0,0,1,0-.834,2.838,2.838,0,0,0-.555-2.253c-.734-.844-2.006-.925-3.124-1.064s-2.41-.57-2.73-1.651c-.23-.78.117-1.73-.379-2.373a1.908,1.908,0,0,0-.861-.553,4.02,4.02,0,0,0-2.608-.225c-1.485.489-2.383,2.231-3.931,2.446a1.2,1.2,0,0,1-.695-.081c-.585-.294-.609-1.14-1.059-1.615-.707-.749-2.05-.267-2.916-.822a2.68,2.68,0,0,1-.939-1.725,8.4,8.4,0,0,1-.259-3.863c.506-2.167,2.446-3.652,3.669-5.5,1.152-1.725,1.8-3.914,3.53-5.049s3.956-.883,5.908-.3a18.235,18.235,0,0,0,2.767.734,31.868,31.868,0,0,0,4.741-.289,10.182,10.182,0,0,1,6.26,1.9,3.465,3.465,0,0,1,1.023,1.035,5.294,5.294,0,0,1,.453,1.854,9.479,9.479,0,0,0,1.223,3.408c.489.82,1.1,1.563,1.546,2.41a3.7,3.7,0,0,1,.418,2.757c-.149.489-.445.912-.555,1.4-.259,1.138.489,2.224,1,3.273a6.14,6.14,0,0,1,.68,3.1,3.914,3.914,0,0,1-1.394,2.791,5.01,5.01,0,0,1-2.953.9,10.466,10.466,0,0,1-3.762-.565,2.93,2.93,0,0,0-1.426-.245c-.68.139-.592.555-.881,1.057C814.614,370.022,813.1,370.152,812.8,369.279Z" transform="translate(-605.977 -273.12)"/><path class="g" d="M829.552,702.217l7.513-5.871,11.826-11.65s-1.59-.078-3.914-.176a2.527,2.527,0,0,0-.824,1.59c-.059,1.424-3.2.1-4.827.915s-9.609,11.026-11.009,10.96-2.5-.709-3.087.281a.612.612,0,0,1-.042.066,1.656,1.656,0,0,1-.888.526Z" transform="translate(-629.918 -530.85)"/><path class="l" d="M783.87,689.3l3.775,12.051.592,1.893,1.8-.489L794,701.668l17.653-4.849a15.379,15.379,0,0,0,6.36-1.7,19.242,19.242,0,0,1,10.97-2.393c2.334.218,4.929-.788,7.094-4.766,0,0,4.893-14.434-7.456-18.592s-12.936,2.2-12.936,2.2-.064.034-.166.1c-.489.306-1.823,1.267-1.871,2.446-.059,1.424-3.2.1-4.827.912S799.209,686.065,797.809,686s-2.5-.709-3.087.281c0,.022-.027.042-.042.064-.431.594-1.727.734-2.586.756-.467.015-.807,0-.807,0l-.11.034-.915.254Z" transform="translate(-599.379 -518.343)"/><path class="g" d="M787.86,636.084l1.82.289.758-7.505s-.834-.125-1.876-.367C788.839,629.54,788.212,633.593,787.86,636.084Z" transform="translate(-602.393 -488.534)"/><path class="g" d="M836.313,515.445s5.416-1.573,4.076,13.8a42.937,42.937,0,0,1-11.356,25.092s-11.532,5.066-16.716,4.252a88.834,88.834,0,0,0-8.968-.979,13.16,13.16,0,0,0-5.243-1.4c-2.914-.117-9.027-1.923-9.144-2.505s1.514-9.144.815-9.785c0,0,8.154.335,8.971.925s1.979.166,2.852,0,3.555-2.5,8.853-.457a5.368,5.368,0,0,0,2.505-.291,2.5,2.5,0,0,1,1.82-.117,4.771,4.771,0,0,0,1.267-.653c.169-.245,1.57,0,1.57,0a.621.621,0,0,0,.876-.409,3.806,3.806,0,0,1,.815-1.279s1.573-8.853,4.543-12.173a1.9,1.9,0,0,0,.641-1.69C824.257,526.85,829.331,513.579,836.313,515.445Z" transform="translate(-603.22 -403.001)"/><path class="n" d="M835.735,510.607s5.416-1.573,4.078,13.8a42.935,42.935,0,0,1-11.371,25.1s-11.532,5.066-16.716,4.252-8.968-.991-8.968-.991a13.143,13.143,0,0,0-5.243-1.4c-2.911-.117-9.027-1.923-9.144-2.505s1.514-9.145.817-9.785c0,0,8.154.335,8.968.925s1.981.166,2.855,0,3.552-2.5,8.853-.457a5.357,5.357,0,0,0,2.5-.291,2.511,2.511,0,0,1,1.823-.117,5.13,5.13,0,0,0,1.265-.641c.174-.232,1.573,0,1.573,0a.619.619,0,0,0,.873-.406,3.8,3.8,0,0,1,.815-1.282s1.573-8.853,4.543-12.173a1.9,1.9,0,0,0,.641-1.688C823.667,522.027,828.734,508.743,835.735,510.607Z" transform="translate(-602.774 -399.347)"/><path class="g" d="M810,746.509l7.691,9.3c.029-.027.049-.047.049-.054.059-.176.815-2.155.641-2.273s-1.514-3.029-4.193-4.252a7.883,7.883,0,0,1-3.293-3Z" transform="translate(-619.116 -577.463)"/><path class="g" d="M809.925,781.465l.841.489s1.957-1.566,3.892-3.141,3.824-3.119,3.855-3.207c.056-.174.812-2.155.639-2.27-.091-.061-.489-.869-1.223-1.8-5.216-1.468-1.9,2.16-1.453,2.326,0,0-6.361-1.468-6.7,5.458A8.162,8.162,0,0,0,809.925,781.465Z" transform="translate(-618.936 -596.313)"/><path class="n" d="M818.02,784.418l1.108.641,11.253.291a21.734,21.734,0,0,0,3.978,1.913,3.4,3.4,0,0,0,.565.125,25.266,25.266,0,0,0,3.131.059c.861-.022,1.529-.059,1.529-.059s-.533-14.189-.935-15.657c-.191-.714-1.133-.558-2.062-.2a13.489,13.489,0,0,0-2.013,1.02s-4.775.462-5.534.873-2.911-.245-4.252,0-3.726-1.578-3.726-1.578c-6.524-2.153-2.855,1.864-2.39,2.04,0,0-6.346-1.468-6.7,5.458S818.02,784.418,818.02,784.418Z" transform="translate(-620.599 -596.335)"/><path class="n" d="M903.134,778.991c.122,2.936,2.41,6.578,3.772,8.5.861-.022,1.529-.059,1.529-.059s-.533-14.189-.935-15.657c-.191-.714-1.133-.558-2.062-.2C904.32,773.682,903.036,776.625,903.134,778.991Z" transform="translate(-689.462 -596.383)"/><path class="g" d="M903.134,778.991c.122,2.936,2.41,6.578,3.772,8.5.861-.022,1.529-.059,1.529-.059s-.533-14.189-.935-15.657c-.191-.714-1.133-.558-2.062-.2C904.32,773.682,903.036,776.625,903.134,778.991Z" transform="translate(-689.462 -596.383)"/><path class="m" d="M894.705,779.38c.773,2.833.766,6.011,2,7.931a3.4,3.4,0,0,0,.565.125,25.265,25.265,0,0,0,3.131.059c.861-.022,1.529-.059,1.529-.059s-.533-14.189-.935-15.657c-.191-.714-1.133-.558-2.062-.2a13.511,13.511,0,0,0-2.013,1.02S893.717,775.754,894.705,779.38Z" transform="translate(-682.957 -596.383)"/><path class="g" d="M736.77,686.94s5.583,1.813,10.314,8.252Z" transform="translate(-563.801 -532.678)"/><g class="p" transform="translate(186.617 80.373)"><path d="M921.527,401.26a1.128,1.128,0,0,1-.034.122,3.939,3.939,0,0,1-.193.489A3.647,3.647,0,0,1,921.527,401.26Z" transform="translate(-889.805 -397.258)"/><path d="M792.693,386.077a5.252,5.252,0,0,1,.433-1.177c-.029.1-.061.2-.086.3a8.4,8.4,0,0,0,.259,3.863,2.691,2.691,0,0,0,.939,1.725c.869.555,2.2.071,2.916.82.45.477.475,1.323,1.062,1.617a1.2,1.2,0,0,0,.695.081c1.546-.22,2.446-1.957,3.931-2.446a3.95,3.95,0,0,1,2.605.225,1.907,1.907,0,0,1,.861.553c.489.643.149,1.593.379,2.37.32,1.081,1.612,1.512,2.73,1.651s2.378.22,3.124,1.067a2.833,2.833,0,0,1,.555,2.253,1.814,1.814,0,0,0,0,.834c.308.873,1.82.734,2.2.054.289-.5.2-.917.883-1.057a2.9,2.9,0,0,1,1.424.245,10.464,10.464,0,0,0,3.763.565,4.988,4.988,0,0,0,2.953-.9,3.424,3.424,0,0,0,.905-1.1,3.7,3.7,0,0,1-1.248,1.977,5,5,0,0,1-2.953.9,10.443,10.443,0,0,1-3.76-.565,2.928,2.928,0,0,0-1.426-.245c-.68.139-.594.555-.881,1.057-.4.69-1.906.82-2.216-.054a1.814,1.814,0,0,1,0-.834,2.827,2.827,0,0,0-.553-2.253c-.749-.844-2.008-.925-3.126-1.064s-2.41-.57-2.728-1.651c-.232-.78.117-1.73-.379-2.373a1.928,1.928,0,0,0-.864-.553,4.012,4.012,0,0,0-2.605-.225c-1.487.489-2.385,2.231-3.931,2.446a1.2,1.2,0,0,1-.695-.081c-.587-.294-.612-1.14-1.062-1.615-.707-.749-2.048-.267-2.914-.822a2.683,2.683,0,0,1-.942-1.725A8.444,8.444,0,0,1,792.693,386.077Z" transform="translate(-792.558 -384.9)"/></g><path class="g" d="M911.475,571.642c-1.067,1.441-2.285,2.774-3.229,4.3a8.153,8.153,0,0,0-1.414,5.084,13.3,13.3,0,0,0,2.04-3.645,52.352,52.352,0,0,1,3.914-5.891c.245-.374,1.862-2.532,1.047-2.635C913.163,568.767,911.84,571.15,911.475,571.642Z" transform="translate(-692.234 -443.477)"/></g></svg>