<svg xmlns="http://www.w3.org/2000/svg" width="496.685" height="350" viewBox="0 0 496.685 350">
  <defs>
    <style>
      .cls-1 {
        fill: #f2f2f2;
      }

      .cls-2 {
        fill: #3f3d56;
      }

      .cls-3 {
        fill: #fff;
      }

      .cls-4 {
        fill: #e6e6e6;
      }

      .cls-5 {
        fill: #ff6584;
      }

      .cls-6 {
        fill: #ccc;
      }

      .cls-7 {
        fill: #ffb8b8;
      }

      .cls-8 {
        fill: #2f2e41;
      }

      .cls-9 {
        fill: #a0616a;
      }
    </style>
  </defs>
  <g id="undraw_Scrum_board_re_wk7v_1_" data-name="undraw_Scrum_board_re_wk7v (1)" transform="translate(0 0.003)">
    <path id="Path_3131" data-name="Path 3131" class="cls-1" d="M318.48,195.554H286.805a11.5,11.5,0,0,0-11.485,11.485v34.34c-.4-.024-.81-.06-1.209-.109A40.5,40.5,0,1,1,318.3,194.345C318.365,194.744,318.425,195.149,318.48,195.554Z" transform="translate(-208.419 -160.495)"/>
    <path id="Path_3132" data-name="Path 3132" class="cls-2" d="M716.137,216.5h-405.6a12.708,12.708,0,0,0-12.694,12.694V443.174a12.708,12.708,0,0,0,12.694,12.694h405.6a12.708,12.708,0,0,0,12.694-12.694V229.189A12.708,12.708,0,0,0,716.137,216.5Zm11.485,226.679a11.5,11.5,0,0,1-11.485,11.485h-405.6a11.5,11.5,0,0,1-11.485-11.485V229.189A11.5,11.5,0,0,1,310.532,217.7h405.6a11.5,11.5,0,0,1,11.485,11.485Z" transform="translate(-232.146 -182.645)"/>
    <path id="Path_3133" data-name="Path 3133" class="cls-2" d="M717.151,273.074H351.443a.6.6,0,1,1,0-1.209H717.151a.6.6,0,1,1,0,1.209Z" transform="translate(-253.108 -204.546)"/>
    <path id="Path_3134" data-name="Path 3134" class="cls-2" d="M522.443,438.577a.6.6,0,0,1-.6-.6V239.1a.6.6,0,1,1,1.209,0V437.973A.6.6,0,0,1,522.443,438.577Z" transform="translate(-320.743 -191.347)"/>
    <path id="Path_3135" data-name="Path 3135" class="cls-2" d="M673.443,438.577a.6.6,0,0,1-.6-.6V239.1a.6.6,0,0,1,1.209,0V437.973A.6.6,0,0,1,673.443,438.577Z" transform="translate(-380.466 -191.347)"/>
    <path id="Path_3136" data-name="Path 3136" class="cls-2" d="M824.443,438.577a.6.6,0,0,1-.6-.6V239.1a.6.6,0,1,1,1.209,0V437.973A.6.6,0,0,1,824.443,438.577Z" transform="translate(-440.19 -191.347)"/>
    <path id="Path_3137" data-name="Path 3137" class="cls-3" d="M409.522,356.468H387.434a2.723,2.723,0,0,1-2.72-2.72V327.683a2.723,2.723,0,0,1,2.72-2.72h22.088a2.723,2.723,0,0,1,2.72,2.72v26.065A2.723,2.723,0,0,1,409.522,356.468Z" transform="translate(-266.507 -225.547)"/>
    <path id="Path_3138" data-name="Path 3138" class="cls-3" d="M461.522,479.468H439.434a2.723,2.723,0,0,1-2.72-2.72V450.683a2.723,2.723,0,0,1,2.72-2.72h22.088a2.723,2.723,0,0,1,2.72,2.72v26.065a2.723,2.723,0,0,1-2.72,2.72Z" transform="translate(-287.074 -274.196)"/>
    <path id="Path_3139" data-name="Path 3139" class="cls-3" d="M579.522,382.468H557.434a2.723,2.723,0,0,1-2.72-2.72V353.683a2.723,2.723,0,0,1,2.72-2.72h22.088a2.723,2.723,0,0,1,2.72,2.72v26.065A2.723,2.723,0,0,1,579.522,382.468Z" transform="translate(-333.746 -235.831)"/>
    <path id="Path_3140" data-name="Path 3140" class="cls-3" d="M732.522,335.468H710.434a2.723,2.723,0,0,1-2.72-2.72V306.683a2.723,2.723,0,0,1,2.72-2.72h22.088a2.723,2.723,0,0,1,2.72,2.72v26.065A2.723,2.723,0,0,1,732.522,335.468Z" transform="translate(-394.261 -217.241)"/>
    <path id="Path_3141" data-name="Path 3141" class="cls-3" d="M873.522,335.468H851.434a2.723,2.723,0,0,1-2.72-2.72V306.683a2.723,2.723,0,0,1,2.72-2.72h22.088a2.723,2.723,0,0,1,2.72,2.72v26.065A2.723,2.723,0,0,1,873.522,335.468Z" transform="translate(-450.029 -217.241)"/>
    <path id="Path_3142" data-name="Path 3142" class="cls-4" d="M938.522,347.468H916.434a2.723,2.723,0,0,1-2.72-2.72V318.683a2.723,2.723,0,0,1,2.72-2.72h22.088a2.723,2.723,0,0,1,2.72,2.72v26.065A2.723,2.723,0,0,1,938.522,347.468Z" transform="translate(-475.738 -221.987)"/>
    <path id="Path_3143" data-name="Path 3143" class="cls-4" d="M909.522,424.468H887.434a2.723,2.723,0,0,1-2.72-2.72V395.683a2.723,2.723,0,0,1,2.72-2.72h22.088a2.723,2.723,0,0,1,2.72,2.72v26.065A2.723,2.723,0,0,1,909.522,424.468Z" transform="translate(-464.268 -252.443)"/>
    <path id="Path_3144" data-name="Path 3144" class="cls-5" d="M785.522,408.468H763.434a2.723,2.723,0,0,1-2.72-2.72V379.683a2.723,2.723,0,0,1,2.72-2.72h22.088a2.723,2.723,0,0,1,2.72,2.72v26.065A2.723,2.723,0,0,1,785.522,408.468Z" transform="translate(-415.223 -246.114)"/>
    <path id="Path_3145" data-name="Path 3145" class="cls-4" d="M714.522,424.468H692.434a2.723,2.723,0,0,1-2.72-2.72V395.683a2.723,2.723,0,0,1,2.72-2.72h22.088a2.723,2.723,0,0,1,2.72,2.72v26.065A2.723,2.723,0,0,1,714.522,424.468Z" transform="translate(-387.141 -252.443)"/>
    <path id="Path_3146" data-name="Path 3146" class="cls-4" d="M561.522,492.468H539.434a2.723,2.723,0,0,1-2.72-2.72V463.683a2.723,2.723,0,0,1,2.72-2.72h22.088a2.723,2.723,0,0,1,2.72,2.72v26.065A2.723,2.723,0,0,1,561.522,492.468Z" transform="translate(-326.626 -279.338)"/>
    <path id="Path_3147" data-name="Path 3147" class="cls-5" d="M376.522,435.468H354.434a2.723,2.723,0,0,1-2.72-2.72V406.683a2.723,2.723,0,0,1,2.72-2.72h22.088a2.723,2.723,0,0,1,2.72,2.72v26.065A2.723,2.723,0,0,1,376.522,435.468Z" transform="translate(-253.455 -256.793)"/>
    <path id="Path_3148" data-name="Path 3148" class="cls-4" d="M479.522,356.468H457.434a2.723,2.723,0,0,1-2.72-2.72V327.683a2.723,2.723,0,0,1,2.72-2.72h22.088a2.723,2.723,0,0,1,2.72,2.72v26.065A2.723,2.723,0,0,1,479.522,356.468Z" transform="translate(-294.194 -225.547)"/>
    <path id="Path_3149" data-name="Path 3149" class="cls-6" d="M441.711,254.331H407.256a2.418,2.418,0,1,1,0-4.836h34.455a2.418,2.418,0,0,1,0,4.836Z" transform="translate(-274.466 -195.698)"/>
    <path id="Path_3150" data-name="Path 3150" class="cls-6" d="M602.711,254.331H568.256a2.418,2.418,0,1,1,0-4.836h34.455a2.418,2.418,0,0,1,0,4.836Z" transform="translate(-338.146 -195.698)"/>
    <path id="Path_3151" data-name="Path 3151" class="cls-6" d="M753.711,254.331H719.256a2.418,2.418,0,0,1,0-4.836h34.455a2.418,2.418,0,0,1,0,4.836Z" transform="translate(-397.87 -195.698)"/>
    <path id="Path_3152" data-name="Path 3152" class="cls-6" d="M894.711,254.331H860.256a2.418,2.418,0,0,1,0-4.836h34.455a2.418,2.418,0,1,1,0,4.836Z" transform="translate(-453.638 -195.698)"/>
    <path id="Path_3153" data-name="Path 3153" class="cls-7" d="M324.592,534.554a6.079,6.079,0,0,1-5.259-7.7l-15.495-14.424,8.192-2.078,15.236,12.358a6.111,6.111,0,0,1-2.675,11.839Z" transform="translate(-234.519 -298.874)"/>
    <path id="Path_3154" data-name="Path 3154" class="cls-7" d="M184.4,547.549h7.411l3.525-28.584H184.4Z" transform="translate(-72.935 -205.263)"/>
    <path id="Path_3155" data-name="Path 3155" class="cls-8" d="M0,0H23.291V9H9A9,9,0,0,1,0,0H0Z" transform="translate(133.17 349.168) rotate(179.997)"/>
    <path id="Path_3156" data-name="Path 3156" class="cls-7" d="M100.345,539.327l7.162,1.907,10.76-26.715L107.7,511.705Z" transform="translate(-39.689 -202.392)"/>
    <path id="Path_3157" data-name="Path 3157" class="cls-8" d="M0,0H23.291V9H9A9,9,0,0,1,0,0H0Z" transform="matrix(-0.966, -0.257, 0.257, -0.966, 79.859, 349.169)"/>
    <path id="Path_3158" data-name="Path 3158" class="cls-8" d="M348.865,631.638H337.557a2.859,2.859,0,0,1-2.857-2.6l-6.865-71.287a2.265,2.265,0,0,0-4.425-.432l-19.931,66.613a2.867,2.867,0,0,1-3.446,1.962l-10.52-2.63a2.87,2.87,0,0,1-2.084-3.5c.172-.671,17.174-67.114,17.322-67.8,3.852-28.391,8.461-36,10.937-40.086.2-.338.393-.649.563-.943.212-.368,1.519-4.016,2.348-6.386a2.9,2.9,0,0,1,1.472-1.8c10.4-5.32,22.576-1.638,26.059-.382a2.83,2.83,0,0,1,1.413,1.1c10.448,15.76,5.321,107.289,4.187,125.478a2.872,2.872,0,0,1-2.864,2.686Z" transform="translate(-227.993 -294.764)"/>
    <circle id="Ellipse_196" data-name="Ellipse 196" class="cls-7" cx="14.847" cy="14.847" r="14.847" transform="translate(76.843 126.615)"/>
    <path id="Path_3159" data-name="Path 3159" class="cls-6" d="M326.625,478.349l-.107-.1c-.2-.194-19.981-19.573-17.421-37.492,1.095-7.665,7.3-12.562,17.933-14.163a16.4,16.4,0,0,1,18.134,11.558L355.683,474.1Z" transform="translate(-236.508 -265.672)"/>
    <path id="Path_3160" data-name="Path 3160" class="cls-6" d="M310.749,499.79l-14.1-14.006a7.941,7.941,0,0,1-2.1-7.49l6.824-27.757a6.259,6.259,0,1,1,12.083,3.26l-7.184,24.419L317.89,490.69Z" transform="translate(-230.756 -273.329)"/>
    <path id="Path_3161" data-name="Path 3161" class="cls-7" d="M428.367,450.358a6.079,6.079,0,0,1-9,2.435l-18.817,9.753.832-8.285,16.682-10.324a6.111,6.111,0,0,1,10.3,6.42Z" transform="translate(-272.772 -271.698)"/>
    <path id="Path_3162" data-name="Path 3162" class="cls-6" d="M394.372,452.565l-18.344,7.927a7.743,7.743,0,0,1-7.542-.809L345.161,442.97a6.259,6.259,0,1,1,7.517-10.007l20,15.742,15.9-6.151Z" transform="translate(-249.829 -267.738)"/>
    <path id="Path_3163" data-name="Path 3163" class="cls-8" d="M321.546,387.24c1.832-2.295,5.253-2.418,7.769-3.932,3.3-1.983,4.658-6.414,3.6-10.111a12.685,12.685,0,0,0-7.785-7.955,21.482,21.482,0,0,0-11.374-.729c-5.64.992-11.193,3.624-14.632,8.2s-4.315,11.283-1.2,16.087c1.433,2.208,3.645,4.03,4.216,6.6.751,3.373-1.615,6.626-4.149,8.974-2.887,2.676-6.2,4.916-8.73,7.932s-4.217,7.137-3.062,10.9c.967,3.153,3.782,5.476,6.868,6.64a29.111,29.111,0,0,0,9.745,1.4c3.2.063,6.6-.015,9.3-1.742a10.815,10.815,0,0,0,4.543-8.781,20.8,20.8,0,0,0-2.566-9.85,37.865,37.865,0,0,1-2.586-5.549,7.779,7.779,0,0,1,.26-5.962,7.434,7.434,0,0,1,5.2-3.442c.109-.022.225-.041.347-.058a4.472,4.472,0,0,0,3.828-5.215A4.367,4.367,0,0,1,321.546,387.24Z" transform="translate(-227.395 -241.021)"/>
    <path id="Path_3164" data-name="Path 3164" class="cls-9" d="M476.073,548.6h-7.411l-3.525-28.584h10.937Z" transform="translate(-183.972 -205.677)"/>
    <path id="Path_3165" data-name="Path 3165" class="cls-8" d="M456.324,563.8h14.292v9H447.325A9,9,0,0,1,456.324,563.8Z" transform="translate(-176.927 -222.995)"/>
    <path id="Path_3166" data-name="Path 3166" class="cls-9" d="M557.9,536.4l-6.741,3.079-15.084-24.535,9.949-4.544Z" transform="translate(-212.031 -201.875)"/>
    <path id="Path_3167" data-name="Path 3167" class="cls-8" d="M9,0H23.291V9H0A9,9,0,0,1,9,0Z" transform="translate(325.25 341.618) rotate(-24.548)"/>
    <path id="Path_3168" data-name="Path 3168" class="cls-9" d="M719.219,549.328a6.078,6.078,0,0,0,.484-9.308l8.712-19.766-11.067,1.876-6.576,18.483a6.111,6.111,0,0,0,8.447,8.716Z" transform="translate(-394.928 -302.789)"/>
    <path id="Path_3169" data-name="Path 3169" class="cls-8" d="M662.671,644.307h-7.08a2.73,2.73,0,0,1-2.713-2.523l-3.861-103.1a2.72,2.72,0,0,1,2.977-2.9l40.944,4.348a2.721,2.721,0,0,1,2.456,2.656l.858,45.478a2.111,2.111,0,0,0,.141.721l16.8,43.554a2.719,2.719,0,0,1-1.6,3.531l-7.174,2.643a2.721,2.721,0,0,1-3.359-1.308l-20.632-40.119a2.7,2.7,0,0,1-.244-.691l-3.525-16.982a2.116,2.116,0,0,0-4.173.189l-7.11,62.094a2.719,2.719,0,0,1-2.7,2.411Z" transform="translate(-371.042 -308.925)"/>
    <circle id="Ellipse_197" data-name="Ellipse 197" class="cls-9" cx="14.847" cy="14.847" r="14.847" transform="translate(280.307 119.454)"/>
    <path id="Path_3170" data-name="Path 3170" class="cls-3" d="M675.651,501.5a52.992,52.992,0,0,1-28.334-8.583l-.144-.1.015-.175,5.679-66.14a9.321,9.321,0,0,1,8.825-8.5c7.36-.338,17.246.088,22.538,4.03a25.808,25.808,0,0,1,10.576,24.61c-2.648,20.08.352,47.167.7,50.189l.025.218-.2.091A46.7,46.7,0,0,1,675.651,501.5Z" transform="translate(-370.315 -262.308)"/>
    <path id="Path_3171" data-name="Path 3171" class="cls-3" d="M720.138,506.932a3.026,3.026,0,0,1-2.225-.981l-3.248-3.543a3.038,3.038,0,0,1-.67-2.9l7.405-25.064-11.268-23.661a5.325,5.325,0,0,1,9.5-4.814l15.29,24.809a7.224,7.224,0,0,1,.435,6.769l-12.458,27.6a3.015,3.015,0,0,1-2.277,1.741A3.05,3.05,0,0,1,720.138,506.932Z" transform="translate(-395.013 -272.301)"/>
    <path id="Path_3172" data-name="Path 3172" class="cls-9" d="M552.266,462.225a6.079,6.079,0,0,0,9.066-2.163l21.421,2.778-4.923-10.088-19.588-1.092a6.111,6.111,0,0,0-5.977,10.564Z" transform="translate(-331.79 -275.471)"/>
    <path id="Path_3173" data-name="Path 3173" class="cls-3" d="M607.335,454.222a8.141,8.141,0,0,1-1.115-.077l-33.7-4.674a3.35,3.35,0,0,1-2.57-1.881,3.428,3.428,0,0,1-.192-.5h0a3.363,3.363,0,0,1,.348-2.679l2.789-4.624a3.375,3.375,0,0,1,2.875-1.624h0l29.375.034,21.939-19.656a5.945,5.945,0,0,1,8.148,8.654l-21.891,24.347A8.079,8.079,0,0,1,607.335,454.222Z" transform="translate(-339.643 -261.959)"/>
    <path id="Path_3174" data-name="Path 3174" class="cls-8" d="M666.414,382.289c1.357-3.14,2.5-7.322-.1-9.542-1.509-1.288-3.684-1.29-5.661-1.451-5.572-.451-11.307-3.015-14.03-7.9s-1.2-12.141,3.935-14.343c3.463-1.485,7.433-.473,11.059.555L672.5,352.7c3.234.917,6.63,1.928,8.958,4.353,3.713,3.867,3.436,10.4.486,14.881s-7.391,9.146-12.475,10.846Z" transform="translate(-369.572 -234.781)"/>
    <path id="Path_3175" data-name="Path 3175" class="cls-2" d="M636.164,738.563H189.882a.72.72,0,1,1,0-1.439H636.164a.72.72,0,1,1,0,1.439Z" transform="translate(-189.162 -388.566)"/>
  </g>
</svg>
