<svg xmlns="http://www.w3.org/2000/svg" xmlns:xlink="http://www.w3.org/1999/xlink" width="1440" height="1112" viewBox="0 0 1440 1112">
  <defs>
    <style>
      .cls-1 {
        clip-path: url(#clip-_03_My_Whistle_From_Home_Template_Submit_1);
      }

      .cls-2 {
        fill: #eee;
      }

      .cls-10, .cls-19, .cls-23, .cls-29, .cls-3, .cls-34, .cls-9 {
        fill: #fff;
      }

      .cls-4 {
        fill: #555;
      }

      .cls-10, .cls-28, .cls-31, .cls-4, .cls-5 {
        font-size: 14px;
      }

      .cls-17, .cls-28, .cls-31, .cls-33, .cls-35, .cls-4 {
        font-family: ProximaNova-Semibold, Proxima Nova;
        font-weight: 600;
      }

      .cls-10, .cls-12, .cls-15, .cls-19, .cls-23, .cls-24, .cls-26, .cls-5 {
        font-family: ProximaNova-Bold, Proxima Nova;
        font-weight: 700;
      }

      .cls-11, .cls-20, .cls-27, .cls-37, .cls-6 {
        fill: none;
      }

      .cls-6 {
        stroke: rgba(0,0,0,0.08);
      }

      .cls-14, .cls-7 {
        fill: #dcdcdc;
      }

      .cls-12, .cls-24, .cls-28, .cls-31, .cls-33, .cls-35, .cls-8 {
        fill: #191710;
      }

      .cls-16, .cls-17, .cls-33, .cls-9 {
        font-size: 16px;
      }

      .cls-16, .cls-21, .cls-25, .cls-9 {
        font-family: ProximaNova-Regular, Proxima Nova;
      }

      .cls-11 {
        stroke: rgba(255,255,255,0.26);
      }

      .cls-12 {
        font-size: 20px;
      }

      .cls-13 {
        opacity: 0.5;
      }

      .cls-14, .cls-29 {
        stroke: rgba(53,53,150,0.2);
      }

      .cls-15, .cls-16, .cls-17 {
        fill: #15202b;
      }

      .cls-15, .cls-21, .cls-23, .cls-24, .cls-25, .cls-26 {
        font-size: 18px;
      }

      .cls-16 {
        opacity: 0.595;
      }

      .cls-17 {
        opacity: 0.657;
      }

      .cls-18 {
        fill: #373837;
      }

      .cls-19 {
        font-size: 24px;
      }

      .cls-20 {
        stroke: #f4f4f4;
      }

      .cls-21 {
        fill: #363a57;
      }

      .cls-22 {
        fill: #e8c407;
      }

      .cls-25 {
        opacity: 0.629;
      }

      .cls-27 {
        stroke: rgba(0,0,0,0.1);
      }

      .cls-30 {
        fill: rgba(255,255,255,0.1);
        stroke: rgba(255,255,255,0.13);
      }

      .cls-31, .cls-32, .cls-33, .cls-35 {
        opacity: 0.997;
      }

      .cls-34 {
        stroke: #fff;
      }

      .cls-35 {
        font-size: 12px;
      }

      .cls-36 {
        stroke: none;
      }

      .cls-38 {
        filter: url(#Template_V2);
      }

      .cls-39 {
        filter: url(#Union_7);
      }
    </style>
    <filter id="Union_7" x="-9" y="67" width="1458" height="1591.001" filterUnits="userSpaceOnUse">
      <feOffset dy="-3" input="SourceAlpha"/>
      <feGaussianBlur stdDeviation="3" result="blur"/>
      <feFlood flood-opacity="0.059"/>
      <feComposite operator="in" in2="blur"/>
      <feComposite in="SourceGraphic"/>
    </filter>
    <filter id="Template_V2" x="79" y="285" width="631" height="631" filterUnits="userSpaceOnUse">
      <feOffset dy="30" input="SourceAlpha"/>
      <feGaussianBlur stdDeviation="18" result="blur-2"/>
      <feFlood flood-opacity="0.161"/>
      <feComposite operator="in" in2="blur-2"/>
      <feComposite in="SourceGraphic"/>
    </filter>
    <clipPath id="clip-_03_My_Whistle_From_Home_Template_Submit_1">
      <rect width="1440" height="1112"/>
    </clipPath>
  </defs>
  <g id="_03_My_Whistle_From_Home_Template_Submit_1" data-name="03_My_Whistle_From_Home_Template_Submit – 1" class="cls-1">
    <rect class="cls-3" width="1440" height="1112"/>
    <g id="Group_1095" data-name="Group 1095">
      <rect id="Rectangle_687" data-name="Rectangle 687" class="cls-2" width="1440" height="49" transform="translate(1 79)"/>
      <g class="cls-39" transform="matrix(1, 0, 0, 1, 0, 0)">
        <path id="Union_7-2" data-name="Union 7" class="cls-3" d="M0,1573V49.48H321V8a8,8,0,0,1,8-8H491a8,8,0,0,1,8,8V49.48h941V1573Z" transform="translate(0 79)"/>
      </g>
      <text id="Home" class="cls-4" transform="translate(223 108)"><tspan x="-18.802" y="0">Home</tspan></text>
      <text id="How_super_are_you_" data-name="How super are you?" class="cls-5" transform="translate(409 108)"><tspan x="-64.533" y="0">How Super Are You?</tspan></text>
      <text id="Roaring_whistles" data-name="Roaring whistles" class="cls-4" transform="translate(586 108)"><tspan x="-52.304" y="0">Roaring Whistles</tspan></text>
      <text id="Yellove_wall" data-name="Yellove wall" class="cls-4" transform="translate(764 108)"><tspan x="-37.254" y="0">Yellove Wall</tspan></text>
      <text id="I_am_super" data-name="I am super" class="cls-4" transform="translate(940 108)"><tspan x="-34.468" y="0">I Am Super</tspan></text>
      <text id="Lions_reward" data-name="Lions reward" class="cls-4" transform="translate(1131 108)"><tspan x="-42" y="0">Lions Reward</tspan></text>
      <line id="Line_79" data-name="Line 79" class="cls-6" y2="24" transform="translate(137.5 91.5)"/>
      <line id="Line_80" data-name="Line 80" class="cls-6" y2="24" transform="translate(677.5 91.5)"/>
      <line id="Line_81" data-name="Line 81" class="cls-6" y2="24" transform="translate(855.5 91.5)"/>
      <line id="Line_82" data-name="Line 82" class="cls-6" y2="24" transform="translate(1034.5 91.5)"/>
      <line id="Line_86" data-name="Line 86" class="cls-6" y2="24" transform="translate(1231.5 91.5)"/>
    </g>
    <rect id="Screenshot_2020-02-08_at_7.48.17_PM" data-name="Screenshot 2020-02-08 at 7.48.17 PM" class="cls-7" width="1170" height="96" rx="8" transform="translate(133 142)"/>
    <g id="Group_206" data-name="Group 206" transform="translate(2744 -12661)">
      <rect id="Rectangle_55" data-name="Rectangle 55" class="cls-8" width="1440" height="221" transform="translate(-2744 13553)"/>
      <text id="_CSK._All_rights_reserved._" data-name="© CSK. All rights reserved. " class="cls-9" transform="translate(-2024 13672)"><tspan x="-94.544" y="0">© CSK. All rights reserved. </tspan></text>
      <g id="Group_46" data-name="Group 46" transform="translate(-3011 10902)">
        <text id="Privacy_Policy" data-name="Privacy Policy" class="cls-10" transform="translate(727 2822)"><tspan x="-55.216" y="0">PRIVACY POLICY</tspan></text>
        <text id="Terms_conditions" data-name="Terms &amp; conditions" class="cls-10" transform="translate(924 2822)"><tspan x="-73.808" y="0">TERMS &amp; CONDITIONS</tspan></text>
        <text id="Disclaimer" class="cls-10" transform="translate(1107 2822)"><tspan x="-40.887" y="0">DISCLAIMER</tspan></text>
        <text id="Contact_Us" data-name="Contact Us" class="cls-10" transform="translate(1259 2822)"><tspan x="-43.414" y="0">CONTACT US</tspan></text>
      </g>
      <line id="Line_4" data-name="Line 4" class="cls-11" y2="17" transform="translate(-2198.5 13710.5)"/>
      <line id="Line_5" data-name="Line 5" class="cls-11" y2="17" transform="translate(-1973.5 13710.5)"/>
      <line id="Line_6" data-name="Line 6" class="cls-11" y2="17" transform="translate(-1817.5 13710.5)"/>
    </g>
    <g class="cls-38" transform="matrix(1, 0, 0, 1, 0, 0)">
      <rect id="Template_V2-2" data-name="Template_V2" class="cls-7" width="523" height="523" transform="translate(133 309)"/>
    </g>
    <text id="Preview" class="cls-12" transform="translate(162 275)"><tspan x="0" y="0">Preview</tspan></text>
    <path id="left-arrow" class="cls-13" d="M16,37.937H4.571l4-4L6.857,32.223,0,39.08l6.857,6.857,1.714-1.714-4-4H16Z" transform="translate(133 229.777)"/>
    <g id="Group_1039" data-name="Group 1039" transform="translate(0 49)">
      <g id="Rectangle_674" data-name="Rectangle 674" class="cls-14" transform="translate(736 417)">
        <rect class="cls-36" width="568" height="285" rx="8"/>
        <rect class="cls-37" x="0.5" y="0.5" width="567" height="284" rx="7.5"/>
      </g>
      <g id="Group_1038" data-name="Group 1038">
        <g id="Group_985" data-name="Group 985" transform="translate(747 -400)">
          <text id="Ashwin_Ravichandran" data-name="Ashwin Ravichandran" class="cls-15" transform="translate(78 676)"><tspan x="0" y="0">Ashwin Ravichandran</tspan></text>
          <text id="Chennai_Tamilnadu" data-name="Chennai, Tamilnadu" class="cls-16" transform="translate(147 697)"><tspan x="-68.776" y="0">Chennai, Tamilnadu</tspan></text>
          <text id="_24_Years" data-name="24 Years" class="cls-17" transform="translate(445 687)"><tspan x="0" y="0">24 Years</tspan></text>
        </g>
        <circle id="Ellipse_133" data-name="Ellipse 133" class="cls-18" cx="29.5" cy="29.5" r="29.5" transform="translate(736 251)"/>
        <text id="AR" class="cls-19" transform="translate(750 287)"><tspan x="0" y="0">AR</tspan></text>
      </g>
      <line id="Line_65" data-name="Line 65" class="cls-20" x2="567" transform="translate(736.5 322.5)"/>
      <text id="Let_s_begin_the_whistles_waiting_for_thalaivan_Harbhajan_punch_dialogues._Chennai_Super_Kings_ku_Periyar_whistle_podu_yellovewish" data-name="Let’s begin the whistles! waiting for thalaivan Harbhajan punch 
dialogues. Chennai Super Kings ku Periyar whistle podu #yellovewish" class="cls-21" transform="translate(736 355)"><tspan x="0" y="0">Let’s begin the whistles! waiting for thalaivan Harbhajan punch </tspan><tspan x="0" y="27">dialogues. Chennai Super Kings ku Periyar whistle podu </tspan><tspan class="cls-22" y="27">#yellovewish</tspan></text>
      <g id="Group_1011" data-name="Group 1011" transform="translate(0 30)">
        <rect id="Rectangle_675" data-name="Rectangle 675" class="cls-8" width="192" height="57" rx="8" transform="translate(1114 705)"/>
        <text id="Submit" class="cls-23" transform="translate(1181 740)"><tspan x="0" y="0">Submit</tspan></text>
      </g>
      <path id="Rectangle_685" data-name="Rectangle 685" class="cls-7" d="M8,0H560a8,8,0,0,1,8,8V40a0,0,0,0,1,0,0H0a0,0,0,0,1,0,0V8A8,8,0,0,1,8,0Z" transform="translate(736 417)"/>
      <text id="Answers" class="cls-24" transform="translate(766 444)"><tspan x="0" y="0">Answers</tspan></text>
      <g id="Group_1035" data-name="Group 1035" transform="translate(-36 6)">
        <text id="Dhoni_Can_hit_a_helicopter_shot_" data-name="Dhoni Can hit a helicopter shot ?" class="cls-25" transform="translate(802 485)"><tspan x="0" y="0">Dhoni Can hit a helicopter shot ?</tspan></text>
        <text id="Yes_he_can." data-name="Yes he can." class="cls-26" transform="translate(802 512)"><tspan x="0" y="0">Yes he can.</tspan></text>
      </g>
      <g id="Group_1036" data-name="Group 1036" transform="translate(-36 25)">
        <text id="How_much_do_you_like_Dhoni_as_a_captain_" data-name="How much do you like Dhoni as a captain?" class="cls-25" transform="translate(802 548)"><tspan x="0" y="0">How much do you like Dhoni as a captain?</tspan></text>
        <text id="He_is_the_Best_of_Best" data-name="He is the Best of Best" class="cls-26" transform="translate(802 575)"><tspan x="0" y="0">He is the Best of Best</tspan></text>
      </g>
      <g id="Group_1037" data-name="Group 1037" transform="translate(-36 43)">
        <text id="How_much_do_you_prefer_CSK_matches_" data-name="How much do you prefer CSK matches?" class="cls-25" transform="translate(802 612)"><tspan x="0" y="0">How much do you prefer CSK matches?</tspan></text>
        <text id="_100_" data-name="100% " class="cls-26" transform="translate(802 639)"><tspan x="0" y="0">100% </tspan></text>
      </g>
      <line id="Line_75" data-name="Line 75" class="cls-27" x2="568" transform="translate(736.5 538.5)"/>
      <line id="Line_76" data-name="Line 76" class="cls-27" x2="568" transform="translate(736.5 620.5)"/>
    </g>
    <g id="Group_1097" data-name="Group 1097">
      <text id="_24" data-name="24" class="cls-28" transform="translate(1214 554)"><tspan x="0" y="0">24</tspan></text>
      <text id="_42" data-name="42" class="cls-28" transform="translate(1214 636)"><tspan x="0" y="0">42</tspan></text>
      <text id="_190" data-name="190" class="cls-28" transform="translate(1208 713)"><tspan x="0" y="0">190</tspan></text>
      <g id="Ellipse_148" data-name="Ellipse 148" class="cls-29" transform="translate(1241 526)">
        <circle class="cls-36" cx="22.5" cy="22.5" r="22.5"/>
        <circle class="cls-37" cx="22.5" cy="22.5" r="22"/>
      </g>
      <g id="Ellipse_149" data-name="Ellipse 149" class="cls-29" transform="translate(1241 608)">
        <circle class="cls-36" cx="22.5" cy="22.5" r="22.5"/>
        <circle class="cls-37" cx="22.5" cy="22.5" r="22"/>
      </g>
      <g id="Ellipse_150" data-name="Ellipse 150" class="cls-29" transform="translate(1241 685)">
        <circle class="cls-36" cx="22.5" cy="22.5" r="22.5"/>
        <circle class="cls-37" cx="22.5" cy="22.5" r="22"/>
      </g>
    </g>
    <rect id="Rectangle_38" data-name="Rectangle 38" class="cls-7" width="1440" height="79" transform="translate(1)"/>
    <g id="Rectangle_14" data-name="Rectangle 14" class="cls-30" transform="translate(1259 16)">
      <rect class="cls-36" width="47" height="47" rx="15"/>
      <rect class="cls-37" x="0.5" y="0.5" width="46" height="46" rx="14.5"/>
    </g>
    <rect id="icons8-account-96-2" class="cls-8" width="22" height="22" transform="translate(1272 29)"/>
    <g id="Group_37" data-name="Group 37" transform="translate(-26.5 -1)">
      <text id="Home-2" data-name="Home" class="cls-28" transform="translate(306 44)"><tspan x="-18.802" y="0">Home</tspan></text>
      <text id="News" class="cls-31" transform="translate(388 44)"><tspan x="-17.521" y="0">News</tspan></text>
      <text id="CSK_TV" data-name="CSK TV" class="cls-31" transform="translate(619 44)"><tspan x="-23.828" y="0">CSK TV</tspan></text>
      <text id="More" class="cls-31" transform="translate(796 44)"><tspan x="-16.184" y="0">More</tspan></text>
      <g id="Group_35" data-name="Group 35" class="cls-32" transform="translate(44 -14)">
        <text id="Match_Centre" data-name="Match Centre" class="cls-28" transform="translate(449 58)"><tspan x="-42.287" y="0">Match Centre</tspan></text>
        <path id="Path_4" data-name="Path 4" class="cls-8" d="M373,433l3.88,3.88L373,440.76" transform="translate(938.82 -320.06) rotate(90)"/>
      </g>
      <g id="Group_34" data-name="Group 34" class="cls-32" transform="translate(59 -14)">
        <text id="Shop" class="cls-28" transform="translate(645 58)"><tspan x="-16.205" y="0">Shop</tspan></text>
        <path id="Path_29" data-name="Path 29" class="cls-8" d="M373,433l3.88,3.88L373,440.76" transform="translate(1108.82 -320.06) rotate(90)"/>
      </g>
    </g>
    <g id="Group_998" data-name="Group 998" transform="translate(-169 3)">
      <text id="_Whistle_from_home" data-name="#Whistle from home" class="cls-33" transform="translate(1098 45)"><tspan x="-72.104" y="0">#Whistle from home</tspan></text>
      <g id="Group_997" data-name="Group 997" transform="translate(-6 -4)">
        <g id="Rectangle_681" data-name="Rectangle 681" class="cls-34" transform="translate(1179 14)">
          <path class="cls-36" d="M10,0H26A10,10,0,0,1,36,10v1A10,10,0,0,1,26,21H0a0,0,0,0,1,0,0V10A10,10,0,0,1,10,0Z"/>
          <path class="cls-37" d="M10,.5H26A9.5,9.5,0,0,1,35.5,10v1A9.5,9.5,0,0,1,26,20.5H1A.5.5,0,0,1,.5,20V10A9.5,9.5,0,0,1,10,.5Z"/>
        </g>
        <text id="New" class="cls-35" transform="translate(1197 30)"><tspan x="-12.186" y="0">New</tspan></text>
      </g>
    </g>
  </g>
</svg>
