<svg xmlns="http://www.w3.org/2000/svg" xmlns:xlink="http://www.w3.org/1999/xlink" width="594.412" height="288.277" viewBox="0 0 594.412 288.277">
  <defs>
    <style>
      .cls-1 {
        fill: #15202b;
      }

      .cls-2 {
        fill: #0066b3;
      }

      .cls-10, .cls-3 {
        fill: #fff;
      }

      .cls-3 {
        font-size: 12px;
      }

      .cls-10, .cls-3, .cls-6, .cls-7 {
        font-family: SegoeUI-Semibold, Segoe UI;
        font-weight: 600;
      }

      .cls-4 {
        fill: rgba(255,255,255,0.08);
      }

      .cls-5 {
        fill: rgba(255,255,255,0.07);
      }

      .cls-6 {
        fill: rgba(255,255,255,0.7);
      }

      .cls-10, .cls-12, .cls-6, .cls-7, .cls-8 {
        font-size: 14px;
      }

      .cls-7 {
        fill: #848484;
      }

      .cls-11, .cls-8 {
        fill: #ffcb05;
      }

      .cls-12, .cls-8 {
        font-family: SegoeUI-Bold, Segoe UI;
        font-weight: 700;
      }

      .cls-9 {
        fill: none;
        stroke: rgba(255,255,255,0.1);
      }

      .cls-13 {
        filter: url(#Rectangle_177);
      }
    </style>
    <filter id="Rectangle_177" x="0" y="0" width="594.412" height="288.277" filterUnits="userSpaceOnUse">
      <feOffset dy="13" input="SourceAlpha"/>
      <feGaussianBlur stdDeviation="8" result="blur"/>
      <feFlood flood-color="#15202b" flood-opacity="0.18"/>
      <feComposite operator="in" in2="blur"/>
      <feComposite in="SourceGraphic"/>
    </filter>
  </defs>
  <g id="Group_6505" data-name="Group 6505" transform="translate(-877.606 -9261)">
    <g class="cls-13" transform="matrix(1, 0, 0, 1, 877.61, 9261)">
      <rect id="Rectangle_177-2" data-name="Rectangle 177" class="cls-1" width="546.412" height="240.277" rx="10" transform="translate(24 11)"/>
    </g>
    <g id="Group_195" data-name="Group 195" transform="translate(-40.394 8632)">
      <path id="Rectangle_134" data-name="Rectangle 134" class="cls-2" d="M10,0H536a10,10,0,0,1,10,10V43a0,0,0,0,1,0,0H0a0,0,0,0,1,0,0V10A10,10,0,0,1,10,0Z" transform="translate(943 640)"/>
      <text id="Pos" class="cls-3" transform="translate(961 665)"><tspan x="0" y="0">Pos</tspan></text>
      <text id="Team" class="cls-3" transform="translate(1036 665)"><tspan x="0" y="0">Team</tspan></text>
      <text id="Pld" class="cls-3" transform="translate(1179 665)"><tspan x="0" y="0">Pld</tspan></text>
      <text id="Won" class="cls-3" transform="translate(1237 665)"><tspan x="0" y="0">Won</tspan></text>
      <text id="Loss" class="cls-3" transform="translate(1298 665)"><tspan x="0" y="0">Loss</tspan></text>
      <text id="Net_RR" data-name="Net RR" class="cls-3" transform="translate(1361 665)"><tspan x="0" y="0">Net RR</tspan></text>
      <text id="Pts" class="cls-3" transform="translate(1449 665)"><tspan x="0" y="0">Pts</tspan></text>
      <rect id="Rectangle_135" data-name="Rectangle 135" class="cls-4" width="545" height="50" transform="translate(943 732)"/>
      <rect id="Rectangle_136" data-name="Rectangle 136" class="cls-5" width="545" height="49" transform="translate(941 831)"/>
      <text id="_5" data-name="5" class="cls-6" transform="translate(1183 712)"><tspan x="0" y="0">5</tspan></text>
      <text id="_1" data-name="1" class="cls-7" transform="translate(967 712)"><tspan x="0" y="0">1</tspan></text>
      <text id="_3" data-name="3" class="cls-6" transform="translate(1245 712)"><tspan x="0" y="0">3</tspan></text>
      <text id="_2" data-name="2" class="cls-6" transform="translate(1305 712)"><tspan x="0" y="0">2</tspan></text>
      <text id="_0.62" data-name="+0.62" class="cls-6" transform="translate(1361 712)"><tspan x="0" y="0">+0.62</tspan></text>
      <text id="_6" data-name="6" class="cls-6" transform="translate(1454 712)"><tspan x="0" y="0">6</tspan></text>
      <text id="_5-2" data-name="5" class="cls-6" transform="translate(1183 762)"><tspan x="0" y="0">5</tspan></text>
      <text id="_2-2" data-name="2" class="cls-7" transform="translate(967 762)"><tspan x="0" y="0">2</tspan></text>
      <text id="_3-2" data-name="3" class="cls-6" transform="translate(1245 762)"><tspan x="0" y="0">3</tspan></text>
      <text id="_2-3" data-name="2" class="cls-6" transform="translate(1305 762)"><tspan x="0" y="0">2</tspan></text>
      <text id="_0.14" data-name="+0.14" class="cls-6" transform="translate(1363 762)"><tspan x="0" y="0">+0.14</tspan></text>
      <text id="_6-2" data-name="6" class="cls-6" transform="translate(1454 762)"><tspan x="0" y="0">6</tspan></text>
      <text id="_5-3" data-name="5" class="cls-6" transform="translate(1183 810)"><tspan x="0" y="0">5</tspan></text>
      <text id="_3-3" data-name="3" class="cls-7" transform="translate(967 810)"><tspan x="0" y="0">3</tspan></text>
      <text id="_2-4" data-name="2" class="cls-6" transform="translate(1245 810)"><tspan x="0" y="0">2</tspan></text>
      <text id="_3-4" data-name="3" class="cls-6" transform="translate(1305 810)"><tspan x="0" y="0">3</tspan></text>
      <text id="_0.27" data-name="+0.27" class="cls-6" transform="translate(1380 810)"><tspan x="-18.074" y="0">+0.27</tspan></text>
      <text id="_4" data-name="4" class="cls-6" transform="translate(1454 810)"><tspan x="0" y="0">4</tspan></text>
      <text id="_5-4" data-name="5" class="cls-8" transform="translate(1183 860)"><tspan x="0" y="0">5</tspan></text>
      <text id="_5-5" data-name="5" class="cls-8" transform="translate(967 860)"><tspan x="0" y="0">5</tspan></text>
      <text id="_2-5" data-name="2" class="cls-8" transform="translate(1245 860)"><tspan x="0" y="0">2</tspan></text>
      <text id="_3-5" data-name="3" class="cls-8" transform="translate(1305 860)"><tspan x="0" y="0">3</tspan></text>
      <text id="_0.19" data-name="+0.19" class="cls-8" transform="translate(1379 860)"><tspan x="-18.925" y="0">+0.19</tspan></text>
      <text id="_4-2" data-name="4" class="cls-8" transform="translate(1454 860)"><tspan x="0" y="0">4</tspan></text>
      <line id="Line_29" data-name="Line 29" class="cls-9" x2="545.5" transform="translate(941.5 732.322)"/>
      <line id="Line_32" data-name="Line 32" class="cls-9" x2="545.5" transform="translate(941.5 831.085)"/>
      <line id="Line_30" data-name="Line 30" class="cls-9" x2="545.5" transform="translate(941.5 782.133)"/>
      <text id="RR" class="cls-10" transform="translate(1041 712)"><tspan x="0" y="0">RR</tspan></text>
      <text id="MI" class="cls-10" transform="translate(1043 762)"><tspan x="0" y="0">MI</tspan></text>
      <text id="KKR" class="cls-10" transform="translate(1037 811)"><tspan x="0" y="0">KKR</tspan></text>
      <rect id="Rectangle_178" data-name="Rectangle 178" class="cls-11" width="53" height="27" rx="6" transform="translate(1024 842)"/>
      <text id="CSK" class="cls-12" transform="translate(1037 860)"><tspan x="0" y="0">CSK</tspan></text>
    </g>
  </g>
</svg>
