<svg id="Layer_1" data-name="Layer 1" xmlns="http://www.w3.org/2000/svg" viewBox="0 0 2000 1629.63"><defs><style>.cls-1{fill:#84d2e1;}.cls-2,.cls-5{fill:#fff;}.cls-2,.cls-4{opacity:0.75;}.cls-3{fill:#6f69af;}.cls-10,.cls-6,.cls-8,.cls-9{fill:#f4806e;}.cls-7{fill:#ffdd76;}.cls-10,.cls-8,.cls-9{stroke:#f4806e;}.cls-8,.cls-9{stroke-miterlimit:10;}.cls-8{stroke-width:1.76px;opacity:0.5;}.cls-10,.cls-9{stroke-width:0.85px;}.cls-10{stroke-linecap:round;stroke-linejoin:round;}</style></defs><title>Website - All Illustrations</title><path class="cls-1" d="M89.53,1271.34c-40.94-54.6-52.52-126.75-29.65-184.78s79.44-100,144.87-107.58c32.67-3.77,68.22.19,96.76-13.75,29.95-14.63,45.63-45.71,61.05-74.37C465.91,698.79,639,539,860.39,484.24s491.36,10.68,653.85,188.67c51.13,56,91.42,121.68,151,169.27,41.45,33.08,90.32,55.79,132.88,87.47,95.37,71,145.69,231.29,153.55,342"/><path class="cls-2" d="M89.53,1271.34c-40.94-54.6-52.52-126.75-29.65-184.78s79.44-100,144.87-107.58c32.67-3.77,68.22.19,96.76-13.75,29.95-14.63,45.63-45.71,61.05-74.37C465.91,698.79,639,539,860.39,484.24s491.36,10.68,653.85,188.67c51.13,56,91.42,121.68,151,169.27,41.45,33.08,90.32,55.79,132.88,87.47,95.37,71,145.69,231.29,153.55,342"/><ellipse class="cls-3" cx="1657.96" cy="936.96" rx="2.05" ry="2.44"/><polygon class="cls-3" points="1883.61 1233.99 1870.87 1148.84 1844.84 1148.84 1844.84 1078.18 1848.06 1078.18 1848.06 1071.79 1835.42 1071.79 1835.42 1044.26 1833.88 1044.26 1833.88 1071.79 1825.14 1071.79 1825.14 1049.24 1823.6 1049.24 1823.6 1071.79 1770.94 1071.79 1770.94 1078.18 1774.54 1078.18 1774.54 1221.55 1714.41 1221.55 1714.41 1157.33 1680.17 1157.33 1680.17 999.52 1683.3 999.52 1683.3 991.78 1676.46 991.78 1676.46 981.87 1668.6 981.87 1668.6 978.14 1668.6 966.81 1668.6 956.97 1659.1 956.97 1659.1 939.41 1657.96 939.41 1656.81 939.41 1656.81 956.97 1651.69 956.97 1648.6 966.81 1627.88 966.81 1627.88 981.87 1573.64 981.87 1573.64 991.78 1566.81 991.78 1566.81 999.52 1569.94 999.52 1569.94 1102.2 1524.56 1102.2 1524.56 1203.08 1474.21 1180.77 1474.21 1082.85 1482.33 1082.85 1482.33 1075.66 1468.04 1075.66 1468.04 1056.13 1406.84 1056.13 1406.84 1075.66 1386.85 1075.66 1386.85 1056.13 1376.57 1056.13 1376.57 1075.66 1366.29 1075.66 1366.29 1056.13 1354.99 1056.13 1354.99 1075.66 1331.35 1075.66 1331.35 1082.85 1334.95 1082.85 1334.95 1218.57 1311.99 1218.57 1311.99 1217.15 1307.84 1217.15 1307.84 1178.47 1311.99 1178.47 1311.99 1175.37 1307.84 1175.37 1307.84 1136.69 1311.99 1136.69 1311.99 1133.59 1307.84 1133.59 1307.84 1094.91 1311.99 1094.91 1311.99 1091.81 1307.84 1091.81 1307.84 1053.13 1311.99 1053.13 1311.99 1050.03 1307.84 1050.03 1307.84 1011.36 1311.99 1011.36 1311.99 1008.25 1307.84 1008.25 1307.84 968.23 1314.96 968.23 1314.96 965.11 1318.58 965.11 1318.58 956.63 1250.98 956.63 1250.98 947.19 1253.18 947.19 1253.18 944.47 1216.37 944.47 1216.37 947.19 1218.57 947.19 1218.57 956.63 1201.82 956.63 1201.82 965.11 1205.44 965.11 1205.44 968.23 1212.56 968.23 1212.56 1008.25 1208.4 1008.25 1208.4 1011.36 1212.56 1011.36 1212.56 1050.03 1208.4 1050.03 1208.4 1053.13 1212.56 1053.13 1212.56 1091.81 1208.4 1091.81 1208.4 1094.91 1212.56 1094.91 1212.56 1133.59 1208.4 1133.59 1208.4 1136.69 1212.56 1136.69 1212.56 1175.37 1208.4 1175.37 1208.4 1178.47 1212.56 1178.47 1212.56 1217.15 1208.4 1217.15 1208.4 1220.25 1212.56 1220.25 1212.56 1251.86 1189.48 1251.86 1189.48 1129.73 1096.64 1129.73 1096.64 1218.57 1081.57 1218.57 1081.57 941.8 1070.42 941.8 1070.42 948.92 1049.84 953.96 1049.84 949.33 1038.69 949.33 1038.69 956.69 1018.11 961.72 1018.11 956.41 1006.96 956.41 1006.96 964.45 986.38 969.48 986.38 965.1 975.22 965.1 975.22 972.21 954.65 977.24 954.65 973.47 943.49 973.47 943.49 1245.27 927.8 1245.27 927.8 1100.37 869.69 1100.37 869.69 1189.47 810.12 1189.47 810.12 1113.48 802.78 1113.48 802.78 1088.53 807.14 1088.53 807.14 1086.03 787.86 1086.03 787.86 1078.18 785.8 1078.18 785.8 1086.03 779.64 1086.03 779.64 1045.75 778.09 1045.75 778.09 1086.03 770.06 1086.03 770.06 1088.53 774.79 1088.53 774.79 1113.48 735.47 1113.48 735.47 1171.45 697.19 1171.45 677.2 1245.27 637.09 1245.27 637.09 1004.25 583.99 1004.25 583.99 995.62 587 995.62 587 992.59 546.78 992.59 546.78 995.62 549.94 995.62 549.94 1004.25 549.94 1018.14 549.94 1183.2 524.9 1183.2 524.9 1120.83 533.8 1120.83 533.8 1115.19 470.79 1115.19 470.79 1077.51 458.77 1077.51 458.77 1069.77 431.94 1069.77 431.94 1077.51 410.11 1077.51 410.11 1212.05 338.5 1212.05 338.5 1112.27 278.19 1112.27 278.19 1191.08 225.85 1191.08 225.85 1241.5 188.12 1241.5 188.12 1178.11 138.5 1178.11 138.5 1232.16 93.57 1232.16 93.57 1270.41 138.5 1270.41 153.68 1270.41 178.49 1270.41 188.12 1270.41 225.85 1270.41 278.19 1270.41 295.78 1270.41 305.19 1270.41 338.5 1270.41 410.11 1270.41 431.94 1270.41 458.77 1270.41 470.79 1270.41 517.8 1270.41 524.9 1270.41 549.94 1270.41 591.94 1270.41 612.62 1270.41 637.09 1270.41 735.47 1270.41 758.19 1270.41 796.54 1270.41 810.12 1270.41 870.71 1270.41 886.99 1270.41 943.49 1270.41 949.07 1270.41 954.65 1270.41 975.22 1270.41 986.38 1270.41 1006.96 1270.41 1016.28 1270.41 1018.11 1270.41 1038.69 1270.41 1049.84 1270.41 1067.53 1270.41 1070.42 1270.41 1075.99 1270.41 1081.57 1270.41 1096.64 1270.41 1173.38 1270.41 1184.34 1270.41 1189.48 1270.41 1212.56 1270.41 1253.18 1270.41 1290.36 1270.41 1307.84 1270.41 1334.95 1270.41 1402.27 1270.41 1473.46 1270.41 1474.21 1270.41 1524.56 1270.41 1552.71 1270.41 1569.94 1270.41 1580.82 1270.41 1665.08 1270.41 1680.17 1270.41 1698.21 1270.41 1714.41 1270.41 1774.54 1270.41 1819.24 1270.41 1828.39 1270.41 1844.84 1270.41 1944.87 1270.41 1944.87 1233.99 1883.61 1233.99"/><g class="cls-4"><ellipse class="cls-5" cx="1657.96" cy="936.96" rx="2.05" ry="2.44"/><polygon class="cls-5" points="1883.61 1233.99 1870.87 1148.84 1844.84 1148.84 1844.84 1078.18 1848.06 1078.18 1848.06 1071.79 1835.42 1071.79 1835.42 1044.26 1833.88 1044.26 1833.88 1071.79 1825.14 1071.79 1825.14 1049.24 1823.6 1049.24 1823.6 1071.79 1770.94 1071.79 1770.94 1078.18 1774.54 1078.18 1774.54 1221.55 1714.41 1221.55 1714.41 1157.33 1680.17 1157.33 1680.17 999.52 1683.3 999.52 1683.3 991.78 1676.46 991.78 1676.46 981.87 1668.6 981.87 1668.6 978.14 1668.6 966.81 1668.6 956.97 1659.1 956.97 1659.1 939.41 1657.96 939.41 1656.81 939.41 1656.81 956.97 1651.69 956.97 1648.6 966.81 1627.88 966.81 1627.88 981.87 1573.64 981.87 1573.64 991.78 1566.81 991.78 1566.81 999.52 1569.94 999.52 1569.94 1102.2 1524.56 1102.2 1524.56 1203.08 1474.21 1180.77 1474.21 1082.85 1482.33 1082.85 1482.33 1075.66 1468.04 1075.66 1468.04 1056.13 1406.84 1056.13 1406.84 1075.66 1386.85 1075.66 1386.85 1056.13 1376.57 1056.13 1376.57 1075.66 1366.29 1075.66 1366.29 1056.13 1354.99 1056.13 1354.99 1075.66 1331.35 1075.66 1331.35 1082.85 1334.95 1082.85 1334.95 1218.57 1311.99 1218.57 1311.99 1217.15 1307.84 1217.15 1307.84 1178.47 1311.99 1178.47 1311.99 1175.37 1307.84 1175.37 1307.84 1136.69 1311.99 1136.69 1311.99 1133.59 1307.84 1133.59 1307.84 1094.91 1311.99 1094.91 1311.99 1091.81 1307.84 1091.81 1307.84 1053.13 1311.99 1053.13 1311.99 1050.03 1307.84 1050.03 1307.84 1011.36 1311.99 1011.36 1311.99 1008.25 1307.84 1008.25 1307.84 968.23 1314.96 968.23 1314.96 965.11 1318.58 965.11 1318.58 956.63 1250.98 956.63 1250.98 947.19 1253.18 947.19 1253.18 944.47 1216.37 944.47 1216.37 947.19 1218.57 947.19 1218.57 956.63 1201.82 956.63 1201.82 965.11 1205.44 965.11 1205.44 968.23 1212.56 968.23 1212.56 1008.25 1208.4 1008.25 1208.4 1011.36 1212.56 1011.36 1212.56 1050.03 1208.4 1050.03 1208.4 1053.13 1212.56 1053.13 1212.56 1091.81 1208.4 1091.81 1208.4 1094.91 1212.56 1094.91 1212.56 1133.59 1208.4 1133.59 1208.4 1136.69 1212.56 1136.69 1212.56 1175.37 1208.4 1175.37 1208.4 1178.47 1212.56 1178.47 1212.56 1217.15 1208.4 1217.15 1208.4 1220.25 1212.56 1220.25 1212.56 1251.86 1189.48 1251.86 1189.48 1129.73 1096.64 1129.73 1096.64 1218.57 1081.57 1218.57 1081.57 941.8 1070.42 941.8 1070.42 948.92 1049.84 953.96 1049.84 949.33 1038.69 949.33 1038.69 956.69 1018.11 961.72 1018.11 956.41 1006.96 956.41 1006.96 964.45 986.38 969.48 986.38 965.1 975.22 965.1 975.22 972.21 954.65 977.24 954.65 973.47 943.49 973.47 943.49 1245.27 927.8 1245.27 927.8 1100.37 869.69 1100.37 869.69 1189.47 810.12 1189.47 810.12 1113.48 802.78 1113.48 802.78 1088.53 807.14 1088.53 807.14 1086.03 787.86 1086.03 787.86 1078.18 785.8 1078.18 785.8 1086.03 779.64 1086.03 779.64 1045.75 778.09 1045.75 778.09 1086.03 770.06 1086.03 770.06 1088.53 774.79 1088.53 774.79 1113.48 735.47 1113.48 735.47 1171.45 697.19 1171.45 677.2 1245.27 637.09 1245.27 637.09 1004.25 583.99 1004.25 583.99 995.62 587 995.62 587 992.59 546.78 992.59 546.78 995.62 549.94 995.62 549.94 1004.25 549.94 1018.14 549.94 1183.2 524.9 1183.2 524.9 1120.83 533.8 1120.83 533.8 1115.19 470.79 1115.19 470.79 1077.51 458.77 1077.51 458.77 1069.77 431.94 1069.77 431.94 1077.51 410.11 1077.51 410.11 1212.05 338.5 1212.05 338.5 1112.27 278.19 1112.27 278.19 1191.08 225.85 1191.08 225.85 1241.5 188.12 1241.5 188.12 1178.11 138.5 1178.11 138.5 1232.16 93.57 1232.16 93.57 1270.41 138.5 1270.41 153.68 1270.41 178.49 1270.41 188.12 1270.41 225.85 1270.41 278.19 1270.41 295.78 1270.41 305.19 1270.41 338.5 1270.41 410.11 1270.41 431.94 1270.41 458.77 1270.41 470.79 1270.41 517.8 1270.41 524.9 1270.41 549.94 1270.41 591.94 1270.41 612.62 1270.41 637.09 1270.41 735.47 1270.41 758.19 1270.41 796.54 1270.41 810.12 1270.41 870.71 1270.41 886.99 1270.41 943.49 1270.41 949.07 1270.41 954.65 1270.41 975.22 1270.41 986.38 1270.41 1006.96 1270.41 1016.28 1270.41 1018.11 1270.41 1038.69 1270.41 1049.84 1270.41 1067.53 1270.41 1070.42 1270.41 1075.99 1270.41 1081.57 1270.41 1096.64 1270.41 1173.38 1270.41 1184.34 1270.41 1189.48 1270.41 1212.56 1270.41 1253.18 1270.41 1290.36 1270.41 1307.84 1270.41 1334.95 1270.41 1402.27 1270.41 1473.46 1270.41 1474.21 1270.41 1524.56 1270.41 1552.71 1270.41 1569.94 1270.41 1580.82 1270.41 1665.08 1270.41 1680.17 1270.41 1698.21 1270.41 1714.41 1270.41 1774.54 1270.41 1819.24 1270.41 1828.39 1270.41 1844.84 1270.41 1944.87 1270.41 1944.87 1233.99 1883.61 1233.99"/></g><path class="cls-6" d="M89.53,1273.56l729.05,0,726.39,0H1951.7c2.75,0,2.75-4.27,0-4.27h-729l-726.38,0H89.53c-2.74,0-2.75,4.27,0,4.27Z"/><path class="cls-5" d="M1267.57,585.73a54.82,54.82,0,0,1,34.93-5.89c9-7.83,14.06-19.19,19.37-29.92a346.41,346.41,0,0,1,143.83-149.5c10.69-5.82,24.29-10.95,34.37-4.15,4.35,2.94,7.14,7.62,9.79,12.15,2.26,3.86,4.6,8.11,4,12.53-.5,3.42-2.72,6.29-4.82,9a504.44,504.44,0,0,0-88.42,179.68c-.78,3-1.54,6.07-1,9.1.59,3.4,2.71,6.31,4.78,9.07,16.13,21.57,32.72,43.29,42.65,68.33,10.53,26.54,13,55.54,13.51,84.09.2,12.23-1.26,26.81-12,32.72-7.71,4.25-17.28,2.13-25.62-.7a183.46,183.46,0,0,1-81.31-55.66c-7.85-9.38-14.91-19.7-24.82-26.87-28.93-20.91-62.11-36.62-93.12-54.3-6-3.41-12.61-7.71-13.62-14.52-.82-5.52,2.4-10.74,5.41-15.44A445.87,445.87,0,0,0,1267.57,585.73Z"/><path class="cls-5" d="M560.8,1011c-.48-4.35.28-8.92-1.34-13a3.11,3.11,0,0,0-1.51-1.86,4.81,4.81,0,0,0-2-.09,6.8,6.8,0,0,1-2.34-13.3,1.27,1.27,0,0,1,.88,0c.51.2.62.87,1,1.26a1.63,1.63,0,0,0,2.28-.27,5.29,5.29,0,0,0,1-2.36,28.29,28.29,0,0,1,7.37-13,10,10,0,0,1,4.23-2.8,11.63,11.63,0,0,1,5.08.11A134.53,134.53,0,0,1,597,971.42a5.39,5.39,0,0,1,2.12,1.14,4.93,4.93,0,0,1,1.12,2.41,21.3,21.3,0,0,1,.39,7.38,5.66,5.66,0,0,0,0,2.39,5,5,0,0,0,.84,1.42c1.8,2.41,3.51,5.14,3.45,8.14s-2.68,6.11-5.63,5.57c-.66-.12-1.39-.4-2-.06a2.12,2.12,0,0,0-.77,1.22l-2.91,8.32a25.38,25.38,0,0,0-1.08,3.71c-.29,1.62-.26,3.28-.48,4.92-.69,5.11-3.76,9.45-7.14,13.19-2.54,2.79-6.44,7.94-10.71,5.86-3.76-1.84-6-7.91-7.93-11.34C563.79,1021.1,561.38,1016.28,560.8,1011Z"/><path class="cls-7" d="M505.26,1136.63c-5.18-.13-10.3,1-15.36,2.15a759.55,759.55,0,0,0,35.47-89.91c1.87-5.81,3.69-11.67,6.41-17.13a57,57,0,0,1,27.51-26.36c-.94,5.69.62,11.57,3.29,16.69s6.4,9.59,10.09,14a2.37,2.37,0,0,0,1.48,1,2.33,2.33,0,0,0,1.41-.5,47.38,47.38,0,0,0,18.49-22.73c10.71,5.07,16.79,17.12,17.72,28.93s-2.48,23.51-6.41,34.69-8.44,22.3-9.86,34.06c-1.26,10.41-.1,21.25-3.51,31.16a34.78,34.78,0,0,0-19,.73,81.48,81.48,0,0,1,4.81-19.62c-3,1.76-6.45,2.41-9.87,2.9-8,1.13-16.16,1.5-24-.21s-15.44-5.64-20.45-11.94c.83,1-1.51,8.84-1.76,10.32-.64,3.73-1.14,7.52-1.92,11.23-.68,3.17-1.48,3.66-4.58,2.7C511.81,1137.8,508.87,1136.72,505.26,1136.63Z"/><path class="cls-3" d="M519.16,1137.59c-.24,1.5-.16,3.51,1.29,4a4.19,4.19,0,0,0,1.5,0c2.42-.16,4.75.9,7.15,1.21a27.85,27.85,0,0,0,5.91-.17c11.55-1,23.12.85,34.7,1.39a2.39,2.39,0,0,0,1.71-.37,2.33,2.33,0,0,0,.59-1.08q2.91-8.62,5.5-17.36c-9.36,1.61-18.86,2.93-28.31,2a49.71,49.71,0,0,1-21.83-7.49c-4.35-2.66-4.61-.34-5.58,4Q520.23,1130.61,519.16,1137.59Z"/><ellipse class="cls-5" cx="998.06" cy="1417.49" rx="817.15" ry="31.81"/><ellipse class="cls-8" cx="998.06" cy="1417.49" rx="817.15" ry="31.81"/><path class="cls-6" d="M487.05,1083c-5.32,16.69-15.17,31.42-25.55,45.63q-2.56,3.51-5.15,7a10.34,10.34,0,0,1-2.74,2.85,7.26,7.26,0,0,1-2.22.83c-.52.12-1.06.2-1.59.27a105.26,105.26,0,0,1-17.2.79c-13.7-.36-27.46-2.61-41.21-3.05-11.59-.38-23.18.54-34.77.72H356c-27.73.37-55.46-3.34-83.17-1.09-7.35.6-15.34,3.26-22.55,3.17,7.5-10,19.54-18.53,28.93-26.8q14.71-13,30-25.27l.65-.53q8.87-7.14,17.91-14.07c2.81-2.16,5.72-4.34,9.1-5.43a31.41,31.41,0,0,1,9.68-1c5.84,0,11.66,0,17.5.09h0q10,.11,20.09.33,10.32.21,20.64.57,36.23,1.23,72.39,4c4.25.32,9.46,1.42,10.56,5.53A9.91,9.91,0,0,1,487.05,1083Z"/><path class="cls-5" d="M432.6,1140.39c-13.7-.36-27.46-2.61-41.21-3.05-11.59-.38-23.18.54-34.77.72H356l-46.83-50,.65-.53q8.87-7.14,17.91-14.07c2.81-2.16,5.72-4.34,9.1-5.43a31.41,31.41,0,0,1,9.68-1c5.84,0,11.66,0,17.5.09h0Z"/><path class="cls-5" d="M461.5,1128.65q-2.56,3.51-5.15,7a10.34,10.34,0,0,1-2.74,2.85,7.26,7.26,0,0,1-2.22.83l-67.33-71.88q10.32.21,20.64.57Z"/><path class="cls-6" d="M109.21,1189.5c1.92-3.42,4.33-6.83,7.92-8.4,2.61-1.14,5.55-1.17,8.4-1.18,22.16,0,44.31.84,66.45,1.7,24.21.94,48.43-.12,72.64.82,8.9.34,18.07.75,26.14,4.51s14.84,11.78,14.32,20.67-8.07,16-16.44,18.84-17.46,2.31-26.29,1.75c-26.21-1.85-52.48-1.2-78.72-2.62s-52.8-1.08-78.78-3.85c-6.64-.71-3.73-8.36-2.66-13.45A66.09,66.09,0,0,1,109.21,1189.5Z"/><path class="cls-6" d="M94,1262.67c4.53-2.09,9.74-1.93,14.73-1.72,60.82,2.54,121.6,5.74,182.39,8.94,3.18.16,7.09.87,8,3.92.67,2.19-.76,4.59-2.73,5.75a14.33,14.33,0,0,1-6.64,1.49c-7.32.37-14.66,0-22-.26L110.11,1274c-4.48-.19-11.62,1-15.88-.83C89.08,1271,88.93,1265,94,1262.67Z"/><path class="cls-6" d="M620.84,1141.56a2.11,2.11,0,0,0,.3,1.31,2.16,2.16,0,0,0,1.76.61,383.86,383.86,0,0,0,48.55-1.39,3.8,3.8,0,0,0,2.84-1.1c.78-1,.34-2.49-.12-3.69-6.06-15.57-12.29-31.42-22.87-44.35-4.47-5.46-9.82-10.42-16.36-13.08a45.36,45.36,0,0,0-10.62-2.63c-3.33-.48-12.72-2.3-15.21.82-2.15,2.7,1.93,9.55,2.83,12.2a168.87,168.87,0,0,1,8.9,51.3Z"/><path class="cls-6" d="M116.05,1311c2.53,7.21,5.09,14.47,9,21s9.35,12.44,16.29,15.61c5.78,2.64,12.25,3.28,18.6,3.5a64.41,64.41,0,0,0,12.26-.52c9.89-1.56,18.84-6.76,26.88-12.75a51.94,51.94,0,0,0,5.18-4.29c6-5.8,9.42-13.71,11.89-21.65.77-2.5,1.23-5.75-.91-7.25a6.56,6.56,0,0,0-4.07-.73c-9.33.33-18.66,0-28-.32l-22-.76c-11.27-.39-22.65-.8-33.55-3.67-2.44-.64-12.68-5.88-14.6-4.35C110.36,1297,115.16,1308.44,116.05,1311Z"/><path class="cls-6" d="M358.85,1349.59a62.89,62.89,0,0,0,58,3.85,35.85,35.85,0,0,0,11.36-7.58c2.75-2.87,4.77-6.33,7.15-9.51,2-2.72,4.33-5.24,6.14-8.12A48.34,48.34,0,0,0,446,1318a161.69,161.69,0,0,0,7.6-72c-1.66-13.59-5.38-27.58-14.69-37.61a41.91,41.91,0,0,0-37.21-12.55c-12.43,2.16-23.32,10-31.36,19.73s-14.89,19.23-19.9,30.8c-4.12,9.52-6.62,21.17-10.46,30.81-4,10-11.34,21.12-9.06,32.12a63.52,63.52,0,0,0,14.25,28.62C347.6,1340.67,354.91,1349.59,358.85,1349.59Z"/><path class="cls-5" d="M437,1232.51c10,22.38,8.55,48.51,1.26,71.9-3.25,10.41-7.78,20.72-15.4,28.51s-18.84,12.73-29.54,10.64c-8-1.57-14-9.91-18.67-16.6s-6.39-13.36-7.85-21.4c-4.77-26.32-.35-55.06,12-76.9,2.72-4.8,4.32-4.66,8.2-8.58,8.06-8.13,19.72-7.86,25.19-7.17,4.45.57,8.55,3.62,12.55,5.63,2.23,1.13,4.49,5.27,6.39,6.88a24.28,24.28,0,0,1,4.07,4.69,51,51,0,0,1,9.06,29.9"/><path class="cls-6" d="M439.49,1333.88a4.91,4.91,0,0,0-.65,1.87,4.18,4.18,0,0,0,.67,2.23c3,5.34,9.24,7.89,15.13,9.62,8.36,2.46,17.08,4,25.78,3.57s17.44-3.08,24.38-8.36c8.59-6.51,13.84-16.56,17-26.85.16-.51.23-1.21-.25-1.42a1.09,1.09,0,0,0-.81.06c-4.55,1.49-9.46,1.12-14.23.78q-21-1.52-42.14-2c-3.41-.08-6.82-.16-10.24-.18-3.75,0-3.73-.17-5.54,2.52C445,1321.16,442.46,1328,439.49,1333.88Z"/><path class="cls-6" d="M760.06,1280.45c-.56,17.51-2.72,35.48-11,50.91s-23.83,28-41.35,28.42a55.14,55.14,0,0,1-17.48-2.77c-8.4-2.56-16.57-6.41-23-12.42a41.94,41.94,0,0,1-12.88-25.93,8.47,8.47,0,0,1,.31-4.13,11.11,11.11,0,0,1,2.28-3.06c10.88-11.92,12.23-29.36,16.44-44.94a223.83,223.83,0,0,1,7.34-21.34,63.24,63.24,0,0,1,5.53-12,52.1,52.1,0,0,1,7.13-8.43c6.35-6.38,13.76-12.44,22.65-13.82,7.76-1.2,15.8,1.43,22.08,6.13C757.27,1231.46,760.77,1258.34,760.06,1280.45Z"/><path class="cls-5" d="M690.11,1257.32c-3.41,12.49-3.13,25.68-2,38.58,1.3,14.59,4.19,30.12,14.54,40.49,5.05,5.07,12.34,8.64,19.32,7,3.95-.9,7.37-3.34,10.35-6.08a50.29,50.29,0,0,0,10.06-12.88,69.85,69.85,0,0,0,5.38-13.31,111.31,111.31,0,0,0,2-56.4,56.16,56.16,0,0,0-6.54-17.28c-3.27-5.26-8-9.77-13.8-11.92C709.88,1218.34,694.44,1241.45,690.11,1257.32Z"/><path class="cls-5" d="M748.13,1212.11a564,564,0,0,0-29.53-66,249.47,249.47,0,0,0-16.05-27.55c-10.6-15.27-24.26-28.57-40.44-37.7s-35-14-53.49-12.61l-1.69,8c2.32-1.5,5.29-1.58,8.07-1.58a58,58,0,0,1,19.21,3.83c13.61,4.9,21.17,17.43,27.55,30.41l7.32,14.91c2.49,5.07,5,10.34,5.21,16a2.88,2.88,0,0,1-.44,1.92,3.07,3.07,0,0,1-2,.82c-15.44,2.15-31.1,1.91-46.69,1.66l-6.93-.11-11.49-.18c.16.14.3.3.46.45-.15-.06-.28-.14-.43-.19-3.64-1.19-8,1.11-11.31-.83a12.16,12.16,0,0,1-24.05-.58l-44.2-.32c-2.15,0-4.39,0-6.31.94s-3.46,3-5.13,4.55c-6.34,6-17.53,5.58-23.46-.78-1.46-1.56-2.67-3.45-4.53-4.5a12.91,12.91,0,0,0-5.95-1.16l-106.08-3.66c-2.2-.08-4.41-.14-6.6,0a37.4,37.4,0,0,0-7.71-.75A1236.92,1236.92,0,0,0,188,1145c-12.92,1.5-26,3.26-38,8.12a78.14,78.14,0,0,0-34.23,27c51.9,1.77,103.79.53,155.69,2.29,8.79.3,18.21,1.81,25.23,7.13,10.54,8,10.38,28.54-.55,36-7.28,5-16.79,2.71-25.6,2.26-54.64-2.76-109.28-3.52-163.92-6.28-1.64-.08-3.4-.13-4.75.8-1.81,1.23-2.2,3.68-2.4,5.86a203.14,203.14,0,0,0-.4,31.3l186.85,9.71c3.86.21,8,.5,11.05,2.83s4.26,7.53,1.3,10q-98.71-3.87-197.38-8.8c2.51,11,12,19.3,22.49,23.42s22,4.76,33.22,5.34l114.64,5.91c14.94.77,30.22,1.49,44.64-2.25a5.93,5.93,0,0,0,1,.82c3.61,2.41,8.6,0,11.36-3.36,3.71-4.48,5.28-10.3,6.94-15.89a269.65,269.65,0,0,1,17.82-44.74c6.25-12.33,13.63-24.4,24.11-33.41s24.52-14.69,38.18-12.54c14.8,2.32,27.18,13.6,33.63,27.12s7.66,29,6.56,44-4.39,29.63-6.51,44.46q20.73,1.08,41.48,1.82,36.51,1.29,73.05,1.52c3.74,0,9.13,1.23,12.74.11a8.6,8.6,0,0,0,1.45-.61c11.56,1.56,23.22,2.18,34.87,2.79,11.85.63,23.92,1.23,35.39-1.8a25.07,25.07,0,0,0,10.2-4.87c3-2.6,4.91-6.22,6.5-9.86,5.55-12.7,8-26.49,11.45-39.9a148.69,148.69,0,0,1,4.55-14.75c.79-2.1,1.66-4.1,2.61-6,2.62-3.94,5.21-7.9,8.1-11.63,6.71-8.65,16-16.42,27-16.78,8-.25,15.7,3.57,21.62,8.94s10.32,12.2,14.44,19C754.46,1230.48,751.43,1221.13,748.13,1212.11Z"/><path class="cls-7" d="M602.36,1083.56a193.11,193.11,0,0,0-10.06,61.55l2.63-12.37a1.72,1.72,0,0,1-.43-1.18c.08-10.25,1.29-20.81,4.82-30.48a1.9,1.9,0,0,1,2.56-1.08l5-23.75-.29.17C604.35,1078.06,603.26,1080.89,602.36,1083.56Z"/><path class="cls-6" d="M608.81,1142.72a.9.9,0,0,0,.83,1,16.83,16.83,0,0,0,7,.45,3.2,3.2,0,0,0,1.65-.59,3.25,3.25,0,0,0,.93-1.84,32.68,32.68,0,0,0,.63-6.4c.22-7.44.44-15-.94-22.27-.46-2.41-1.09-4.79-1.73-7.17-2.81-10.41-6-20.9-11.62-30.09l-4.2,14.27c-.56,1.9-1.06,3.14-.3,5s1.71,3.71,2.36,5.71c2.79,8.54,3.8,17.54,4.43,26.47C608.21,1132.43,608.44,1137.58,608.81,1142.72Z"/><path class="cls-5" d="M356.29,1060.19c14-.92,28-.63,42-.33l118.56,2.49a2.73,2.73,0,0,1,1.82.48c.81.74.46,2.06,0,3.07-4.74,11.12-12,20.94-18.58,31.08A289.26,289.26,0,0,0,477,1140.33l-27,.42a196.18,196.18,0,0,0,30.93-42.52c3.42-6.35,6.57-13.28,5.95-20.47a6.32,6.32,0,0,0-1.33-3.79,6.85,6.85,0,0,0-3.2-1.67c-13.3-4-27.52-3.14-41.42-2.67-16.82.57-33.66.43-50.48-.07-8.56-.25-17.11-.6-25.66-1q-6.19-.28-12.4-.6c-2.92-.15-9.45.77-11.93-.79C334.64,1063.51,353.55,1060.37,356.29,1060.19Z"/><path class="cls-6" d="M210,475c-4.21-3.07-5.26-9.24-3.54-14.16s5.65-8.75,9.87-11.82c10.28-7.46,22.66-11.32,34.8-15.06,43.51-13.4,88.06-26.95,133.56-25.12-4.71-.19-12.55,4.74-17.07,6.46q-9.24,3.53-18.46,7.13c-12.28,4.83-24.49,9.81-36.56,15.14C288,448.38,266.08,462.67,242.48,475,235,478.93,217.12,480.17,210,475Z"/><path class="cls-6" d="M1736.16,1186.34c-153.45-76.3-306.1-166.19-457.93-245.67-9.55-5-19.1-10-28.83-14.64a26.47,26.47,0,0,0-6.82-5.37c-163.62-89.07-297.94-174-476.19-280.08a67.56,67.56,0,0,0-16.26-7.5,50.42,50.42,0,0,0-8.84-4.44c-77.84-32.79-156.26-65-238-86.3s-167.41-31.3-251-19c-11.87,1.75-49,7.59-44.91,25.76,2,8.76,12.57,19.36,17.85,26.5q9.67,13.06,20.17,25.49c28.08,33.3,60.08,63.11,93.87,90.54,19.16,15.55,38.92,30.36,59,44.67A1604.78,1604.78,0,0,0,651,883.44c-.31-1.28,3,3,2.78,1.77,2.11,1.87.75-2,3.15-.61,39,23.2,80.78,41.25,122.56,58.64,155.22,64.62,314.13,119.89,473,175.06,9.7,6.54,23.08,9.83,33.15,13,144.65,45.18,292.92,86.26,444.47,86.79,16.73.06,33.63-.4,50-4a1.85,1.85,0,0,0,.61-3.35C1766.48,1201.4,1751.29,1193.86,1736.16,1186.34Z"/><path class="cls-7" d="M1771.54,1173c-1.87-41.23-4-83.7-21.64-121-8.18-17.35-19.48-33-31.8-47.74-41-48.86-93.22-86.85-145.38-123.58q-44.87-31.59-90.23-62.47c-2.6-1.77-5.54-3.62-8.65-3.13a6.38,6.38,0,0,0-1.14.3,8.83,8.83,0,0,0-1.5-1.11c-3.3-1.94-7.4-1.57-11.23-1.45-26,.81-50.46-13-70.29-29.89s-31.81-36.72-52.13-53c-14.59-11.69-35.58-21.67-51.73-31.08L1209,654c-9.37-5.46-18.82-10.95-29.12-14.36v0c-5.33-3.33-11-6.24-16.56-9.11Q980.46,536.87,793.53,451.4c-7.23-3.3-14.79-6.64-22.51-8.2C688.43,409.54,599.58,390,510.46,392c-93.13,2-186.51,28.2-263.63,80.46-4.39,3-18,11.37-15.35,17.37,2.33,5.24,17.52,8,22.44,8.93,16.75,3,34,.49,50.77-1.37,99.83-11.08,201.36,8.16,295.29,43.75,36.11,13.69,72.2,30,109.63,38a88.64,88.64,0,0,0,4.64,14.42c4.81,11.37,14,13.65,24.08,19.43,15.82,9.1,16.61,23.55,32.48,32.14,24.53,13.28,46.34,26.92,67.6,39.58,143.8,85.66,267,159.5,412.21,238.95,2.85,1.55,6.91,5.09,10,6.23A124.93,124.93,0,0,0,1284,946.16l46.19,24.26c34.46,18.09,68.41,38.05,102.87,56.15,2.81,1.47,10.75,8.23,13.76,7.54,5.51,7.38,16,9.08,23.87,13,24.07,12.18,44.58,26,68.65,38.22,27.21,13.76,54.43,29.53,81.65,43.3,35.35,17.88,70.8,35.81,108,49.33,11.47,4.16,23.8,8,35.72,5.32a9.29,9.29,0,0,0,5.16-2.54C1771.68,1178.74,1771.66,1175.73,1771.54,1173Z"/><path class="cls-6" d="M733.34,440.51c13.65-.41,28.14,0,39.68,7.31,9.91,6.29,16.43,17.28,18.31,28.86s-.62,23.66-5.93,34.13a40.62,40.62,0,0,1-6.65,9.78,37.39,37.39,0,0,1-14.25,8.86c-16.55,6-36.68,4.38-53.9.66-41.65-9-67.29-25.05-119.75-40-40.8-11.64,8.67-21.73,19.39-26a320.36,320.36,0,0,1,57.45-16.57A412.24,412.24,0,0,1,733.34,440.51Z"/><path class="cls-6" d="M1249.5,549.58l-60.26,81.27c-2,2.67-4.29,5.54-7.57,6.08-2.62.44-5.22-.76-7.61-1.93l-13-6.34-25.3-12.34-21.93-10.7a8.27,8.27,0,0,1-2.55-.49h0c-4.42-1.47-10.36-5.82-13.68-7.44l-17.37-8.47-34.73-16.94-28.26-13.79h0l-40.64-19.83-68.9-33.61-34.74-16.94c-4.74-2.32-12.82-4.47-16.57-8.13-4.58-4.48,0-6.7,4.18-10.12,18.62-15.39,41.35-25.27,64.72-30.88a253.26,253.26,0,0,1,39.23-6c15-1.19,30.22-1.33,45.31-1.06q14.58.25,29.15,1,10.2.56,20.37,1.38,10.5.84,21,2c49.68,5.44,98.73,16,145.68,33,17.14,6.2,36.1,15.58,40.49,33.26C1270.6,519.32,1259.77,535.73,1249.5,549.58Z"/><path class="cls-5" d="M1111.27,605.13c-4.42-1.47-10.36-5.82-13.68-7.44l-17.37-8.47-34.73-16.94-28.26-13.79h0L964.5,433c15-1.19,30.22-1.33,45.31-1.06q14.58.25,29.15,1Z"/><path class="cls-5" d="M1161.06,628.66l-25.3-12.34-76.43-182q10.5.84,21,2Z"/><path class="cls-3" d="M1685.46,1139.68c4.76-6.76,9.78-13.75,17.06-17.66,7.68-4.13,17-4.25,25.49-2.17s16.29,6.19,24,10.26l19.24,10.16c3.39,1.79,6.84,3.63,9.43,6.45,4.64,5.06,5.72,12.35,6.5,19.17,1.45,12.73,2.53,26.07-2.22,38-.88,2.19-2.24,4.55-4.55,5a7.53,7.53,0,0,1-4.27-.77c-5-2-9.74-4.37-14.52-6.76l-60.91-30.42c-6.39-3.19-18.09-8.71-22.74-14.23C1672.91,1150.7,1682,1144.64,1685.46,1139.68Z"/><path class="cls-3" d="M215.34,493.37c14-12.16,33.15-16.11,51.5-18.65,93-12.91,188.18-1.07,278.65,24s176.77,63.17,261.58,103.44a45.85,45.85,0,0,1,18.13,15.21c5,6.84,8.45,16.7,2.15,22.38-3.92,3.54-9.55,4.36-14.82,4.63-36.86,1.86-71.63-15.27-105.27-30.44A1192.51,1192.51,0,0,0,431,528c-37.85-6.89-76.3-11.73-114.84-11a327.61,327.61,0,0,0-57.36,5.86,262.87,262.87,0,0,0-27.79,7c-6.28,2-17.17,14.53-23.85,12.91C189.5,538.45,208,499.75,215.34,493.37Z"/><path class="cls-6" d="M1340.57,790.77c-1.42,1.57-2.94,3.57-2.28,5.58a5.81,5.81,0,0,0,2.09,2.53c6.47,5.18,13.95,8.93,21.36,12.64l24.71,12.38a3,3,0,0,0,2.37.45,3,3,0,0,0,1.43-1.82c1.35-3.27,2.37-7.18.54-10.21a11.26,11.26,0,0,0-3-3c-8.24-6.33-17.87-10.51-27.22-15q-5.8-2.81-11.52-5.81c-1.32-.7-3.23-2.32-4.7-1.89C1343.19,786.94,1341.41,789.84,1340.57,790.77Z"/><path class="cls-6" d="M1488,633.21c20.61,12.7,39.84,28.86,63.27,35,19.4,5.08,39.84,2.77,59.9,2.9a256.46,256.46,0,0,1,72.34,11.15c22.33,6.75,44.2,16.68,61.22,32.64s28.72,38.64,27.67,62c-18-13.78-38.14-26.73-60.76-28.28-23.07-1.57-45.3,9-64.29,22.2s-36,29.21-55.94,40.91c-34.11,20-78.48,25.66-113.28,6.87a8.49,8.49,0,0,1-3.77-3.19c-1-1.87-.49-4.12,0-6.17,11.54-51.11.93-106.83-28.59-150.12-5.63-8.27-11.91-16.07-17.55-24.34-1.92-2.83-8.08-9.81-8.07-13.26,0-4.12,6.85-4.41,11-4.91C1451.2,614.15,1471.23,622.89,1488,633.21Z"/><path class="cls-5" d="M513,1150.36l-7.27,2.39a5.31,5.31,0,0,1-5.74-.57c-3.35-2-6.91-4.25-8.42-7.86a4.94,4.94,0,0,1,.11-4.67,6.64,6.64,0,0,1,2.86-2c3.16-1.43,6.49-2.87,10-2.66,3.12.18,6,1.7,8.66,3.35C518.46,1141.63,520.49,1147.9,513,1150.36Z"/><path class="cls-7" d="M1345.54,736.51c-10-10.91-27.29-14.17-34.81-26.92,8.81-3.31,18.56.84,26.71,5.53a182.5,182.5,0,0,1,30.61,22.15c-2.51,4.49-4.77,16.33-10,14.44C1353,749.87,1349.08,740.37,1345.54,736.51Z"/><path class="cls-7" d="M838.54,473.48c20.54-25.43,51.16-41.3,82.91-49.09s64.86-8.1,97.53-6.89c88.28,3.28,176.73,17.61,259.07,49.62,6.26,2.43,12.83,5.23,16.75,10.69,2.59,3.61,3.76,8.05,4.4,12.45,3.17,21.52-4.89,43-14,62.78a554.22,554.22,0,0,1-34.18,63.34c-9.87,15.75-21,32.5-19.9,51q-25.49-13.68-50.13-28.88a1140.67,1140.67,0,0,0,75.3-99.51c4.84-7.18,9.72-14.74,10.91-23.32,1.81-13.11-5.65-26.15-16-34.43s-23.16-12.65-35.81-16.54a770.69,770.69,0,0,0-196.26-33.35c-53.65-2.07-111.48,3-153.07,36.89-4.12,3.36-8.19,7.07-13.26,8.66s-11.53.35-14-4.33"/><path class="cls-5" d="M583.82,1152.57a9.2,9.2,0,0,0,6-3.72c1-1.26,1.59-3.11.6-4.33a4.15,4.15,0,0,0-2.51-1.17c-3-.61-12.56-2.31-13.86,1.84C572.61,1149.68,580.56,1153,583.82,1152.57Z"/><path class="cls-5" d="M1420.7,470.93a170.74,170.74,0,0,0-24.7-19.65c25.69-24.81,57.36-42.37,88.74-59.41a10,10,0,0,1,4.27-1.53,9.18,9.18,0,0,1,5.18,1.93,51.84,51.84,0,0,1,20.61,27c.56,1.69,1,3.55.38,5.21a9.53,9.53,0,0,1-2.74,3.3c-4.21,3.89-7.52,8.66-10.78,13.38-3.5,5.06-7.61,9.93-11.11,15s-7.14,10.33-10.59,15.57c-4.55,6.88-8.29,14.08-12.44,21.21-1.93,3.31-3.58,7.92-6.09,10.8-2.9,3.34-3.48,2.11-7.28-.66C1441.58,493.92,1431.84,481.62,1420.7,470.93Z"/><path class="cls-7" d="M1498.21,395.23a63.88,63.88,0,0,1,14,15.72c-16.77,12.42-33.7,25-47.26,40.85a217.78,217.78,0,0,0-19.49,27.58,515.82,515.82,0,0,0-60.27,141.5c-.88,3.41-1.79,7-4,9.72-3,3.74-7.8,5.42-12.39,6.8-10.37,3.12-21.33,5.7-32,3.63a36.56,36.56,0,0,1-15.26-6.73c-4.41-3.45-2.35-6.86-.92-11.73q4.53-15.44,10.36-30.44a392,392,0,0,1,27.8-57.23,398.54,398.54,0,0,1,81-97.63A383.14,383.14,0,0,1,1498.21,395.23Z"/><path class="cls-6" d="M1308.89,653.39c.71,1.76,9.36-.36,10.7,1.24l-11.12-7.42v0C1309.09,649.12,1308.69,651.33,1308.89,653.39Z"/><path class="cls-6" d="M1322.34,657.68c-.95-1-1.89-2-2.75-3l.39,1.18c-1.92-1.36,2.39-12.24,2.08-14.57,0-.11-2.46-1-2.47-1.11-.75-1.89-11.71,9.35-11.12,7.1a5.58,5.58,0,0,0-.48-1.06,22.31,22.31,0,0,0-6.82,4.33c-2.32,1.9-4.76,4-5.5,6.9-1.19,4.66,2.38,9,3.89,13.58a2.76,2.76,0,0,1,.16,1.55,2.94,2.94,0,0,1-1,1.3c-7.64,7.09-12.89,13.77-19,22.21,5.6,3.44,10.86,6,15.8,10.27,1,.64,1.63,1.63,2.64,2.29,1.54-12,2.34-21.67,3.45-33.73a5.82,5.82,0,0,1,.51-2.23c.68-1.26,2.17-1.82,3.51-2.34a130.71,130.71,0,0,0,14.52-7.33,8.47,8.47,0,0,0,1.88-2C1322.24,660.34,1322.83,658.21,1322.34,657.68Z"/><path class="cls-6" d="M1306.79,644.64c-3.89,2.48-11.86,6.8-13.23,11.55-1.57,5.43,2.94,13.47,5.81,17.72a2.17,2.17,0,0,0,2.41,1,110.46,110.46,0,0,0,16.09-7.7c3.55-2.1,8.21-4.24,5.43-8.61v2.16c1.53-3.28.8-3.93-1.79-6.84-1.83-2-4.84,1-3,3,.8.9,1.51,1.88,2.31,2.78l-.55-2.08c-.51,2.29-1.24,2.52.59,4.8l-.55-2.08c-.39,2-7.58,4.85-9.18,5.67a109.48,109.48,0,0,1-10.47,4.76l2.41,1c-2.43-3.61-6-9.21-4.85-13.75,1-4.26,7.15-7.39,10.74-9.69,2.31-1.47.17-5.17-2.15-3.68Z"/><path class="cls-9" d="M1343.63,538.22s-6.27,32,19.65,28.74c12-2,20.13-28.82,20.13-28.82S1354.78,544.69,1343.63,538.22Z"/><path class="cls-6" d="M1513.32,422.59c-37,43.5-63.75,94.6-83,148.17-5.63,15.63-10.62,31.48-15.12,47.48-.75,2.65,3.37,3.78,4.12,1.13,19.68-70,49.62-138,97-193.76,1.78-2.08-1.23-5.11-3-3Z"/><path class="cls-6" d="M1488.28,388.26c-32.58,16.29-64.81,33.93-91.71,58.83-25.26,23.38-45.5,51.61-63.46,80.82-10.35,16.82-20,34.06-29.6,51.31-1.34,2.41,2.34,4.56,3.68,2.16,16.59-29.76,33.3-59.61,53.51-87.11,21.09-28.7,46.13-53.46,76.17-72.72,17.19-11,35.31-20.48,53.56-29.61,2.46-1.22.3-4.91-2.15-3.68Z"/><path class="cls-6" d="M1517.1,424.8a45.44,45.44,0,0,0-26.49-36.51c-2.49-1.1-4.67,2.57-2.16,3.69a41.22,41.22,0,0,1,24.38,32.82c.3,2.7,4.58,2.73,4.27,0Z"/><path class="cls-6" d="M1513.16,427.75a55.31,55.31,0,0,0-25.94-37.34c-2.36-1.42-4.51,2.27-2.16,3.69a51.09,51.09,0,0,1,24,34.79c.49,2.7,4.61,1.55,4.12-1.14Z"/><path class="cls-10" d="M1440.39,550.67s12.65-1.1,11-13.06-4.21,8.37-65-43.95c-19.66-18.57-34.89-34.64-34.89-34.64s-9.91,26.12,1,34,23.87-2.52,23.87-2.52-10.88,23.09,8.42,30.71c14.05,5.54,27-1.18,27-1.18s21.45,14.11,35.13,16.15C1449.51,537,1451.34,547.76,1440.39,550.67Z"/><path class="cls-5" d="M1386.69,516.83c-4-1.57-6.5-4-7.71-7.3-2.18-6,.42-13.42,1.35-15.74l3.79,3.61.13.12q13,11.16,23.67,19a29.82,29.82,0,0,1-19.52,1C1387.82,517.26,1387.25,517.05,1386.69,516.83Zm-31.44-27.72c-4.88-3.51-3.48-14.1-1.57-21.57,4.21,4.34,11.16,11.39,19.55,19.53-1.35,1-8.28,5.72-14.78,3.67A11.26,11.26,0,0,1,1355.25,489.11Z"/><path class="cls-6" d="M1460.85,505.15c-12.66-8.69-22.95-19.38-33.27-30.63-8.78-9.56-18.06-18.82-30.1-24.14-2.49-1.1-4.66,2.57-2.15,3.68,12.7,5.63,22.13,15.69,31.33,25.79,9.81,10.77,20,20.72,32,29,2.27,1.55,4.41-2.14,2.15-3.69Z"/><path class="cls-6" d="M1462.89,500c-23-15.42-36-42.6-61.51-54.67-2.47-1.17-4.64,2.51-2.15,3.69,25.45,12,38.52,39.27,61.5,54.66,2.29,1.54,4.43-2.16,2.16-3.68Z"/><path class="cls-6" d="M1505.41,412a261,261,0,0,0-52.35,47.75c-1.75,2.1,1.25,5.14,3,3a257.09,257.09,0,0,1,51.5-47.08c2.24-1.55.11-5.25-2.16-3.69Z"/><path class="cls-6" d="M1450.07,468.45c2.75,0,2.75-4.27,0-4.27s-2.75,4.27,0,4.27Z"/><path class="cls-6" d="M1418.81,459.34c16-19,37.23-33.44,57.14-48.07,2.19-1.61.06-5.32-2.16-3.69-20.17,14.83-41.77,29.45-58,48.74-1.76,2.09,1.24,5.12,3,3Z"/><path class="cls-6" d="M1482.12,406.52l.1-.3a2.17,2.17,0,0,0-1.49-2.63,2.19,2.19,0,0,0-2.63,1.5l-.1.3a2.14,2.14,0,0,0,4.12,1.13Z"/><path class="cls-6" d="M1445.84,536.23l-2.09,5.45c-.41,1.05-1.31,5-2.38,5.43h2.15l-.46-.2v3.68a12.54,12.54,0,0,0,7.15-13.81l-3.9,1.64A4.37,4.37,0,0,1,1447,542c-.11.6-.59,3.18-1.36,3.23-2.72.2-2.74,4.47,0,4.27,5.64-.41,7.19-9.34,4.36-13.26a2.14,2.14,0,0,0-3.9,1.64,8.36,8.36,0,0,1-5.19,9,2.13,2.13,0,0,0,0,3.68c2.74,1.19,4.24-.75,5.18-3.17,1.31-3.34,2.58-6.7,3.87-10.06,1-2.56-3.14-3.67-4.12-1.13Z"/><path class="cls-6" d="M1302.93,581c-1.68,16.81-2.64,35.71,10.63,48.36,2,1.9,5-1.11,3-3-12.38-11.8-10.93-29.75-9.38-45.34.28-2.73-4-2.71-4.27,0Z"/><path class="cls-6" d="M1417.35,616.81c-11.82.28-22.34,8.18-32.84,12.82-12.38,5.47-25.36,9.46-39,9.61-2.74,0-2.75,4.3,0,4.27,12.37-.13,24.29-3.23,35.71-7.88,5.4-2.2,10.69-4.68,15.91-7.3,6.47-3.25,12.77-7.07,20.21-7.25,2.75-.07,2.76-4.34,0-4.27Z"/><path class="cls-6" d="M1307.08,644.54a140.78,140.78,0,0,1-18.37.4c-2.75-.12-2.74,4.15,0,4.27a140.78,140.78,0,0,0,18.37-.4c2.72-.24,2.75-4.51,0-4.27Z"/><path class="cls-6" d="M1303.15,579.93c-13.14,19.67-15.18,43.68-16.78,66.64-.2,2.75,4.07,2.73,4.26,0,1.56-22.24,3.48-45.43,16.21-64.49,1.53-2.29-2.17-4.43-3.69-2.15Z"/><path class="cls-6" d="M1302.5,580.5q-10.79,15.86-20.76,32.21c-1.44,2.35,2.26,4.5,3.69,2.15q10-16.35,20.76-32.2c1.55-2.28-2.15-4.42-3.69-2.16Z"/><path class="cls-6" d="M1299.32,708.6c1.57-12,2.73-24,3.7-36,.12-1.51-2.23-1.5-2.35,0-1,12-2.14,24-3.7,36-.19,1.5,2.16,1.48,2.35,0Z"/><path class="cls-6" d="M1300.38,671.8c-8.8,5.93-15.06,15.14-21.5,23.41-.92,1.18.74,2.85,1.67,1.66,6.29-8.09,12.42-17.24,21-23,1.25-.84.08-2.88-1.18-2Z"/><path class="cls-6" d="M1403.1,474.68a17.75,17.75,0,0,1,18.38,13.3c.65,2.55.73,5.21,1.26,7.78a21.4,21.4,0,0,0-4.94-6.83c-3.73-3.17-8.87-3.94-13.73-4.6a12.7,12.7,0,0,1-1.3-9.46"/><path class="cls-6" d="M1403.1,476.31a16.5,16.5,0,0,1,13.81,6.12c3.2,4.07,3.39,8.86,4.26,13.76l3-1.26c-2.17-4.1-4.75-7.6-9.05-9.6a27.62,27.62,0,0,0-6.59-2c-1.8-.34-3,0-4-2-.89-1.73-.54-4.26-.19-6,.41-2.05-2.74-2.93-3.15-.87-.68,3.45-1,10.26,3.11,11.57,2.77.89,5.75.78,8.52,1.89,4.14,1.65,6.49,4.86,8.51,8.69.92,1.74,3.29.47,3-1.26-1.09-6.2-1.56-11.7-6.15-16.44a19.78,19.78,0,0,0-15.06-5.83c-2.1.06-2.11,3.32,0,3.26Z"/><path class="cls-6" d="M1387.08,475.34a13.91,13.91,0,0,0-18.81-13.87,12.1,12.1,0,0,1,8.47,5.16,18.85,18.85,0,0,1,3.22,9.59,1.49,1.49,0,0,0,.29.93,1.28,1.28,0,0,0,.79.3,7.71,7.71,0,0,0,6-1.84"/><path class="cls-6" d="M1388.71,475.34a15.76,15.76,0,0,0-20.88-15.45c-1.38.46-1.71,2.89,0,3.15a11.25,11.25,0,0,1,8.2,5.48,16,16,0,0,1,1.88,5c.27,1.2.06,3,.77,4.1,2,3.06,6.87,1.18,9.17-.56,1.65-1.25,0-4.09-1.65-2.82s-3.49,2.16-5.52,1.37l1.14,1.15c-1.24-4-1.28-7.73-3.92-11.24a14,14,0,0,0-9.2-5.59V463a12.51,12.51,0,0,1,16.74,12.3c0,2.1,3.23,2.1,3.27,0Z"/><path class="cls-6" d="M208.71,541.25c-13.17-14.87-4.48-37.81,9.7-48.48,17.2-12.94,40.79-15,61.46-17.31,47.05-5.25,94.67-4.33,141.64,1.2,94.07,11.07,184.82,40.68,272.12,76.54,22.33,9.17,44.49,18.78,66.54,28.63,10.11,4.51,20.23,9,30.28,13.69,8.65,4,17.4,8.36,24.78,14.49,6.21,5.16,17.46,17.06,13,25.93-4.28,8.53-18.47,7.3-26.23,6.84-22.65-1.33-44.46-8.64-65.25-17.31-21.18-8.84-41.76-19-62.92-27.91q-31-13-62.9-23.91c-41.71-14.28-84.27-25.87-127.07-36.4-41.7-10.26-83.72-18-126.68-20.25a594.64,594.64,0,0,0-64,.34c-20.79,1.14-41.79,3.77-61.46,10.89a135.42,135.42,0,0,0-26.55,13c-2.31,1.47-.17,5.17,2.15,3.69,38.52-24.5,87.1-24.93,131.29-24.32,45.64.63,90.87,7.78,135.14,18.52,45.54,11.06,90.87,23.17,135.24,38.32q33.74,11.52,66.61,25.41c21.56,9.15,42.54,19.65,64.26,28.42,21.24,8.59,43.58,15.38,66.66,15.93,7.51.18,16.47-.12,22.45-5.38,6.49-5.71,4.61-14.21.95-21-9-16.69-27.86-24.75-44.25-32.2C763.22,578.45,740.7,568.44,718,558.8c-90.68-38.53-184.67-71.29-282.66-84.65-48.65-6.63-98-8.53-147-3.84-20.93,2-43.8,3.67-62.93,13.14-15.57,7.71-27.58,22.47-27.46,40.49a30.47,30.47,0,0,0,7.68,20.33c1.83,2.06,4.84-1,3-3Z"/><path class="cls-6" d="M241.18,472.54c-6.92,1.82-14.23,1.8-21.35,1.48-3.34-.15-7.09-.68-9.69-3-4.07-3.71-1.92-9.2,1-12.83,9.33-11.66,26.57-17.45,40.15-22.22,28.64-10.07,58-18,88.15-22.24A409.68,409.68,0,0,1,393,409.93c2.75,0,2.76-4.29,0-4.27A413.9,413.9,0,0,0,286.8,420.29c-17.44,4.78-35.07,10.13-51.69,17.31a97.69,97.69,0,0,0-21.33,12.16c-5.11,4-10.63,9.76-10.24,16.76s7,10.76,13.31,11.56a68.88,68.88,0,0,0,25.47-1.42c2.65-.7,1.52-4.82-1.14-4.12Z"/><path class="cls-5" d="M248.39,468.14c-5.75,1.68-5.7.5-9.69.49a10,10,0,0,1-9.08-6.09c-2-4.6,1.74-9.64,5.66-12.78,8.05-6.48,17.82-10.43,27.57-13.85,36.17-12.68,59.39-19.32,97.71-19.56"/><path class="cls-6" d="M574.69,482.62c28.41-16.76,60-27,92.32-32.95a471.42,471.42,0,0,1,49.81-6.3c15.31-1.16,32.06-3.11,46.88,2,15.61,5.34,25.56,19.84,26.36,36.17.79,16-6.64,36.25-20.7,45.07-13.83,8.66-32.11,5.91-47.32,3.46a321,321,0,0,1-45.29-11c-35.42-11.13-69.46-26.21-104.6-38.17-2.61-.89-3.73,3.23-1.14,4.12,34.62,11.78,68.18,26.58,103,37.67a319.76,319.76,0,0,0,50.23,12c15.05,2.22,32,4.18,45.9-3.62,13.55-7.63,21.62-24.7,23.67-39.59,2-14.61-2.07-30.14-12.83-40.6-11.41-11.1-27.82-13.18-43-12.92a443.39,443.39,0,0,0-51.33,4.31c-39.86,5.38-79.25,16.13-114.1,36.68-2.36,1.4-.22,5.09,2.16,3.69Z"/><path class="cls-5" d="M600.69,482.4c34.83-20.73,76.08-28,116.56-30.26,12-.69,25.1-.68,34.86,6.41,7.29,5.31,11.67,14.12,12.43,23.11s-1.86,18.07-6.47,25.82a32.57,32.57,0,0,1-7.82,9.29c-8.18,6.32-19.47,6.52-29.74,5.34-42.22-4.83-75.89-22.68-121.34-38.08"/><path class="cls-6" d="M224,489.11c68.36-48.31,149.12-80.95,232.26-91.42,85.81-10.8,173,.6,255.22,26.43,45.86,14.41,90.23,33.23,133.07,55,2.44,1.25,4.6-2.44,2.15-3.68-76.91-39.08-159.25-68.87-245-80.59-87.41-11.94-175.94-4.14-258.74,26.85A534.5,534.5,0,0,0,221.8,485.42c-2.23,1.57-.1,5.28,2.15,3.69Z"/><path class="cls-6" d="M841.88,477.33l206.48,98.32c33.46,15.93,67,31.69,99.92,48.72,31.28,16.18,62,33.33,92.47,51.07,34.65,20.2,68.86,41.14,103.07,62.07,2.35,1.44,4.5-2.25,2.16-3.68-60.48-37-121-74-183.8-107C1096.07,592,1027.8,561.15,960.35,529L844,473.64c-2.47-1.17-4.64,2.51-2.16,3.69Z"/><path class="cls-6" d="M852.25,480.59C881,454.69,916.8,439.92,955.11,436c39.85-4.11,80.94-2.11,120.7,2.09a688,688,0,0,1,118.11,23c18.1,5.21,38.51,9.93,54.3,20.62,7.73,5.24,14.31,12.78,16.88,21.89,2.71,9.6-.53,18.62-5.5,26.85-11.27,18.67-24.75,36.33-37.91,53.7q-20.78,27.42-43.37,53.4c-1.79,2.06,1.22,5.1,3,3a1042.58,1042.58,0,0,0,76.76-100c5.11-7.58,10.49-15.52,12-24.74a33.81,33.81,0,0,0-4.71-22.32c-9.26-15.67-26.76-22.61-43.2-28.12-80.52-27-167.7-39.56-252.58-34.81-23.1,1.29-46,5-67.52,13.79a180.33,180.33,0,0,0-52.81,33.2c-2,1.84,1,4.85,3,3Z"/><path class="cls-6" d="M840.88,473.15c26.63-32.52,68.92-46.15,109.39-51.06,23.4-2.84,47.08-2.88,70.62-2.21q35.69,1,71.19,5a852.28,852.28,0,0,1,141.15,28.18q16.92,4.89,33.62,10.48c10,3.34,20.88,6.79,26.34,16.56,11.57,20.67.76,48.3-8.1,67.83a768,768,0,0,1-35.91,69.11q-5,8.54-10.16,17c-3.13,5.09-6.7,10.08-8.89,15.68-3.15,8.08-2.47,17.56,5,22.89,2.24,1.59,4.38-2.11,2.15-3.69-11.5-8.15-.24-23.62,4.88-31.93q9.64-15.62,18.57-31.67c11.27-20.25,22.13-41,31.14-62.37,7.87-18.67,15-42.25,6.43-62-3.71-8.48-10.59-13.82-18.94-17.38-10.39-4.42-21.48-7.53-32.27-10.83a858.93,858.93,0,0,0-141.83-30.53c-47.6-6.12-96.85-9.65-144.76-5.47-44.8,3.91-93.1,17.25-122.69,53.38-1.73,2.11,1.27,5.15,3,3Z"/><path class="cls-6" d="M201.43,544.5c56.21,91.81,145.18,158.87,233.4,217.81C528.4,824.83,628.2,877.51,730.61,924s207.35,86.69,312.95,125c111.19,40.33,222.64,81.16,336.35,113.9,114.47,33,232.74,56.79,352.32,56q22.35-.14,44.67-1.44c2.73-.15,2.75-4.42,0-4.27-119.57,6.82-238.6-12.33-353.92-42.84-114-30.17-225.12-70.58-336.07-110.29C981,1022.14,875.54,982.83,772.4,937.88c-101.86-44.4-201.5-94.35-295.65-153.5-46.9-29.46-92.7-61-136-95.62-41.78-33.4-81.3-70.35-113.34-113.37q-11.91-16-22.31-33c-1.43-2.34-5.13-.2-3.69,2.15Z"/><path class="cls-6" d="M756.34,637.78Q864.72,702,973.24,766q98,57.63,196.36,114.5,93.06,53.65,186.82,106.07,94.75,52.87,190.38,104.12,102,54.65,204.9,107.45,13.24,6.81,26.49,13.58c2.44,1.25,4.6-2.44,2.15-3.69q-104.17-53.26-207.47-108.24-96.21-51.27-191.51-104.22-93.67-52-186.55-105.49Q1097.19,834,1000.15,776.87,893.11,714,786.37,650.62L758.49,634.1c-2.36-1.41-4.52,2.28-2.15,3.68Z"/><path class="cls-6" d="M1775.29,1217.71a5.73,5.73,0,0,0,4.33-10.6c-2.47-1.16-4.64,2.52-2.16,3.69,2,.91,1.09,3.51-1,2.8-2.62-.88-3.74,3.25-1.14,4.11Z"/><path class="cls-6" d="M1469.59,815.93c50.66,32,101.42,64.08,149,100.64a762.33,762.33,0,0,1,67.16,57.59c20.69,20.12,39.92,42,54.64,67,17,28.75,27.5,61.52,26.33,95.12-.09,2.75,4.18,2.75,4.27,0,2.07-59.34-30.79-112-70.51-153.33-41.84-43.57-90.91-80.09-140.81-113.84-28.9-19.55-58.4-38.19-87.89-56.82-2.33-1.48-4.48,2.22-2.16,3.68Z"/><path class="cls-6" d="M1779.72,1211.75c4.55-1.09,6.55-5.21,7.73-9.41a91.1,91.1,0,0,0,3.08-22.64c.25-13-.78-29.37-12-37.88-5.23-4-11.61-6.3-17.55-9q-11.51-5.16-23-10.3c-12.34-5.46-25.5-9.73-38-2.13-6.15,3.75-10.91,9.26-15,15.09-2.42,3.42-4.61,7-6.91,10.48-1.84,2.78-5.14,5.76-5,9.27a2.25,2.25,0,0,0,1.57,2.06,2.87,2.87,0,0,0,2.94-.36,2.22,2.22,0,0,0,1-2.41l-.11-.53c-.55-2.69-4.66-1.55-4.12,1.14l.11.53,1-2.41.35-.08,1.57,2.06c-.11-2.5,4.58-7.39,5.86-9.37,2.11-3.26,4.18-6.55,6.49-9.68,4.35-5.92,9.81-11.6,16.8-14.3,7.69-3,15.77-1.09,23.18,1.75,7.78,3,15.32,6.69,22.92,10.09,6.47,2.9,13.23,5.48,19.43,8.94,7.74,4.32,11.31,10.65,12.9,19.21a90.46,90.46,0,0,1,1.1,23.35,91.48,91.48,0,0,1-1.81,12.32c-.75,3.44-1.47,9.05-5.61,10-2.67.64-1.54,4.75,1.14,4.12Z"/><path class="cls-6" d="M99.24,1259.3c.62-34.75,4.87-76.32,36.84-97.22,15.71-10.28,36.56-11.16,54.68-13.65q30.53-4.18,61.3-6.34c2.73-.19,2.75-4.47,0-4.27q-25.69,1.83-51.27,5c-16.37,2.06-33.4,3.65-49.39,7.83-26,6.78-43,30.29-50.15,55-5,17.37-6,35.61-6.28,53.58,0,2.75,4.22,2.75,4.27,0Z"/><path class="cls-6" d="M654.45,1163.22a70.16,70.16,0,0,1,3.74,26.58c-.14,2.75,4.13,2.74,4.27,0a73.52,73.52,0,0,0-3.89-27.72c-.89-2.58-5-1.47-4.12,1.14Z"/><path class="cls-6" d="M656.33,1163.75q5.85-.39,11.69-.74l5.52-.35,3.07-.19c1.76.09,2,0,.68-.42l.43-3.36-.23.14,2.92.77-.07-.16c-1.2-2.48-4.88-.31-3.69,2.15l.08.16a2.15,2.15,0,0,0,2.92.77l.23-.14a2.16,2.16,0,0,0,.43-3.35c-2-2-6.64-.64-9.12-.49-5,.31-9.91.61-14.86.94-2.72.17-2.74,4.45,0,4.27Z"/><path class="cls-6" d="M677,1161.61c5.81,7.63,5.08,18.76,4.88,27.79-.06,2.75,4.2,2.75,4.27,0,.21-9.71.79-21.73-5.47-29.94-1.64-2.16-5.35,0-3.68,2.15Z"/><path class="cls-6" d="M660,1192.61a160.37,160.37,0,0,0,23.5-.79c2.7-.29,2.73-4.56,0-4.27a160.37,160.37,0,0,1-23.5.79c-2.74-.11-2.74,4.16,0,4.27Z"/><path class="cls-6" d="M591.81,1145.7c28.28.09,56.55-.36,84.79-1.69a2.15,2.15,0,0,0,2.06-2.7c-6.39-16.83-13.42-34.19-24.11-48.79-11.41-15.58-28.86-19.91-47.49-18.35-2.71.23-2.74,4.5,0,4.27,9-.75,18.24-.42,26.78,2.78s14.27,9.33,19.32,16.71c9.25,13.5,15.6,29.28,21.39,44.51l2.05-2.7c-28.24,1.33-56.51,1.78-84.79,1.69-2.74,0-2.75,4.26,0,4.27Z"/><path class="cls-6" d="M519,1144.44q27,.74,54.07,1.11c2.75,0,2.75-4.24,0-4.27q-27-.33-54.07-1.11c-2.75-.08-2.75,4.19,0,4.27Z"/><path class="cls-6" d="M250,1141.51c80-3.86,160-.49,240,2.06,2.75.09,2.75-4.18,0-4.27-80-2.55-160-5.92-240-2.06-2.74.13-2.76,4.4,0,4.27Z"/><path class="cls-6" d="M251.31,1141.12Q275.18,1119,300,1098q12-10.2,24.29-20.13c8.42-6.82,17.33-15.14,28.66-16,2.72-.21,2.75-4.48,0-4.27-9.51.74-17.17,5.75-24.49,11.5-9.19,7.21-18.16,14.7-27.1,22.2q-27.09,22.77-53,46.82c-2,1.87,1,4.89,3,3Z"/><path class="cls-6" d="M349.06,1062.34q85.53-1.3,171,3c2.74.14,2.74-4.13,0-4.27q-85.43-4.35-171-3c-2.74,0-2.75,4.31,0,4.27Z"/><path class="cls-6" d="M609.51,1069.73c16.07,1.07,32.48,2.6,47.22,9.6,12.95,6.15,24,15.65,33.31,26.48,10.35,12.07,18.44,25.9,25.9,39.88,7.56,14.17,15,28.49,21.55,43.16,7.6,17,13.7,34.77,15.9,53.33.32,2.7,4.6,2.73,4.27,0-4-33.69-20-64.17-35.49-93.82-14.36-27.46-31.54-55.79-59.72-70.91-16.35-8.77-34.71-10.78-52.94-12-2.74-.19-2.73,4.08,0,4.27Z"/><path class="cls-6" d="M96.57,1262.7l165,6.91c6.28.26,12.58.48,18.85.89,3.07.2,6.13.43,9.19.77,3.4.37,10.71.67,7.29,5.74-3,4.36-14.42,2-18.9,1.79l-21.9-1-81.63-3.71L128.69,1272l-23.89-1.09c-2.84-.13-7.46.38-10.1-.93-5.45-2.7-.5-6.44,2.76-8,2.49-1.16.32-4.85-2.16-3.69-3.43,1.61-7.56,4.11-7.86,8.35s3.51,6.83,7.28,7.72c6.36,1.49,13.54.94,20,1.23l25.89,1.18,99.54,4.53c16.4.75,32.9,2.1,49.31,2.23,4.11,0,8.53-.46,11.22-4s2.16-8.1-1.57-10.49c-4.44-2.85-11.87-2.4-16.87-2.76-8.21-.59-16.44-.83-24.67-1.18l-49.7-2.08-111.33-4.66c-2.74-.12-2.74,4.15,0,4.27Z"/><path class="cls-6" d="M115.56,1182.24c27.51.08,55,.09,82.53.55,27.26.46,54.75.82,81.91,3.29,6.38.58,13.19,1.75,17.82,6.58a18.3,18.3,0,0,1,4.36,17.32,24.84,24.84,0,0,1-7.9,12.68c-5.36,4.32-13,3.21-19.4,3-27.57-.8-55.14-1.81-82.7-2.83-30.85-1.14-61.7-2.28-92.56-3.16-2.75-.08-2.74,4.19,0,4.27,30.86.88,61.71,2,92.56,3.16,29.93,1.11,60,3.13,90,3,11,0,18.48-5.08,22.8-15.27,3.8-9,2.25-19.47-5.14-26.2-9-8.23-23.69-7.18-35-7.82-15-.85-30.1-1.44-45.16-1.85-34.68-.94-69.38-.92-104.07-1-2.75,0-2.75,4.26,0,4.27Z"/><path class="cls-6" d="M596.49,1146c13.42,5.72,14.87,25.6,14.67,38.07-.22,14.47-1.76,29-2.75,43.41l-6.14,89.57c-.19,2.75,4.08,2.73,4.27,0q3.35-48.72,6.68-97.44c1-15.3,3.39-31.18,1.8-46.49-1.17-11.23-4.88-25.91-16.38-30.8-2.5-1.07-4.67,2.61-2.15,3.68Z"/><path class="cls-6" d="M598.9,1093.8a146.27,146.27,0,0,1,7.82,50.17c-.05,2.75,4.22,2.75,4.27,0a149.65,149.65,0,0,0-8-51.31c-.88-2.58-5-1.47-4.11,1.14Z"/><path class="cls-6" d="M604.77,1079.15A162.8,162.8,0,0,1,618.16,1143c0,2.74,4.29,2.75,4.27,0a168,168,0,0,0-14-66c-1.1-2.51-4.77-.34-3.69,2.16Z"/><path class="cls-6" d="M755.91,1240.32c-4.94-9.92-10.55-20.12-20.07-26.37-8.47-5.56-18.37-6.6-27.66-2.42-20.83,9.37-29.53,32.56-35.07,53-3.19,11.83-5.85,23.88-10.34,35.32-2.77,7-6.43,11.66-13.9,13.87-6.71,2-13.89,1.87-20.81,1.6q-41.56-1.62-83.12-2.25c-31.71-.44-63.42-.82-95.09-2.3-2.75-.12-2.74,4.15,0,4.27,54.2,2.54,108.48,1.75,162.69,3.87,12.05.47,24.88,2.27,36.71-.87,10.11-2.69,14.85-9.46,18.3-18.84,8-21.8,9.9-46.46,22.88-66.21,7.1-10.79,19.94-22.48,33.94-19.46,14.24,3.08,21.89,16.93,27.85,28.9,1.23,2.46,4.91.3,3.69-2.15Z"/><path class="cls-6" d="M97.71,1274.56c7.41,30.81,46.77,29.13,71.28,30l104.3,3.93c18,.68,37.34,3.15,54.42-3.86,2.5-1,1.41-5.16-1.14-4.11-18.09,7.42-39.21,4.23-58.24,3.52l-62.3-2.35c-20-.75-40-1.13-60-2.32-17.53-1.06-39.47-6.24-44.22-26-.64-2.67-4.76-1.54-4.12,1.13Z"/><path class="cls-6" d="M327,1305.6c12.27-9.62,13.65-26.45,18.13-40.29,5.8-17.9,15.12-35.2,27.61-49.33,12.36-14,29.65-22.4,48.29-16.13,18,6.05,27.75,24.25,30.73,42,3.84,22.9-.35,47.83-5.27,70.26-.59,2.68,3.52,3.82,4.11,1.13,4.7-21.38,8.38-44.43,6.1-66.34-1.83-17.7-9-35.74-24.2-46.07-14.58-9.89-34.25-9.58-48.9-.08-15.71,10.19-27,27.93-35,44.5a167.57,167.57,0,0,0-10.85,30.46c-2.59,9.93-5.34,20.28-13.77,26.9-2.16,1.69.88,4.7,3,3Z"/><path class="cls-6" d="M446.3,1312.15c-7,26.64-30.24,46.53-58.53,44.29-28.5-2.26-53.59-26.4-55.6-55.11-.19-2.73-4.46-2.75-4.27,0,1.67,23.91,17.8,44.89,39.62,54.33,21.42,9.26,46.46,5.9,63.82-10a66.5,66.5,0,0,0,19.08-32.42c.7-2.66-3.42-3.8-4.12-1.14Z"/><path class="cls-6" d="M652.15,1313.62c1.12,31,33,49.91,61.78,46.55,14.37-1.68,26.22-9.67,34.18-21.6,8.77-13.15,11.64-29,13-44.52,1.85-20.42,1.46-40-5.75-59.45-.94-2.56-5.07-1.45-4.11,1.13,7.08,19.11,7.4,38.28,5.59,58.32-1.59,17.7-5.46,36.43-18.3,49.61-26.07,26.77-80.78,8.41-82.16-30-.09-2.74-4.36-2.75-4.27,0Z"/><path class="cls-6" d="M714.74,1224.41c-20.88,7-27.54,31.28-29.4,50.95a109.18,109.18,0,0,0,2.57,35.89c2.43,10,6.16,20.77,14.28,27.68,16.83,14.36,37,1.15,44.37-16.23,8.55-20.21,10-45.29,5.07-66.55-2.48-10.73-6.57-23.32-16.61-29.29a27.47,27.47,0,0,0-27.58-.08c-2.38,1.37-.24,5.07,2.15,3.69a23,23,0,0,1,23.87.46c7.87,5.1,11.14,15.09,13.4,23.72,4.86,18.55,3.84,38.52-1.08,57-2.38,8.92-6.09,18.06-13.54,23.94-8.16,6.46-18.84,7.25-27,.36-7.15-6-10.45-15.26-12.73-24a105.26,105.26,0,0,1-3.33-28.33c.36-19.53,5.42-47.88,26.74-55,2.59-.87,1.48-5-1.14-4.12Z"/><path class="cls-6" d="M436.18,1335.55c2.41,8.41,10,12.83,18.14,14.5a94.48,94.48,0,0,0,32,1.38c9.1-1.33,19.08-4.29,25.56-11.19,6.22-6.62,9.13-15.54,11.78-24,.83-2.63-3.29-3.76-4.11-1.14-2.29,7.31-4.68,15.06-9.7,21-5.27,6.27-13.32,9-21.13,10.59-8.74,1.77-17.6,1.24-26.41.23-8.64-1-19.22-2.82-22-12.51-.76-2.64-4.88-1.52-4.12,1.13Z"/><path class="cls-6" d="M387,1216.45c-8.19,6.08-13.54,14.51-17.55,23.86-2.45,5.7-3.53,11.77-4.77,17.81-1.34,6.51-2.6,12.56-2.84,19.22-.46,12.91-.46,26.77,4,39.09a50.19,50.19,0,0,0,19.15,24.8c10.56,7.29,22.44,6.82,33-.24,10.74-7.18,17.38-18.71,21.5-30.69a131.87,131.87,0,0,0,7.19-41.8c.08-13.1-1.73-27.26-8.79-38.56-5.76-9.21-12.87-15.78-23.28-19-11.47-3.55-22.26.09-31.62,7.1-2.2,1.65,0,5.41,2.19,3.74,7.81-5.86,16.71-9.67,26.52-7.18a33.16,33.16,0,0,1,18.61,12.05c15.56,19.63,13.81,48.24,8.24,71.27-2.87,11.86-7.11,23.92-15.52,33-8.67,9.4-21.25,15-33.22,8.19-20.55-11.66-24.66-35.65-23.82-57.37.81-21,5-48.14,23.16-61.61,2.21-1.64.06-5.39-2.18-3.73Z"/><path class="cls-6" d="M109.79,1291.32c1.48,15.5,6,31.78,15,44.67,8.42,12,21.23,16.76,35.54,17.18,28.45.84,56.51-17.56,59.2-47.39.25-2.74-4-2.72-4.27,0-2.48,27.55-29,43.86-54.93,43.12-14.1-.4-26.06-5.44-33.61-17.75-7.32-11.94-11.38-26-12.7-39.83-.26-2.72-4.53-2.74-4.27,0Z"/><path class="cls-6" d="M574.92,1175.31l.05,4.32a2.19,2.19,0,0,0,2.14,2.14c6.7.34,13.44.56,20.15.32,3.59-.14,5.82-.66,6-4.6s-1-5.07-4.87-5.35a151.3,151.3,0,0,0-21,.06c-2.72.18-2.74,4.45,0,4.27,3.81-.26,7.62-.42,11.44-.4,3.43,0,8.2-.5,11.5.62l-1.49-1.49c1,4-7.68,2.7-9.83,2.68-4,0-7.94-.18-11.9-.38l2.13,2.13,0-4.32c0-2.75-4.31-2.75-4.27,0Z"/><path class="cls-6" d="M556.22,987c.71,10.49.88,23.09,8,31.53,6.12,7.24,18.26,11.56,25.44,3.41,8-9.09,9.83-22.52,9.1-34.15-.33-5.24-1.73-10.57-6-13.94a11,11,0,0,0-6.63-2.49c-2.27,0-4.06.33-6.11-.9-1.23-.73-2.15-1.94-3.35-2.73-12.07-8.06-20,8.84-20.42,18.43-.12,2.74,4.15,2.74,4.27,0,.25-5.84,2.25-14.64,9.17-15.82,5.23-.88,7.48,5.17,12.48,5.59,3.55.29,6.15-.82,9,2.22,2.67,2.82,3.2,6.83,3.4,10.53.35,6.49,0,13.43-2.21,19.56-1.52,4.15-3.62,9.3-7.16,12.13-5.07,4.05-12.42.66-16.48-3.27-7.63-7.38-7.55-20.24-8.22-30.1-.18-2.73-4.45-2.75-4.27,0Z"/><path class="cls-6" d="M583,986.6a11,11,0,0,0-.15,5.41c.35,1.54,1.42,3.45,3.32,2.94,3.36-.9,1.79-7.13.91-9.24a1.87,1.87,0,0,0-2.23-1.27,2.35,2.35,0,0,0-1.74,2.41c-.17,2.32,3.46,2.31,3.62,0l-.06.31-1.08.83.22-.06-2.22-1.26a11.83,11.83,0,0,1,.81,2.86,11.6,11.6,0,0,1,.09,1.44c0,.24,0,.48,0,.72q-.25.93.93-.33l1.28.53c-.95-.82-.48-3.31-.2-4.33a1.81,1.81,0,0,0-3.49-1Z"/><path class="cls-6" d="M570,985.29a10.93,10.93,0,0,0-.16,5.42c.35,1.54,1.43,3.44,3.33,2.94,3.35-.9,1.78-7.13.9-9.25a1.86,1.86,0,0,0-2.22-1.26,2.35,2.35,0,0,0-1.75,2.41c-.16,2.32,3.46,2.31,3.62,0l-.06.3-1.08.84.23-.06-2.23-1.26a10.71,10.71,0,0,1,.91,4.29c0,.24,0,.48,0,.73q-.24.93.93-.33l1.28.53c-1-.83-.48-3.32-.19-4.34a1.81,1.81,0,0,0-3.49-1Z"/><path class="cls-6" d="M574.94,1004a8.17,8.17,0,0,0,.31,9.34c2.12,2.82,6.67,3.39,8.65.05,1.53-2.6.66-6.32-.81-8.74-1-1.66-2.32-3.31-4.43-3.19a3.87,3.87,0,0,0-3.71,3.84c-.09,4,6.11,4,6.19,0V1005l-.91,2.19,0,.05-1.56.42.44,0-2.19-.9a5.87,5.87,0,0,1,1.34,2.13c.14.38.2,1.36.26,1.46-.16-.26,1.63-.24,1.62-.73a6.32,6.32,0,0,0-.3-.73,2.13,2.13,0,0,1,.46-1.74c2.12-3.39-3.24-6.5-5.35-3.12Z"/><path class="cls-6" d="M559.47,987.76a5.22,5.22,0,0,0-4.59-6.6c-3.46-.26-6.21,2.38-7,5.58-1.67,6.48,4.4,15,11.34,10.48,2.3-1.49.16-5.18-2.16-3.69-2.66,1.72-4.95-.92-5.21-3.51a5.17,5.17,0,0,1,.74-3.51c.56-.77,3.33-1.93,2.8.11-.7,2.66,3.42,3.8,4.11,1.14Z"/><path class="cls-6" d="M599.53,990.12c.74-1.92,2.55,1,2.76,1.57a4.92,4.92,0,0,1,.21,2.74c-.26,1.16-2,4-3.53,3.6l1.28,1-.19-.35v2.15l.16-.31c1.28-2.43-2.4-4.59-3.68-2.16-1.79,3.4,2.09,4.42,4.56,3.45a9.06,9.06,0,0,0,5.69-7.29c.38-3.25-1.06-7-4.06-8.59s-6.15.08-7.32,3.07c-1,2.57,3.14,3.68,4.12,1.14Z"/><path class="cls-6" d="M559,983.37c-3.58-3.14-8.42-11.51-1.86-14.5,1.95-.88,3.38-.47,4.79-2.58,1.67-2.48,1.28-5.79,2.72-8.39,3.73-6.73,8.66-1.36,13,.8a14.65,14.65,0,0,0,8.87,1c5.36-.77,13.15-3.71,14,4.29.31,2.79-.39,5,1.36,7.4s4.51,2.49,4.51,6.41c0,3.16-2.57,5.47-4.9,7.11s-.1,5.28,2.15,3.69c3.63-2.56,7-6.06,7-10.8a9.23,9.23,0,0,0-1.65-5.49c-.67-.94-1.77-1.46-2.41-2.34-2.46-3.41-1.54-4.4-1.82-7.54-.4-4.55-4-7.45-8.33-8.09-2.64-.39-5.19.2-7.78.63-5.16.87-8.06.74-12.49-2.34-3.79-2.64-8-3.53-12-.64a11.89,11.89,0,0,0-3.95,5.25c-1.59,3.8-.35,5.24-4.75,7.5-3.49,1.79-5.43,3.56-5.72,7.86a17.14,17.14,0,0,0,6.18,13.77c2.06,1.81,5.09-1.2,3-3Z"/><path class="cls-6" d="M558.09,1005.19c-2.3,13.6,5.79,24.43,14.23,34.15,1.8,2.08,4.81-.95,3-3-7.27-8.37-15.14-18.13-13.13-30,.45-2.69-3.66-3.84-4.12-1.14Z"/><path class="cls-6" d="M575.44,1040.59c10.57-6.57,19.92-15.92,20-29.14,0-2.75-4.25-2.75-4.27,0-.06,11.67-8.63,19.7-17.87,25.45-2.33,1.45-.19,5.14,2.15,3.69Z"/><path class="cls-6" d="M559.54,1003.47c-10.65,2.27-18.78,10.8-24.86,19.37-7.8,11-10.8,24.18-14.92,36.82a416.33,416.33,0,0,1-15.4,41.07c-5.65,12.61-13.62,24.56-16.44,38.25-.55,2.68,3.57,3.83,4.12,1.13,2.68-13,10.2-24.39,15.63-36.38,5.29-11.7,9.76-23.74,13.87-35.9s6.78-26.16,13.31-37.41c5.63-9.71,14.32-20.38,25.83-22.83,2.68-.57,1.55-4.69-1.14-4.12Z"/><path class="cls-6" d="M533.94,1068.45c-4.09,24.94-14.48,48.41-17,73.66-.28,2.73,4,2.71,4.27,0,2.51-24.84,12.85-48,16.88-72.52.44-2.69-3.67-3.85-4.12-1.14Z"/><path class="cls-6" d="M524.05,1117.59c14,15,35.3,14,53.62,9.45,2.66-.66,1.53-4.78-1.14-4.12-16.84,4.19-36.57,5.47-49.46-8.35-1.88-2-4.9,1-3,3Z"/><path class="cls-6" d="M587.53,1066.29a248.66,248.66,0,0,1-7.07,42.06c-1.67,6.72-3.51,13.39-5.43,20q-1.31,4.53-2.66,9.06c-.54,1.84-2.28,5-1.48,6.86a2.28,2.28,0,0,0,2.06,1.57h.33a2.15,2.15,0,0,0,2.06-1.56l.08-.32a2.13,2.13,0,0,0-.55-2.08l-.25-.22c-2.07-1.78-5.1,1.23-3,3l.25.22-.55-2.08-.08.32,2.06-1.56-.33,0,2.06,1.56c-.16-.38,1.39-4.28,1.48-4.59.45-1.51.89-3,1.33-4.52q1.47-5,2.88-10c1.78-6.36,3.47-12.75,5-19.18a244.74,244.74,0,0,0,6.12-38.61c.2-2.74-4.07-2.73-4.27,0Z"/><path class="cls-6" d="M595.4,1144.28c-1.34-27.06,7.52-52.24,15.46-77.66,3.29-10.51,5.73-21.74,3-32.66-2.58-10.45-10.06-18.14-19.37-23.08-2.43-1.28-4.59,2.4-2.16,3.69,10.79,5.72,17.78,14.94,18.38,27.38.58,11.73-3.84,23-7.4,34-7.2,22.12-13.38,44.9-12.22,68.38.13,2.73,4.4,2.75,4.27,0Z"/><path class="cls-6" d="M453,1141.76a283.11,283.11,0,0,0,27.32-38.37c5.52-9.36,15.43-24.05,4.5-33.29-2.09-1.76-5.13,1.24-3,3,5.92,5,3.49,12.18.43,18.15-2.84,5.5-6,10.84-9.32,16.09A276.37,276.37,0,0,1,450,1138.74c-1.76,2.09,1.25,5.13,3,3Z"/><path class="cls-6" d="M480.1,1140.66c.45-6.38,4.39-12.64,7.38-18.15s6.2-10.77,9.53-16c7-11,14.23-21.88,21.37-32.81,1.5-2.31-2.19-4.45-3.69-2.16-7.81,12-15.79,23.84-23.36,36-3.61,5.79-7.07,11.69-10.12,17.8-2.47,5-5,9.76-5.38,15.36-.19,2.74,4.08,2.73,4.27,0Z"/><path class="cls-6" d="M517.8,1069.3c-61.53,1-122.95-3.71-184.46-3.94-2.75,0-2.75,4.26,0,4.27,61.51.23,122.93,4.92,184.46,3.94,2.74,0,2.75-4.31,0-4.27Z"/><path class="cls-6" d="M570.69,1143.31a11.58,11.58,0,0,0,9.17,11.2c4.51,1,10.07-.09,12.55-4.31,2.21-3.75,3.49-8.16-1.43-9.47a33.39,33.39,0,0,0-10.58-1c-2.53.16-6.36.29-8.49,1.76a2.18,2.18,0,0,0-1,2.41l.07.18a2.21,2.21,0,0,0,2.06,1.57h.16c2.73-.15,2.75-4.42,0-4.27h-.16l2.06,1.57-.07-.18-1,2.41c3.27-2.28,13.8-1.92,17.12.09l-1.06-1.85c.37,9.73-15,9.17-15.17-.13-.06-2.74-4.33-2.75-4.27,0Z"/><path class="cls-6" d="M491,1142.79c7.78-5.23,19-7.34,25.19,1.59,1.55,2.25,5.25.12,3.69-2.15-7.43-10.79-21.11-9.8-31-3.12-2.26,1.52-.13,5.22,2.16,3.68Z"/><path class="cls-6" d="M487.76,1141.16a17.14,17.14,0,0,0,14.83,13.38c6.4.67,16.44-3.11,17.92-10.18.56-2.68-3.56-3.83-4.12-1.14-1.12,5.35-9.71,7.75-14.19,6.94A12.9,12.9,0,0,1,491.87,1140c-.6-2.68-4.71-1.54-4.11,1.14Z"/><path class="cls-6" d="M1375.23,754.77a1.59,1.59,0,0,1,.15-.29c-.18.21-.19.24,0,.06-.16.24-.18.13.09,0-.43.24,0,.05.11,0-.3,0-.33.05-.08,0s.21,0-.09,0c.38.22-.34-.2.08,0-.21-.18-.22-.19,0,0l-.13-.18q.18.31,0-.06c.06.24.06.22,0-.08v.17c0,.25,0,.22,0-.07-.24.43.33-.23,0,.12-.13.2-.11.2,0,0q-.22.21,0,.06l0,0,.06,0c.42-.11-.17-.1.25,0-.23-.07-.23-.07,0,0-.18-.12-.2-.13-.08,0s.1.06-.06-.08c.14.2.14.19,0,0s-.12-.21,0-.07.06.11,0-.09q0,.4,0,0c0,.27,0,.28,0,0a2.17,2.17,0,0,0-1.49-2.63,2.19,2.19,0,0,0-2.63,1.49,4.45,4.45,0,0,0,2.91,5.41,4.17,4.17,0,0,0,5.14-2.93,4.1,4.1,0,0,0-2.71-5.14,4.41,4.41,0,0,0-5.12,2.15,2.21,2.21,0,0,0,.76,2.93,2.15,2.15,0,0,0,2.92-.77Z"/><path class="cls-6" d="M1415.78,618.61c13.09,23,31.49,42.13,43.07,66.11a197.45,197.45,0,0,1,19.33,74.95c.7,13.06.58,26.64-2.76,39.35-.83,3.13-1.73,8.09-4.2,10.37-2.71,2.5-8,2.17-11.44,2.22a72.33,72.33,0,0,1-21.37-3.1c-13.27-3.89-25.29-11-36.37-19.18-4.58-3.36-13.78-8.26-14.37-14.5-.7-7.31.61-15.39,2.19-22.51a98.29,98.29,0,0,1,3-10.48c.49-1.41,1-3.92,1.92-5.1,2.21-2.77,3.73-2,6.35-1.54a81.26,81.26,0,0,1,37.28,18c5.74,4.94,12.16,11,12.3,19.09,0,2.75,4.31,2.76,4.26,0-.21-12.89-13-22.7-22.88-29.12A85.89,85.89,0,0,0,1413,734a82,82,0,0,0-10-2.71c-2.4-.49-5.72-1.59-8.16-.91-4.94,1.37-6.61,11.47-7.77,15.58a99.51,99.51,0,0,0-3.64,22.93c-.29,7.34.36,11.47,6.15,16.19a211.75,211.75,0,0,0,19.09,14.07c12.79,8.24,27,14.56,42.24,16.31,6.27.72,15.31,1.64,21.13-1.43,5.19-2.74,6.67-10.35,7.91-15.53,3.6-15,3.35-31.19,1.92-46.48a202.87,202.87,0,0,0-9.17-44.22,199.79,199.79,0,0,0-21.94-46.15c-9.94-15.4-22.2-29.18-31.3-45.15-1.36-2.38-5-.24-3.69,2.16Z"/><path class="cls-6" d="M1387.17,777.73c-5.28-4.29-10.38-8.79-15.24-13.56-2-2-5.46-4.5-6.8-7-1.91-3.53.45-8.25,1.73-11.65,2-5.3,5.73-14.91,11.32-17.5s11.73,4.07,16.86,5.61c2.64.79,3.77-3.33,1.14-4.12-6.14-1.83-11.38-8.15-18.35-5.95s-11,11.21-13.66,17.32c-1.72,4-3.53,8.37-4.11,12.68-.44,3.22.51,4.93,2.65,7.27a198.88,198.88,0,0,0,21.44,19.91c2.11,1.72,5.15-1.28,3-3Z"/><path class="cls-6" d="M1376.43,723.82l-25.06-15.07c-6.3-3.79-12.73-8.15-20.38-7.83-5.78.24-21.68,2-22.5,9.81-.84,8.09,15.43,11.13,20.48,14.26a72.83,72.83,0,0,1,20.09,18.67c2.45,3.36,7.49,13.32,12.42,12.66a2.22,2.22,0,0,0,2.14-2.14,2.55,2.55,0,0,0-1.36-2.44,2.16,2.16,0,0,0-2.59.33l-.19.19c-2,1.93,1.06,4.94,3,3l.19-.19-2.59.34.33.23-1.06-1.84,0,.36,2.13-2.13c-1.9.25-5.86-6.49-6.84-7.87-1.7-2.39-3.37-4.79-5.25-7a78.06,78.06,0,0,0-12.78-11.85,53.33,53.33,0,0,0-11.94-7.06c-3-1.28-9.34-3-11.19-5.88-3-4.65,16.85-7.44,20.3-7,7.39.87,14.22,6.38,20.45,10.13l20,12.06c2.36,1.42,4.51-2.27,2.16-3.69Z"/><path class="cls-6" d="M1305.23,578.33a57.75,57.75,0,0,0-36.39,4.33c-2.49,1.16-.32,4.84,2.15,3.69a52.86,52.86,0,0,1,33.1-3.91c2.68.55,3.83-3.57,1.14-4.11Z"/><path class="cls-6" d="M1307.61,648.29a39.22,39.22,0,0,0,16.61-9.32c2-1.88-1-4.89-3-3a34.82,34.82,0,0,1-14.72,8.22c-2.65.72-1.53,4.84,1.13,4.11Z"/><path class="cls-6" d="M1308.73,622.88a48.78,48.78,0,0,0,13.31,13.7c2.26,1.57,4.4-2.13,2.15-3.69a43.54,43.54,0,0,1-11.77-12.16c-1.49-2.3-5.19-.16-3.69,2.15Z"/><path class="cls-6" d="M1321.65,633.79A53.05,53.05,0,0,0,1326.6,676c1.38,2.37,5.07.23,3.69-2.16a48.65,48.65,0,0,1-4.52-38.87c.8-2.64-3.32-3.77-4.12-1.14Z"/><path class="cls-6" d="M1330.13,677.74A123.48,123.48,0,0,0,1378.28,661c15.52-9.44,26.77-24.25,42.31-33.46,2.36-1.4.22-5.09-2.16-3.69-14.61,8.66-25.21,22.45-39.47,31.68a118.43,118.43,0,0,1-48.83,17.93c-2.69.35-2.73,4.62,0,4.27Z"/><path class="cls-6" d="M1349,638.65a33.44,33.44,0,0,1-27-7.69c-2.08-1.78-5.11,1.23-3,3a38.1,38.1,0,0,0,31.2,8.78c2.71-.42,1.56-4.54-1.13-4.11Z"/><path class="cls-6" d="M1372.31,723.92l16.91-19.79c1.77-2.07-1.23-5.11-3-3l-16.91,19.8c-1.78,2.07,1.23,5.11,3,3Z"/><path class="cls-6" d="M1436.91,644.73c-13.13,3-21.75,13.34-26.41,25.51-1,2.57,3.14,3.68,4.12,1.14,4.13-10.81,11.8-19.88,23.42-22.54,2.68-.61,1.55-4.73-1.13-4.11Z"/><path class="cls-6" d="M1419.65,622.8c26.12-10.79,53.68,2.82,75.42,17.21,20.83,13.79,41.38,29.89,66.89,33.35,14.09,1.91,28.28.34,42.4-.16a234.86,234.86,0,0,1,44.41,2.6c27.34,4.27,55.26,12.93,78.49,28.31,24.59,16.27,43.68,42.59,42.83,73.09l3.64-1.51a90.13,90.13,0,0,0-56.06-27.86c-20.5-2.19-40.43,3.78-58.23,13.69-35.89,20-64.39,54.53-105.42,64.71a102.87,102.87,0,0,1-79.21-13.12c-2.33-1.48-4.47,2.22-2.15,3.68A107.29,107.29,0,0,0,1537,833.17c21.06-1.42,40.28-9.69,57.85-21,33.53-21.62,64.05-56,105.93-60.16,26-2.54,52.16,7.73,69.91,26.71a2.16,2.16,0,0,0,3.65-1.51c1.63-58.08-57.06-90.19-106-101.88a239.45,239.45,0,0,0-43.28-6.23c-15.85-.82-31.56.89-47.39.93a92.16,92.16,0,0,1-42.64-9.78c-12.35-6.23-23.58-14.38-35-22.07-23.32-15.67-53.13-31.19-81.46-19.48-2.5,1-1.41,5.16,1.13,4.11Z"/><path class="cls-6" d="M1539.91,667.33a145.47,145.47,0,0,0,53.48,17.76c7.47,1,15.08.76,22.49,2.07,2.69.48,3.84-3.64,1.14-4.11-6.37-1.13-12.83-1.1-19.25-1.73a139,139,0,0,1-19.42-3.33,144.16,144.16,0,0,1-36.29-14.35c-2.4-1.34-4.56,2.35-2.15,3.69Z"/><path class="cls-6" d="M1649.72,772.22c27.33-16.32,56.5-33.31,89.5-31.23,2.74.17,2.73-4.1,0-4.27-33.74-2.12-63.7,15.12-91.65,31.81-2.36,1.41-.21,5.1,2.15,3.69Z"/><path class="cls-6" d="M1402.11,794.39c11.5,31.32.76,65.88-12.16,95-14.13,31.86-31.79,62.3-51.49,91-1.83,2.65,2.5,5.16,4.31,2.52,20.63-30.06,39.24-62.07,53.51-95.67,12.38-29.12,22-63.23,10.65-94.21-1.1-3-5.93-1.71-4.82,1.32Z"/><path class="cls-6" d="M1344.27,787.71q12.86,6.67,25.5,13.74,5.89,3.3,11.74,6.7c2.09,1.21,4.71,2.36,6.46,4.06,3.52,3.41.82,7.17-1.63,10.13l2.58-.34q-15.36-7.41-30.38-15.5-7.1-3.82-14.09-7.81c-3.24-1.85-5.1-2.54-2.91-6,1.45-2.27,3.78-4.32,5.57-6.35s-1.21-5.09-3-3c-2.68,3-9.16,7.86-8.59,12.45s7.54,7,10.92,8.9q19.85,11.13,40.35,21a2.19,2.19,0,0,0,2.58-.33c2.7-3.25,5.77-7.3,4.49-11.81s-6.39-6.89-10.18-9.09Q1365.3,793.8,1346.42,784c-2.43-1.27-4.59,2.41-2.15,3.68Z"/><path class="cls-1" d="M910.21,271.68c-10.48-5.86-21.27-11.82-33.15-13.58s-25.39-.31-32.44,9.41c-16.1-10-38.54-10.62-56-3.27-3.33-9.92-17.95-14.74-27.14-9.74a25.75,25.75,0,0,0-45.35-18.94,11.06,11.06,0,0,0-11.75-4.37c-4.31,1.17-6.35,2.61-6.62,7.06-6.17-13.32-17.07-24.77-30.83-29.88s-30.34-3.23-41.56,6.24-16.62,25.84-10.06,39a46.63,46.63,0,0,0-38.19-16.69c-14.39.86-28.51,9.51-36.26,21.66-6.26-7.65-18.7-9.23-26.68-3.4-3.24-7.31-13.86-9.42-19.43-3.68a25.92,25.92,0,0,0-5.7-25.39c-6.26-6.61-13.83-8.13-22.62-5.76.86-5.2,1.72-10.55.63-15.71s-4.61-10.16-9.73-11.42-8,2.18-7.73,7.44A43.46,43.46,0,0,0,372.7,205a42.11,42.11,0,0,0-.28,33.14,36.35,36.35,0,0,0-10-10.29c-7.51-4.91-18.86-5.18-24.49,1.82-3.78,4.69-4.08,11.45-2.27,17.2A56.16,56.16,0,0,0,343.85,263a13.66,13.66,0,0,0-12.38-6,13,13,0,0,0-11,7.67c-5.6-4.22-13.39-3.35-20.31-2.28-25.28,3.91-49.58,11.16-74.62,14.07h-.12a174.8,174.8,0,0,1-20.27,1.26h37.68a2021.27,2021.27,0,0,0,209.3,3.39c22.37-.8,44.72,5.95,66.33.13,51.39,17.46,108.49,17.31,159.63-.88a310,310,0,0,0,102.38,6.3c22.11-2.29,44.5,4.74,64.15-5.65,12,4.68,26,4.42,37.34-1.74,7.61,5,26.27-1.55,62.65-1.55C931.8,274.12,921.85,278.19,910.21,271.68Z"/><path class="cls-2" d="M910.21,271.68c-10.48-5.86-21.27-11.82-33.15-13.58s-25.39-.31-32.44,9.41c-16.1-10-38.54-10.62-56-3.27-3.33-9.92-17.95-14.74-27.14-9.74a25.75,25.75,0,0,0-45.35-18.94,11.06,11.06,0,0,0-11.75-4.37c-4.31,1.17-6.35,2.61-6.62,7.06-6.17-13.32-17.07-24.77-30.83-29.88s-30.34-3.23-41.56,6.24-16.62,25.84-10.06,39a46.63,46.63,0,0,0-38.19-16.69c-14.39.86-28.51,9.51-36.26,21.66-6.26-7.65-18.7-9.23-26.68-3.4-3.24-7.31-13.86-9.42-19.43-3.68a25.92,25.92,0,0,0-5.7-25.39c-6.26-6.61-13.83-8.13-22.62-5.76.86-5.2,1.72-10.55.63-15.71s-4.61-10.16-9.73-11.42-8,2.18-7.73,7.44A43.46,43.46,0,0,0,372.7,205a42.11,42.11,0,0,0-.28,33.14,36.35,36.35,0,0,0-10-10.29c-7.51-4.91-18.86-5.18-24.49,1.82-3.78,4.69-4.08,11.45-2.27,17.2A56.16,56.16,0,0,0,343.85,263a13.66,13.66,0,0,0-12.38-6,13,13,0,0,0-11,7.67c-5.6-4.22-13.39-3.35-20.31-2.28-25.28,3.91-49.58,11.16-74.62,14.07h-.12a174.8,174.8,0,0,1-20.27,1.26h37.68a2021.27,2021.27,0,0,0,209.3,3.39c22.37-.8,44.72,5.95,66.33.13,51.39,17.46,108.49,17.31,159.63-.88a310,310,0,0,0,102.38,6.3c22.11-2.29,44.5,4.74,64.15-5.65,12,4.68,26,4.42,37.34-1.74,7.61,5,26.27-1.55,62.65-1.55C931.8,274.12,921.85,278.19,910.21,271.68Z"/><path class="cls-1" d="M1544.7,538.2c5.87-3.28,11.91-6.62,18.56-7.61s14.22-.17,18.17,5.27c9-5.57,21.58-5.94,31.34-1.83,1.86-5.55,10-8.25,15.2-5.45a14.41,14.41,0,0,1,25.39-10.6,6.19,6.19,0,0,1,6.58-2.46c2.41.66,3.55,1.47,3.71,4,3.45-7.46,9.55-13.87,17.26-16.73s17-1.81,23.27,3.49,9.3,14.47,5.63,21.83a26.12,26.12,0,0,1,21.38-9.35,26.84,26.84,0,0,1,20.31,12.13,11.35,11.35,0,0,1,14.93-1.9c1.82-4.09,7.76-5.28,10.88-2.07a14.53,14.53,0,0,1,3.19-14.21c3.51-3.7,7.75-4.55,12.67-3.22-.48-2.92-1-5.91-.35-8.8s2.58-5.69,5.44-6.39,4.5,1.21,4.34,4.16a24.34,24.34,0,0,1,43.07,2.42,23.62,23.62,0,0,1,.15,18.55,20.42,20.42,0,0,1,5.58-5.76c4.21-2.75,10.56-2.9,13.72,1,2.11,2.63,2.28,6.42,1.27,9.63a31.29,31.29,0,0,1-4.58,9.08,7.65,7.65,0,0,1,6.94-3.38,7.27,7.27,0,0,1,6.14,4.29c3.13-2.36,7.5-1.87,11.38-1.27,14.14,2.18,27.75,6.25,41.78,7.87h.06a97.14,97.14,0,0,0,11.35.7h-21.1a1128.44,1128.44,0,0,1-117.19,1.9c-12.52-.44-25,3.34-37.14.07a137.13,137.13,0,0,1-89.37-.48,173.76,173.76,0,0,1-57.33,3.52c-12.38-1.28-24.92,2.65-35.92-3.16a25.13,25.13,0,0,1-20.9-1c-4.27,2.78-14.72-.87-35.09-.87C1532.61,539.56,1538.18,541.84,1544.7,538.2Z"/><path class="cls-2" d="M1544.7,538.2c5.87-3.28,11.91-6.62,18.56-7.61s14.22-.17,18.17,5.27c9-5.57,21.58-5.94,31.34-1.83,1.86-5.55,10-8.25,15.2-5.45a14.41,14.41,0,0,1,25.39-10.6,6.19,6.19,0,0,1,6.58-2.46c2.41.66,3.55,1.47,3.71,4,3.45-7.46,9.55-13.87,17.26-16.73s17-1.81,23.27,3.49,9.3,14.47,5.63,21.83a26.12,26.12,0,0,1,21.38-9.35,26.84,26.84,0,0,1,20.31,12.13,11.35,11.35,0,0,1,14.93-1.9c1.82-4.09,7.76-5.28,10.88-2.07a14.53,14.53,0,0,1,3.19-14.21c3.51-3.7,7.75-4.55,12.67-3.22-.48-2.92-1-5.91-.35-8.8s2.58-5.69,5.44-6.39,4.5,1.21,4.34,4.16a24.34,24.34,0,0,1,43.07,2.42,23.62,23.62,0,0,1,.15,18.55,20.42,20.42,0,0,1,5.58-5.76c4.21-2.75,10.56-2.9,13.72,1,2.11,2.63,2.28,6.42,1.27,9.63a31.29,31.29,0,0,1-4.58,9.08,7.65,7.65,0,0,1,6.94-3.38,7.27,7.27,0,0,1,6.14,4.29c3.13-2.36,7.5-1.87,11.38-1.27,14.14,2.18,27.75,6.25,41.78,7.87h.06a97.14,97.14,0,0,0,11.35.7h-21.1a1128.44,1128.44,0,0,1-117.19,1.9c-12.52-.44-25,3.34-37.14.07a137.13,137.13,0,0,1-89.37-.48,173.76,173.76,0,0,1-57.33,3.52c-12.38-1.28-24.92,2.65-35.92-3.16a25.13,25.13,0,0,1-20.9-1c-4.27,2.78-14.72-.87-35.09-.87C1532.61,539.56,1538.18,541.84,1544.7,538.2Z"/><path class="cls-1" d="M320.6,882.2c-3.78-2.12-7.66-4.27-12-4.9s-9.14-.11-11.69,3.39c-5.8-3.59-13.89-3.83-20.17-1.18-1.2-3.57-6.47-5.31-9.78-3.51a9.28,9.28,0,0,0-16.34-6.82,4,4,0,0,0-4.24-1.58c-1.55.42-2.29.94-2.39,2.55a20.55,20.55,0,0,0-11.11-10.77c-5-1.85-10.93-1.17-15,2.25s-6,9.31-3.63,14a16.81,16.81,0,0,0-13.76-6,17.26,17.26,0,0,0-13.07,7.81,7.3,7.3,0,0,0-9.61-1.23,4.45,4.45,0,0,0-7-1.33,9.36,9.36,0,0,0-2.06-9.15c-2.26-2.38-5-2.92-8.15-2.07a15.44,15.44,0,0,0,.23-5.66,5.23,5.23,0,0,0-3.51-4.12c-1.85-.45-2.89.79-2.79,2.68a15.67,15.67,0,0,0-27.72,1.56,15.19,15.19,0,0,0-.1,11.94,12.92,12.92,0,0,0-3.59-3.7c-2.71-1.78-6.8-1.87-8.83.65a6.77,6.77,0,0,0-.82,6.2,20.08,20.08,0,0,0,3,5.84,4.91,4.91,0,0,0-4.47-2.17,4.66,4.66,0,0,0-4,2.76c-2-1.52-4.82-1.21-7.32-.82-9.11,1.4-17.87,4-26.89,5.07h0a63.47,63.47,0,0,1-7.31.45H80.1a730,730,0,0,0,75.43,1.23c8.06-.29,16.11,2.14,23.9,0a88.26,88.26,0,0,0,57.53-.31,112.19,112.19,0,0,0,36.9,2.27c8-.83,16,1.7,23.11-2a16.18,16.18,0,0,0,13.46-.63c2.74,1.79,9.47-.56,22.58-.56C328.38,883.07,324.8,884.54,320.6,882.2Z"/><path class="cls-2" d="M320.6,882.2c-3.78-2.12-7.66-4.27-12-4.9s-9.14-.11-11.69,3.39c-5.8-3.59-13.89-3.83-20.17-1.18-1.2-3.57-6.47-5.31-9.78-3.51a9.28,9.28,0,0,0-16.34-6.82,4,4,0,0,0-4.24-1.58c-1.55.42-2.29.94-2.39,2.55a20.55,20.55,0,0,0-11.11-10.77c-5-1.85-10.93-1.17-15,2.25s-6,9.31-3.63,14a16.81,16.81,0,0,0-13.76-6,17.26,17.26,0,0,0-13.07,7.81,7.3,7.3,0,0,0-9.61-1.23,4.45,4.45,0,0,0-7-1.33,9.36,9.36,0,0,0-2.06-9.15c-2.26-2.38-5-2.92-8.15-2.07a15.44,15.44,0,0,0,.23-5.66,5.23,5.23,0,0,0-3.51-4.12c-1.85-.45-2.89.79-2.79,2.68a15.67,15.67,0,0,0-27.72,1.56,15.19,15.19,0,0,0-.1,11.94,12.92,12.92,0,0,0-3.59-3.7c-2.71-1.78-6.8-1.87-8.83.65a6.77,6.77,0,0,0-.82,6.2,20.08,20.08,0,0,0,3,5.84,4.91,4.91,0,0,0-4.47-2.17,4.66,4.66,0,0,0-4,2.76c-2-1.52-4.82-1.21-7.32-.82-9.11,1.4-17.87,4-26.89,5.07h0a63.47,63.47,0,0,1-7.31.45H80.1a730,730,0,0,0,75.43,1.23c8.06-.29,16.11,2.14,23.9,0a88.26,88.26,0,0,0,57.53-.31,112.19,112.19,0,0,0,36.9,2.27c8-.83,16,1.7,23.11-2a16.18,16.18,0,0,0,13.46-.63c2.74,1.79,9.47-.56,22.58-.56C328.38,883.07,324.8,884.54,320.6,882.2Z"/><path class="cls-5" d="M1765.06,1124.77l-32.18-11.25a73.07,73.07,0,0,0,20.19-1c2.21-.42-6-30.2-18.83-53.87-16.88-31.23-34.86-55.66-58.18-83.8,18.8,11.8,34.71,33.1,47,50.68a257.65,257.65,0,0,1,31.68,61A244.42,244.42,0,0,1,1765.06,1124.77Z"/><path class="cls-5" d="M280.28,462a133.46,133.46,0,0,1,17.62-8.49c60-25.32,122.27-48.54,187.32-52.35-51.54,4-99.57,26.61-145.78,49.77,6.82.38,18.34,2.94,27.12,6.3a341.4,341.4,0,0,0-42.37.13c-9,.54-13.23.74-21.61,1.51C296.76,459.36,289.31,460.31,280.28,462Z"/><path class="cls-5" d="M215.67,501.17c-7,8.46-10.5,20.19-7.55,30.77q7.49-3.8,15.14-7.26c-4.15.54-7.77-3.58-8.12-7.76s1.68-8.16,4-11.67c5.93-9.12,14.64-17.5,25.3-20.63-5.08.59-11.62,3.35-15.27,5.44A48.69,48.69,0,0,0,215.67,501.17Z"/><path class="cls-5" d="M1779.62,1160.17c1.67,5.38,2,11.1,1.87,16.73a126.63,126.63,0,0,1-2.67,23.85l-17.28-10.12,13.75.92c2.59.18,2.93-19.92,2.76-22-.64-7.77-3.36-14.37-6.24-21.45C1775.76,1150.54,1778.29,1155.86,1779.62,1160.17Z"/><path class="cls-6" d="M552.72,977.65c-1-2.9-.87-6.44,1.22-8.71,1.38-1.49,3.41-2.27,4.77-3.77s2-3.87,2.69-5.94c1.17-3.37,3.57-6.88,7.13-7.16,2.72-.22,5.16,1.53,7.39,3.11,2.76,2,5.84,3.83,9.22,3.79,2.24,0,4.37-.92,6.54-1.48s4.63-.76,6.52.46,2.67,3.41,3.17,5.54.79,4.36,2,6.21c.59.93,1.39,1.71,2.06,2.58a10.59,10.59,0,0,1,2.25,7.71,8.14,8.14,0,0,1-4.61,6.39c-1.78.77-4.07,1-5,2.66-1.12-1.15-1.35-2.87-1.76-4.42a16.38,16.38,0,0,0-5.15-8.18,8.6,8.6,0,0,0-3.44-1.91,16.44,16.44,0,0,0-3.44-.2,19.27,19.27,0,0,1-9.19-2.56c-2.48-1.43-5.16-3.52-7.9-2.65-1.82.58-3,2.33-3.94,4-2.15,3.79-3.46,7.91-5.4,11.75C555.61,984,553.49,979.81,552.72,977.65Z"/><path class="cls-6" d="M493.45,1133.11c-2.06,4.33-4.89,9.23-9.65,9.77a5.39,5.39,0,0,1-4.87-1.8,6.45,6.45,0,0,1-1.11-2.56c-1.52-6.4,1.6-12.9,4.78-18.65q5.44-9.84,11.54-19.31c3.4-5.29,7-10.58,11.71-14.83,1.64-1.48,4.92-5.33,6.4-2.32.84,1.72-1.87,8.14-2.39,9.92C505.82,1107.13,499.61,1120.16,493.45,1133.11Z"/><path class="cls-6" d="M592.53,1135.3c-.21,3,0,6.62,2.69,7.92a7.53,7.53,0,0,0,3.75.43q3.28-.21,6.57-.57a5.1,5.1,0,0,0,3.28-1.18,4.88,4.88,0,0,0,1-3.17c.36-5.86-.7-11.71-1.76-17.49l-4-22.08c-.37-2-.81-4.4-2.52-5.52C595.73,1106.72,593.51,1121.12,592.53,1135.3Z"/><path class="cls-6" d="M578.73,1179.54a11.06,11.06,0,0,0,4.21.75l7.12.31a25.17,25.17,0,0,0,7.41-.41,5.22,5.22,0,0,0,2.59-1.37,2.42,2.42,0,0,0,.45-2.75,3.63,3.63,0,0,0-2.5-1.38c-5.7-1.28-11-.9-16.76-.72-1.4,0-3.06-.49-4.12.65C575.55,1176.3,577,1178.71,578.73,1179.54Z"/><g id="Layer_2" data-name="Layer 2"><path class="cls-3" d="M1484.52,914.84q229,38.82,460.6,59.74a2079.68,2079.68,0,0,1-383.81,29.3c-19.76-.32-41.22-1.56-56.2-14.45-19.39-16.68-20.41-45.82-19.93-71.39"/><path class="cls-5" d="M1709.06,956.81a164.66,164.66,0,0,1-35.11,1.11q-87.72-4.81-173.12-15.43c-2.64-.33-3.51-.15-4.32-2.43-2-5.77-2.41-11.71-1-11.62,0,0,20.9,3,25.32,3.65,15.57,2.22,24.6,3.86,42.38,5.95,31.51,3.69,48.61,5.57,92,11.11C1673.19,951.45,1691.11,954.26,1709.06,956.81Z"/><path class="cls-6" d="M1484,916.9q178.64,30.24,358.88,49.69,51.09,5.49,102.29,10.12l-.56-4.19a2082.6,2082.6,0,0,1-214.2,25.14q-54,3.51-108.08,4.2-26.55.35-53.1,0c-15.17-.19-30.85,0-45.45-4.68-34.46-11.1-37-48.39-36.41-79.14,0-2.75-4.22-2.75-4.27,0-.46,25.64.18,57.07,22.35,74.37,11,8.58,24.9,11.63,38.52,12.84,17.16,1.51,34.6,1,51.81,1A2081.06,2081.06,0,0,0,1821.46,994q62.36-6.82,124.23-17.37c2.53-.43,1.66-4-.57-4.19q-180.36-16.32-359.51-43.5-50.33-7.65-100.52-16.16c-2.69-.45-3.84,3.66-1.14,4.12Z"/><path class="cls-5" d="M218.74,567.83c20.35-9.78,42.7-14.09,65.06-16.11a512.25,512.25,0,0,1,68.53-1.33c46.67,2,92.94,9.67,138.33,20.55A1117.78,1117.78,0,0,1,738,662.54c21.68,11.07,42.75,23.11,63.85,35.22,15.56,8.94,39.53,16.79,51.6-2,1.75-2.71-2.58-5.22-4.31-2.52-5.62,8.73-16.92,10.57-26.41,8.29-10.58-2.55-19.89-9.06-29.18-14.45Q765.81,671,737.22,656.57A1137.69,1137.69,0,0,0,619.33,605c-83-30.81-170.67-54.23-259.31-59.25a519.88,519.88,0,0,0-76.22,1c-23.29,2.11-46.39,6.6-67.59,16.8-2.9,1.39-.36,5.7,2.53,4.31Z"/><path class="cls-5" d="M228,580.65c38-15.34,79.4-16.91,119.85-15.35a893.86,893.86,0,0,1,119.38,12.75c77.82,13.61,153.72,37.07,226.5,67.66a1328.69,1328.69,0,0,1,122.22,59.18c2.83,1.54,5.35-2.77,2.52-4.32C747.82,662,673.94,629.09,597.14,604.83c-76.44-24.15-155.71-39.57-235.81-43.91-45.18-2.44-92.08-2.29-134.67,14.91-2.95,1.19-1.66,6,1.32,4.82Z"/><path class="cls-5" d="M1290.34,481.91c2.87,5.66,3.13,12.27,2.73,18.6-1.85,29.28-16.31,56.1-31.06,81.47q-20.29,34.92-42.18,68.91c-5-3-10.41-6.15-16.06-7.44,10.52.35,18-13.75,23.53-22.72,20.41-33.19,41-61.69,54-98.39,3.44-9.64,6.39-24.92,4.66-35-1.23-7.15-2.43-9.81-9.11-13.2C1284.54,472.94,1288.42,478.13,1290.34,481.91Z"/></g><ellipse class="cls-5" cx="270.87" cy="1206.34" rx="14.67" ry="17.86"/><ellipse class="cls-5" cx="123.23" cy="1202.05" rx="10.98" ry="17.86"/><polygon class="cls-6" points="1804.48 1319.66 1937.95 1319.66 1895.01 1309.35 1761.54 1309.35 1804.48 1319.66"/><polygon class="cls-6" points="1495.72 1319.66 1629.19 1319.66 1586.25 1309.35 1452.78 1309.35 1495.72 1319.66"/><polygon class="cls-6" points="1186.96 1319.66 1320.43 1319.66 1277.49 1309.35 1144.02 1309.35 1186.96 1319.66"/><polygon class="cls-6" points="878.2 1319.66 1011.67 1319.66 968.73 1309.35 835.26 1309.35 878.2 1319.66"/></svg>