<svg id="Layer_1" data-name="Layer 1" xmlns="http://www.w3.org/2000/svg" viewBox="0 0 2000 1629.63"><defs><style>.cls-1{fill:#84d2e1;}.cls-11,.cls-2,.cls-3{fill:#fff;}.cls-2,.cls-6{opacity:0.75;}.cls-10,.cls-12,.cls-4,.cls-8,.cls-9{fill:#f4806e;}.cls-10,.cls-12,.cls-4,.cls-8{stroke:#f4806e;}.cls-10,.cls-4,.cls-8{stroke-miterlimit:10;}.cls-4{stroke-width:0.54px;opacity:0.5;}.cls-5{fill:#6f69af;}.cls-7{fill:#ffdd76;}.cls-8{stroke-width:0.59px;}.cls-10,.cls-12{stroke-width:0.85px;}.cls-11{opacity:0.25;}.cls-12{stroke-linecap:round;stroke-linejoin:round;}</style></defs><title>Website - All Illustrations</title><path class="cls-1" d="M1910.47,1513.34c40.94-54.6,52.52-126.75,29.65-184.78s-79.44-100-144.87-107.58c-32.67-3.77-68.22.19-96.76-13.75-30-14.63-45.63-45.71-61-74.37C1534.09,940.79,1361,781,1139.61,726.24S648.25,736.92,485.76,914.91c-51.13,56-91.42,121.68-151,169.27-41.45,33.08-90.32,55.79-132.88,87.47-95.37,71-145.69,231.29-153.55,342"/><path class="cls-2" d="M1910.47,1513.34c40.94-54.6,52.52-126.75,29.65-184.78s-79.44-100-144.87-107.58c-32.67-3.77-68.22.19-96.76-13.75-30-14.63-45.63-45.71-61-74.37C1534.09,940.79,1361,781,1139.61,726.24S648.25,736.92,485.76,914.91c-51.13,56-91.42,121.68-151,169.27-41.45,33.08-90.32,55.79-132.88,87.47-95.37,71-145.69,231.29-153.55,342"/><ellipse class="cls-3" cx="405.61" cy="1546.27" rx="288.28" ry="8.51"/><ellipse class="cls-4" cx="405.61" cy="1546.27" rx="288.28" ry="8.51"/><rect class="cls-5" x="601.38" y="1244.26" width="548.73" height="7.5" transform="translate(-528.68 1841.35) rotate(-77.85)"/><rect class="cls-5" x="987.53" y="973.65" width="7.5" height="548.73" transform="translate(-240.55 236.7) rotate(-12.15)"/><rect class="cls-5" x="929.76" y="979.8" width="7.5" height="533.68"/><rect class="cls-5" x="917.96" y="1082.49" width="7.5" height="27.19" transform="matrix(0.5, -0.87, 0.87, 0.5, -487.49, 1351.21)"/><rect class="cls-5" x="912.35" y="1131.33" width="7.5" height="40.12" transform="translate(-538.29 1374.28) rotate(-60.21)"/><rect class="cls-5" x="906.74" y="1180.17" width="7.5" height="53.05" transform="translate(-589.11 1397.21) rotate(-60.2)"/><rect class="cls-5" x="900.87" y="1228.57" width="7.5" height="66.57" transform="translate(-639.93 1419.86) rotate(-60.2)"/><rect class="cls-5" x="895.52" y="1277.86" width="7.5" height="78.91" transform="translate(-690.75 1443.05) rotate(-60.2)"/><rect class="cls-5" x="889.91" y="1326.7" width="7.5" height="91.84" transform="translate(-741.57 1465.99) rotate(-60.2)"/><rect class="cls-5" x="884.36" y="1375.2" width="7.5" height="104.92" transform="translate(-792.41 1480.96) rotate(-59.93)"/><rect class="cls-5" x="877.97" y="1423.72" width="7.5" height="118.97" transform="translate(-843.36 1521.32) rotate(-60.54)"/><rect class="cls-5" x="908.12" y="1089.39" width="27.18" height="7.5" transform="translate(-421.31 602.44) rotate(-29.79)"/><rect class="cls-5" x="890.9" y="1145.39" width="46.11" height="7.5" transform="matrix(0.85, -0.53, 0.53, 0.85, -470.09, 658.98)"/><rect class="cls-5" x="878.84" y="1206.18" width="57.22" height="7.5" transform="translate(-418.69 482.78) rotate(-24.39)"/><rect class="cls-5" x="868.17" y="1250.67" width="69.52" height="7.5" transform="translate(-488.12 580.75) rotate(-28.41)"/><rect class="cls-5" x="853.66" y="1310.65" width="83.34" height="7.5" transform="translate(-451.73 469) rotate(-23.63)"/><rect class="cls-5" x="843.09" y="1366.92" width="93.43" height="7.5" transform="translate(-426.91 402.81) rotate(-20.69)"/><rect class="cls-5" x="825.9" y="1426.76" width="111.64" height="7.5" transform="translate(-469.88 432.03) rotate(-21.9)"/><rect class="cls-5" x="815.2" y="1480.66" width="122.92" height="7.5" transform="translate(-498.04 444.12) rotate(-22.32)"/><rect class="cls-5" x="932.09" y="1090.61" width="27.19" height="7.5" transform="translate(-418.83 614.73) rotate(-29.8)"/><rect class="cls-5" x="931.23" y="1145.91" width="40.12" height="7.5" transform="translate(-445.57 624.83) rotate(-29.8)"/><rect class="cls-5" x="930.38" y="1201.22" width="53.04" height="7.5" transform="translate(-472.32 634.93) rotate(-29.8)"/><rect class="cls-5" x="929.48" y="1256.38" width="66.57" height="7.5" transform="translate(-498.96 645.14) rotate(-29.8)"/><rect class="cls-5" x="928.67" y="1311.83" width="78.9" height="7.5" transform="translate(-525.81 655.14) rotate(-29.8)"/><rect class="cls-5" x="927.81" y="1367.14" width="91.83" height="7.5" transform="translate(-552.56 665.24) rotate(-29.8)"/><rect class="cls-5" x="926.82" y="1422.19" width="104.92" height="7.5" transform="translate(-582.68 682.58) rotate(-30.07)"/><rect class="cls-5" x="926.19" y="1477.73" width="118.97" height="7.5" transform="translate(-601.26 676.51) rotate(-29.47)"/><rect class="cls-5" x="941.93" y="1077.82" width="7.5" height="27.18" transform="translate(-471.37 1369.76) rotate(-60.21)"/><rect class="cls-5" x="949.68" y="1124.36" width="7.5" height="46.11" transform="translate(-524.87 1347.92) rotate(-58)"/><rect class="cls-5" x="956.19" y="1179.6" width="7.5" height="57.22" transform="translate(-536.86 1583.5) rotate(-65.61)"/><rect class="cls-5" x="960.7" y="1217.94" width="7.5" height="69.52" transform="translate(-596.27 1504.79) rotate(-61.58)"/><rect class="cls-5" x="968.31" y="1271.01" width="7.5" height="83.34" transform="translate(-620.2 1677.03) rotate(-66.37)"/><rect class="cls-5" x="973.83" y="1322.23" width="7.5" height="93.43" transform="translate(-648.48 1799.76) rotate(-69.31)"/><rect class="cls-5" x="981.92" y="1372.96" width="7.5" height="111.64" transform="translate(-707.64 1810.44) rotate(-68.1)"/><rect class="cls-5" x="986.99" y="1421.23" width="7.5" height="122.92" transform="translate(-757.08 1836.3) rotate(-67.69)"/><path class="cls-5" d="M947,979.8a13.51,13.51,0,1,1-13.5-13.51A13.49,13.49,0,0,1,947,979.8Z"/><g class="cls-6"><rect class="cls-3" x="601.38" y="1244.26" width="548.73" height="7.5" transform="translate(-528.68 1841.35) rotate(-77.85)"/><rect class="cls-3" x="987.53" y="973.65" width="7.5" height="548.73" transform="translate(-240.55 236.7) rotate(-12.15)"/><rect class="cls-3" x="929.76" y="979.8" width="7.5" height="533.68"/><rect class="cls-3" x="917.96" y="1082.49" width="7.5" height="27.19" transform="matrix(0.5, -0.87, 0.87, 0.5, -487.49, 1351.21)"/><rect class="cls-3" x="912.35" y="1131.33" width="7.5" height="40.12" transform="translate(-538.29 1374.28) rotate(-60.21)"/><rect class="cls-3" x="906.74" y="1180.17" width="7.5" height="53.05" transform="translate(-589.11 1397.21) rotate(-60.2)"/><rect class="cls-3" x="900.87" y="1228.57" width="7.5" height="66.57" transform="translate(-639.93 1419.86) rotate(-60.2)"/><rect class="cls-3" x="895.52" y="1277.86" width="7.5" height="78.91" transform="translate(-690.75 1443.05) rotate(-60.2)"/><rect class="cls-3" x="889.91" y="1326.7" width="7.5" height="91.84" transform="translate(-741.57 1465.99) rotate(-60.2)"/><rect class="cls-3" x="884.36" y="1375.2" width="7.5" height="104.92" transform="translate(-792.41 1480.96) rotate(-59.93)"/><rect class="cls-3" x="877.97" y="1423.72" width="7.5" height="118.97" transform="translate(-843.36 1521.32) rotate(-60.54)"/><rect class="cls-3" x="908.12" y="1089.39" width="27.18" height="7.5" transform="translate(-421.31 602.44) rotate(-29.79)"/><rect class="cls-3" x="890.9" y="1145.39" width="46.11" height="7.5" transform="matrix(0.85, -0.53, 0.53, 0.85, -470.09, 658.98)"/><rect class="cls-3" x="878.84" y="1206.18" width="57.22" height="7.5" transform="translate(-418.69 482.78) rotate(-24.39)"/><rect class="cls-3" x="868.17" y="1250.67" width="69.52" height="7.5" transform="translate(-488.12 580.75) rotate(-28.41)"/><rect class="cls-3" x="853.66" y="1310.65" width="83.34" height="7.5" transform="translate(-451.73 469) rotate(-23.63)"/><rect class="cls-3" x="843.09" y="1366.92" width="93.43" height="7.5" transform="translate(-426.91 402.81) rotate(-20.69)"/><rect class="cls-3" x="825.9" y="1426.76" width="111.64" height="7.5" transform="translate(-469.88 432.03) rotate(-21.9)"/><rect class="cls-3" x="815.2" y="1480.66" width="122.92" height="7.5" transform="translate(-498.04 444.12) rotate(-22.32)"/><rect class="cls-3" x="932.09" y="1090.61" width="27.19" height="7.5" transform="translate(-418.83 614.73) rotate(-29.8)"/><rect class="cls-3" x="931.23" y="1145.91" width="40.12" height="7.5" transform="translate(-445.57 624.83) rotate(-29.8)"/><rect class="cls-3" x="930.38" y="1201.22" width="53.04" height="7.5" transform="translate(-472.32 634.93) rotate(-29.8)"/><rect class="cls-3" x="929.48" y="1256.38" width="66.57" height="7.5" transform="translate(-498.96 645.14) rotate(-29.8)"/><rect class="cls-3" x="928.67" y="1311.83" width="78.9" height="7.5" transform="translate(-525.81 655.14) rotate(-29.8)"/><rect class="cls-3" x="927.81" y="1367.14" width="91.83" height="7.5" transform="translate(-552.56 665.24) rotate(-29.8)"/><rect class="cls-3" x="926.82" y="1422.19" width="104.92" height="7.5" transform="translate(-582.68 682.58) rotate(-30.07)"/><rect class="cls-3" x="926.19" y="1477.73" width="118.97" height="7.5" transform="translate(-601.26 676.51) rotate(-29.47)"/><rect class="cls-3" x="941.93" y="1077.82" width="7.5" height="27.18" transform="translate(-471.37 1369.76) rotate(-60.21)"/><rect class="cls-3" x="949.68" y="1124.36" width="7.5" height="46.11" transform="translate(-524.87 1347.92) rotate(-58)"/><rect class="cls-3" x="956.19" y="1179.6" width="7.5" height="57.22" transform="translate(-536.86 1583.5) rotate(-65.61)"/><rect class="cls-3" x="960.7" y="1217.94" width="7.5" height="69.52" transform="translate(-596.27 1504.79) rotate(-61.58)"/><rect class="cls-3" x="968.31" y="1271.01" width="7.5" height="83.34" transform="translate(-620.2 1677.03) rotate(-66.37)"/><rect class="cls-3" x="973.83" y="1322.23" width="7.5" height="93.43" transform="translate(-648.48 1799.76) rotate(-69.31)"/><rect class="cls-3" x="981.92" y="1372.96" width="7.5" height="111.64" transform="translate(-707.64 1810.44) rotate(-68.1)"/><rect class="cls-3" x="986.99" y="1421.23" width="7.5" height="122.92" transform="translate(-757.08 1836.3) rotate(-67.69)"/><path class="cls-3" d="M947,979.8a13.51,13.51,0,1,1-13.5-13.51A13.49,13.49,0,0,1,947,979.8Z"/></g><rect class="cls-5" x="1248.67" y="1244.26" width="548.73" height="7.5" transform="translate(-17.67 2474.13) rotate(-77.85)"/><rect class="cls-5" x="1634.82" y="973.65" width="7.5" height="548.73" transform="translate(-226.04 372.99) rotate(-12.15)"/><rect class="cls-5" x="1577.05" y="979.8" width="7.5" height="533.68"/><rect class="cls-5" x="1565.26" y="1082.49" width="7.5" height="27.19" transform="matrix(0.5, -0.87, 0.87, 0.5, -161.87, 1912.92)"/><rect class="cls-5" x="1559.65" y="1131.33" width="7.5" height="40.12" transform="translate(-212.63 1936.01) rotate(-60.21)"/><rect class="cls-5" x="1554.04" y="1180.17" width="7.5" height="53.05" transform="translate(-263.46 1958.93) rotate(-60.2)"/><rect class="cls-5" x="1548.17" y="1228.57" width="7.5" height="66.57" transform="translate(-314.28 1981.58) rotate(-60.2)"/><rect class="cls-5" x="1542.82" y="1277.86" width="7.5" height="78.91" transform="translate(-365.13 2004.76) rotate(-60.2)"/><rect class="cls-5" x="1537.21" y="1326.7" width="7.5" height="91.84" transform="translate(-415.95 2027.7) rotate(-60.2)"/><rect class="cls-5" x="1531.65" y="1375.2" width="7.5" height="104.92" transform="translate(-469.42 2041.15) rotate(-59.93)"/><rect class="cls-5" x="1525.26" y="1423.72" width="7.5" height="118.97" transform="translate(-514.46 2084.9) rotate(-60.54)"/><rect class="cls-5" x="1555.42" y="1089.39" width="27.18" height="7.5" transform="translate(-335.76 924.05) rotate(-29.79)"/><rect class="cls-5" x="1538.2" y="1145.39" width="46.11" height="7.5" transform="translate(-371.72 1002.01) rotate(-32)"/><rect class="cls-5" x="1526.14" y="1206.18" width="57.22" height="7.5" transform="translate(-360.91 750.11) rotate(-24.39)"/><rect class="cls-5" x="1515.47" y="1250.67" width="69.52" height="7.5" transform="translate(-410.15 888.76) rotate(-28.41)"/><rect class="cls-5" x="1500.96" y="1310.65" width="83.34" height="7.5" transform="translate(-397.47 728.42) rotate(-23.63)"/><rect class="cls-5" x="1490.39" y="1366.92" width="93.43" height="7.5" transform="translate(-385.16 631.52) rotate(-20.69)"/><rect class="cls-5" x="1473.19" y="1426.76" width="111.64" height="7.5" transform="translate(-423.18 673.44) rotate(-21.9)"/><rect class="cls-5" x="1462.49" y="1480.66" width="122.92" height="7.5" transform="translate(-449.55 689.93) rotate(-22.32)"/><rect class="cls-5" x="1579.38" y="1090.61" width="27.19" height="7.5" transform="translate(-333.23 936.43) rotate(-29.8)"/><rect class="cls-5" x="1578.53" y="1145.91" width="40.12" height="7.5" transform="translate(-359.97 946.53) rotate(-29.8)"/><rect class="cls-5" x="1577.67" y="1201.22" width="53.04" height="7.5" transform="translate(-386.72 956.64) rotate(-29.8)"/><rect class="cls-5" x="1576.78" y="1256.38" width="66.57" height="7.5" transform="translate(-413.35 966.85) rotate(-29.8)"/><rect class="cls-5" x="1575.96" y="1311.83" width="78.9" height="7.5" transform="translate(-440.21 976.84) rotate(-29.8)"/><rect class="cls-5" x="1575.11" y="1367.14" width="91.83" height="7.5" transform="translate(-466.95 986.94) rotate(-29.8)"/><rect class="cls-5" x="1574.12" y="1422.19" width="104.92" height="7.5" transform="translate(-495.56 1006.91) rotate(-30.07)"/><rect class="cls-5" x="1573.49" y="1477.73" width="118.97" height="7.5" transform="translate(-517.53 994.92) rotate(-29.47)"/><rect class="cls-5" x="1589.22" y="1077.82" width="7.5" height="27.18" transform="translate(-145.71 1931.49) rotate(-60.21)"/><rect class="cls-5" x="1596.98" y="1124.36" width="7.5" height="46.11" transform="translate(-220.6 1896.85) rotate(-58)"/><rect class="cls-5" x="1603.48" y="1179.6" width="7.5" height="57.22" transform="translate(-156.89 2173.02) rotate(-65.61)"/><rect class="cls-5" x="1608" y="1217.94" width="7.5" height="69.52" transform="translate(-257.02 2074.09) rotate(-61.58)"/><rect class="cls-5" x="1615.6" y="1271.01" width="7.5" height="83.34" transform="translate(-232.37 2270.04) rotate(-66.37)"/><rect class="cls-5" x="1621.13" y="1322.23" width="7.5" height="93.43" transform="translate(-229.91 2405.3) rotate(-69.31)"/><rect class="cls-5" x="1629.22" y="1372.96" width="7.5" height="111.64" transform="translate(-301.76 2411.03) rotate(-68.1)"/><rect class="cls-5" x="1634.28" y="1421.23" width="7.5" height="122.92" transform="translate(-355.55 2435.12) rotate(-67.69)"/><path class="cls-5" d="M1594.31,979.8a13.51,13.51,0,1,1-13.51-13.51A13.5,13.5,0,0,1,1594.31,979.8Z"/><g class="cls-6"><rect class="cls-3" x="1248.67" y="1244.26" width="548.73" height="7.5" transform="translate(-17.67 2474.13) rotate(-77.85)"/><rect class="cls-3" x="1634.82" y="973.65" width="7.5" height="548.73" transform="translate(-226.04 372.99) rotate(-12.15)"/><rect class="cls-3" x="1577.05" y="979.8" width="7.5" height="533.68"/><rect class="cls-3" x="1565.26" y="1082.49" width="7.5" height="27.19" transform="matrix(0.5, -0.87, 0.87, 0.5, -161.87, 1912.92)"/><rect class="cls-3" x="1559.65" y="1131.33" width="7.5" height="40.12" transform="translate(-212.63 1936.01) rotate(-60.21)"/><rect class="cls-3" x="1554.04" y="1180.17" width="7.5" height="53.05" transform="translate(-263.46 1958.93) rotate(-60.2)"/><rect class="cls-3" x="1548.17" y="1228.57" width="7.5" height="66.57" transform="translate(-314.28 1981.58) rotate(-60.2)"/><rect class="cls-3" x="1542.82" y="1277.86" width="7.5" height="78.91" transform="translate(-365.13 2004.76) rotate(-60.2)"/><rect class="cls-3" x="1537.21" y="1326.7" width="7.5" height="91.84" transform="translate(-415.95 2027.7) rotate(-60.2)"/><rect class="cls-3" x="1531.65" y="1375.2" width="7.5" height="104.92" transform="translate(-469.42 2041.15) rotate(-59.93)"/><rect class="cls-3" x="1525.26" y="1423.72" width="7.5" height="118.97" transform="translate(-514.46 2084.9) rotate(-60.54)"/><rect class="cls-3" x="1555.42" y="1089.39" width="27.18" height="7.5" transform="translate(-335.76 924.05) rotate(-29.79)"/><rect class="cls-3" x="1538.2" y="1145.39" width="46.11" height="7.5" transform="translate(-371.72 1002.01) rotate(-32)"/><rect class="cls-3" x="1526.14" y="1206.18" width="57.22" height="7.5" transform="translate(-360.91 750.11) rotate(-24.39)"/><rect class="cls-3" x="1515.47" y="1250.67" width="69.52" height="7.5" transform="translate(-410.15 888.76) rotate(-28.41)"/><rect class="cls-3" x="1500.96" y="1310.65" width="83.34" height="7.5" transform="translate(-397.47 728.42) rotate(-23.63)"/><rect class="cls-3" x="1490.39" y="1366.92" width="93.43" height="7.5" transform="translate(-385.16 631.52) rotate(-20.69)"/><rect class="cls-3" x="1473.19" y="1426.76" width="111.64" height="7.5" transform="translate(-423.18 673.44) rotate(-21.9)"/><rect class="cls-3" x="1462.49" y="1480.66" width="122.92" height="7.5" transform="translate(-449.55 689.93) rotate(-22.32)"/><rect class="cls-3" x="1579.38" y="1090.61" width="27.19" height="7.5" transform="translate(-333.23 936.43) rotate(-29.8)"/><rect class="cls-3" x="1578.53" y="1145.91" width="40.12" height="7.5" transform="translate(-359.97 946.53) rotate(-29.8)"/><rect class="cls-3" x="1577.67" y="1201.22" width="53.04" height="7.5" transform="translate(-386.72 956.64) rotate(-29.8)"/><rect class="cls-3" x="1576.78" y="1256.38" width="66.57" height="7.5" transform="translate(-413.35 966.85) rotate(-29.8)"/><rect class="cls-3" x="1575.96" y="1311.83" width="78.9" height="7.5" transform="translate(-440.21 976.84) rotate(-29.8)"/><rect class="cls-3" x="1575.11" y="1367.14" width="91.83" height="7.5" transform="translate(-466.95 986.94) rotate(-29.8)"/><rect class="cls-3" x="1574.12" y="1422.19" width="104.92" height="7.5" transform="translate(-495.56 1006.91) rotate(-30.07)"/><rect class="cls-3" x="1573.49" y="1477.73" width="118.97" height="7.5" transform="translate(-517.53 994.92) rotate(-29.47)"/><rect class="cls-3" x="1589.22" y="1077.82" width="7.5" height="27.18" transform="translate(-145.71 1931.49) rotate(-60.21)"/><rect class="cls-3" x="1596.98" y="1124.36" width="7.5" height="46.11" transform="translate(-220.6 1896.85) rotate(-58)"/><rect class="cls-3" x="1603.48" y="1179.6" width="7.5" height="57.22" transform="translate(-156.89 2173.02) rotate(-65.61)"/><rect class="cls-3" x="1608" y="1217.94" width="7.5" height="69.52" transform="translate(-257.02 2074.09) rotate(-61.58)"/><rect class="cls-3" x="1615.6" y="1271.01" width="7.5" height="83.34" transform="translate(-232.37 2270.04) rotate(-66.37)"/><rect class="cls-3" x="1621.13" y="1322.23" width="7.5" height="93.43" transform="translate(-229.91 2405.3) rotate(-69.31)"/><rect class="cls-3" x="1629.22" y="1372.96" width="7.5" height="111.64" transform="translate(-301.76 2411.03) rotate(-68.1)"/><rect class="cls-3" x="1634.28" y="1421.23" width="7.5" height="122.92" transform="translate(-355.55 2435.12) rotate(-67.69)"/><path class="cls-3" d="M1594.31,979.8a13.51,13.51,0,1,1-13.51-13.51A13.5,13.5,0,0,1,1594.31,979.8Z"/></g><path class="cls-3" d="M694.23,1516.05c-14.24-11.33-29.2-23.64-34.93-40.92-5.26-15.86-1.55-33.92,7.8-47.76s23.86-23.69,39.52-29.51c2.26-.84,4.7-1.73,6-3.73,1.15-1.75,1.19-4,1.39-6.06a33.06,33.06,0,0,1,17.16-25.53c4.17-2.2,9.1-3.71,11.66-7.67,1.35-2.07,1.85-4.56,2.52-6.94,4.25-15.15,16.36-27.35,30.62-34s30.47-8.23,46.16-7c21.42,1.69,44.49,10.18,54.2,29.35,1.67,3.3,2.93,6.87,5.34,9.67s6.45,4.65,9.83,3.18c22.47-9.75,47.23-15.41,71.68-14a98.69,98.69,0,0,1,50.74,17.58c7.56,5.28,14.66,12.11,17.19,21,1.22,4.3,1.3,8.82,1.76,13.27a5.73,5.73,0,0,0,.95,3.07c2,2.48,5.92.39,8.37-1.65,26.31-22,63.61-30,96.65-20.9,2.87.79,2.83-4.38,2.72-7.35a20.14,20.14,0,0,1,10.67-18.22c1.74-.89,3.74-1.65,4.68-3.37,1.68-3.07-1.13-6.54-3.27-9.3a29.58,29.58,0,0,1,13.5-46c6.39-2.27,13.33-2.28,20.12-2.26a5.48,5.48,0,0,0,3.49-.79c1.17-1,1.34-2.64,1.54-4.13a28,28,0,0,1,6.63-14.67c1.53-1.75,3.35-3.46,3.78-5.75.35-1.91-.36-3.83-.82-5.72a22.7,22.7,0,0,1,29.33-26.9c-.56.55-2.35-.29-1.7-.72,14-9.36,21.29-155.36-2.66-231.41q29.28,1.08,58.6.24a705.6,705.6,0,0,0-2.76,206.37,9.19,9.19,0,0,0,1.35,4.32c1.57,2.13,4.54,2.48,7.08,3.19,9.58,2.66,16,13.63,13.58,23.28a29.2,29.2,0,0,1,28.74,42.62c9.85-.07,18.23,10.62,15.81,20.18,17.09,2.76,29.85,21.36,26.28,38.3l-.53-4c-.32,1.42.27,2.24,1.3,3.28,5.11,5.12,12.43,7.59,17.39,12.85a21.82,21.82,0,0,1,5.18,19.94c4.28,0,7.68,4.35,11.93,3.77a13.37,13.37,0,0,0,4.1-1.67c14.4-7.49,33.79-3.5,44.06,9.05,1.89-10,8.65-18.62,17.15-24.19s18.58-8.31,28.67-9.42c13-1.43,26.87-.09,38,6.8s18.94,20.22,16.58,33.12c4.91.56,9.67,1.34,13.67,4.24,1.73,1.26,3.69,2.81,5.77,2.28a6.6,6.6,0,0,0,2.66-1.76c8.85-8.15,19-16,30.91-17.38.35,0,.8-.16.85-.51s-.72-.29-.49,0a55.7,55.7,0,0,1,23.79-28.57c11.07-6.72,24-10.1,36.91-10.83a98,98,0,0,1,45.87,8.62c-2.5-14.59,6.39-30,18.41-38.59s27.55-11.31,42.29-10a56.1,56.1,0,0,1,15.53,3.44c19.16,7.6,30.33,31.12,24.11,50.77-.59,1.87-1.3,4-.4,5.7,1.17,2.26,4.25,2.5,6.8,2.59,15.08.53,30.27,6.83,39.78,18.54s12.41,29,5.48,42.41c-2.79,5.39-6.94,9.94-10.91,14.53-2.73,3.13-5.44,6.41-6.86,10.31s-1.3,8.61,1.31,11.84c14.79,4.75,25.46,20.09,24.76,35.61a46.07,46.07,0,0,1-5.6,19.1c-3.31,6.28-7.82,12.13-13.93,15.74-.67,0-1.93-1.29-2.6-1.29H1163.61Z"/><path class="cls-7" d="M1658.8,1503.05c7.16-.6,13.12-6.11,16.5-12.46-5.85,2-12.85,3.74-17.71-.06-2-1.59-3.32-3.93-4.5-6.23-4.68-9.16-9-19.19-17.44-25-6.61-4.58-14.85-5.94-22.79-7.18a56.42,56.42,0,0,1,29.57-29c16.56-6.92,36.75-6.07,50.3-17.86a33.87,33.87,0,0,0,11.26-21.14c-1.09,5-4.86,9.19-9.26,11.88s-9.44,4.14-14.42,5.52c-1.8-1.11-1.7-3.74-1.22-5.8,4.22-18.15,22.37-32,41-31.3,10,.38,20.09,4.38,29.61,1.47a24.73,24.73,0,0,0,13.72-11.2c-3.29,3.62-8.65,4.69-13.5,4.11s-9.4-2.58-14-4.25c-11.6-4.21-24.12-6.42-36.35-4.78s-24.16,7.41-31.86,17-10.66,23.31-6.2,34.81c-12.66,1.5-25.48,3-37.4,7.55s-23.06,12.41-28.89,23.75a39.52,39.52,0,0,0-2.68,29.11,7.4,7.4,0,0,0,2,3.69c1.26,1,3,1.22,4.62,1.38,9,.88,18.06,2.55,26.29,6.35,7,3.22,15.71,9,18.81,16.41C1647.2,1496.74,1649,1503.88,1658.8,1503.05Z"/><path class="cls-7" d="M1431,1408.9a55.35,55.35,0,0,1,43,7.19c9,5.84,16.6,15.52,15.93,26.22-2.6-7.16-9.4-12.16-16.67-14.45s-15-2.25-22.66-2c16.46,3.13,30,18,31.45,34.72.4,4.38,0,8.86,1.14,13.12,3.1,12.18,17.83,18.84,30,15.86s21.47-13.41,26.41-25a14.28,14.28,0,0,1-25.19,2.4c-3-4.54-3.1-10.28-3.51-15.68a69.56,69.56,0,0,0-4.46-20.84,49.24,49.24,0,0,0-24.41-25.68C1467.15,1397.77,1444,1397.55,1431,1408.9Z"/><path class="cls-7" d="M787.5,1464.76c2.37-9.49,9-17.5,16.79-23.35a30.6,30.6,0,0,0-21.16,22.88,46.8,46.8,0,0,1,21-38.35c11.2-7.27,24.88-9.3,37.48-13.69s25.47-12.72,28.34-25.76c-3.88,8-13.46,11.55-22.3,11.8s-17.56-2.06-26.39-2.5a63,63,0,0,0-43.86,15.11,44.3,44.3,0,0,1,35.18-18.82c-11.19-2.41-22.79.44-34.24.38-6.37,0-13.31-1.27-17.53-6-5.36-6.06-4.18-15.94.74-22.36s12.63-10,20.27-12.68,15.62-4.62,22.54-8.81,12.79-11.2,13-19.28c-2.09,6.13-8.08,10.19-14.27,12.1s-12.75,2.09-19.15,3.07a77.15,77.15,0,0,0-16.35,4.39,50.93,50.93,0,0,0-12.06,6.46,40.59,40.59,0,0,0-15.9,31.91,43.85,43.85,0,0,0,14.86,32.62c5.46,4.8,12,8.21,18.49,11.45-2.88,5.13-5.79,10.3-7.51,15.93a41.13,41.13,0,0,0,3.72,32.21,40.56,40.56,0,0,0,9.51,11.07c2.09,1.7,10.7,8.48,13.57,7.28,2.43-1-3.52-8.93-4.26-11.25A29.2,29.2,0,0,1,787.5,1464.76Z"/><path class="cls-7" d="M1362.46,1446a16.65,16.65,0,0,1,15,28.38c-4,3.78-9.58,5.32-14.88,6.84s-10.84,3.29-14.56,7.36-4.67,11.19-.55,14.85c-1.51-3.38,2.16-7.09,5.83-7.56s7.3,1,11,1.32c5.39.51,10.74-1.36,15.53-3.86a38.7,38.7,0,0,0,12.51-9.77,28.62,28.62,0,0,0-5.28-40.9c-7.62-5.64-17.55-7.15-27-7.12-10.14,0-14,17.67-10.65,25.56A17.44,17.44,0,0,1,1362.46,1446Z"/><path class="cls-7" d="M1232.72,1441.6c5.78-3.62,12.71-5.1,19.53-5.2a33.7,33.7,0,0,0-28.88,6.81,35.1,35.1,0,0,1,26.2-10.29c5.87.26,11.64,2,17.51,1.88s12.35-2.8,14.31-8.34c-6.47,3.43-14.2-.19-21-2.85-8.28-3.23-17.3-5-26.1-3.78s-17.35,5.87-22.13,13.36a26.1,26.1,0,0,0-3.52,19.11,4.56,4.56,0,0,0,.88,2.11,4.93,4.93,0,0,0,2.44,1.2c1.73.47,7.33,3,8.92,2.25,1.36-.67,1.84-4.69,2.51-6.07A26.34,26.34,0,0,1,1232.72,1441.6Z"/><path class="cls-7" d="M891,1476.35c17.8-24.74,49.58-38.66,79.83-35a60,60,0,0,0-47.39,33.39c7.82-10.45,20.74-15.93,33.56-18.34,7.46-1.39,15.37-1.87,22.44.85,7.33,2.81,13,8.79,17.42,15.3a73.84,73.84,0,0,1,10.33,23c4.6-12.36-1.6-25.87-7.66-37.58,10.78,11.06,22.71,22.14,37.72,25.78,9.84,2.39,20.2,1.33,30.12-.7,7.08-1.44,14.15-3.42,20.36-7.1s11.54-9.25,13.75-16.13a61.12,61.12,0,0,1-31.26,13,21.05,21.05,0,0,1-8.11-.31c-3-.86-5.63-2.79-8.1-4.76a173.22,173.22,0,0,1-22.43-21.4c-5.32-6.08-10.32-12.63-17-17.17a37.67,37.67,0,0,0-23.28-6.4c24.75-6.5,52.72,1.16,70.7,19.37-6.34-11.84-13.82-24.69-26.56-29a77.48,77.48,0,0,1,27.87,12.12c5.43,3.78,10.37,8.26,16,11.76,8.78,5.48,19.43,8.44,29.62,6.62s19.66-8.9,22.86-18.74c-4.93,6.91-14.5,9.3-22.84,7.7s-15.65-6.49-22.27-11.8c-9-7.2-17.25-15.43-27.24-21.14a65.3,65.3,0,0,0-81.86,14c-1.78,2.06-3.48,4.28-5.79,5.71-3.07,1.91-6.83,2.22-10.41,2.7C930.76,1426.21,901.06,1446.52,891,1476.35Z"/><path class="cls-7" d="M1325.57,1356.83c11.24,1.3,23.66,3.22,30.79,12,4.26,5.24,5.87,12.2,6.07,19a15.82,15.82,0,0,0-13.47-11.89c5,1.79,8,7,9.34,12.16s1.28,10.59,2.49,15.78a35.13,35.13,0,0,0,26.36,25.83c-6.33-2.36-7.75-10.64-7.31-17.38.49-7.75,2.09-15.4,2.23-23.16s-1.36-15.91-6.29-21.9c-5.83-7.08-15-9.54-23.74-10.48C1344.09,1355.89,1333.15,1353.67,1325.57,1356.83Z"/><path class="cls-7" d="M1171.3,1355.46c5.4,6,13.3,9.57,21.36,10.41-6.93-2.21-11.36-9.77-11.07-17s4.63-14,10.45-18.36c-3.24,7.09,0,16.46,6.89,20.06a46.55,46.55,0,0,1,7.17-41.65c3.52-4.63,7.9-8.55,11.37-13.21a44.28,44.28,0,0,0,4.56-44.18c1.14,6,2,13.08-2.45,17.27a18.3,18.3,0,0,1-4.9,3l-20.3,9.66c-5.91-3.69-13.52-4-20.16-1.86s-12.39,6.4-17.3,11.34a32.7,32.7,0,0,0-7.31,10.14c-4.18,10,0,21.67,6.16,30.66,1.18,1.73,2.58,3.53,4.62,4a4.74,4.74,0,0,0,4.26-1.54C1164.59,1342.13,1165.77,1349.27,1171.3,1355.46Z"/><path class="cls-7" d="M1312.44,1269.09a14.53,14.53,0,0,1,2.22,12.62,9.25,9.25,0,0,0-6.76-9.61c2.41,2.35,2.93,6.1,2.42,9.44s-1.9,6.47-2.77,9.73c-1.16,4.37-1.32,9.27,1,13.15s7.7,6.08,11.6,3.82a12.41,12.41,0,0,1-5.05-2.28,4.78,4.78,0,0,1-1.68-5c.74-2.11,3.13-3,5-4.22a18.52,18.52,0,0,0,5.73-6.62c3.34-5.83,5.15-13.32,1.8-19.14-3.63-6.31-11.8-8.23-19.08-8.56a15.22,15.22,0,0,0-5.92.83A14.9,14.9,0,0,1,1312.44,1269.09Z"/><path class="cls-7" d="M1257.24,1373.39a31.52,31.52,0,0,0-29.66,1.56c3-4.85,8.51-7.66,14.09-8.84s11.33-1,17-1.15c15.47-.47,32.49-4.86,40.85-17.88a87.71,87.71,0,0,1-23.81,7.89,41.58,41.58,0,0,1,20.33-10.91c6-1.28,12.37-1.22,18.22-3.18a28.17,28.17,0,0,0,18.7-26.18c-2.59,8.88-13.4,12.76-22.62,12s-18-4.61-27.17-5.54a43.8,43.8,0,0,0-40.94,20.49,17,17,0,0,1-3,4.19c-2.63,2.3-6.46,2.35-9.92,2.84-13.64,1.94-25.31,13.62-27.24,27.26,0-.15,12.69,5.25,13.79,5.94,5,3.13,5.7,7.19,10.94,3.86C1236.86,1379.37,1244.5,1373.44,1257.24,1373.39Z"/><path class="cls-7" d="M1234,1273.38a25,25,0,0,1,13.83-25.29,48.08,48.08,0,0,0-6.63,34.24c-.31-9.56,3-19.51,10.25-25.79s18.51-8.06,26.62-3c3.61,2.26,6.38,5.63,9.07,8.94-1.2-6.73-6.74-11.74-12.15-15.92-9.91-7.66-24.67-15.32-36-5.31C1231.36,1248.07,1232.16,1264.53,1234,1273.38Z"/><path class="cls-7" d="M1246.85,1064.41l2.92-25.12c2.81,19.08,3.21,38.41,3.61,57.69q.82,39.4,1.64,78.82a622.31,622.31,0,0,0,3.37-72.75L1274,1225.76c-3.38-55.16-6.57-110.49-3.36-165.66l2.83,22.74,11.36-92.79c-.51,4.22-44,.66-48.28,1.26C1242.43,1015.66,1247.47,1039,1246.85,1064.41Z"/><path class="cls-1" d="M1485,282.82c-10.48-5.86-21.26-11.83-33.15-13.58s-25.38-.31-32.44,9.41c-16.09-10-38.54-10.63-56-3.27-3.32-9.93-18-14.75-27.14-9.74A25.74,25.74,0,0,0,1291,246.7a11.08,11.08,0,0,0-11.76-4.38c-4.31,1.17-6.35,2.61-6.62,7.07-6.17-13.33-17.07-24.77-30.83-29.89s-30.34-3.23-41.56,6.24-16.62,25.85-10,39A46.67,46.67,0,0,0,1152,248c-14.4.86-28.51,9.5-36.27,21.66-6.26-7.65-18.69-9.24-26.67-3.41-3.24-7.3-13.87-9.41-19.43-3.68a26,26,0,0,0-5.71-25.39c-6.26-6.61-13.83-8.12-22.62-5.75.86-5.2,1.73-10.55.63-15.71s-4.6-10.16-9.72-11.42-8,2.17-7.74,7.44a43.46,43.46,0,0,0-76.92,4.32,42.17,42.17,0,0,0-.28,33.13,36.31,36.31,0,0,0-10-10.28c-7.51-4.92-18.86-5.18-24.49,1.81-3.78,4.7-4.08,11.46-2.27,17.21a56,56,0,0,0,8.17,16.2,13.68,13.68,0,0,0-12.39-6,13,13,0,0,0-11,7.67c-5.6-4.22-13.38-3.35-20.31-2.28-25.27,3.9-49.58,11.16-74.62,14.07h-.12A177,177,0,0,1,780,288.86h37.68a2018.53,2018.53,0,0,0,209.3,3.4c22.37-.8,44.72,5.95,66.33.12,51.39,17.47,108.49,17.32,159.63-.87a310.24,310.24,0,0,0,102.38,6.3c22.11-2.3,44.5,4.74,64.15-5.66,12,4.69,26,4.42,37.34-1.74,7.62,5,26.27-1.55,62.66-1.55C1506.62,285.26,1496.68,289.33,1485,282.82Z"/><path class="cls-2" d="M1485,282.82c-10.48-5.86-21.26-11.83-33.15-13.58s-25.38-.31-32.44,9.41c-16.09-10-38.54-10.63-56-3.27-3.32-9.93-18-14.75-27.14-9.74A25.74,25.74,0,0,0,1291,246.7a11.08,11.08,0,0,0-11.76-4.38c-4.31,1.17-6.35,2.61-6.62,7.07-6.17-13.33-17.07-24.77-30.83-29.89s-30.34-3.23-41.56,6.24-16.62,25.85-10,39A46.67,46.67,0,0,0,1152,248c-14.4.86-28.51,9.5-36.27,21.66-6.26-7.65-18.69-9.24-26.67-3.41-3.24-7.3-13.87-9.41-19.43-3.68a26,26,0,0,0-5.71-25.39c-6.26-6.61-13.83-8.12-22.62-5.75.86-5.2,1.73-10.55.63-15.71s-4.6-10.16-9.72-11.42-8,2.17-7.74,7.44a43.46,43.46,0,0,0-76.92,4.32,42.17,42.17,0,0,0-.28,33.13,36.31,36.31,0,0,0-10-10.28c-7.51-4.92-18.86-5.18-24.49,1.81-3.78,4.7-4.08,11.46-2.27,17.21a56,56,0,0,0,8.17,16.2,13.68,13.68,0,0,0-12.39-6,13,13,0,0,0-11,7.67c-5.6-4.22-13.38-3.35-20.31-2.28-25.27,3.9-49.58,11.16-74.62,14.07h-.12A177,177,0,0,1,780,288.86h37.68a2018.53,2018.53,0,0,0,209.3,3.4c22.37-.8,44.72,5.95,66.33.12,51.39,17.47,108.49,17.32,159.63-.87a310.24,310.24,0,0,0,102.38,6.3c22.11-2.3,44.5,4.74,64.15-5.66,12,4.69,26,4.42,37.34-1.74,7.62,5,26.27-1.55,62.66-1.55C1506.62,285.26,1496.68,289.33,1485,282.82Z"/><path class="cls-1" d="M119.59,721.64c5.87-3.28,11.91-6.62,18.56-7.6s14.21-.17,18.17,5.27c9-5.58,21.57-5.95,31.34-1.83,1.86-5.56,10.05-8.26,15.2-5.45a14.41,14.41,0,0,1,25.39-10.61,6.19,6.19,0,0,1,6.58-2.45c2.41.66,3.55,1.46,3.7,4,3.46-7.46,9.56-13.87,17.27-16.74s17-1.81,23.27,3.5,9.3,14.47,5.63,21.82a26.11,26.11,0,0,1,21.38-9.34,26.77,26.77,0,0,1,20.3,12.13,11.37,11.37,0,0,1,14.94-1.91c1.81-4.09,7.76-5.27,10.88-2.06a14.52,14.52,0,0,1,3.19-14.22c3.51-3.7,7.75-4.54,12.67-3.22-.48-2.91-1-5.91-.36-8.79s2.58-5.69,5.45-6.4,4.5,1.22,4.33,4.17a24.33,24.33,0,0,1,43.07,2.42,23.62,23.62,0,0,1,.16,18.55,20.15,20.15,0,0,1,5.58-5.76c4.21-2.75,10.56-2.9,13.71,1,2.12,2.62,2.29,6.41,1.27,9.63a31.46,31.46,0,0,1-4.57,9.07,7.68,7.68,0,0,1,6.94-3.38,7.26,7.26,0,0,1,6.14,4.3c3.13-2.36,7.49-1.88,11.37-1.28,14.15,2.19,27.76,6.25,41.78,7.88H503a99.37,99.37,0,0,0,11.35.7h-21.1a1131.26,1131.26,0,0,1-117.19,1.9c-12.52-.45-25,3.33-37.14.07a137.16,137.16,0,0,1-89.38-.49A173.71,173.71,0,0,1,192.22,730c-12.38-1.29-24.92,2.65-35.92-3.17a25.12,25.12,0,0,1-20.91-1c-4.26,2.78-14.71-.87-35.08-.87C107.5,723,113.07,725.29,119.59,721.64Z"/><path class="cls-2" d="M119.59,721.64c5.87-3.28,11.91-6.62,18.56-7.6s14.21-.17,18.17,5.27c9-5.58,21.57-5.95,31.34-1.83,1.86-5.56,10.05-8.26,15.2-5.45a14.41,14.41,0,0,1,25.39-10.61,6.19,6.19,0,0,1,6.58-2.45c2.41.66,3.55,1.46,3.7,4,3.46-7.46,9.56-13.87,17.27-16.74s17-1.81,23.27,3.5,9.3,14.47,5.63,21.82a26.11,26.11,0,0,1,21.38-9.34,26.77,26.77,0,0,1,20.3,12.13,11.37,11.37,0,0,1,14.94-1.91c1.81-4.09,7.76-5.27,10.88-2.06a14.52,14.52,0,0,1,3.19-14.22c3.51-3.7,7.75-4.54,12.67-3.22-.48-2.91-1-5.91-.36-8.79s2.58-5.69,5.45-6.4,4.5,1.22,4.33,4.17a24.33,24.33,0,0,1,43.07,2.42,23.62,23.62,0,0,1,.16,18.55,20.15,20.15,0,0,1,5.58-5.76c4.21-2.75,10.56-2.9,13.71,1,2.12,2.62,2.29,6.41,1.27,9.63a31.46,31.46,0,0,1-4.57,9.07,7.68,7.68,0,0,1,6.94-3.38,7.26,7.26,0,0,1,6.14,4.3c3.13-2.36,7.49-1.88,11.37-1.28,14.15,2.19,27.76,6.25,41.78,7.88H503a99.37,99.37,0,0,0,11.35.7h-21.1a1131.26,1131.26,0,0,1-117.19,1.9c-12.52-.45-25,3.33-37.14.07a137.16,137.16,0,0,1-89.38-.49A173.71,173.71,0,0,1,192.22,730c-12.38-1.29-24.92,2.65-35.92-3.17a25.12,25.12,0,0,1-20.91-1c-4.26,2.78-14.71-.87-35.08-.87C107.5,723,113.07,725.29,119.59,721.64Z"/><path class="cls-1" d="M1903.39,1066.87c-3.77-2.12-7.66-4.27-11.94-4.9s-9.15-.11-11.69,3.39c-5.8-3.58-13.89-3.83-20.18-1.18-1.2-3.57-6.47-5.31-9.78-3.5a9.28,9.28,0,0,0-16.34-6.83,4,4,0,0,0-4.24-1.58c-1.55.42-2.28.94-2.38,2.55a20.58,20.58,0,0,0-11.11-10.77c-5-1.85-10.94-1.17-15,2.25s-6,9.31-3.62,14a16.82,16.82,0,0,0-13.77-6,17.27,17.27,0,0,0-13.07,7.81,7.3,7.3,0,0,0-9.61-1.23,4.45,4.45,0,0,0-7-1.33,9.36,9.36,0,0,0-2.06-9.15c-2.25-2.38-5-2.92-8.15-2.07a15.43,15.43,0,0,0,.23-5.66,5.23,5.23,0,0,0-3.51-4.12c-1.84-.45-2.89.79-2.78,2.68a15.68,15.68,0,0,0-27.73,1.56,15.15,15.15,0,0,0-.09,11.94,13.09,13.09,0,0,0-3.6-3.7c-2.71-1.78-6.79-1.87-8.82.65a6.74,6.74,0,0,0-.82,6.2,20.3,20.3,0,0,0,2.94,5.84,4.9,4.9,0,0,0-4.46-2.17,4.67,4.67,0,0,0-4,2.76c-2-1.52-4.82-1.21-7.32-.82-9.1,1.41-17.86,4-26.89,5.07h0a63.2,63.2,0,0,1-7.31.45h13.58a727.25,727.25,0,0,0,75.43,1.23c8.06-.29,16.12,2.14,23.91,0a88.24,88.24,0,0,0,57.52-.31,111.68,111.68,0,0,0,36.9,2.27c8-.83,16,1.71,23.12-2a16.16,16.16,0,0,0,13.45-.63c2.75,1.79,9.47-.56,22.58-.56C1911.18,1067.75,1907.59,1069.21,1903.39,1066.87Z"/><path class="cls-2" d="M1903.39,1066.87c-3.77-2.12-7.66-4.27-11.94-4.9s-9.15-.11-11.69,3.39c-5.8-3.58-13.89-3.83-20.18-1.18-1.2-3.57-6.47-5.31-9.78-3.5a9.28,9.28,0,0,0-16.34-6.83,4,4,0,0,0-4.24-1.58c-1.55.42-2.28.94-2.38,2.55a20.58,20.58,0,0,0-11.11-10.77c-5-1.85-10.94-1.17-15,2.25s-6,9.31-3.62,14a16.82,16.82,0,0,0-13.77-6,17.27,17.27,0,0,0-13.07,7.81,7.3,7.3,0,0,0-9.61-1.23,4.45,4.45,0,0,0-7-1.33,9.36,9.36,0,0,0-2.06-9.15c-2.25-2.38-5-2.92-8.15-2.07a15.43,15.43,0,0,0,.23-5.66,5.23,5.23,0,0,0-3.51-4.12c-1.84-.45-2.89.79-2.78,2.68a15.68,15.68,0,0,0-27.73,1.56,15.15,15.15,0,0,0-.09,11.94,13.09,13.09,0,0,0-3.6-3.7c-2.71-1.78-6.79-1.87-8.82.65a6.74,6.74,0,0,0-.82,6.2,20.3,20.3,0,0,0,2.94,5.84,4.9,4.9,0,0,0-4.46-2.17,4.67,4.67,0,0,0-4,2.76c-2-1.52-4.82-1.21-7.32-.82-9.1,1.41-17.86,4-26.89,5.07h0a63.2,63.2,0,0,1-7.31.45h13.58a727.25,727.25,0,0,0,75.43,1.23c8.06-.29,16.12,2.14,23.91,0a88.24,88.24,0,0,0,57.52-.31,111.68,111.68,0,0,0,36.9,2.27c8-.83,16,1.71,23.12-2a16.16,16.16,0,0,0,13.45-.63c2.75,1.79,9.47-.56,22.58-.56C1911.18,1067.75,1907.59,1069.21,1903.39,1066.87Z"/><path class="cls-8" d="M1209.82,932.19c-2.42,16-2.91,32.19-3.39,48.35a6.77,6.77,0,0,0,.37,3c.77,1.72,2.76,2.47,4.57,3a168,168,0,0,0,78.78,4.79,55.66,55.66,0,0,0,12.13-3.29,5.45,5.45,0,0,0,2.86-2.17,5.85,5.85,0,0,0,.44-3c-.74-29.6-2.88-59.82-14.32-87.13a7,7,0,0,0-1.53-2.53,6.66,6.66,0,0,0-3.15-1.35,92.44,92.44,0,0,0-13.29-1.64l-45.51-3.39c-4.78-.36-5.18,2.76-7.07,6.86a122.19,122.19,0,0,0-4.85,12.41A158.59,158.59,0,0,0,1209.82,932.19Z"/><path class="cls-9" d="M1221.94,885.14c-14.13,31.28-18.4,65.58-17.88,99.64,0,2.74,4.31,2.75,4.27,0-.51-33.25,3.5-66.92,17.29-97.48,1.13-2.49-2.55-4.66-3.68-2.16Z"/><path class="cls-9" d="M1287.82,893.22c7.07,13.58,9.75,29.37,12.12,44.37a309.55,309.55,0,0,1,3.69,47.89c0,2.75,4.27,2.75,4.27,0a316.91,316.91,0,0,0-3.84-49c-2.44-15.41-5.29-31.42-12.55-45.39-1.27-2.43-5-.28-3.69,2.16Z"/><path class="cls-9" d="M1304.46,983.75c-14.68,6.77-32.6,7-48.51,6.92a159.44,159.44,0,0,1-48.83-7.48c-2.62-.86-3.74,3.27-1.13,4.12,16.71,5.47,34.24,7.68,51.79,7.63,16.18-.05,33.92-.63,48.84-7.5,2.49-1.15.33-4.83-2.16-3.69Z"/><path class="cls-7" d="M1429.31,430.18c-1-25.4-2.83-50.95-9.27-75.53-.6-2.31-1.37-4.79-3.31-6.17s-4.86-1.29-7.4-1c-57.73,6.09-115.24,16.35-173.3,16.1-41.59-.18-80.74-7.66-121.21-16.09-18.1-3.77-20.27,8.9-22.69,24.18q-4.74,30-7.34,60.29c-7,80.59-2.81,161.9,9.32,241.79a1319.55,1319.55,0,0,0,27.16,131.74c4.77,18.47,9.94,36.94,18,54.21a34.46,34.46,0,0,0,6,9.53c-.36,5.23,2.22,12.4,5.93,14.94,5.16,3.53,17,2.85,23.14,3.59a704.14,704.14,0,0,0,184.47-2.21c2.28-.33,4.71-.75,6.37-2.35a11.23,11.23,0,0,0,2.37-4.16l15.79-40.32c.85-2.16,1.7-4.55,1-6.75,5-8.72,7.63-19,9.94-28.9A1393.73,1393.73,0,0,0,1429.31,430.18Z"/><path class="cls-7" d="M1100.47,332a898.08,898.08,0,0,1,85.18-166c6.44-9.87,13.24-19.79,22.57-27,22.36-17.26,54.35-15.23,81-6,8.67,3,17.29,6.77,24.07,12.95,5.1,4.64,9,10.46,12.7,16.25a1012.16,1012.16,0,0,1,92,179.28c.8,2,1.55,4.46.32,6.26-1,1.43-2.86,1.88-4.57,2.21-44.66,8.75-89.89,15-135.38,17.15s-91.29.06-136.15-8.09c-11.83-2.15-23.55-4.8-35.24-7.62C1096.49,348.84,1096.85,341.29,1100.47,332Z"/><path class="cls-3" d="M1112.32,332.16c13.54,8,30.39,11,47,8.45a52.32,52.32,0,0,1-16.31-9c-2.4-2-4.69-4.28-5.58-7.3s-.22-6.71.6-10.08c4.69-19.26,12.88-37.87,21.68-56.09a894.45,894.45,0,0,1,63.47-110.47c-5.17,1-13.87,2.19-18.41,5.34-4.79,3.33-8.4,11.45-11.49,16.26-8.11,12.61-15.69,25.51-22.85,38.59-14.15,25.85-26.67,52.4-38.54,79.15C1130.1,291,1111,331.38,1112.32,332.16Z"/><path class="cls-3" d="M1400.91,332.16c-13.55,8-30.39,11-47,8.45a52.32,52.32,0,0,0,16.31-9c2.41-2,4.69-4.28,5.58-7.3s.23-6.71-.6-10.08c-4.69-19.26-12.88-37.87-21.67-56.09a894.53,894.53,0,0,0-63.48-110.47c5.18,1,13.88,2.19,18.41,5.34,4.79,3.33,8.41,11.45,11.5,16.26,8.1,12.61,15.68,25.51,22.84,38.59,14.16,25.85,26.67,52.4,38.54,79.15C1383.12,291,1402.22,331.38,1400.91,332.16Z"/><path class="cls-5" d="M1216.22,116.93c6.12-9.73,12.31-19.55,20.5-27.62,4.31-4.25,9.24-8,14.92-10.13s12.2-2.39,17.71.14c9.57,4.39,13.6,15.5,19.44,24.27,2.93,4.41,6.48,8.37,9.58,12.67,2.68,3.7,5,7.63,7.33,11.56l16.85,28.5a255.8,255.8,0,0,0-113.08-3.46c-2.59.51-5.17,1.06-7.77,1.53-1.82.32-6.12,1.78-7.85,1.08s-1-1.27.11-3.16c1.42-2.42,3-4.76,4.5-7.14Z"/><path class="cls-8" d="M1099.41,344.21c2.63-.81,3.94.11,6.55,1,28.36,9.53,58.2,14,88,16.34a661.84,661.84,0,0,0,221.68-20c2.38,2.55,4.73,6.85,2,9.06a6.38,6.38,0,0,1-2.48,1.05c-97.58,25.93-201.24,27.93-300.06,7.24-5.47-1.14-11.28-1.59-16.15-4.45C1095.34,352.28,1092.54,346.34,1099.41,344.21Z"/><path class="cls-8" d="M1108.86,752.34c5.94,31.78,12,63.88,24.8,93.56,2.34,5.42,4.94,10.83,5.84,16.67.86,5.5.18,11.11-.5,16.64q-6.45,52.14-12.89,104.28A780.54,780.54,0,0,1,1051,824.18c-9.35-27.56-17.21-57.29-9.9-85.46,4.81-18.53,16.13-34.84,30.53-47.27,5.17-4.46,22.32-20.37,23.9-11.31,2.47,14,4.41,24.5,6,32.77Z"/><path class="cls-3" d="M1057.25,820.81c-2.29-12.38-4.1-24.91-4-37.49.23-22.49,4.35-46.66,18.78-63.9,9.36-11.19,12.69-13.59,21.14-19.26,1.34-.89,2.8-1.81,3.48-3.27a7.56,7.56,0,0,0,.45-3.66,83.67,83.67,0,0,0-2.17-12.67,3.83,3.83,0,0,0-1.07-2.07c-1.17-1-2.91-.28-4.23.44-31,16.88-51.65,51.32-51.91,86.63-.17,22.88,7.51,45,15.62,66.4,4,10.68,7.64,22,12.79,32.21,2.12-4.45-2.81-15-4-19.88Q1059.42,832.62,1057.25,820.81Z"/><path class="cls-8" d="M1406,752.34c-5.94,31.78-12,63.88-24.8,93.56-2.35,5.42-4.94,10.83-5.85,16.67-.85,5.5-.17,11.11.51,16.64q6.45,52.14,12.89,104.28a780,780,0,0,0,75.1-159.31c9.36-27.56,17.22-57.29,9.91-85.46-4.81-18.53-16.14-34.84-30.53-47.27-5.17-4.46-25.4-18.48-25.88-13.23-1.31,14.19-2.43,26.42-4,34.69Q1409.74,732.62,1406,752.34Z"/><path class="cls-3" d="M1455.83,820.81c2.29-12.38,4.1-24.91,4-37.49-.23-22.49-4.36-46.66-18.78-63.9-9.36-11.19-12.69-13.59-21.15-19.26a9,9,0,0,1-3.48-3.27,7.68,7.68,0,0,1-.44-3.66,82.44,82.44,0,0,1,2.17-12.67,3.77,3.77,0,0,1,1.07-2.07c1.17-1,2.9-.28,4.22.44,31,16.88,51.65,51.32,51.91,86.63.17,22.88-7.5,45-15.61,66.4-4,10.68-7.65,22-12.79,32.21-2.12-4.45,2.81-15,4-19.88Q1453.64,832.62,1455.83,820.81Z"/><path class="cls-9" d="M1096.51,351c26.36-80.94,71-154,116.6-225.33,10.77-16.85,22-41.22,43.31-46.22,2.67-.62,1.54-4.74-1.14-4.11-17.59,4.13-27.9,20.15-37,34.4-12,18.63-23.87,37.28-35.48,56.11-23.19,37.59-45.23,76-63.67,116.15a630.29,630.29,0,0,0-26.69,67.87c-.86,2.62,3.26,3.74,4.11,1.13Z"/><path class="cls-9" d="M1255.53,79.41c10.94-3.13,20.1,6.29,25.67,14.44,5.9,8.65,11.41,17.59,17,26.42,11.35,17.81,22.53,35.72,33.38,53.84,21.31,35.58,41.38,72,58.83,109.62,10.19,22,19.45,44.4,27.58,67.23.92,2.57,5,1.46,4.12-1.13-30-84.1-75.26-161.42-123.19-236.36-6.09-9.53-11.69-20.07-19.23-28.56-6.19-7-15.84-12.33-25.33-9.62-2.63.75-1.51,4.87,1.14,4.12Z"/><path class="cls-9" d="M1419.22,349a662.25,662.25,0,0,1-252.35,16.59c-23.57-3-49.08-5.72-70.87-15.76-2.48-1.14-4.65,2.54-2.15,3.68,18.8,8.67,39.86,11.6,60.18,14.58q31.85,4.69,64,6.3a665.13,665.13,0,0,0,129.54-6.34,665.41,665.41,0,0,0,72.75-14.94c2.66-.69,1.53-4.81-1.13-4.11Z"/><path class="cls-9" d="M1416.2,339.45a652.48,652.48,0,0,1-250.46,16.46c-22.76-3-46.46-5.87-67.48-15.63-2.47-1.15-4.64,2.53-2.15,3.69,18.17,8.44,37.82,11.6,57.49,14.52q31.44,4.68,63.22,6.32a647.64,647.64,0,0,0,128.2-6.29,674.63,674.63,0,0,0,72.32-14.95c2.65-.7,1.53-4.82-1.14-4.12Z"/><path class="cls-9" d="M1092,349.68a1057.29,1057.29,0,0,0-8.07,256.44q3.28,36.11,9,71.93c.43,2.7,4.54,1.56,4.11-1.14a1053.55,1053.55,0,0,1-9.61-253.31q3-36.54,8.63-72.79c.42-2.68-3.7-3.84-4.11-1.13Z"/><path class="cls-9" d="M1417.38,349.58a1044.45,1044.45,0,0,1,7.28,252.74q-3.37,36.4-9.33,72.51c-.44,2.68,3.67,3.84,4.12,1.13a1049.57,1049.57,0,0,0,10.45-255.7q-3-36-8.41-71.82c-.41-2.7-4.52-1.55-4.11,1.14Z"/><path class="cls-9" d="M1092.73,676.16c6,36.59,12.59,73.17,20.93,109.31,7.85,34,18,67.54,34.23,98.54,1.27,2.44,5,.28,3.69-2.15-16.3-31.22-26.38-65.09-34.21-99.3C1109.24,747,1102.73,711,1096.85,675c-.44-2.71-4.56-1.56-4.12,1.13Z"/><path class="cls-9" d="M1415.82,672.4c-10.44,71.88-21.51,145-52.57,211.39-1.16,2.47,2.52,4.64,3.68,2.15,31.25-66.75,42.5-140.1,53-212.4.39-2.69-3.72-3.85-4.11-1.14Z"/><path class="cls-9" d="M1364.33,882.32a531.11,531.11,0,0,1-85.93,7.76c-2.75,0-2.75,4.29,0,4.27a538.49,538.49,0,0,0,87.07-7.92c2.7-.47,1.56-4.58-1.14-4.11Z"/><path class="cls-9" d="M1150,886.42c28.77,4.42,57.83,6.5,86.87,8,2.75.15,2.74-4.12,0-4.27-28.66-1.5-57.35-3.51-85.73-7.87-2.69-.41-3.85,3.7-1.14,4.12Z"/><path class="cls-9" d="M1093.73,674.54c-17.14,9-32.35,22-43,38.29-11.83,18.2-16.22,39.49-14.34,61,2.07,23.65,10.28,46.22,18.71,68.22q13.18,34.43,28.88,67.82,18,38.22,39.1,74.8c1.37,2.38,5.06.24,3.69-2.15a998.82,998.82,0,0,1-62.08-127.63c-16.31-40.71-37-89.76-14.79-132.21,10.09-19.32,26.81-34.37,45.94-44.46,2.43-1.28.27-5-2.16-3.69Z"/><path class="cls-9" d="M1138.19,865l-14.38,119.17c-.33,2.72,3.94,2.7,4.27,0L1142.46,865c.33-2.72-3.94-2.7-4.27,0Z"/><path class="cls-9" d="M1418.56,678.23c17.16,9,32.36,22,42.62,38.64,11.86,19.21,14.92,41.51,11.79,63.66-3.21,22.69-11.54,44.41-19.82,65.65Q1440,880,1424.32,912.81q-17,35.58-36.69,69.72c-1.38,2.38,2.31,4.54,3.68,2.15a1006,1006,0,0,0,64.59-133.87c16.23-41.2,34.54-89.27,11.58-131.59-10.47-19.3-27.48-34.51-46.77-44.68-2.43-1.28-4.59,2.41-2.15,3.69Z"/><path class="cls-9" d="M1372,865l14.38,119.17c.33,2.69,4.6,2.72,4.27,0L1376.25,865c-.33-2.69-4.6-2.72-4.27,0Z"/><path class="cls-9" d="M1236.93,894.36h41.47c2.75,0,2.75-4.27,0-4.27h-41.47c-2.75,0-2.75,4.27,0,4.27Z"/><circle class="cls-8" cx="1255.96" cy="520.33" r="73.24"/><path class="cls-5" d="M1315.26,520.33a59.3,59.3,0,0,1-59.3,59.29q-2.32,0-4.62-.18a57.73,57.73,0,0,1-9.53-1.52,58.45,58.45,0,0,1-8.6-2.82A59.3,59.3,0,0,1,1256,461a58.53,58.53,0,0,1,7.18.44h0a59.16,59.16,0,0,1,31.36,13.81,59.05,59.05,0,0,1,20.75,45.05Z"/><path class="cls-9" d="M1192.53,157.94a279.33,279.33,0,0,1,128.62.05c2.67.63,3.81-3.48,1.13-4.11a284.26,284.26,0,0,0-130.88-.06c-2.67.63-1.54,4.75,1.13,4.12Z"/><path class="cls-3" d="M1287.38,470,1233.21,575.1a59.28,59.28,0,0,1-21-14.78l51-98.85h0A58.85,58.85,0,0,1,1287.38,470Z"/><path class="cls-3" d="M1301.32,482.12l-50,97.32a57.73,57.73,0,0,1-9.53-1.52l52.7-102.64A59.45,59.45,0,0,1,1301.32,482.12Z"/><path class="cls-3" d="M1302.05,142.2q-10.33-1.38-20.77-2l6.68-2.72a2.69,2.69,0,0,0,1.38-1,2.65,2.65,0,0,0-.29-2.39,257.23,257.23,0,0,0-14.13-25.81c-2.38-3.81-12-15.61-10.1-20.38,2.07-5.22,10,10.14,11.32,12.25l13,21,6.48,10.51C1296.44,133.1,1300.66,142,1302.05,142.2Z"/><path class="cls-3" d="M1212,142.2c6.94-.92,13.91-1.6,20.87-2l-6.54-2.72a2.48,2.48,0,0,1-1.33-1,2.71,2.71,0,0,1,.41-2.39,275,275,0,0,1,15.41-25.81c2.58-3.81,12.78-15.61,11.12-20.38-1.81-5.22-10.53,10.14-11.94,12.25l-14,21-7,10.51C1218.1,133.1,1213.45,142,1212,142.2Z"/><path class="cls-3" d="M1411.2,366.23a991.66,991.66,0,0,1-4.38,298c1.59-46.69,8.69-93.35,4.37-139.86l-5.84-62.73c-2.13-22.95-4.28-46-9.27-68.48-.54-2.42-1.33-7.32-3.28-8.85-1.47-1.17-5-1.4-15.24-2.48-12.57-1.33-19.4-1.25-36.61-3.05C1363.33,378.48,1390,373.2,1411.2,366.23Z"/><path class="cls-3" d="M1102.93,366.23a991.33,991.33,0,0,0,4.37,298c-1.59-46.69-8.69-93.35-4.36-139.86l5.83-62.73c2.14-22.95,4.28-46,9.28-68.48.54-2.42,1.32-7.32,3.27-8.85,1.48-1.17,5-1.4,15.24-2.48,12.58-1.33,19.41-1.25,36.62-3.05C1150.8,378.48,1124.1,373.2,1102.93,366.23Z"/><path class="cls-3" d="M1212,981.89c5.41-25.41,8.09-45.42,17.42-69.66.32-.82,1.83-4.24,2.92-6.63,1.49-3.26,3.81-4,6.28-4.34,4.67-.72,8.82-.86,13.33-2.27-8.15-.19-11.39,0-22.34-.75-5.61-.38-5.43-.49-8.64,15.06-3,14.55-6.22,29.05-7.47,43.84-.35,4.12-.63,8.25-.87,12.38C1212.4,973.47,1212.83,978,1212,981.89Z"/><path class="cls-3" d="M1299.91,981.89c-5.41-25.41-8.09-45.42-17.42-69.66-.32-.82-1.83-4.24-2.93-6.63-1.48-3.26-3.8-4-6.28-4.34-4.67-.72-8.82-.86-13.32-2.27,8.14-.19,11.38,0,22.34-.75,5.61-.38,5.43-.49,8.63,15.06,3,14.55,6.22,29.05,7.47,43.84q.52,6.18.88,12.38C1299.51,973.47,1299.09,978,1299.91,981.89Z"/><path class="cls-9" d="M48.3,1517.71H1910.47c2.74,0,2.75-4.27,0-4.27H48.3c-2.75,0-2.75,4.27,0,4.27Z"/><path class="cls-3" d="M315.76,1113.84a578.34,578.34,0,0,1,5.87,118.61c-12.69,6.85-25.87,14.12-34,26-9.32,13.56-10.63,30.82-13.82,47-4.49,22.75-13.26,44.77-14.42,67.92-.34,6.75,0,13.82,3.27,19.76,3.75,6.9,10.82,11.37,18.09,14.33s15,4.69,22.19,7.85c6.06,2.65,4.61,11.47,4.5,18.08-.16,9.85-1.15,19.66-2.13,29.46l-7.67,76.38c-.06.59,0,1.37.55,1.56s.69-1.1.18-.79A796.81,796.81,0,0,0,467,1545.55c6.11-.45,13.27-1.64,16-7.12,1.46-2.91,1.23-6.35,1-9.6q-5.83-70.26-13.75-140.33c-.55-4.79-1.09-9.65-.38-14.42.43-2.87,1.31-5.68,1.47-8.58a34.77,34.77,0,0,0-1.22-9.38l-29.33-130.64c-5.45-24.3-10.9-48-17.3-72a285.21,285.21,0,0,0-28.31-68.67,7.43,7.43,0,0,0-2.52-3,6.66,6.66,0,0,0-3.56-.65c-10.07.29-19,6.09-27.69,11.19C346.65,1101,331.91,1108.32,315.76,1113.84Z"/><path class="cls-3" d="M363.36,1091.09a169.94,169.94,0,0,1,29.48-11.3c-17-31.4-41.93-57.69-66.73-83.39a9.92,9.92,0,0,0-3.61-2.74,9.17,9.17,0,0,0-5.52.28,51.89,51.89,0,0,0-27.78,19.5c-1,1.45-2,3.09-1.93,4.86a9.48,9.48,0,0,0,1.62,4c2.85,5,4.56,10.52,6.25,16,1.81,5.89,4.26,11.77,6.07,17.65s3.7,12,5.42,18c2.26,7.93,3.66,15.93,5.47,24,.84,3.74,1,8.63,2.54,12.13,1.77,4,2.69,3.06,7.15,1.57C336.52,1106.71,349.51,1097.92,363.36,1091.09Z"/><path class="cls-9" d="M417.27,1293c-.3,5.88-5.22,8.76-10.35,11.65-.63.35-.71,2.56-.7,3.28a8.29,8.29,0,0,0,1.2,2.42,30.54,30.54,0,0,0,5.61,5.52c1.12.9,2.37,1.88,2.64,3.29a5.82,5.82,0,0,1-.18,2.27q-4.11,18.88-7.49,37.92a3.91,3.91,0,0,0,0,2,4,4,0,0,0,1.69,1.73A113.62,113.62,0,0,1,423,1373.59l8.22-8.4a8.08,8.08,0,0,0,2.33-3.36,8.25,8.25,0,0,0-.57-4.7c-4-12.26-8.05-24.62-14.42-35.83a3,3,0,0,1-.54-1.53,2.72,2.72,0,0,1,.63-1.43c2.81-3.89,7.53-7,7.8-11.78.16-3-1.54-5.73-3.17-8.24a22.31,22.31,0,0,0-5.19-6.18c-2,1.66-2.08,4.58-3.17,6.9a8.65,8.65,0,0,1-5.15,4.53"/><path class="cls-3" d="M297.72,1541.34a614.06,614.06,0,0,0,183.49,1.2,3,3,0,0,0,3.19-3.87c-4.09-54.86-8.18-109.79-16.08-164.24q-9.85,2.11-19.86,3.45c-5.78.78-11.58,1.37-17.39,1.9q-54,5-108.28,4.61c-3,0-8-1.27-9.89,1.31-1.72,2.33-1,10.24-1.34,13.23l-2.65,27.23-5.29,54.45C303.13,1485.7,297.19,1541.26,297.72,1541.34Z"/><path class="cls-9" d="M479.13,1472c7.45-8.56,15.14-17.33,25.2-22.59a18.85,18.85,0,0,1,8.11-2.49,8.78,8.78,0,0,1,7.48,3.4c2,2.94,1.37,7.07-.58,10s-5,5-7.92,7l-6.9,4.68a31.61,31.61,0,0,0,26.42-3,21.88,21.88,0,0,0,6.41-5.78c2.94-4.13,3.88-9.38,3.82-14.45-.19-17-10.84-32.54-24.42-42.79a110.76,110.76,0,0,0-22-12.57c-7.36-3.25-15.72-7.34-23.63-8.84-1.54,5.77,1.54,15.58,2.23,21.69q1.21,10.92,2.27,21.87t1.94,21.9q.43,5.48.83,11C478.5,1462.69,480.12,1470.86,479.13,1472Z"/><path class="cls-9" d="M416.56,1294c2.77,3.33,8.71,9.27,7.07,14-1.42,4-5.4,7.58-8.67,10.15h3a57.94,57.94,0,0,1-7-6.25c-.75-.83-3.52-3.64-3.08-4.86.21-.6,2.54-1.66,3-2,2.36-1.4.21-5.09-2.15-3.68-3.29,2-6.62,3.49-4.84,7.77,2.08,5,7,8.76,11,12a2.22,2.22,0,0,0,3,0c4.06-3.2,10.38-9.27,10.77-14.86.16-2.35-1.58-4.67-2.74-6.54a79.64,79.64,0,0,0-6.43-8.75c-1.76-2.11-4.77.93-3,3Z"/><path class="cls-3" d="M487.41,1167l40.43-39.37a5.23,5.23,0,0,0,4.47,2.32c4.34-9.78-2.55-20.8-2.57-31.5a3.57,3.57,0,0,1,.54-2.24c1.39-1.78,4.15,0,5.59,1.75l10.37,12.56c12.83-11.58,26-23.41,42.13-29.72,3.08-1.21,7.55-1.66,8.79,1.41.76,1.87-.28,3.94-1.3,5.68a462.88,462.88,0,0,1-41.68,59.85,4.53,4.53,0,0,0-1.29,2.55c-.06,2,2.24,3,3.16,4.75,1.64,3-1.4,6.36-3.76,8.88-3.27,3.48-5.69,7.66-8.09,11.79-11.22,19.3-22.85,38.47-37,55.75s-30.88,32.74-50.64,43.14c-1.19.62-2.71,1.22-3.8.42a3.69,3.69,0,0,1-1.15-2.18L439.87,1228a143.28,143.28,0,0,1-3.91-17.93c-.46-3.53-1-4.45,1.92-6.15,2.44-1.41,5.33-2.28,7.85-3.59,10.09-5.25,19.08-12.35,27.51-19.93C478.08,1176.07,482.75,1171.54,487.41,1167Z"/><path class="cls-7" d="M592.93,1083.58c1.35-1.17,3.53-2.29,4.68-.94.91,1.08.2,2.71-.53,3.91A709.5,709.5,0,0,1,553.51,1150c.21-.28-7-7.74-7.69-8.5-3.07-3.62-3.55-4.42-.78-8.32,4.37-6.13,9.84-11.76,14.9-17.32A398.72,398.72,0,0,1,592.93,1083.58Z"/><path class="cls-7" d="M388.71,1154.9c7.26,29,12.36,58.89,10.5,88.73a46.14,46.14,0,0,1-1.81,11.46c-2,6.29-6.35,11.54-10.57,16.63a7.08,7.08,0,0,1-2.77,2.34,6.5,6.5,0,0,1-3.92-.17c-11.61-3.14-21.34-10.86-30.7-18.4-3.61-2.91-7.32-5.93-9.42-10.06-3.07-6-3.47-22-3.28-28.76,1.31-44.63.2-58.8-8.74-91.36s-21.93-63.86-35.21-94.9c-4.79-11.19-1.68-31.11,14.9-29.53,12.34,1.17,21.88,19.28,28,28.35,16.46,24.51,29.16,51.4,39.07,79.17C380.18,1123.65,384.78,1139.19,388.71,1154.9Z"/><polygon class="cls-5" points="406.65 1335.79 397.94 1335.79 396.64 1315.43 407.95 1315.43 406.65 1335.79"/><polygon class="cls-5" points="410.75 1315.43 393.84 1315.43 391.35 1248.6 413.24 1248.6 410.75 1315.43"/><polygon class="cls-5" points="412.39 1271.47 412.46 1269.69 392.13 1269.69 392.2 1271.47 412.39 1271.47"/><circle class="cls-5" cx="402.07" cy="1235.08" r="17.54"/><path class="cls-3" d="M418.34,1293.54c-.92,4.08-3.46,8-7.3,9.58-2.29,1-4.84,1.05-7.23,1.64-5.15,1.27-8.53,4.66-12.37,7.74-.79.63.84-.58,0,0-1.22-2.15-1.16-5.21-1.83-7.7a60.42,60.42,0,0,0-3.08-8.64c-2.33-5.19-4.61-10.13-9.24-13.52,1.18-.62-1.08.77,0,0a32.42,32.42,0,0,0,11-13.27c.95-2.13,1.69-4.39,3.15-6.21,2.8-3.56,8-4.73,12.33-3.46s7.88,4.63,10.14,8.56a32.77,32.77,0,0,1,3.3,8.68c.35,1.38.63,2.79.89,4.18C418.79,1285.23,419.27,1289.48,418.34,1293.54Z"/><path class="cls-10" d="M414,1182.17s-3.82,21.9-26,8.17c-10.09-6.86-10.09-24.8-10.09-24.8S401.13,1183.4,414,1182.17Z"/><path class="cls-11" d="M322.16,1233.09c-.65.36-21,12-21.23,14.08s-1.05,8.68-5.54,10.79-14.21,30.64-14.82,32.43c1.73-6.84,3.51-13.67,5.22-20.49,1.38-5.49,2.87-11.2,6.54-15.52,1.34-1.59,3-3,3.95-4.83.74-1.39,1.05-3,2-4.27a10.71,10.71,0,0,1,3.92-2.82l4.54-2.29A142.22,142.22,0,0,1,322.16,1233.09Z"/><path class="cls-9" d="M285.66,1018.64c28.52,67.63,36.64,141.64,34.34,214.5-.09,2.74,4.18,2.74,4.27,0,2.31-73.19-5.85-147.69-34.5-215.63-1-2.5-5.18-1.4-4.11,1.13Z"/><path class="cls-9" d="M320.74,994.84c25.56,24.78,50.51,50.65,68.41,81.69,17.4,30.15,28.25,63.5,36.63,97.14,4.71,18.89,8.65,38,12.56,57,.55,2.69,4.67,1.55,4.12-1.13-7.11-34.64-14.31-69.43-26-102.86-11.5-32.78-27.74-63-49.94-89.83-13.22-15.95-27.86-30.65-42.72-45-2-1.92-5,1.1-3,3Z"/><path class="cls-9" d="M289.22,1019.78a41.2,41.2,0,0,1,32.85-24.34c2.7-.3,2.73-4.58,0-4.27a45.43,45.43,0,0,0-36.54,26.46c-1.11,2.48,2.57,4.66,3.69,2.15Z"/><path class="cls-9" d="M291.84,1024.3a51.08,51.08,0,0,1,33.39-25.89c2.67-.64,1.54-4.76-1.14-4.12a55.26,55.26,0,0,0-35.93,27.85c-1.29,2.43,2.39,4.59,3.68,2.16Z"/><path class="cls-12" d="M320.56,1161.18s-11.73-4.85-6.57-15.76,1.49,9.24,75.25-22.33c24.33-11.78,43.7-22.51,43.7-22.51s1.59,27.89-11.25,32.11-22-9.6-22-9.6,3.41,25.3-17.29,26.75c-15.07,1.05-25.34-9.24-25.34-9.24s-24.7,7-38.36,4.82C316,1145.42,311,1155.12,320.56,1161.18Z"/><path class="cls-3" d="M380.15,1145.16a29.78,29.78,0,0,1-18.33-6.79q12.58-4.23,28.29-11l.15-.07,4.71-2.29c.19,2.49.43,10.35-3.46,15.41-2.16,2.82-5.28,4.34-9.55,4.64C381.36,1145.14,380.75,1145.16,380.15,1145.16Zm36.61-16.44c-6.83,0-12-6.59-13-7.94,10.45-5.25,19.2-9.87,24.53-12.73-.43,7.69-2.29,18.21-8,20.09A11.15,11.15,0,0,1,416.76,1128.72Z"/><path class="cls-9" d="M534.13,1131.23c3.82-7.68,1.31-15.25-1-23-.8-2.71-3.43-14.2,1.68-8.79a45.43,45.43,0,0,1,8.33,12.94c.6,1.36,2.42,1.23,3.35.44,8.35-7.19,16.73-14.39,25.89-20.54a114,114,0,0,1,13.3-7.77c1.44-.71,3.34-2,4.93-2.22l1.6-.49,3.38,3c.2,1.47-3.48,6.06-4.24,7.33a384.08,384.08,0,0,1-40.47,55.64c-1.8,2.06,1.21,5.09,3,3a397.83,397.83,0,0,0,26.25-33.49q6.28-9,12-18.33,2.88-4.66,5.62-9.41c1-1.77,2.36-3.73,2.46-5.84.62-13.61-20.75-1-25,1.61-11.45,6.94-21.67,15.73-31.8,24.44l3.35.43c-2.22-5-10-21.39-17.62-15.93-3.91,2.8-1.71,9.58-.67,13.42,1.89,6.94,5.37,14.3,1.87,21.33-1.22,2.45,2.46,4.62,3.69,2.16Z"/><path class="cls-9" d="M375,1157c-4.5,1.69-6.07,6.15-5.77,10.66.18,2.73,4.45,2.75,4.27,0-.16-2.33,0-5.57,2.63-6.55s1.45-5.09-1.13-4.11Z"/><path class="cls-9" d="M416.45,1179.13a3.07,3.07,0,0,1,1.34,3.09,2.19,2.19,0,0,0,1.49,2.63,2.16,2.16,0,0,0,2.63-1.5,7.23,7.23,0,0,0-2.44-7.24,2.2,2.2,0,0,0-3,0,2.14,2.14,0,0,0,0,3Z"/><path class="cls-9" d="M315.8,1115.76c13.32-4,25.53-10,37.53-17,12.17-7.07,24.58-14.46,38.83-16.06,2.7-.31,2.73-4.58,0-4.27-13.34,1.5-25.09,7.46-36.57,14.08-13.22,7.62-26.25,14.67-40.92,19.13-2.62.8-1.51,4.92,1.13,4.12Z"/><path class="cls-9" d="M315.41,1110.24c26.56-7.77,47.21-29.78,75.12-33.6,2.71-.37,1.55-4.48-1.14-4.11-28,3.82-48.54,25.82-75.11,33.6-2.63.77-1.51,4.89,1.13,4.11Z"/><path class="cls-9" d="M297.26,1012.27a255.83,255.83,0,0,1,34.68,59.91c1,2.51,5.16,1.41,4.11-1.13a262.46,262.46,0,0,0-35.77-61.8c-1.69-2.17-4.69.88-3,3Z"/><path class="cls-9" d="M336.74,1080c2.75,0,2.76-4.27,0-4.27s-2.75,4.27,0,4.27Z"/><path class="cls-9" d="M372.6,1079c-9.68-23.33-25.73-43.74-40.52-64-1.61-2.19-5.32-.07-3.69,2.16,14.54,19.9,30.58,40,40.1,63,1,2.5,5.17,1.4,4.11-1.14Z"/><path class="cls-9" d="M328.46,1011.24v-.31a2.14,2.14,0,1,0-4.27,0v.31a2.14,2.14,0,1,0,4.27,0Z"/><path class="cls-9" d="M315.44,1145.7c.22,3.56.39,7.12.66,10.68.15,2.11.8,4.91,3.52,4.63,1.66-.17,3-2.31,1.51-3.64a8.3,8.3,0,0,1-2.11-10.15c.88-1.71-1.08-4.3-2.93-2.92-4,3-5.76,12-.12,14.24,2.55,1,3.66-3.11,1.14-4.11-.47-.19-.32-2.47-.3-2.83.08-1.29.33-2.79,1.44-3.61l-2.92-2.92a12.6,12.6,0,0,0,2.78,15.32l1.51-3.65-.5,0,1.51.63c-.92-.79-.49-4.71-.56-5.9l-.36-5.82c-.16-2.73-4.43-2.75-4.27,0Z"/><path class="cls-9" d="M435.69,1207.09c2.75,0,2.75-4.27,0-4.27s-2.75,4.27,0,4.27Z"/><path class="cls-9" d="M436.35,1207.27c18.48-7,33.91-21,48.07-34.38,15.07-14.24,29.19-29.46,44.6-43.35,2.05-1.84-1-4.86-3-3-14.53,13.1-27.92,27.37-42,40.91-14.3,13.7-29.94,28.63-48.76,35.72-2.55,1-1.44,5.09,1.14,4.12Z"/><path class="cls-9" d="M526.62,1129.57a81.4,81.4,0,0,1,29.48,29.29c1.4,2.36,5.09.22,3.69-2.16a86,86,0,0,0-31-30.82c-2.38-1.38-4.53,2.3-2.16,3.69Z"/><path class="cls-9" d="M556.66,1156.72c-4.51,4.11-9,8.31-12.38,13.46-3.63,5.59-4.7,12.29-8.21,17.93s-8,10.77-11.93,16.17-7.6,10.7-11.44,16c-16.18,22.51-34.52,42.08-60.69,52.73-2.51,1-1.41,5.16,1.14,4.12,24.94-10.16,43.38-27.79,59.21-49.17,8.19-11,16-22.34,24.3-33.33,4.15-5.51,6-11.11,8.69-17.35,3-7.17,8.68-12.42,14.33-17.59,2-1.85-1-4.87-3-3Z"/><path class="cls-9" d="M508.5,1145.88a204.64,204.64,0,0,1,32.72,33.32c1.69,2.16,4.69-.88,3-3a204.29,204.29,0,0,0-32.73-33.32c-2.11-1.72-5.15,1.29-3,3Z"/><path class="cls-9" d="M544.48,1159.85a2,2,0,0,1,.15-.29c-.18.22-.19.24,0,.07-.16.23-.18.12.09,0-.43.24,0,.05.11,0-.3,0-.33.05-.08,0s.21,0-.09,0c.38.21-.34-.21.08,0-.21-.19-.22-.2-.05,0l-.13-.17q.18.32,0-.06c.06.24.06.21,0-.08v.16c0,.25,0,.23,0-.06-.24.42.33-.24,0,.12-.12.2-.11.19.05,0q-.23.21,0,.06c.14-.09.12-.08,0,0,.26-.09.28-.1,0,0,.42-.11-.17-.09.25,0-.23-.08-.23-.07,0,0-.18-.11-.2-.13-.08,0s.1.07-.06-.08c.14.2.14.2,0,0s-.12-.22,0-.08.06.11,0-.09c0,.27,0,.29,0,0,0,.27,0,.28,0,0a2.14,2.14,0,0,0-4.12-1.13,4.44,4.44,0,0,0,2.91,5.4,4.16,4.16,0,0,0,5.14-2.93,4.09,4.09,0,0,0-2.71-5.13,4.4,4.4,0,0,0-5.12,2.15,2.2,2.2,0,0,0,.76,2.92,2.15,2.15,0,0,0,2.92-.77Z"/><path class="cls-9" d="M381.21,1314.6a2.59,2.59,0,0,1,.14-.29c-.18.22-.19.24,0,.07-.16.23-.17.12.1,0-.44.24,0,.05.1,0-.3,0-.32.05-.08,0s.22,0-.08,0c.37.22-.35-.2.08,0-.21-.19-.23-.2-.06,0l-.12-.17c.11.21.11.19,0-.06.06.23.06.21,0-.08v.16c0,.25,0,.23,0-.07-.25.43.32-.23,0,.12-.13.2-.12.2,0,0-.14.14-.15.16,0,.07s.12-.09,0,0c.26-.09.28-.09,0,0,.43-.11-.17-.09.25,0-.23-.08-.23-.07,0,0-.17-.12-.2-.13-.08,0s.1.07-.05-.08c.13.2.14.2,0,0s-.11-.21,0-.07.06.11,0-.09q0,.4,0,0c0,.27,0,.29,0,0a2.13,2.13,0,0,0-4.11-1.13,4.43,4.43,0,0,0,2.91,5.4,4.15,4.15,0,0,0,5.13-2.93,4.08,4.08,0,0,0-2.7-5.13,4.39,4.39,0,0,0-5.13,2.15,2.19,2.19,0,0,0,.77,2.92,2.15,2.15,0,0,0,2.92-.77Z"/><path class="cls-9" d="M438.41,1230.27c-3.22,15.39-7.25,32.83-22.67,40.39-2.47,1.21-.31,4.89,2.15,3.68,16.43-8,21.19-26.47,24.64-42.93.56-2.68-3.55-3.83-4.12-1.14Z"/><path class="cls-9" d="M321.39,1235.29c6.7,2.26,11.42,7.51,16.34,12.32,4.6,4.51,9.32,8.89,14.32,13,9.35,7.63,19.56,14,31.08,17.74,2.62.85,3.74-3.27,1.14-4.12-13-4.24-24.17-12-34.32-21-8.59-7.59-16.24-18.24-27.42-22-2.61-.88-3.73,3.24-1.14,4.12Z"/><path class="cls-9" d="M418.18,1295a142.58,142.58,0,0,0,17.4,5.92c2.66.71,3.79-3.4,1.14-4.12a139.25,139.25,0,0,1-17.4-5.92c-2.54-1-3.64,3.08-1.14,4.12Z"/><path class="cls-9" d="M438.47,1231.47c6.37,22,1.19,44.68-4,66.36-.64,2.67,3.48,3.81,4.12,1.13,5.39-22.42,10.61-45.87,4-68.63-.77-2.63-4.89-1.51-4.12,1.14Z"/><path class="cls-9" d="M320.63,1234.31c6.67,9,9.72,20.15,15.11,29.92a132.07,132.07,0,0,0,19.91,27c1.9,2,4.92-1,3-3a127.1,127.1,0,0,1-20.07-27.67c-5-9.34-8-19.81-14.28-28.39-1.62-2.18-5.33-.05-3.69,2.16Z"/><path class="cls-9" d="M447.75,1202.08c7.42-4.13,14.82-9,22.6-12.43,4.24-1.85,12.34,1.5,12.93-5.24.24-2.74-4-2.72-4.27,0,.05-.61-7.2.15-7.77.31a36.13,36.13,0,0,0-7.4,3.53q-9.13,5.05-18.25,10.14c-2.4,1.33-.25,5,2.16,3.69Z"/><path class="cls-9" d="M529.26,1197.35a154.79,154.79,0,0,1-21.72,24.51c-3.44,3.13-7.23,5.86-10.6,9a21,21,0,0,0-3.63,4.29c-1.23,2-1.69,5.15-3.8,6.5-2.3,1.47-.16,5.17,2.16,3.68,3.68-2.35,4-6.72,6.74-9.9,3.47-4,8.23-7,12.15-10.59A160.3,160.3,0,0,0,533,1199.51c1.6-2.24-2.1-4.37-3.69-2.16Z"/><path class="cls-9" d="M349.82,1295.84c9.89,10.14,17.65,23.41,21,37.22.64,2.68,4.76,1.54,4.12-1.13-3.48-14.53-11.67-28.45-22.06-39.11-1.92-2-4.94,1-3,3Z"/><path class="cls-7" d="M396.55,1291.33c3.42-1.08,7-1.94,9.86-4.15a16.41,16.41,0,0,0,5.41-9.11,48.64,48.64,0,0,0,1-10.72,40.49,40.49,0,0,1,4.95,15.51,26.64,26.64,0,0,1-3.25,15.79,12.09,12.09,0,0,1-3.55,4c-1.84,1.21-4.08,1.62-6.22,2.15-5.62,1.39-11.46,4.31-13.64,9.68.68-1.68-.75-5.89-1.11-7.67-.55-2.71-1.78-5.44-2.18-8.15C387.2,1294.45,393.25,1292.38,396.55,1291.33Z"/><path class="cls-9" d="M352,1291.57c-15.13,4-30.72,8.25-42.92,18.55a44.91,44.91,0,0,0-12.18,15.76c-3.41,7.64-4.6,16.3-6.36,24.43-.57,2.68,3.54,3.83,4.12,1.14,1.55-7.14,2.63-14.62,5.16-21.49a40.63,40.63,0,0,1,12.28-16.82c11.6-9.77,26.68-13.68,41-17.46,2.66-.69,1.53-4.81-1.13-4.11Z"/><path class="cls-9" d="M378.29,1283.6c7-2.59,9.37-9.08,12.9-15.09,7-12,19.84-5.35,23,5.78,2,7.08,3.42,19.76-2.63,25.41-3.34,3.12-8.38,3-12.44,4.59a20,20,0,0,0-9.09,7.56c-1.56,2.26,2.13,4.4,3.69,2.15,6.27-9.06,19.46-5.46,24.21-16.31,3.65-8.33,2.59-20.44-1.08-28.56-3.38-7.51-11.68-13.61-20.2-11-10.55,3.19-9.76,17.8-19.5,21.39-2.55.94-1.45,5.06,1.14,4.11Z"/><path class="cls-9" d="M438.91,1232.21q10.59,35.24,17.66,71.38c2.23,11.51,3.79,23.16,6.14,34.65a132.15,132.15,0,0,0,4.88,16.79c2,5.85,3.5,12.06-.38,17.47-1.61,2.23,2.09,4.36,3.68,2.15,6.48-9,.91-19.3-1.86-28.56-3.67-12.31-4.92-25.33-7.26-37.93A735.92,735.92,0,0,0,443,1231.08c-.79-2.63-4.91-1.51-4.12,1.13Z"/><path class="cls-9" d="M300.9,1245.51c10.69,2.84,14.34,13.89,17.22,23.36.8,2.62,4.92,1.51,4.12-1.13-3.35-11-7.93-23.08-20.2-26.35-2.66-.71-3.79,3.41-1.14,4.12Z"/><path class="cls-9" d="M322,1275.7c2.75,0,2.75-4.27,0-4.27s-2.75,4.27,0,4.27Z"/><path class="cls-9" d="M310.38,1309.05c-.92.3-2.23-.77-3.06-1.14a9.07,9.07,0,0,0-3.19-.83,7.33,7.33,0,0,0-5.42,2.11c-2,1.85,1,4.86,3,3,1.72-1.57,3.49-.57,5.26.31a5.75,5.75,0,0,0,4.53.66c2.61-.83,1.49-5-1.14-4.12Z"/><path class="cls-9" d="M321.64,1230.77c-10.4,5-22.83,8.75-29.6,18.66-6.6,9.66-9.25,22.41-12.33,33.48a484.35,484.35,0,0,0-15.21,80.53c-1,9.85-1,22.22,8.76,27.94,4.35,2.55,9.57,3,14.49,3.17,5.43.23,11.12.18,16.14-2.2s9.55-7,13.87-10.63l16.63-14,33.26-28,19.65-16.57c4.55-3.84,6.63-5.74,5.78-11.86a60,60,0,0,0-16.69-33.48,2.16,2.16,0,0,0-3,0,64,64,0,0,1-22.65,14.2c-2.56.93-1.45,5.06,1.14,4.11a69.07,69.07,0,0,0,24.53-15.3h-3a56,56,0,0,1,14.9,27.65c.71,3.37,1.28,6.36-1,9.11-1.57,1.92-4.16,3.5-6.05,5.1l-15.12,12.74L311,1381.89c-4.15,3.5-8,7-13.55,8.06a43,43,0,0,1-18.3-.74c-13-3.87-11.12-19-9.93-29.54a482.73,482.73,0,0,1,12.92-69.22c3-11.59,5.76-24.3,11.33-35,6.12-11.74,19.07-15.63,30.36-21,2.48-1.18.32-4.86-2.15-3.69Z"/><path class="cls-9" d="M415.88,1320.49c6.16,7.79,8.9,17.46,12,26.72l2.44,7.21c.61,1.83,2.56,5.27,1.87,7.23s-3.8,4.39-5.23,5.88c-1.67,1.75-3.4,3.43-5.16,5.09h1.66a102.11,102.11,0,0,0-10-8.11c-3.07-2.18-4.43-3.55-4.27-7.58.1-2.46,1-5.13,1.43-7.54,1.95-10,4.13-20,6.41-29.9.34-1.48-1.93-2.11-2.27-.63-2.71,11.8-5.27,23.64-7.49,35.55-.56,3.06-2.32,6.63.28,9,4.39,4,9.8,6.86,14.23,10.91a1.2,1.2,0,0,0,1.66,0c2.42-2.28,4.78-4.62,7-7.07,1.27-1.4,3.53-3.27,4.1-5.21,1.05-3.58-2.39-9.35-3.52-12.71-3.56-10.54-6.53-21.6-13.55-30.46-.94-1.19-2.59.48-1.66,1.66Z"/><path class="cls-9" d="M468.11,1342.8a71.18,71.18,0,0,0-5.47-13.42c-2.95-5.46-5.08-9.79-5.39-16.18-.14-2.74-4.41-2.75-4.27,0,.25,5.15,1,9.62,3.56,14.16a81.7,81.7,0,0,1,7.46,16.57c.79,2.63,4.91,1.51,4.11-1.13Z"/><path class="cls-9" d="M311.2,1382.24l-15.64,159.07c-.27,2.73,4,2.72,4.27,0l15.64-159.07c.27-2.73-4-2.71-4.27,0Z"/><path class="cls-9" d="M296.8,1543.27a647,647,0,0,0,187.1.9c2.71-.38,1.56-4.5-1.13-4.12a640.24,640.24,0,0,1-184.83-.89c-2.69-.41-3.85,3.7-1.14,4.11Z"/><path class="cls-9" d="M467.12,1373.36q10,83.9,15.08,168.26c.16,2.73,4.43,2.75,4.27,0q-5.09-84.33-15.08-168.26c-.32-2.69-4.59-2.73-4.27,0Z"/><path class="cls-9" d="M468.26,1371.24c-12.42,4.14-25.39,5.47-38.36,6.75-12.8,1.27-25.62,2.38-38.46,3.18-26,1.61-52.06,1.91-78-.17-2.74-.22-2.72,4,0,4.27,26.63,2.13,53.36,1.76,80,0,13.17-.85,26.32-2,39.45-3.34,12.35-1.25,24.7-2.67,36.54-6.61,2.59-.86,1.48-5-1.14-4.12Z"/><path class="cls-9" d="M378.39,1109.94a17.74,17.74,0,0,0-21.53,7.14c-1.39,2.23-2.26,4.75-3.55,7a21.49,21.49,0,0,1,6.77-5c4.51-1.89,9.65-1.08,14.47-.24a12.7,12.7,0,0,0,4.1-8.63"/><path class="cls-9" d="M378.82,1108.36a19.91,19.91,0,0,0-16.79,1.46c-5.34,3.2-7.37,8.19-10.13,13.48a1.64,1.64,0,0,0,2.56,2c3.42-3.35,7-5.6,11.92-5.7,2.64-.06,6.22,1.62,8.61.85,3.48-1.13,4.95-7.14,5.29-10.2.23-2.09-3-2.07-3.26,0-.39,3.51-1.49,6.86-5.29,6.53a36.62,36.62,0,0,0-7.76-.28c-4.86.58-8.4,3.15-11.81,6.49l2.56,2c2.1-4,3.56-8.16,7.26-11.08,4.7-3.71,10.39-4.21,16-2.35,2,.67,2.86-2.48.87-3.15Z"/><path class="cls-9" d="M394.09,1105.42a13.92,13.92,0,0,1,22.12-7.56,12.08,12.08,0,0,0-9.64,2.37,18.9,18.9,0,0,0-6,8.17,1.44,1.44,0,0,1-.55.8,1.37,1.37,0,0,1-.85,0,7.68,7.68,0,0,1-5.15-3.56"/><path class="cls-9" d="M395.67,1105.85c2.65-8.79,12.29-11.83,19.71-6.58l1.26-3a14.42,14.42,0,0,0-11.23,2.79,18.36,18.36,0,0,0-3.77,4c-.7,1-1.18,2.42-1.93,3.33l-.51,1.17a6,6,0,0,1-3.73-2.7c-1.23-1.68-4.06-.06-2.82,1.65,1.56,2.14,5.46,5.85,8.4,4,1.45-.93,2.12-3.85,3.05-5.23,2.64-3.92,6.8-6.51,11.67-5.82a1.64,1.64,0,0,0,1.26-3,15.77,15.77,0,0,0-24.51,8.53c-.61,2,2.54,2.88,3.15.87Z"/><path class="cls-9" d="M321,1229.87c-36,7.39-59.17,39.74-71.51,72.22-14.62,38.49-18.22,81.24-40.28,116.79-5.79,9.33-12.89,18.21-21.5,25.1-8.81,7-23.91,12.35-32,1.16-1.36-1.89-4.53-.83-3.9,1.64a50.87,50.87,0,0,0,19.93,28.82c11.67,8.3,24.35,9.48,38.28,8.86,8.36-.37,16.22-.17,24.17,2.71,7.51,2.72,14.51,6.62,22.22,8.79,15.05,4.23,30.93,3.06,46.08,0,2.69-.53,1.55-4.65-1.14-4.11-15,3-30.75,4-45.54-.57-13.17-4.1-24.11-11.29-38.35-11.37s-27.18,1.85-40-5.72a46.68,46.68,0,0,1-21.55-28.6l-3.9,1.65c11.45,15.87,31.58,6.67,42.92-4,14.25-13.42,23.92-30.83,31-48.88,15.94-40.41,18.68-86.56,43.92-123,12.51-18.08,30.3-32.88,52.22-37.37,2.69-.55,1.55-4.67-1.14-4.12Z"/><path class="cls-9" d="M482.33,1471.46c6-8.66,14.63-17.37,24.63-21.28,3.16-1.24,7-1.93,10,.19,4.07,2.87,2.25,7.5-.59,10.44-3.89,4-9.19,6.93-14.35,9-1.82.72-2.22,3.54,0,4.11,11.35,2.92,24.91,2.37,33.88-6.09,9.68-9.12,9.26-23.67,4.72-35.21-4.93-12.55-14.63-23.24-25.69-30.76-13.5-9.18-29.95-12.23-43.74-20.84-2.33-1.46-4.48,2.23-2.15,3.68,11.31,7.07,24.34,10.26,36.13,16.33a70,70,0,0,1,27.51,25.2c6.1,9.87,10.13,24,3.47,34.64-6.9,11-21.64,11.85-33,8.94v4.11c6.75-2.69,14.32-6.65,18.52-12.84,3.77-5.56,2.11-12.28-4-15.17-7.34-3.46-15.43,1.29-21.36,5.46a72.19,72.19,0,0,0-17.66,17.94c-1.57,2.26,2.13,4.4,3.69,2.16Z"/><path class="cls-9" d="M314.78,1383.35a26.13,26.13,0,0,1,8.65-11.74c2.15-1.64,0-5.35-2.16-3.68a31.25,31.25,0,0,0-10.61,14.29c-1,2.58,3.18,3.69,4.12,1.13Z"/><path class="cls-9" d="M259.68,1284.43c-12.94,25-18.7,53-26.29,80.17s-17.68,54.62-37.21,74.94c-5.59,5.82-12.13,11.1-19.9,13.28s-17,.69-22.35-5.33c5.38,18,21.82,32.22,40.43,34.91,9.79,1.42,19.81-.11,29.61,1.17,13.69,1.77,26.12,8.87,39.57,12a70,70,0,0,0,34.15-.67,6.44,6.44,0,0,0,3.82-2.16,6.64,6.64,0,0,0,.85-3.08c3.82-34.9,7.93-69.86,10.34-104.88-8.3,6.31-20.32,8.9-30.57,6.94-4.77-.91-9.53-2.88-12.66-6.59-5.29-6.28-4.57-15.5-3.43-23.62a769.59,769.59,0,0,1,16.35-83.09c2.72-10.68,5.9-21.74,13.31-29.91,6.26-6.91,14.59-9.29,21.86-14.45-3.17-2.13-10,2.1-13,3.57a81.85,81.85,0,0,0-13.34,8.26A105.78,105.78,0,0,0,269,1269.16,128.45,128.45,0,0,0,259.68,1284.43Z"/><path class="cls-9" d="M1226.18,992.6a531.79,531.79,0,0,1,4.64,231l3.14-1.28c-8-5.95-19.93-4.09-27.46,1.84-9.89,7.81-9.17,21.38-5.39,32.14l.55-2.08c-8.36,6.94-12.71,17.13-10.57,27.93l2.63-2.63c-14.73-5.11-33,.46-42.15,13.26-10.64,14.92-3.94,34.12,7.38,46.42l1-3.57c-12.54,3-23.47,14.7-19.89,28.19.7,2.66,4.82,1.53,4.12-1.13-3-11.28,6.69-20.52,16.9-22.94a2.15,2.15,0,0,0,.94-3.57c-10.08-11-16.47-28.34-6.49-41.53,8.33-11,24.22-15.48,37.1-11,1.65.57,2.92-1.15,2.63-2.63-1.85-9.34,2.33-17.84,9.47-23.77a2.07,2.07,0,0,0,.55-2.07c-3.1-8.83-4.61-20.34,3.34-27.2,6.22-5.38,16.43-7,23.24-2a2.14,2.14,0,0,0,3.13-1.27,537.06,537.06,0,0,0-4.64-233.31c-.65-2.67-4.77-1.54-4.12,1.13Z"/><path class="cls-9" d="M1115.07,1383.37c12-16.25,35.75-19.1,53-10.19,2.44,1.26,4.6-2.42,2.16-3.68-19.49-10.07-45.43-6.49-58.84,11.72-1.63,2.21,2.08,4.35,3.69,2.15Z"/><path class="cls-9" d="M1170.69,1350.86a18.21,18.21,0,0,1,.29-24.4c1.81-2.06-1.2-5.09-3-3-7.92,9-8,21.29-.28,30.44,1.78,2.1,4.78-.94,3-3Z"/><path class="cls-9" d="M1187.76,1296c1.13-8.29,7.69-14.37,15.49-16.76,4-1.21,11.64-1.13,11.59-6.88,0-2.75-4.29-2.76-4.27,0,0,1.61-9.3,3-10.53,3.47a29.32,29.32,0,0,0-7.17,4,22.92,22.92,0,0,0-9.23,15c-.37,2.69,3.75,3.85,4.12,1.13Z"/><path class="cls-9" d="M1134.91,1365.74c-33.34-9.28-73.06-1.89-98.31,22.59-2,1.92,1.05,4.93,3,3,24.17-23.43,62.28-30.37,94.15-21.49,2.65.73,3.78-3.38,1.14-4.12Z"/><path class="cls-9" d="M976.64,1416.57c11.83-18,36.14-24.86,56.66-22.6,22.81,2.52,41.45,14.89,55.5,32.52,1.71,2.15,4.71-.89,3-3-15.09-18.94-35.61-31.85-60.14-33.92-21.66-1.83-46.36,6-58.72,24.87-1.52,2.3,2.18,4.44,3.68,2.15Z"/><path class="cls-9" d="M891.26,1351.6c27.55-10.92,57.76-17.82,87.32-11.84,24.89,5,53.79,22.21,53.66,50.89,0,2.75,4.26,2.75,4.27,0,.13-28.56-26.63-47.46-51.76-53.86-31.74-8.07-64.79-1.13-94.63,10.69-2.52,1-1.42,5.13,1.14,4.12Z"/><path class="cls-9" d="M820.75,1367.71c18-13.27,40.94-18.64,63.12-16.88a105.85,105.85,0,0,1,33.47,8.33,101.3,101.3,0,0,1,14.55,7.73c4.76,3.06,8.79,7,13.37,10.22,2.24,1.6,4.38-2.11,2.15-3.69-5-3.58-9.45-7.8-14.76-11.1a103.92,103.92,0,0,0-13.91-7.18,111.43,111.43,0,0,0-34.87-8.58c-22.83-1.81-46.7,3.81-65.27,17.47-2.19,1.61-.07,5.31,2.15,3.68Z"/><path class="cls-9" d="M882.61,1346.79c-8.67-31.6-45.28-44.73-75-42.57-16.76,1.21-34,6.27-47.4,16.7-10.7,8.32-19.22,20.82-15.7,34.87l1.49-2.63c-18.07,5.23-34.28,20.44-34.21,40.28,0,2.75,4.28,2.75,4.27,0-.07-17.93,14.83-31.46,31.07-36.16a2.17,2.17,0,0,0,1.49-2.63c-3.59-14.34,7.7-26.53,18.9-33.7,12.76-8.17,28.49-12.11,43.52-12.65,26.86-1,59.64,11.12,67.46,39.62.72,2.65,4.84,1.53,4.11-1.13Z"/><path class="cls-9" d="M712.13,1392.49c-25.8,7.46-50.5,27.19-56,54.64s10.49,53.83,33.38,68c2.34,1.45,4.49-2.24,2.15-3.68-21.56-13.36-37-38.58-31.14-64.48,5.72-25.4,28.66-43.41,52.71-50.36,2.64-.77,1.51-4.89-1.13-4.12Z"/><path class="cls-9" d="M793.47,1489.36c-22.77-9.1-35.64-34.12-22.92-56.63,13.06-23.09,42.15-30.94,67-28.44,2.73.28,2.71-4,0-4.27-27.64-2.78-60.54,7.36-72.7,34.55-11,24.5,3.95,49.5,27.48,58.91,2.55,1,3.66-3.11,1.14-4.12Z"/><path class="cls-9" d="M771.9,1421.84c-10.42-5.4-20.79-11.6-26.71-22.12a36.81,36.81,0,0,1-3-29.8c7.11-20.72,31.36-30.62,51.76-29.93,2.75.09,2.75-4.18,0-4.27-22.33-.75-48.25,10.51-55.88,33.06a41.1,41.1,0,0,0,2.71,31.82c6.14,11.86,17.43,19,28.93,24.92,2.44,1.27,4.6-2.42,2.16-3.68Z"/><path class="cls-9" d="M899.69,1463.87c14.25-24,41.11-39.79,68.89-41.5,25.5-1.56,56.06,9.11,67.54,33.62,1.17,2.49,4.85.32,3.69-2.15-12.08-25.79-44.35-37.39-71.23-35.74-29.29,1.8-57.54,18.27-72.57,43.61-1.41,2.37,2.28,4.52,3.68,2.16Z"/><path class="cls-9" d="M1151.94,1467.09c18.47-11.93,42.29-16.13,63.36-9,9.11,3.08,17.76,8.31,24,15.67,2.41,2.83,7.43,15.75,12.33,9.09a2.05,2.05,0,0,0,0-2.15l-.36-.6c-1.43-2.35-5.12-.2-3.69,2.15l.37.6v-2.15c1.51-2.06-4.22-8.31-5.63-10a52.33,52.33,0,0,0-9.39-8.44,64.87,64.87,0,0,0-25.54-10.68c-19.8-3.72-40.81.91-57.66,11.79-2.3,1.49-.16,5.19,2.16,3.69Z"/><path class="cls-9" d="M1211.72,1453c-3.24-11.88,3.91-23.44,14.58-28.63,11.16-5.42,25.28-4.46,35.8,1.92,2.36,1.42,4.51-2.27,2.16-3.69-12.23-7.42-28.78-8.13-41.43-1.24-11.67,6.36-18.8,19.64-15.23,32.78.72,2.65,4.84,1.52,4.12-1.14Z"/><path class="cls-9" d="M1230.94,1419c8.48-33.23,60.94-34.61,75.61-5.8a2.15,2.15,0,0,0,3.9-.51l.71-2.62c.72-2.66-3.4-3.79-4.12-1.14l-.7,2.63,3.9-.51c-16.36-32.13-74.06-29.86-83.42,6.82-.68,2.66,3.44,3.8,4.12,1.13Z"/><path class="cls-9" d="M1289.13,1422.84c13.34-7.82,31-10.73,45.5-4.13,6.46,3,11.94,8,13.73,15.08a15.84,15.84,0,0,1-1.09,11.1c-1.16,2.24-3.52,3.83-3.17,6.52a2.22,2.22,0,0,0,2.14,2.13,2.77,2.77,0,0,0,2.65-1,2.17,2.17,0,0,0,0-3l-.32-.3c-2-1.86-5,1.15-3,3l.32.3v-3l.37-.22,2.13,2.14c-.16-1.25,2.34-3.87,2.87-5a19.23,19.23,0,0,0,1.59-4.86,21.5,21.5,0,0,0-.53-9.57c-2.13-7.53-7.91-13.3-14.84-16.66-16-7.73-35.57-4.94-50.49,3.81-2.37,1.39-.22,5.08,2.16,3.68Z"/><path class="cls-9" d="M1352.21,1439.49c9.62-.94,18.9-1.17,27.73,3.33,7.22,3.68,13.74,10,16,18,4.92,17.63-13.66,31.27-29.18,32.92-2.71.28-2.74,4.56,0,4.27,17.42-1.85,37.31-16.17,33.84-35.87-1.57-8.95-7.86-16.4-15.37-21.17-10.19-6.47-21.3-6.85-33-5.7-2.71.26-2.74,4.53,0,4.27Z"/><path class="cls-9" d="M1145.6,1392c2.44-6.75,10-10.11,16.33-12.31a71.38,71.38,0,0,1,22.51-4.08c13.72-.17,28,4.24,37.07,15.05a2.16,2.16,0,0,0,3,0l2.72-2.7c2-1.93-1.06-5-3-3l-2.72,2.7h3c-10.48-12.55-27.77-17.19-43.6-16.16-13.24.86-34.29,5.06-39.44,19.38-.94,2.59,3.19,3.71,4.11,1.14Z"/><path class="cls-9" d="M1204.87,1376.47c1.35-10.41,8.47-19.52,17.89-24,12.15-5.76,27-2.59,38.79,2.52,2.49,1.08,4.67-2.6,2.15-3.69-13.33-5.75-29.44-9.07-43.1-2.52a35.94,35.94,0,0,0-20,27.67c-.36,2.72,3.92,2.69,4.27,0Z"/><path class="cls-9" d="M1242.39,1346.82c7.83-26.68,43.37-32,64.56-18.79,2.33,1.46,4.48-2.23,2.15-3.68-23.59-14.72-62.23-8-70.83,21.34-.77,2.64,3.34,3.77,4.12,1.13Z"/><path class="cls-9" d="M1213,1333.72c-7.66-11.22-.62-25,10.39-30.86,12.94-6.85,29.36-5.39,42.33.55,2.48,1.13,4.66-2.55,2.16-3.69-15-6.86-34.73-8.57-49.1.91-11.5,7.58-17.79,23-9.47,35.24,1.54,2.26,5.24.12,3.69-2.15Z"/><path class="cls-9" d="M1282.18,991.76a811.61,811.61,0,0,0-.82,212.18,2.19,2.19,0,0,0,2.13,2.13c11.76-.11,24.51,8.75,19.17,21.75-1.05,2.54,3.08,3.65,4.11,1.14,6.41-15.58-8.94-27.29-23.28-27.16l2.14,2.14a807.25,807.25,0,0,1,.67-211c.36-2.69-3.75-3.85-4.12-1.14Z"/><path class="cls-9" d="M1304.84,1230.55c9.24-.63,18.82,2.63,24.92,9.83,7.13,8.42,6.13,20,.65,28.93a2.15,2.15,0,0,0,1.84,3.21c9.4-.89,21.38,6.38,14.67,16.92a2.15,2.15,0,0,0,1.27,3.14c15.13,3.09,29.71,17.61,23.92,34-.91,2.59,3.21,3.71,4.12,1.13,6.54-18.49-9.58-35.7-26.9-39.24l1.27,3.13c8.36-13.11-5.51-24.56-18.35-23.34l1.85,3.21c6.14-10,7.18-22.85-.13-32.61-6.69-8.93-18.19-13.32-29.13-12.57-2.73.19-2.75,4.46,0,4.27Z"/><path class="cls-9" d="M1282.41,1222.91c13.33-.27,28.58,10.89,20.24,25.28-1.38,2.39,2.31,4.54,3.69,2.16,10-17.16-7.22-32-23.93-31.71-2.74,0-2.75,4.32,0,4.27Z"/><path class="cls-9" d="M1236.88,1253.23c.78-13.73,19.37-19.33,28.52-9.68,1.9,2,4.91-1,3-3-11.85-12.5-34.83-4.6-35.81,12.7-.16,2.75,4.11,2.74,4.27,0Z"/><path class="cls-9" d="M1303.29,1264.82c7.93-2.4,18.49.68,22,8.76,1.82,4.18,1.16,8.84-.9,12.8s-5.14,5.83-8.22,8.72a2.15,2.15,0,0,0-.33,2.59,2.71,2.71,0,0,0,2.62,1.37,2.15,2.15,0,0,0,2.13-2.14l0-.23c-.31-2.7-4.58-2.73-4.27,0l0,.23,2.14-2.13h-.53l1.84,1.06-.24-.33-.34,2.59c4-3.79,7.84-6.55,10-12a18.49,18.49,0,0,0-.34-15.12c-4.74-9.39-17-13.26-26.69-10.34-2.63.79-1.51,4.91,1.13,4.12Z"/><path class="cls-9" d="M1339.76,1336.24c11.88-6.75,27.34-9,40-3.09,10.6,4.92,19.2,15.93,17.3,28.09-.43,2.69,3.69,3.85,4.11,1.14,2.13-13.57-6.11-26.13-18-32.29-14.27-7.4-32-5.29-45.65,2.46-2.39,1.36-.24,5,2.16,3.69Z"/><path class="cls-9" d="M1337,1358.23c11.78-1,25.33.57,34.7,8.49,11.83,10,9.76,25.73,6.62,39.17-.62,2.67,3.49,3.81,4.12,1.13,3.38-14.49,5.26-31.18-6.71-42.42-10.11-9.49-25.42-11.75-38.73-10.64-2.72.23-2.74,4.5,0,4.27Z"/><path class="cls-9" d="M1377.94,1370a34.94,34.94,0,0,1,32-2.16c9.66,4.41,16.52,14.56,14.08,25.33-.6,2.68,3.51,3.82,4.12,1.13,2.74-12.07-4-23.9-14.74-29.51-11.6-6-26.5-5.28-37.58,1.52-2.34,1.43-.2,5.13,2.15,3.69Z"/><path class="cls-9" d="M1410,1367.75c14-11,37.75-8.62,46.52,7.87,1.29,2.42,5,.27,3.69-2.16-10.17-19.11-37.18-21.35-53.22-8.73-2.16,1.7.88,4.7,3,3Z"/><path class="cls-9" d="M1442.16,1390.39c3.07-8.2,11.26-13.76,19.9-14.41,7.92-.59,17.61,3.1,20.29,11.2.86,2.6,5,1.48,4.12-1.13-3.28-9.92-14.47-15-24.41-14.34a27.65,27.65,0,0,0-24,17.54c-1,2.58,3.16,3.69,4.12,1.14Z"/><path class="cls-9" d="M1462.61,1374.44c-1.4-12.09,8.79-21.35,18.56-26.54a64.81,64.81,0,0,1,33.28-7.21c21,1,45.79,15.81,43.71,39.71-.24,2.74,4,2.72,4.27,0,2.28-26.29-24.76-42.86-48-44a68.16,68.16,0,0,0-38.08,9.29c-10,6-19.48,16.27-18,28.73.32,2.7,4.59,2.73,4.27,0Z"/><path class="cls-9" d="M1447.17,1404.07c16.52-4.48,35.28.87,47.4,12.89a50.42,50.42,0,0,1,13.1,23.78,66.08,66.08,0,0,1,1.85,13.5c.14,3.72-.71,7.59-.42,11.22a2.21,2.21,0,0,0,2.13,2.14l.41,0a2.11,2.11,0,0,0,1.85-1.05l.23-.38a2.16,2.16,0,0,0-1.84-3.22h-.21c-2.75-.16-2.74,4.11,0,4.27h.21L1510,1464l-.23.38,1.84-1.06-.41,0,2.14,2.13c-.37-4.69.62-9.59.24-14.37a69.1,69.1,0,0,0-2.44-13.78,53.81,53.81,0,0,0-14.59-24.34c-13.26-12.36-33-17.78-50.54-13-2.65.72-1.52,4.84,1.13,4.11Z"/><path class="cls-9" d="M1524.18,1382.82c14.49-2.57,29.91-3.74,44.06,1.18a41.27,41.27,0,0,1,15.61,9.31c5.68,5.64,7.6,12.84,8.48,20.58a2.19,2.19,0,0,0,2.14,2.14,3.49,3.49,0,0,0,3.35-1.8c1.65-2.2-2.06-4.33-3.69-2.15l-.52.69,1.85-1-1,0,2.13,2.13c-.83-7.35-2.33-14.51-7-20.46-4.32-5.57-10.42-9.52-16.86-12.23-15.72-6.62-33.32-5.41-49.73-2.49-2.7.48-1.56,4.59,1.13,4.11Z"/><path class="cls-9" d="M1581.43,1386.71c13-22.2,46.7-24.33,65-7.66,2,1.85,5-1.16,3-3-20.27-18.51-57.17-16.12-71.65,8.53-1.4,2.37,2.29,4.52,3.68,2.15Z"/><path class="cls-9" d="M1616.13,1365.87c-.77-10.26,9.77-18.4,17.43-23.53a84,84,0,0,1,26.35-11.57,90.81,90.81,0,0,1,60.64,6.06c2.47,1.18,4.64-2.5,2.16-3.68a95.44,95.44,0,0,0-67.17-5.63,85.75,85.75,0,0,0-28.21,14.06c-7.59,5.81-16.25,13.87-15.47,24.29.2,2.72,4.47,2.74,4.27,0Z"/><path class="cls-9" d="M1723.44,1334.58c-2.23-13.14,3.89-25.95,13.62-34.6,10.48-9.32,24.62-13.25,38.46-12.57,13.53.67,27.66,5.71,36.58,16.29,9.25,11,11,26.42,3.7,38.84-1.4,2.37,2.29,4.52,3.69,2.15,13-22.07-.34-47.53-22.43-56.79-22.6-9.49-51.67-5.21-67.88,14.06-8,9.46-11.94,21.47-9.86,33.76.46,2.7,4.58,1.56,4.12-1.14Z"/><path class="cls-9" d="M1663.07,1401.9c-8.07-18.09,4-37.52,20.4-45.73,18.63-9.36,42.42-7.52,60.42,2.38,2.41,1.32,4.57-2.36,2.16-3.69-20.12-11.06-47.12-12.72-67.36-1-17.25,10-27.85,31-19.31,50.16,1.12,2.5,4.8.33,3.69-2.16Z"/><path class="cls-9" d="M1597,1465.17c-12.33-18-.72-38.21,15.8-48.28,17.78-10.84,39.36-12.63,59.69-11.5,2.75.16,2.74-4.12,0-4.27-23-1.28-48,1.29-67,15.55-15.77,11.87-24.29,33-12.22,50.66,1.55,2.25,5.25.12,3.69-2.16Z"/><path class="cls-9" d="M1541.85,1498.31c11.31-19.11,33.56-28.68,55.21-28.54,18.49.12,45.25,8.46,48.16,30,.37,2.71,4.48,1.56,4.12-1.14-3.09-22.78-30.71-32.47-50.51-33.07-23.7-.73-48.3,9.71-60.67,30.61-1.4,2.37,2.29,4.52,3.69,2.16Z"/><path class="cls-9" d="M1677.82,1449.13c-.31-12.55,5.14-22.35,16-28.69,10.19-6,22.35-8.6,34.09-8.53,21.45.14,45.07,10.84,52.6,32.28.91,2.57,5,1.47,4.12-1.14-8.39-23.88-34.45-35.83-58.47-35.4-13.12.24-27,3.62-37.87,11.26-10.25,7.22-15,17.77-14.73,30.22.07,2.74,4.34,2.75,4.27,0Z"/><path class="cls-9" d="M1821.93,1490.62c8-6.89,17.62-11.49,24.36-19.77a44.14,44.14,0,0,0,9.9-23.26c1.87-18-9.52-33.9-24.44-42.71-2.37-1.4-4.52,2.29-2.16,3.69,14.4,8.49,25.1,24,22,41.35a40.71,40.71,0,0,1-11.47,21.41c-6.32,6.33-14.46,10.43-21.2,16.27-2.08,1.8.95,4.81,3,3Z"/><path class="cls-9" d="M1829.15,1387.08c.76-9.2,2.87-19.5.12-28.53a29.58,29.58,0,0,0-11.32-15.12c-12.55-9-30.18-8.9-43.23-1-2.35,1.42-.21,5.11,2.15,3.69,11.78-7.09,27.65-7.2,38.93,1,13.39,9.78,10.27,25.52,9.08,40-.22,2.74,4,2.73,4.27,0Z"/><path class="cls-9" d="M1822,1351.16c19.55-1.08,41.61,7.41,49.37,26.74,7.49,18.7-3.38,39-17.71,50.88-2.12,1.76.92,4.77,3,3,15.95-13.26,27-36,18.24-56.37s-31.9-29.71-52.92-28.54c-2.73.15-2.75,4.42,0,4.27Z"/><path class="cls-9" d="M1855,1450.4c12.27,4.69,23.92,15.07,23.41,29.21-.5,13.62-7.89,27.28-19.65,34.22-2.37,1.4-.22,5.09,2.15,3.69,13.41-7.91,22.17-24.15,21.79-39.78-.37-15.3-13.23-26.36-26.56-31.46-2.57-1-3.68,3.15-1.14,4.12Z"/><path class="cls-9" d="M1248,996.42c8.76,60.56,10.49,122.67,9.6,183.78,0,2.75,4.23,2.75,4.27,0,.9-61.51-.93-124-9.75-184.92-.39-2.7-4.51-1.55-4.12,1.14Z"/><path class="cls-9" d="M1267.5,995.22a369,369,0,0,0-4,46.23c-.07,2.75,4.2,2.75,4.27,0a358.28,358.28,0,0,1,3.9-45.09c.4-2.69-3.71-3.85-4.12-1.14Z"/></svg>