<svg id="Layer_1" data-name="Layer 1" xmlns="http://www.w3.org/2000/svg" viewBox="0 0 2000 1629.63"><defs><style>.cls-1{fill:#84d2e1;}.cls-2,.cls-5{fill:#fff;}.cls-2,.cls-4{opacity:0.75;}.cls-3{fill:#6f69af;}.cls-6,.cls-8{fill:#f4806e;}.cls-6{stroke:#f4806e;stroke-miterlimit:10;stroke-width:0.54px;opacity:0.5;}.cls-7{fill:#ffdd76;}</style></defs><title>Website - All Illustrations</title><path class="cls-1" d="M1324.58,303c-10.49-5.86-21.27-11.82-33.15-13.58s-25.39-.31-32.45,9.41c-16.09-9.95-38.53-10.62-56-3.27-3.33-9.92-18-14.74-27.14-9.74a25.75,25.75,0,0,0-45.35-18.94,11.07,11.07,0,0,0-11.76-4.37c-4.3,1.17-6.34,2.61-6.62,7.06-6.16-13.32-17.06-24.77-30.83-29.88s-30.34-3.23-41.56,6.24-16.61,25.84-10,39a46.63,46.63,0,0,0-38.19-16.69c-14.39.86-28.51,9.51-36.26,21.66-6.26-7.65-18.7-9.23-26.68-3.4-3.24-7.31-13.86-9.42-19.43-3.68a26,26,0,0,0-5.7-25.39c-6.26-6.61-13.83-8.12-22.63-5.76.87-5.2,1.73-10.55.64-15.71s-4.61-10.16-9.73-11.41-8,2.17-7.73,7.43a43.48,43.48,0,0,0-76.93,4.32,42.15,42.15,0,0,0-.27,33.14,36.35,36.35,0,0,0-10-10.29c-7.52-4.91-18.86-5.18-24.49,1.82-3.78,4.69-4.08,11.45-2.28,17.2a56.44,56.44,0,0,0,8.17,16.21,13.66,13.66,0,0,0-12.38-6,13,13,0,0,0-11,7.67c-5.6-4.22-13.39-3.35-20.32-2.28-25.27,3.91-49.57,11.16-74.62,14.07h-.11A174.94,174.94,0,0,1,619.55,309h37.67a2021.46,2021.46,0,0,0,209.31,3.39c22.36-.8,44.72,5.95,66.33.13,51.38,17.46,108.49,17.31,159.62-.88a310.05,310.05,0,0,0,102.39,6.3c22.11-2.29,44.5,4.74,64.15-5.65,12,4.69,26,4.42,37.33-1.74,7.62,5,26.28-1.55,62.66-1.55C1346.17,305.42,1336.22,309.49,1324.58,303Z"/><path class="cls-2" d="M1324.58,303c-10.49-5.86-21.27-11.82-33.15-13.58s-25.39-.31-32.45,9.41c-16.09-9.95-38.53-10.62-56-3.27-3.33-9.92-18-14.74-27.14-9.74a25.75,25.75,0,0,0-45.35-18.94,11.07,11.07,0,0,0-11.76-4.37c-4.3,1.17-6.34,2.61-6.62,7.06-6.16-13.32-17.06-24.77-30.83-29.88s-30.34-3.23-41.56,6.24-16.61,25.84-10,39a46.63,46.63,0,0,0-38.19-16.69c-14.39.86-28.51,9.51-36.26,21.66-6.26-7.65-18.7-9.23-26.68-3.4-3.24-7.31-13.86-9.42-19.43-3.68a26,26,0,0,0-5.7-25.39c-6.26-6.61-13.83-8.12-22.63-5.76.87-5.2,1.73-10.55.64-15.71s-4.61-10.16-9.73-11.41-8,2.17-7.73,7.43a43.48,43.48,0,0,0-76.93,4.32,42.15,42.15,0,0,0-.27,33.14,36.35,36.35,0,0,0-10-10.29c-7.52-4.91-18.86-5.18-24.49,1.82-3.78,4.69-4.08,11.45-2.28,17.2a56.44,56.44,0,0,0,8.17,16.21,13.66,13.66,0,0,0-12.38-6,13,13,0,0,0-11,7.67c-5.6-4.22-13.39-3.35-20.32-2.28-25.27,3.91-49.57,11.16-74.62,14.07h-.11A174.94,174.94,0,0,1,619.55,309h37.67a2021.46,2021.46,0,0,0,209.31,3.39c22.36-.8,44.72,5.95,66.33.13,51.38,17.46,108.49,17.31,159.62-.88a310.05,310.05,0,0,0,102.39,6.3c22.11-2.29,44.5,4.74,64.15-5.65,12,4.69,26,4.42,37.33-1.74,7.62,5,26.28-1.55,62.66-1.55C1346.17,305.42,1336.22,309.49,1324.58,303Z"/><path class="cls-1" d="M83.61,1441.34c-40.94-54.6-52.52-126.75-29.65-184.78s79.43-100,144.87-107.58c32.67-3.77,68.21.19,96.76-13.75,30-14.63,45.63-45.71,61.05-74.37C460,868.79,633.07,709,854.46,654.24s491.37,10.68,653.86,188.67c51.13,56,91.41,121.68,151,169.27,41.44,33.08,90.32,55.79,132.88,87.47,95.37,71,145.68,231.29,153.55,342"/><path class="cls-2" d="M83.61,1441.34c-40.94-54.6-52.52-126.75-29.65-184.78s79.43-100,144.87-107.58c32.67-3.77,68.21.19,96.76-13.75,30-14.63,45.63-45.71,61.05-74.37C460,868.79,633.07,709,854.46,654.24s491.37,10.68,653.86,188.67c51.13,56,91.41,121.68,151,169.27,41.44,33.08,90.32,55.79,132.88,87.47,95.37,71,145.68,231.29,153.55,342"/><path class="cls-3" d="M1421.27,1437.38l83-79.84c2.4-2.3,5.1-4.73,8.26-4.7,2.81,0,5.26,2,7.94,3,8,2.82,25.79-37.32,35.79-40.67,68.81-23,84-86,137-147.51,12,12.06,17.66,24.12,29.66,36.18s24.15,24.28,34.3,38.38c6.73,9.35,12.74,19.68,21.51,26.6,4.88,3.83,10.43,6.46,15.47,10,7.73,5.45,14.11,13,20.31,20.47,37.85,45.77,97.13,97.49,132.07,146.06"/><g class="cls-4"><path class="cls-5" d="M1421.27,1437.38l83-79.84c2.4-2.3,5.1-4.73,8.26-4.7,2.81,0,5.26,2,7.94,3,8,2.82,25.79-37.32,35.79-40.67,68.81-23,84-86,137-147.51,12,12.06,17.66,24.12,29.66,36.18s24.15,24.28,34.3,38.38c6.73,9.35,12.74,19.68,21.51,26.6,4.88,3.83,10.43,6.46,15.47,10,7.73,5.45,14.11,13,20.31,20.47,37.85,45.77,97.13,97.49,132.07,146.06"/></g><path class="cls-3" d="M564.8,1437.38l-83-107.46c-2.4-3.1-5.1-6.38-8.26-6.33-2.8,0-5.26,2.71-7.93,4-8,3.78-25.8-50.25-35.8-54.76-68.8-31-84-115.74-137-198.55-12,16.24-17.66,32.47-29.66,48.7s-24.15,32.68-34.3,51.67c-6.73,12.58-12.74,26.49-21.51,35.79-4.87,5.17-10.42,8.71-15.47,13.49-7.73,7.35-14.1,17.46-20.31,27.56-37.84,61.61-65.35,102.92-100.28,168.29"/><g class="cls-4"><path class="cls-5" d="M564.8,1437.38l-83-107.46c-2.4-3.1-5.1-6.38-8.26-6.33-2.8,0-5.26,2.71-7.93,4-8,3.78-25.8-50.25-35.8-54.76-68.8-31-84-115.74-137-198.55-12,16.24-17.66,32.47-29.66,48.7s-24.15,32.68-34.3,51.67c-6.73,12.58-12.74,26.49-21.51,35.79-4.87,5.17-10.42,8.71-15.47,13.49-7.73,7.35-14.1,17.46-20.31,27.56-37.84,61.61-65.35,102.92-100.28,168.29"/></g><path class="cls-1" d="M1506.19,752.36c5.87-3.28,11.91-6.62,18.56-7.61s14.22-.17,18.17,5.27c9-5.57,21.58-5.94,31.34-1.83,1.87-5.55,10-8.25,15.2-5.45a14.41,14.41,0,0,1,25.39-10.6,6.2,6.2,0,0,1,6.58-2.46c2.41.66,3.55,1.47,3.71,4,3.45-7.46,9.55-13.87,17.26-16.73s17-1.81,23.27,3.49,9.3,14.47,5.63,21.83a26.08,26.08,0,0,1,21.38-9.34A26.8,26.8,0,0,1,1713,745a11.35,11.35,0,0,1,14.93-1.9c1.82-4.09,7.77-5.28,10.88-2.06a14.55,14.55,0,0,1,3.2-14.22c3.5-3.7,7.74-4.55,12.66-3.22-.48-2.92-1-5.91-.35-8.8s2.58-5.69,5.45-6.39,4.49,1.21,4.33,4.16a24.34,24.34,0,0,1,43.07,2.42,23.62,23.62,0,0,1,.15,18.55,20.25,20.25,0,0,1,5.58-5.75c4.21-2.76,10.56-2.91,13.72,1,2.11,2.63,2.28,6.42,1.27,9.64a31.59,31.59,0,0,1-4.57,9.07,7.62,7.62,0,0,1,6.93-3.38,7.27,7.27,0,0,1,6.14,4.29c3.14-2.36,7.5-1.87,11.38-1.27,14.15,2.18,27.75,6.25,41.78,7.87h.06a97.28,97.28,0,0,0,11.35.7h-21.09a1128.67,1128.67,0,0,1-117.2,1.9c-12.52-.44-25,3.34-37.13.07a137.16,137.16,0,0,1-89.38-.48,173.76,173.76,0,0,1-57.33,3.52c-12.38-1.28-24.91,2.65-35.92-3.16a25.13,25.13,0,0,1-20.9-1c-4.27,2.78-14.71-.87-35.09-.87C1494.11,753.72,1499.67,756,1506.19,752.36Z"/><path class="cls-2" d="M1506.19,752.36c5.87-3.28,11.91-6.62,18.56-7.61s14.22-.17,18.17,5.27c9-5.57,21.58-5.94,31.34-1.83,1.87-5.55,10-8.25,15.2-5.45a14.41,14.41,0,0,1,25.39-10.6,6.2,6.2,0,0,1,6.58-2.46c2.41.66,3.55,1.47,3.71,4,3.45-7.46,9.55-13.87,17.26-16.73s17-1.81,23.27,3.49,9.3,14.47,5.63,21.83a26.08,26.08,0,0,1,21.38-9.34A26.8,26.8,0,0,1,1713,745a11.35,11.35,0,0,1,14.93-1.9c1.82-4.09,7.77-5.28,10.88-2.06a14.55,14.55,0,0,1,3.2-14.22c3.5-3.7,7.74-4.55,12.66-3.22-.48-2.92-1-5.91-.35-8.8s2.58-5.69,5.45-6.39,4.49,1.21,4.33,4.16a24.34,24.34,0,0,1,43.07,2.42,23.62,23.62,0,0,1,.15,18.55,20.25,20.25,0,0,1,5.58-5.75c4.21-2.76,10.56-2.91,13.72,1,2.11,2.63,2.28,6.42,1.27,9.64a31.59,31.59,0,0,1-4.57,9.07,7.62,7.62,0,0,1,6.93-3.38,7.27,7.27,0,0,1,6.14,4.29c3.14-2.36,7.5-1.87,11.38-1.27,14.15,2.18,27.75,6.25,41.78,7.87h.06a97.28,97.28,0,0,0,11.35.7h-21.09a1128.67,1128.67,0,0,1-117.2,1.9c-12.52-.44-25,3.34-37.13.07a137.16,137.16,0,0,1-89.38-.48,173.76,173.76,0,0,1-57.33,3.52c-12.38-1.28-24.91,2.65-35.92-3.16a25.13,25.13,0,0,1-20.9-1c-4.27,2.78-14.71-.87-35.09-.87C1494.11,753.72,1499.67,756,1506.19,752.36Z"/><path class="cls-1" d="M334.29,1005.39c-3.78-2.11-7.66-4.26-12-4.9s-9.14-.11-11.69,3.4c-5.8-3.59-13.89-3.83-20.17-1.18-1.2-3.58-6.47-5.32-9.78-3.51a9.28,9.28,0,0,0-16.34-6.83,4,4,0,0,0-4.24-1.57c-1.55.42-2.29.94-2.39,2.54a20.58,20.58,0,0,0-11.11-10.77,15.36,15.36,0,0,0-15,2.25c-4,3.41-6,9.31-3.62,14a16.75,16.75,0,0,0-13.76-6,17.23,17.23,0,0,0-13.07,7.8,7.31,7.31,0,0,0-9.61-1.23,4.45,4.45,0,0,0-7-1.32,9.32,9.32,0,0,0-2-9.15c-2.26-2.38-5-2.93-8.15-2.08a15.22,15.22,0,0,0,.22-5.66,5.19,5.19,0,0,0-3.5-4.11c-1.85-.46-2.9.78-2.79,2.68a15.66,15.66,0,0,0-27.72,1.56,15.19,15.19,0,0,0-.1,11.94,13,13,0,0,0-3.59-3.71c-2.71-1.77-6.8-1.87-8.83.65a6.77,6.77,0,0,0-.82,6.2,20,20,0,0,0,3,5.84,5,5,0,0,0-4.47-2.17,4.66,4.66,0,0,0-4,2.76c-2-1.52-4.82-1.2-7.32-.82-9.11,1.41-17.87,4-26.89,5.07h0a65.8,65.8,0,0,1-7.31.45H93.79a727.25,727.25,0,0,0,75.43,1.22c8.06-.29,16.11,2.15,23.9.05a88.26,88.26,0,0,0,57.53-.32,111.65,111.65,0,0,0,36.9,2.27c8-.83,16,1.71,23.11-2a16.18,16.18,0,0,0,13.46-.62c2.74,1.79,9.47-.56,22.58-.56C342.07,1006.27,338.49,1007.74,334.29,1005.39Z"/><path class="cls-2" d="M334.29,1005.39c-3.78-2.11-7.66-4.26-12-4.9s-9.14-.11-11.69,3.4c-5.8-3.59-13.89-3.83-20.17-1.18-1.2-3.58-6.47-5.32-9.78-3.51a9.28,9.28,0,0,0-16.34-6.83,4,4,0,0,0-4.24-1.57c-1.55.42-2.29.94-2.39,2.54a20.58,20.58,0,0,0-11.11-10.77,15.36,15.36,0,0,0-15,2.25c-4,3.41-6,9.31-3.62,14a16.75,16.75,0,0,0-13.76-6,17.23,17.23,0,0,0-13.07,7.8,7.31,7.31,0,0,0-9.61-1.23,4.45,4.45,0,0,0-7-1.32,9.32,9.32,0,0,0-2-9.15c-2.26-2.38-5-2.93-8.15-2.08a15.22,15.22,0,0,0,.22-5.66,5.19,5.19,0,0,0-3.5-4.11c-1.85-.46-2.9.78-2.79,2.68a15.66,15.66,0,0,0-27.72,1.56,15.19,15.19,0,0,0-.1,11.94,13,13,0,0,0-3.59-3.71c-2.71-1.77-6.8-1.87-8.83.65a6.77,6.77,0,0,0-.82,6.2,20,20,0,0,0,3,5.84,5,5,0,0,0-4.47-2.17,4.66,4.66,0,0,0-4,2.76c-2-1.52-4.82-1.2-7.32-.82-9.11,1.41-17.87,4-26.89,5.07h0a65.8,65.8,0,0,1-7.31.45H93.79a727.25,727.25,0,0,0,75.43,1.22c8.06-.29,16.11,2.15,23.9.05a88.26,88.26,0,0,0,57.53-.32,111.65,111.65,0,0,0,36.9,2.27c8-.83,16,1.71,23.11-2a16.18,16.18,0,0,0,13.46-.62c2.74,1.79,9.47-.56,22.58-.56C342.07,1006.27,338.49,1007.74,334.29,1005.39Z"/><path class="cls-3" d="M1946.61,1446.06c-55.36-47.66-135-104-190.39-151.66-4.79-4.12-10.19-8.48-16.51-8.42-5.61,0-10.52,3.6-15.88,5.29-16,5-51.59-66.85-71.59-72.85-137.61-41.28-168-154-274-264.17-24,21.6-35.31,43.2-59.32,64.8s-48.29,43.48-68.6,68.73c-13.46,16.74-25.47,35.25-43,47.63-9.75,6.88-20.85,11.58-30.93,17.95-15.47,9.77-28.21,23.23-40.63,36.67-75.68,82-145.62,159-215.5,246"/><g class="cls-4"><path class="cls-5" d="M1946.61,1446.06c-55.36-47.66-135-104-190.39-151.66-4.79-4.12-10.19-8.48-16.51-8.42-5.61,0-10.52,3.6-15.88,5.29-16,5-51.59-66.85-71.59-72.85-137.61-41.28-168-154-274-264.17-24,21.6-35.31,43.2-59.32,64.8s-48.29,43.48-68.6,68.73c-13.46,16.74-25.47,35.25-43,47.63-9.75,6.88-20.85,11.58-30.93,17.95-15.47,9.77-28.21,23.23-40.63,36.67-75.68,82-145.62,159-215.5,246"/></g><path class="cls-3" d="M67.75,1432.86c30.06-27,52.66-37.41,82.73-64.42,8.28-7.44,16.87-15.06,27.4-18.67,8.58-2.94,18-3,26.49-6.07,11.94-4.26,21.07-13.85,29.7-23.13Q466.59,1070.4,674.89,799.09C697.59,844.41,739,877,779,908l95.67,74.09c4.29,3.33,16.31,11.79,19.35,16.29,7,10.35,21.57,23.85,26.18,21,34.15,35.33,60.15,56,102.49,80.93q90.72,53.43,181.52,106.75,94.37,55.35,188.94,110.34c75.23,43.75,161.26,90.26,241.07,124.94"/><g class="cls-4"><path class="cls-3" d="M67.75,1432.86c30.06-27,52.66-37.41,82.73-64.42,8.28-7.44,16.87-15.06,27.4-18.67,8.58-2.94,18-3,26.49-6.07,11.94-4.26,21.07-13.85,29.7-23.13Q466.59,1070.4,674.89,799.09C697.59,844.41,739,877,779,908l95.67,74.09c4.29,3.33,16.31,11.79,19.35,16.29,7,10.35,21.57,23.85,26.18,21,34.15,35.33,60.15,56,102.49,80.93q90.72,53.43,181.52,106.75,94.37,55.35,188.94,110.34c75.23,43.75,161.26,90.26,241.07,124.94"/></g><g class="cls-4"><path class="cls-5" d="M67.75,1432.86c30.06-27,52.66-37.41,82.73-64.42,8.28-7.44,16.87-15.06,27.4-18.67,8.58-2.94,18-3,26.49-6.07,11.94-4.26,21.07-13.85,29.7-23.13Q466.59,1070.4,674.89,799.09C697.59,844.41,739,877,779,908l95.67,74.09c4.29,3.33,16.31,11.79,19.35,16.29,7,10.35,21.57,23.85,26.18,21,34.15,35.33,60.15,56,102.49,80.93q90.72,53.43,181.52,106.75,94.37,55.35,188.94,110.34c75.23,43.75,161.26,90.26,241.07,124.94"/><g class="cls-4"><path class="cls-5" d="M67.75,1432.86c30.06-27,52.66-37.41,82.73-64.42,8.28-7.44,16.87-15.06,27.4-18.67,8.58-2.94,18-3,26.49-6.07,11.94-4.26,21.07-13.85,29.7-23.13Q466.59,1070.4,674.89,799.09C697.59,844.41,739,877,779,908l95.67,74.09c4.29,3.33,16.31,11.79,19.35,16.29,7,10.35,21.57,23.85,26.18,21,34.15,35.33,60.15,56,102.49,80.93q90.72,53.43,181.52,106.75,94.37,55.35,188.94,110.34c75.23,43.75,161.26,90.26,241.07,124.94"/></g></g><path class="cls-5" d="M962.26,739.88c29.09,0,103.5,51.47,159,115.62,46,53.21,57.41,76.39,113.42,118.14,43.14,32.16,91.67,57.06,130.22,94.93,40.33,39.61,67.89,91.67,109.27,130.1,23.55,21.87,51,38.76,78.47,55,126.18,74.56,258.47,137.6,394.39,190.83,36,27.63-163,13.94-244.54,16.9-88.43,3.21-176.45-12.63-264.89-15.27-148.68-4.45-296.19,28.38-444.9,31.4-145.46,3-290.14-22.65-435.6-25.56-128.15-2.57-256-2.51-384.17-6.6-17.85-.57-72-1.52-90.11-3.75-18.76-2.31-26.15-13.74-10.69-21.29,47.79-23.32,126.18-48.27,172.41-74.88,181.8-104.63,172.37-182.23,381.05-326.56C723.81,951,892.26,739.88,962.26,739.88Z"/><path class="cls-6" d="M857.15,828.43c4.66.08,9.3.85,14,.62,9.36-.46,18.44-4.94,27.73-3.72,4.76.62,9.18,2.7,13.72,4.23,10.19,3.43,21.07,4.08,31.81,4.68,16.19.89,32.5,1.69,48.56-.54,8.32-1.16,16.6-3.14,25-2.86,9.91.33,19.61,3.8,29.51,3.25,7.41-.41,14.54-3.06,21.92-3.79,13.38-1.32,56.24,40.52,68.62,45.76-11.9-12.76-53.74-62.17-66-74.57-2.28-2.3-4.64-4.65-7.62-5.9-3.29-1.37-7-1.27-10.55-1.15l-24.76.87c-9.59.34-19.2.68-28.72,1.93s-18.71,3.34-28.18,3.94c-8.39.52-16.8-.15-25.18-.83l-77.33-6.23a8,8,0,0,0-7.9,2.73c-14.91,13.64-76.67,72.27-89.62,87.7,2.84,3,36.24-26.93,40.28-28.42C819.69,853.44,849.32,828.31,857.15,828.43Z"/><path class="cls-7" d="M727.11,928.7c16.87-9.92,38.06,0,55,9.76l14.45,8.34c3.72,2.15,7.59,4.44,9.9,8.07,4.22,6.65,2,15.88,6.1,22.62,2.58,4.27,7.19,6.78,11.36,9.51a80.71,80.71,0,0,1,35.92,63.71c-4.16-11.45-8.47-23.16-16.32-32.48s-20.09-15.9-32.07-13.68c-6.12,1.14-12.19,4.49-18.24,3-12-3-12.17-20.4-20.55-29.51s-22.84-7.95-34.92-5.39a316,316,0,0,0-124.15,56.52c39-33.34,74.46-67.11,113.52-100.45"/><path class="cls-7" d="M217.26,1388.23c27-1.5,54.1-.15,81.08,1.9,11.53.88,23.52,1.82,34.27-2.42,13.35-5.25,22.64-17.62,35.38-24.21,22.52-11.67,52.27-3.69,73.17-18-5.19-10.87-.05-25.49,10.81-30.72a277.28,277.28,0,0,0,108.62-75.54c-17.74,19.6-42.63,30.89-66.77,41.65-4.69,2.09-9.51,4.22-14.63,4.55-5.55.36-11.08-1.41-16.63-1-9.79.63-17.88,7.64-27.12,11-14.57,5.22-30.65.91-45.51-3.43-2.44-.71-5-1.47-6.82-3.2a13.15,13.15,0,0,1-3-4.66,34.59,34.59,0,0,1,.64-27.77c2.24-4.72,5.52-8.85,8.42-13.2a91.69,91.69,0,0,0,10.9-22.65c-23.28,23.93-36.51,36.68-57.61,57.36-27.32,26.77-62,44.83-94.68,64.74-16.57,10.1-31.12,13.4-48.2,22.61-14.23,7.66-46,15.69-56.57,27C165.67,1390.61,194.22,1389.51,217.26,1388.23Z"/><path class="cls-8" d="M866.44,790.52c-51.9,50.09-103.32,100.74-155.93,150.09-25.28,23.7-51.13,46.83-78.36,68.29s-56,41.29-83.27,62.83c-51.86,40.89-95.63,90.26-141,137.91-22.43,23.53-45.38,46.64-70,67.87a495.62,495.62,0,0,1-78.76,55.32c-54.1,30.71-112.68,52.22-169.73,76.63q-11.43,4.89-22.78,9.94c-2.51,1.12-.34,4.8,2.15,3.69,57.39-25.58,116.82-46.75,172.63-75.78a520,520,0,0,0,78.9-49.9c25.95-20.1,49.78-42.84,72.75-66.23,45.79-46.64,88.32-96.68,138-139.3,26.64-22.83,55.38-43,83.41-64,27.65-20.76,54.1-42.95,79.66-66.23,53-48.26,103.79-99,155.34-148.74l20-19.33c2-1.91-1-4.93-3-3Z"/><path class="cls-7" d="M1100,944.55c5,2.2,4.38,9.34,2.87,14.55a367.64,367.64,0,0,1-29.79,72.68c-3.68,6.8-12.15,19.39-12.84,27.09-.57,6.47,4.85,12.46,6.72,18.68,9.78,32.52,22.63,59.17,36.72,90.06q-10.37-51.21-17-103.06c-.39-3-.74-6.13.45-8.89s3.65-4.6,6-6.35q17.67-13.1,35.33-26.2a10.58,10.58,0,0,1,1.75-1c9.59-4.47,17.52-11.92,21.63-21.68,2.71-6.42,4.23-13.13,3.56-20.11-.49-5-2.13-10-1.74-15.07.61-7.84,5.93-14.41,11-20.41a6.56,6.56,0,0,1,3-2.37c1.47-.4,3,.26,4.38.86a71.21,71.21,0,0,0,31,5.74c-6.68.27-24.75-23.25-29.26-28.21-8.08-8.86-16.78-27-26.53-33.21-10.94-7-15.7,13-21.21,21.8A280.57,280.57,0,0,1,1100,944.55Z"/><path class="cls-7" d="M1435.5,1324.22c-16.94,16.68-29.1,37.49-41.06,58,17.72-16.92,36.89-32.81,59.09-43.18s47.87-14.85,71.51-8.4c6.57,1.79,13,4.4,19.76,4.92,14,1.08,27-6.8,40.68-9.72,44.77-9.52,82.86,33.74,123.74,13.12-26.39-12.34-42.77-24.68-69.15-37-21.89-10.24-53.89-33.53-77.84-35C1532.94,1265.14,1449.5,1296.21,1435.5,1324.22Z"/><path class="cls-8" d="M1057.26,794c56.24,44.27,91.69,108.43,144.44,156.2,50.57,45.8,118,69.85,164.06,121.05,50,55.55,88,122.25,151,165,30.8,20.89,64.48,37.5,97.26,55q49.4,26.37,99.41,51.56c68.07,34.17,137.15,66.67,208.13,94.38q12.4,4.85,24.89,9.46c2.58,1,3.7-3.17,1.14-4.12-71-26.24-139.91-57.91-207.75-91.35q-50.94-25.1-101.14-51.66c-32.4-17.09-65.2-33.81-96.75-52.44-16.33-9.64-32.3-20.1-46.77-32.41a384.67,384.67,0,0,1-39.18-39c-24.75-28.07-46.51-58.58-70.28-87.45-11.57-14.06-23.4-27.74-37.19-39.7a383,383,0,0,0-39.6-29.57c-28.29-18.78-58.1-35.34-85.15-55.94C1167.15,919.8,1131.52,856.3,1080,808q-9.51-8.93-19.76-17c-2.13-1.68-5.18,1.32-3,3Z"/><path class="cls-8" d="M1144.17,882.49c-7.87,2.27-11.8,9.36-15.27,16.24a184.17,184.17,0,0,1-17,27.78q-5,6.68-10.66,12.87c-2,2.25-3.83,4.54-6.81,5.57-1.84.64-3.33.61-4.86,1.95-2.81,2.49-2.51,7-5.55,9.26-2.77,2.05-5.65,2.11-6.92,5.73-.92,2.59,3.21,3.71,4.11,1.13s5.55-3,7.27-5.19a13.9,13.9,0,0,0,1.76-3.29c1.3-3,2.19-4.39,5.33-5.47,7.63-2.63,13.32-11.71,18.12-17.91a178.44,178.44,0,0,0,15-22.78c4.13-7.45,7.56-19.15,16.65-21.77,2.63-.76,1.51-4.88-1.14-4.12Z"/><path class="cls-8" d="M1098.28,945.63c5.07,6.94.81,16.14-1.7,23.31q-4.32,12.34-9.2,24.5-9.83,24.46-21.87,48c-2.83,5.53-8.22,12.25-7.26,18.81.59,4,2.78,8.06,4.23,11.79l4.85,12.44c6.56,16.85,13.05,33.72,19.91,50.45,3.69,9,8.37,17.87,11.51,27,2.21,6.48-2.78,13.75,2.13,19.38,1.81,2.07,4.82-1,3-3-2.4-2.75-.39-7.22-.09-10.38a18,18,0,0,0-1.75-9.07c-3.54-8.38-7.25-16.67-10.7-25.08-6.74-16.44-13.13-33-19.57-49.56l-4.5-11.56c-1.51-3.89-3.68-7.94-4.59-12-1-4.61,2.3-9,4.35-12.92q3.26-6.21,6.34-12.5,11.07-22.49,20.17-45.85c3.35-8.57,6.67-17.22,9.43-26,2.07-6.58,3.31-14-1-19.88-1.6-2.2-5.31-.07-3.69,2.15Z"/><path class="cls-8" d="M729.51,928.15c18.24-4.17,36.73,4.34,52.15,13.27a84.94,84.94,0,0,1,9.63,7c3.5,2.74,7.49,4.81,11.31,7.06,3.14,1.86,6.56,4.68,10.23,5.31,4.06.69,9.14-1,13.13-1.69,2.71-.45,1.56-4.56-1.13-4.12-2.38.39-4.76.8-7.15,1.18-4,.63-6.42-.53-9.78-2.5-4-2.36-8.14-4.55-12-7.13-3.49-2.34-6.45-5.33-10-7.58s-7.37-4.19-11.13-6.1c-14.14-7.2-30.43-12.49-46.39-8.83-2.67.61-1.54,4.73,1.14,4.11Z"/><path class="cls-8" d="M805.4,956.35c1.43,5.67,2.71,11.41,4.3,17,1.16,4.14,3.44,6.72,6.41,9.73a57.85,57.85,0,0,0,11.59,9.65c2.11,1.24,4.4,2.07,6.22,3.74a46.8,46.8,0,0,1,5.7,7.07c6.48,8.94,13,19.32,16.28,29.95a25,25,0,0,1,1.13,9.72c-.23,2.47-1,4.94-.95,7.43a9.57,9.57,0,0,0,4.07,8l-1-2.41-.62,2.88c-.59,2.67,3.53,3.82,4.11,1.13l.63-2.87a2.25,2.25,0,0,0-1-2.42c-4.18-3-.57-11.44-.95-16a39.43,39.43,0,0,0-3.46-12.29A135.44,135.44,0,0,0,842.26,1000c-2.15-2.88-4.32-6.11-7.33-8.16-4.13-2.82-8.31-4.64-12.1-8.12s-7.73-7-9.21-12.2c-1.53-5.38-2.74-10.88-4.11-16.3-.67-2.67-4.79-1.54-4.11,1.13Z"/><path class="cls-8" d="M397.58,1221.26c-4.39,10.26-9.62,20-14.92,29.77-4.23,7.81-7.94,16.34-6.7,25.41.94,7,4.66,13.27,11.2,16.25,8.86,4,19.81,6.29,29.47,7.18,9.83.89,19.15-1.18,28.14-5.12,5.21-2.28,10.13-5.09,15.76-6.23s11.62-.9,17.43-.94c4.47,0,9-.19,13.26-1.72,4.68-1.69,8.93-4.65,13.44-6.75a265.26,265.26,0,0,0,27.6-14.72c9.21-5.69,19.9-11.88,27.32-19.87,1.64-1.75,2.67-4,4.37-5.66,2.37-2.33,5.29-2.46,8.31-3.44,3.54-1.15,6.31-3.14,7.38-6.79.78-2.64-3.34-3.77-4.11-1.14-1.35,4.56-7.62,4.18-11.12,5.77-3.31,1.51-4.55,3.92-6.62,6.71-5.2,7-14.41,12.12-21.63,16.87a247.87,247.87,0,0,1-24,14c-3.69,1.87-7.44,3.58-11.18,5.34-4.4,2.07-8.55,5.17-13.31,6.35-8.84,2.2-18.37.13-27.37,1.75s-16.64,7.08-25.34,9.64c-9.94,2.92-19.9,2.06-29.86-.32-8.13-2-19.17-3.36-23.18-11.72-4.74-9.89.05-20.62,4.87-29.43,5.21-9.51,10.24-19,14.5-29,1.07-2.5-2.61-4.67-3.68-2.15Z"/><path class="cls-8" d="M365.7,1367.15a208.53,208.53,0,0,1,36.75-10.56c6.78-1.31,13.6-2.38,20.41-3.49,5.28-.86,11.25-1.12,16.16-3.38,5.33-2.46,9-7,14.81-8.79,6.4-2,12.82-.22,19.31-.87a19.71,19.71,0,0,0,17.68-16.77c.4-2.68-3.71-3.84-4.12-1.13a15.68,15.68,0,0,1-9.12,12.46c-5.67,2.46-12,.68-17.9,1a30.47,30.47,0,0,0-13.48,4c-4.62,2.67-7.79,6.42-13.25,7.52-11.41,2.31-23,3.59-34.42,5.9a203.6,203.6,0,0,0-34,10c-2.54,1-1.43,5.12,1.13,4.11Z"/><path class="cls-8" d="M438.93,1345v.4l1.57-2.06-.45.17,2.08.54c-.68-.68-.46-5.23-.4-6.49a28.21,28.21,0,0,1,1.23-7.17,22.12,22.12,0,0,1,9.59-12.42c7.63-4.74,16.63-6.19,23.61-12.12,2.1-1.78-.93-4.78-3-3-9,7.61-22.2,7.92-29.75,17.59a28.7,28.7,0,0,0-5.65,14c-.45,3.36-1.3,9.95,1.37,12.65a2.1,2.1,0,0,0,2.07.55l.46-.16a2.18,2.18,0,0,0,1.56-2.06v-.4c-.13-2.73-4.4-2.75-4.27,0Z"/><path class="cls-8" d="M1573.42,1264.75c-18.87-.89-37.44,2.75-55.36,8.41-16.88,5.34-34,11.65-49.83,19.73a86.46,86.46,0,0,0-20.51,14.14c-6.87,6.54-12.92,14-19.21,21.12-6,6.7-12.06,13.36-17,20.85-4.18,6.29-7.2,13.22-10.76,19.87-4.15,7.73-9,14.42-16.86,18.73-6.27,3.47-13.37,6.27-16.36,13.31-1.06,2.5,2.62,4.68,3.69,2.16,2.77-6.54,9.65-8.84,15.41-12.11a40,40,0,0,0,13.37-12.51c4.14-6,7-12.75,10.44-19.18a111.78,111.78,0,0,1,15-21.16c11.44-13.15,22.61-28.18,37.63-37.41s32.44-15.34,49-21.06c19.78-6.82,40.3-11.62,61.35-10.62,2.74.13,2.74-4.14,0-4.27Z"/><path class="cls-8" d="M1707,1337.76c-10.33,4.29-21.33,3.11-32.23,3a170.9,170.9,0,0,0-34.45,3.09c-4,.76-7.8,1.57-10.52,4.76-1.65,1.94-2.74,4-5,5.42-1.92,1.18-4.1,1.92-6.11,2.92-9.49,4.73-17.34,12.11-25,19.31-2,1.88,1,4.9,3,3,7.62-7.18,15.38-14.45,24.91-19,3.54-1.7,7-3,9.47-6.21,1.84-2.35,3.3-4.31,6.26-5.21a63.8,63.8,0,0,1,7.9-1.57,173.74,173.74,0,0,1,33.87-2.15c9.83.26,19.71.61,29-3.23,2.5-1,1.4-5.17-1.14-4.12Z"/><path class="cls-8" d="M1663.5,1339.48c-24.43-10-50.31-18.62-77.09-16a84.21,84.21,0,0,0-33.51,10.22c-6.46,3.69-11.43,6.65-19.05,7.06-5.88.31-11.42.38-16.83,3-2.47,1.19-.31,4.88,2.15,3.69,5.9-2.84,12.45-2,18.76-2.73,5.4-.63,9.59-2.76,14.18-5.55a81.79,81.79,0,0,1,36-11.57c25.84-2.15,50.68,6.32,74.25,16,2.54,1,3.64-3.09,1.13-4.12Z"/><path class="cls-8" d="M607.75,1032.6c11.92-3.68,21.67-11.82,32.12-18.32a288,288,0,0,1,110.55-40.44c2.71-.4,1.56-4.52-1.14-4.12a295.38,295.38,0,0,0-73.86,21.12,288.34,288.34,0,0,0-34,17.48c-11.36,6.83-22,16.21-34.82,20.17-2.62.8-1.5,4.93,1.14,4.11Z"/><path class="cls-8" d="M650.18,1008.55c5.62-2.3,11.27-4.58,17-6.68,3-1.11,6.16-2.34,9.42-2.45,2.78-.08,5.42,1,8.18,1,4.67.13,7.8-2.83,11.88-4.49,6.49-2.64,14.9.81,21.4,2.31,2.68.62,3.82-3.5,1.14-4.12-6-1.37-12.47-3.71-18.69-3.45-5.84.25-10.06,5.57-15.73,5.48-2.76,0-5.39-1.09-8.18-1a29.76,29.76,0,0,0-8.93,2c-6.28,2.2-12.44,4.77-18.59,7.29-2.51,1-1.41,5.16,1.13,4.11Z"/><path class="cls-8" d="M1204.76,947.13a78.08,78.08,0,0,1-19-3.39c-4.53-1.41-9.57-4.76-14.45-4.32-4,.37-6.53,3.63-9,6.41a54.17,54.17,0,0,0-8.61,11.81c-4.75,9.59-2.64,21-2.12,31.26.51,10,0,21,5.24,30,1.4,2.36,5.1.21,3.69-2.16-4.87-8.21-4.19-18.57-4.66-27.79s-2.68-20.41,1.53-29.1a48.36,48.36,0,0,1,8-10.95c1-1.08,2-2.25,3-3.26,2.93-2.79,6.25-1.49,9.49-.22a87.73,87.73,0,0,0,27,6c2.74.15,2.73-4.12,0-4.27Z"/><path class="cls-8" d="M1155.11,999.34l-1-1.35c-1-1.36-3.46-1.45-3.9.51-1,4.42-4.5,6.89-7.41,10s-4.69,6-8.45,8.11c-5.25,3-13.06,7.15-13.79,13.79-.3,2.73,4,2.71,4.27,0,.47-4.26,7.65-7.76,10.9-9.67,2.89-1.7,5.19-3,7.28-5.64,3.87-4.95,9.89-9.09,11.32-15.51l-3.9.51,1,1.36c1.62,2.18,5.32.06,3.69-2.16Z"/><path class="cls-8" d="M873.92,732.1c-27.77.54-53.86-12.48-77.91-26.36s-48.14-29.24-75.46-34.21-55.32.92-82.22,7.73c-14.38,3.63-28.82,7.55-43.64,8.19-39.31,1.68-78.51-22.36-94.84-58.16,23.13,8.78,47.43,15.15,72.16,15.85s50-4.5,71.07-17.47c20.55-12.67,36-31.87,51.57-50.37,25.49-30.37,52.84-60.37,87.66-79.35s78.77-25.33,114.08-7.28c4,2,8.29,7.27,4.91,10.25C894.8,578.27,881,654.81,873.92,732.1Z"/><path class="cls-5" d="M884,500.45c-32.93,11.39-59,36.6-82.59,62.26-4.65,5-9.28,10.2-12.69,16.15-1.26,2.19-2.38,4.7-1.89,7.18.52,2.69,2.78,4.66,4.94,6.34,17.59,13.65,38.37,23.08,54.57,38.34a7.58,7.58,0,0,0,3.12,2.1,12.6,12.6,0,0,0,2.3.19,8.93,8.93,0,0,1,7.81,10.19c-.28,1.39-.89,2.7-1.16,4.09-1.1,5.85,5,11.36,10.93,10.94s10.83-5.41,12.7-11.06a21.06,21.06,0,0,0,.1-12.81c-1.46-4.65-4.49-8.62-7.45-12.49-10.17-13.25-20.54-26.7-34.05-36.52a4.08,4.08,0,0,1,1.67-1.37,142.8,142.8,0,0,1,43.24-15.53,9.74,9.74,0,0,0,4.52-1.63c1.8-1.48,5.45-5.5,5.76-7.82,1.86-14,3.22-25.4,5.08-39.42.51-3.83,1.24-15.75-.77-19.1C897.49,496.07,887.63,499.21,884,500.45Z"/><path class="cls-7" d="M880.54,634.42c-.26-1.22-.67-2.61-1.82-3.09.2,2.91-.42,7-2.45,9.31-2.55,2.88-4.85,2.24-6.76.94,0,0,0,0-.06,0-.23-2.7-.22-5.45-1-8-1-3.46-4.31-8.95-7.85-10.36-4.13-1.64-7.52,4-6.39,7.63a11.54,11.54,0,0,0,2.45,3.7,33.14,33.14,0,0,1,3.47,5,6.73,6.73,0,0,1,1.06,3c0,1.59-.91,3-1.34,4.56-1,3.54,1.18,7.5,4.48,9.13a11.45,11.45,0,0,0,10-.35,7,7,0,0,0,4.74-3.11,15.73,15.73,0,0,0,2.66-9A41.55,41.55,0,0,0,880.54,634.42Z"/><path class="cls-5" d="M888.54,605.89c-8.19,60.81-18.77,121.58-18.88,182.93a7.73,7.73,0,0,0,.58,3.61c1.13,2.15,3.9,2.73,6.31,3.05a697.68,697.68,0,0,0,181.35.3c-2-80.36-11-145.48-18.46-218.31-2.67-26.15-4-52.6-10.39-78.08a103,103,0,0,1-54.19,36.49c-4.55,1.25-9.32,2.18-14,1.42-4.82-.78-9.14-3.32-13.31-5.86q-12.27-7.49-24.13-15.65C916.52,511,908.74,503,901,500.16c-3.39,6.18-2.32,18.29-3,25.51q-1.37,13.64-2.89,27.24Q892.1,579.43,888.54,605.89Z"/><path class="cls-5" d="M902.59,490.63c-.38,2.53-.75,5.17,0,7.62s2.6,4.4,4.41,6.21a147.35,147.35,0,0,0,41.9,29.26c6.49,3,13.48,5.6,20.62,5.11,7.67-.52,14.63-4.52,21.12-8.65a314.47,314.47,0,0,0,31-22.53c2.29-1.88,4.62-3.89,5.89-6.57,1.73-3.69,1.17-8,.57-12q-17.45-117.48-38.06-234.45c-.5-2.83-1.14-5.9-3.35-7.74-1.66-1.38-3.89-1.79-6-2.08a97.48,97.48,0,0,0-27.24.2c-3.87.58-10.16.9-13.52,3-2.92,1.84-2.1,3.82-2.59,7.52-2.55,19.15-5.66,38.25-8.49,57.37L912,427.14Z"/><path class="cls-7" d="M921.53,516c10.9,8.33,22.21,16.87,35.57,20.18a52.58,52.58,0,0,0,48.43-13.32,9.32,9.32,0,0,0,2.29-3.05,9.85,9.85,0,0,0,.38-4.19c-4.79-91.26-22-180.54-31.8-271.34-3.23.07-18.71-.82-21.46.77s-2.3,7.2-2.74,10.54q-1.86,14-3.68,28.05-3.63,28.06-7.09,56.14-6.9,56.16-13.1,112.39Q924.81,484,921.53,516Z"/><path class="cls-8" d="M957.12,553.37c-1.16,1.31-2.36,2.78-2.43,4.52a6.82,6.82,0,0,0,.75,3,26.74,26.74,0,0,0,4.94,7.44c1.41,1.5,3.07,2.95,3.6,4.95.48,1.82-.07,3.75-.61,5.56l-8.08,27.07c-1,3.41-2,7.15-.69,10.42,1,2.38,3,4.11,5.07,5.69q4.3,3.36,8.79,6.49a3.38,3.38,0,0,0,2.12.83,3.25,3.25,0,0,0,1.83-1.08,37.84,37.84,0,0,0,6-8.54c1.4-2.46,2.84-5,3.11-7.83a18.85,18.85,0,0,0-.81-6.45,204.66,204.66,0,0,0-8.17-25.36c-1-2.49-2-5.18-1.32-7.78a13.27,13.27,0,0,1,2.94-4.73c1.88-2.29,3.75-4.91,3.68-7.85a11.32,11.32,0,0,0-1.27-4.45,45.68,45.68,0,0,0-4.52-7.7c-1-1.35-4-6.24-5.74-6.48-1.54-.22-2.74,4.23-3.61,5.54A59.78,59.78,0,0,1,957.12,553.37Z"/><path class="cls-8" d="M846.39,619.49a1.3,1.3,0,0,1,.14-.29q-.27.31,0,.06c-.16.23-.18.12.09,0-.43.24,0,0,.11,0-.3,0-.32,0-.08,0s.22,0-.09,0c.38.21-.34-.21.09,0-.21-.19-.23-.2-.06,0l-.12-.17c.11.21.11.19,0-.06.06.24.06.21,0-.08v.17c0,.24,0,.22,0-.07-.25.42.32-.24,0,.12-.13.2-.12.19,0,0-.15.14-.15.16,0,.06s.12-.08-.05,0c.26-.09.28-.1.05,0,.43-.1-.17-.09.25,0-.23-.07-.23-.07,0,0-.17-.11-.2-.13-.08,0s.1.07-.06-.07c.14.19.14.19,0,0s-.11-.22-.05-.08.06.12,0-.09c0,.28,0,.29,0,0,0,.27,0,.28,0,0a2.14,2.14,0,1,0-4.12-1.14,4.44,4.44,0,0,0,2.91,5.4,4.15,4.15,0,0,0,5.14-2.92,4.09,4.09,0,0,0-2.71-5.14,4.4,4.4,0,0,0-5.12,2.15,2.19,2.19,0,0,0,.77,2.92,2.15,2.15,0,0,0,2.92-.76Z"/><path class="cls-8" d="M902.69,499.35c-14.34-7-29.48,2.37-41.69,9.73a246.69,246.69,0,0,0-38.46,28.84c-11.76,10.68-23.72,22.34-32.79,35.45-3.59,5.17-7.41,11.07-2.69,16.72,4.5,5.4,10.86,9.78,16.56,13.83,14.88,10.56,31.19,19,44.81,31.32a2.16,2.16,0,0,0,3.35-.44c4.87-7.47,9.66-15.69,12.4-24.24,2.38-7.39-6.36-12.57-11.06-17q-10.18-9.66-21-18.57c-5.14-4.2-11.25-9.43-18.07-5.87-2.44,1.28-.28,5,2.15,3.69,6.38-3.33,15.77,7.52,20.07,11.22q7.44,6.4,14.56,13.2,3.38,3.22,6.69,6.54c3.87,3.88,2.06,7.33.08,11.77a127.08,127.08,0,0,1-9.45,17.15l3.35-.43C839,621,824.37,612.82,810.53,603.51c-3.95-2.65-7.84-5.4-11.55-8.38-3.29-2.64-10.75-7.33-9.76-12.4.82-4.17,5.71-9.42,8.25-12.56,3-3.76,6.34-7.33,9.63-10.88A272.57,272.57,0,0,1,848,522.77a228.15,228.15,0,0,1,22.32-14.14c9.08-5,20-10.56,30.24-5.6,2.47,1.2,4.63-2.48,2.16-3.68Z"/><path class="cls-8" d="M842,585.53a165,165,0,0,1,51.89-17.17c2.71-.42,1.56-4.53-1.13-4.11a168.5,168.5,0,0,0-52.92,17.59c-2.43,1.28-.27,5,2.16,3.69Z"/><path class="cls-8" d="M894.69,563.05c-3.31-6.72-5.7-15.82-12.91-19.36-2.45-1.21-4.62,2.48-2.15,3.69,6.3,3.09,8.46,11.91,11.37,17.83,1.22,2.46,4.9.3,3.69-2.16Z"/><path class="cls-8" d="M832.39,622.06c3.9-2.74,6.67-7.47,9.26-11.4a121.64,121.64,0,0,0,8.7-15.72c1.15-2.47-2.53-4.65-3.69-2.15a126.19,126.19,0,0,1-6.76,12.68c-2.56,4.14-5.65,10.09-9.67,12.91-2.23,1.56-.1,5.27,2.16,3.68Z"/><path class="cls-8" d="M851.89,634.82a61.89,61.89,0,0,1,7.83,8.51l.33-2.59a11.28,11.28,0,0,0,.17,17.2c5.89,4.77,14.6,3,19.47-2.28,15-16.33-3.43-37.38-15.34-48.43-2-1.87-5,1.15-3,3,8.85,8.21,19.42,18,19.31,31.11,0,6.39-3.37,13.44-10.11,14.86-7.3,1.53-14.21-6.9-7.46-12.46a2.13,2.13,0,0,0,.34-2.59,68,68,0,0,0-8.5-9.36c-2-1.85-5.06,1.16-3,3Z"/><path class="cls-8" d="M893.71,543.14q-5.67,46-10.62,92c-.3,2.73,4,2.71,4.27,0q4.95-46,10.62-92c.34-2.72-3.94-2.69-4.27,0Z"/><path class="cls-5" d="M1031.43,510.52c-.25-2.1-.48-4.34.43-6.25a10.52,10.52,0,0,1,3.3-3.57c24.1-18.56,58.55-21.69,79.33-43.9,6.06-6.48,10.56-14.22,15.33-21.69a312.07,312.07,0,0,1,20.58-28.55,12.09,12.09,0,0,1,4.26-3.8c1.76-.78,4.12-.53,5.2,1.06a108.52,108.52,0,0,1-.07-18.82c.27-3.3,1.12-7.17,4.17-8.44,4.38-1.81,8.35,3.22,10.45,7.46,7.18-6.47,18-9.59,26.82-5.5s13.19,16.58,7.22,24.19c-6.49,8.25-20.11,7-27.54,14.38-2.83,2.83-4.43,6.62-6,10.29a389.77,389.77,0,0,1-39.07,69.56c-3.87,5.49-7.92,10.91-12.84,15.47s-10.58,8.17-16.23,11.77l-46.31,29.46c-3.94,2.51-16.1,13.39-20.92,11-3-1.46-2.46-6.9-2.79-9.65q-.82-7-1.67-14Z"/><path class="cls-8" d="M937.41,250q-18.36,105.09-32.94,210.8-4.08,29.61-7.86,59.27c-.35,2.72,3.93,2.69,4.27,0q13.41-105,30.57-209.5,4.88-29.75,10.07-59.43c.47-2.69-3.64-3.84-4.11-1.14Z"/><path class="cls-8" d="M939.62,250.87a87.22,87.22,0,0,1,47.57-1.5c2.67.67,3.8-3.45,1.14-4.12a91.61,91.61,0,0,0-49.85,1.51c-2.61.82-1.49,4.94,1.14,4.11Z"/><path class="cls-7" d="M1178.8,400.07c5-2.31,10.46-3.84,14.62-7.42a18.73,18.73,0,0,0,6.34-15.11,16.58,16.58,0,0,1,1.39,31.59c-3.68,1.35-7.7,1.34-11.6,1.83s-9,7.66-11.5,10.67c-1.4,1.68-1.86-1.88-4-2.37a4.65,4.65,0,0,1-2.18-1.58c-3.71-4.07-6.13-5.2-2.61-10A23.69,23.69,0,0,1,1178.8,400.07Z"/><path class="cls-8" d="M1164,427.53a1.55,1.55,0,0,1,.14-.29q-.27.31,0,.06c-.16.23-.18.12.1,0-.44.23,0,0,.1,0-.3,0-.32,0-.08,0s.22,0-.09,0c.38.22-.34-.21.09,0-.21-.18-.23-.2-.06,0l-.12-.17c.11.21.11.19,0-.06.06.24.06.21,0-.08v.17c0,.24,0,.22,0-.07-.25.43.32-.23,0,.12-.13.2-.12.19,0,0-.15.14-.15.16,0,.06s.12-.08,0,0c.26-.09.28-.1,0,0,.43-.11-.17-.1.25,0-.23-.07-.23-.07,0,0-.17-.12-.2-.13-.08-.05s.1.07,0-.07c.13.2.13.19,0,0s-.11-.22,0-.08.06.12,0-.08q0,.41,0,0c0,.27,0,.28,0,0a2.14,2.14,0,1,0-4.12-1.14,4.45,4.45,0,0,0,2.91,5.41,4.16,4.16,0,0,0,5.14-2.93,4.09,4.09,0,0,0-2.71-5.14,4.41,4.41,0,0,0-5.12,2.15,2.19,2.19,0,0,0,.77,2.92,2.14,2.14,0,0,0,2.92-.76Z"/><path class="cls-8" d="M1031.62,507.87c2.82-5.52,8.92-8,14.05-10.94q9.9-5.61,20.21-10.34c12.93-6,27.07-10.64,39.17-18.19,10.77-6.73,16.58-18.77,23.59-28.91a387.7,387.7,0,0,1,28-35.72l-2.59.33a62.63,62.63,0,0,1,16.59,14.18c2.16,2.52,3.65,4.11,2.74,7.46a69.71,69.71,0,0,1-2.85,7.91c-5.13,12.64-12.59,23.67-19.9,35.12l-13.05,20.44c-4.22,6.61-8.12,14-13.74,19.56-5.36,5.31-12.41,9-18.77,12.93q-10.24,6.38-20.5,12.71-23.77,14.69-47.52,29.44c-2.32,1.45-.18,5.15,2.16,3.69,15.53-9.71,31.12-19.31,46.7-28.94q11.49-7.11,23-14.24c6.61-4.11,13.8-8,19.13-13.75s9.11-12.74,13.26-19.24l14.62-22.89c7.7-12.06,15.11-23.66,20.11-37.13,1.94-5.22,3.2-9.13-.42-13.78a66.26,66.26,0,0,0-19.37-17.16,2.16,2.16,0,0,0-2.58.34,395.73,395.73,0,0,0-26.56,33.57c-8.46,12-14.88,25.84-28.46,32.79-13.31,6.81-27.36,12.07-40.8,18.59-6.3,3.05-12.38,6.47-18.48,9.88-4.53,2.54-9,5.37-11.39,10.13-1.25,2.44,2.43,4.6,3.69,2.16Z"/><path class="cls-8" d="M1138.66,423.87c10.6,5.62,17.14,15.25,23.63,25,1.51,2.27,5.21.14,3.69-2.16-6.89-10.34-13.92-20.56-25.17-26.53-2.42-1.29-4.58,2.4-2.15,3.69Z"/><path class="cls-8" d="M1162.69,403.29c-.91-5.26-2.53-11-2.48-16.3,0-2.62.51-5.69,2.49-7.61,3.6-3.49,8.91-.44,8.88,4.13,0,2,2.27,2.6,3.65,1.51,6.89-5.43,16-9,24.65-5.67,9.81,3.78,13.75,16.27,6.24,24.3-6,6.39-13.65,3.15-20.66,6.44-6,2.84-8.91,10.55-11.79,16.1-1.26,2.43,2.42,4.59,3.69,2.15,2.56-4.95,5.23-12.7,10.88-14.76,4.45-1.63,9.44-.43,14-2.22a19.2,19.2,0,0,0,12-19.58c-.84-8.84-7.65-15.51-16.14-17.4-9.47-2.11-18.56,1.84-25.89,7.62l3.64,1.51c.05-7.72-8.82-13.09-15.22-8-8.34,6.63-3.55,20.3-2.05,28.9.47,2.7,4.58,1.56,4.11-1.13Z"/><path class="cls-8" d="M1095.94,528c-11.69,4-24,7.43-34.91,13.28-2.42,1.29-.27,5,2.16,3.69,10.61-5.67,22.55-8.93,33.89-12.85,2.58-.89,1.47-5-1.14-4.12Z"/><path class="cls-8" d="M1097.87,472.75c5.87-2.13,12.13-3.87,17.73-6.65,3.72-1.85,6.91-4.52,7.57-8.79.42-2.69-3.69-3.85-4.11-1.14-.68,4.34-4.83,6-8.49,7.44-4.57,1.78-9.23,3.35-13.84,5-2.56.93-1.45,5.05,1.14,4.11Z"/><path class="cls-8" d="M1030.24,498.87c.17,1.68.32,3.46,1.33,4.81,2.06-2.73,5.41-4.08,8.4-5.72a37.37,37.37,0,0,0,4.35-2.79,2.33,2.33,0,0,0,.62-.59,2.05,2.05,0,0,0,.08-1.65,7.1,7.1,0,0,0-3.67-4.21,10.46,10.46,0,0,0-5.6-.94c-1.66.14-5.61.76-6.47,2.48S1030.05,496.84,1030.24,498.87Z"/><path class="cls-8" d="M1050.38,562.33c-1.52,8.39-.1,17.07,2.51,25.19s6.37,15.79,9.69,23.64c5.58,13.19,9.93,27,11.72,41.19s.94,28.88-3.65,42.45c-2.92,8.64-7.81,17.24-15.93,21.38l-15.87-147.81a6.93,6.93,0,0,1,.14-3.11,5.67,5.67,0,0,1,2.83-2.8c3.69-2,8.87-2.81,11.06-6.78A17.06,17.06,0,0,0,1050.38,562.33Z"/><path class="cls-8" d="M1030.91,492.39a6.23,6.23,0,0,1,11.44,1.79c.73,2.64,4.85,1.52,4.12-1.14a10.56,10.56,0,0,0-19.25-2.81c-1.48,2.32,2.21,4.47,3.69,2.16Z"/><path class="cls-8" d="M1049.52,557.59c-4.52,13-.71,26.24,4.37,38.52,5.63,13.62,11.73,26.71,15,41.18,5.14,22.91,9.49,61.44-14.06,76.28-2.32,1.47-.18,5.16,2.15,3.69,22.1-13.93,21.44-45.84,18.3-68.54a164.18,164.18,0,0,0-12.92-43.79c-6.34-14.41-14.22-30.29-8.7-46.21.9-2.6-3.23-3.72-4.12-1.13Z"/><path class="cls-8" d="M871.86,730.7c-51.91-3.58-91.14-43.85-139.66-58.1-26.57-7.8-52.88-4.25-79.36,2-28,6.64-57.6,16-86.33,8.29-30.88-8.27-52.49-34.51-69.25-60.17l-3.35,2.58c9.07,9.7,21.8,13.72,34.54,16a337.33,337.33,0,0,0,46.15,5.06c15.85.57,32-.67,47.09-6,13-4.58,24.71-12.1,35.14-21.1C679.75,599.53,697,574,718,552.27c22.81-23.61,48.64-48,79.61-60.27a130.14,130.14,0,0,1,52.91-8.95,128.2,128.2,0,0,1,27.68,4.11c8.32,2.19,18.84,4.76,22.89,13.19,1.19,2.47,4.87.31,3.69-2.16-5.86-12.18-23.7-15.26-35.6-17.39a136.1,136.1,0,0,0-45.16-.41c-31.73,5-58.23,22.26-82,43.08a447.25,447.25,0,0,0-36.67,36.06c-10.14,11.17-19.53,23-29.48,34.34S655.56,616,643.24,624.55a98.39,98.39,0,0,1-44.54,16.74c-18.47,2.24-37.23.3-55.58-2.1-16.24-2.13-34.39-4.25-46.19-16.87-1.64-1.75-4.69.54-3.36,2.59,14.57,22.3,32.24,44.56,56.71,56.46,25.91,12.6,54.28,9,81.38,2.77,28.9-6.69,58.27-16,88.17-10.18,26,5.08,49.15,18.73,72,31.43,25,13.9,51,27.58,80,29.58,2.74.19,2.73-4.08,0-4.27Z"/><path class="cls-8" d="M985.67,248.24q28.92,148.51,48.24,298.68,5.4,42,10,84.18c.3,2.7,4.58,2.73,4.27,0Q1031.66,481,1005.56,332.2q-7.5-42.61-15.77-85.1c-.52-2.69-4.64-1.55-4.12,1.14Z"/><path class="cls-8" d="M924,351.83a287.6,287.6,0,0,1,81.61-1.6c2.72.33,2.7-3.94,0-4.27a291.57,291.57,0,0,0-82.75,1.75c-2.7.44-1.56,4.56,1.14,4.12Z"/><path class="cls-8" d="M922.18,359.11A503.16,503.16,0,0,1,983,355.23c2.74,0,2.75-4.27,0-4.27a503.16,503.16,0,0,0-60.85,3.88c-2.69.33-2.72,4.6,0,4.27Z"/><path class="cls-8" d="M992.59,353.87l0-.54a2.14,2.14,0,0,0-2.13-2.13,2.19,2.19,0,0,0-2.14,2.13l0,.54a2.14,2.14,0,0,0,4.27,0Z"/><path class="cls-8" d="M939.38,259.87A113.34,113.34,0,0,1,987,258.6c2.69.5,3.84-3.61,1.14-4.12a118.81,118.81,0,0,0-49.91,1.27c-2.67.64-1.54,4.76,1.14,4.12Z"/><path class="cls-8" d="M949.35,256.12q-.61,28.88-.18,57.77c0,2.75,4.31,2.76,4.27,0q-.44-28.89.18-57.77c0-2.75-4.22-2.75-4.27,0Z"/><path class="cls-8" d="M951.6,323h.26a2.14,2.14,0,1,0,0-4.27h-.26a2.14,2.14,0,1,0,0,4.27Z"/><path class="cls-8" d="M975,293.1a513.28,513.28,0,0,1,2.7,51.71c0,2.74,4.28,2.75,4.27,0a513.28,513.28,0,0,0-2.7-51.71c-.28-2.7-4.55-2.73-4.27,0Z"/><path class="cls-8" d="M978.73,284.05v-.26a2.14,2.14,0,1,0-4.27,0v.26a2.14,2.14,0,1,0,4.27,0Z"/><path class="cls-8" d="M908.47,400h117.77a1.64,1.64,0,0,0,0-3.27H908.47a1.64,1.64,0,0,0,0,3.27Z"/><path class="cls-8" d="M967.05,399.35c-3.8,13-17,22.82-30.56,22.6s-26.16-10.4-29.2-23.56"/><path class="cls-8" d="M965.48,398.91c-3.93,12.32-15.87,21.6-29,21.41s-24.42-9.94-27.63-22.36c-.52-2-3.67-1.17-3.15.87,3.57,13.83,16.31,24.52,30.78,24.76s27.78-10.15,32.13-23.81c.64-2-2.51-2.86-3.14-.87Z"/><path class="cls-8" d="M967.05,399.35c3.46,13,16.41,22.82,30,22.6s26.44-10.4,29.83-23.56"/><path class="cls-8" d="M965.48,399.78c4,13.7,17,24,31.53,23.81s27.47-10.95,31.4-24.76a1.63,1.63,0,0,0-3.15-.87c-3.54,12.46-15.12,22.07-28.25,22.36s-24.79-9.12-28.39-21.41c-.58-2-3.74-1.15-3.14.87Z"/><path class="cls-5" d="M959.3,402.27A23.64,23.64,0,0,1,937,418.78a22.85,22.85,0,0,1-21.33-17.21"/><path class="cls-5" d="M975,402.27a22.87,22.87,0,0,0,21.88,16.51,23.63,23.63,0,0,0,21.78-17.21"/><path class="cls-8" d="M974.3,366.39c.31,2.82.7,5.63,1.15,8.44a14,14,0,0,1,6.47-3.24c7.55-1.57,15.8-1.12,22.33,2.85-7.65-7.11-18.9-9.46-29.38-8.29"/><path class="cls-8" d="M972.67,366.39q.51,4.44,1.21,8.87a1.63,1.63,0,0,0,2.39,1c7.57-5.64,19.19-4.84,27.16-.38,1.56.87,3.41-1.31,2-2.57-8.48-7.44-19.5-9.81-30.54-8.77-2.08.2-2.1,3.47,0,3.27,10.13-1,20.4.94,28.23,7.81l2-2.56c-8.92-5-22-5.95-30.45.39l2.39,1c-.41-2.66-.78-5.33-1.08-8-.24-2.07-3.51-2.09-3.27,0Z"/><path class="cls-8" d="M955.34,379.16q.07,4.29-.06,8.6a13.47,13.47,0,0,0-6.76-2.29c-7.6-.47-15.64,1.19-21.55,6.11,6.6-8.22,17.35-12.22,27.78-12.58"/><path class="cls-8" d="M953.7,379.16c0,2.87,0,5.73-.05,8.6l2.46-1.41c-9.43-5.25-22.11-2.3-30.29,4.08l2.3,2.3c6.73-7.93,16.42-11.58,26.63-12.1,2.09-.11,2.11-3.37,0-3.27-11,.57-21.66,4.48-28.93,13.07a1.63,1.63,0,0,0,2.3,2.3c6.94-5.39,18.36-8,26.34-3.56a1.65,1.65,0,0,0,2.46-1.41c.07-2.87.09-5.73.05-8.6,0-2.1-3.3-2.11-3.27,0Z"/><path class="cls-8" d="M884.62,637.74c29,2.15,58,4.28,87,4.43,14.33.07,28.66-.34,42.95-1.48q10.38-.83,20.7-2.19c4.23-.56,10.07-.37,12.27-4.75,1.23-2.45-2.45-4.61-3.69-2.15-1.39,2.77-8.45,2.62-10.81,2.92q-4.85.62-9.71,1.11-9.72,1-19.48,1.51c-13.33.74-26.7.9-40.05.67-26.43-.44-52.81-2.39-79.17-4.34-2.74-.2-2.72,4.07,0,4.27Z"/><path class="cls-8" d="M883,634.14a1373.2,1373.2,0,0,0-16.18,158.31c-.12,2.75,4.15,2.74,4.27,0a1366.67,1366.67,0,0,1,16-157.17c.44-2.69-3.68-3.85-4.11-1.14Z"/><path class="cls-8" d="M1043.53,632.48q10.37,80.7,13,162.11c.09,2.74,4.36,2.76,4.27,0q-2.61-81.32-13-162.11c-.35-2.68-4.62-2.72-4.27,0Z"/><path class="cls-8" d="M867.88,797a698.16,698.16,0,0,0,190.89.92c2.69-.36,2.72-4.63,0-4.27A694.6,694.6,0,0,1,869,792.91c-2.69-.39-3.85,3.73-1.14,4.11Z"/><path class="cls-8" d="M901.14,501.35a149.4,149.4,0,0,0,63.4,40c2.62.84,3.74-3.28,1.13-4.12a144.86,144.86,0,0,1-61.51-38.93c-1.88-2-4.9,1-3,3Z"/><path class="cls-8" d="M966,541.75a118.38,118.38,0,0,0,65.72-39.86c1.76-2.09-1.25-5.13-3-3a114.64,114.64,0,0,1-63.85,38.76c-2.68.58-1.55,4.69,1.14,4.12Z"/><path class="cls-8" d="M963.87,539.66c-4,10.51-15.19,18.43-24.77,23.45-2.44,1.27-.28,5,2.15,3.68,10.72-5.6,22.33-14.32,26.74-26,1-2.57-3.16-3.69-4.12-1.14Z"/><path class="cls-8" d="M940.4,563.55c-10.46-6.6-18.66-15.83-24.87-26.46a110.06,110.06,0,0,1-7.82-16.45c-1.05-2.78-2-5.59-2.87-8.44-.48-1.64-.92-3.32-1.24-5-.18-1-.25-4.77-.76-4.12l-2.58.34.41.22-.76-2.92-.16.35c-1.13,2.48,2.55,4.65,3.69,2.15l.15-.34a2.18,2.18,0,0,0-.76-2.92l-.42-.23a2.16,2.16,0,0,0-2.58.33c-3.05,3.92.59,12.54,1.92,16.55a122.53,122.53,0,0,0,8.56,19.91c6.73,12.37,16,23.17,27.93,30.72,2.33,1.47,4.48-2.23,2.16-3.69Z"/><path class="cls-8" d="M963.87,539.85c7.36,11.88,15.37,21.72,29.09,26.19,2.62.85,3.74-3.27,1.13-4.12-12.6-4.11-19.8-13.36-26.53-24.23-1.45-2.33-5.14-.19-3.69,2.16Z"/><path class="cls-8" d="M995.14,567.19c21-15.15,35-39,36.58-65,.17-2.75-4.1-2.74-4.27,0-1.46,24.36-14.79,47.1-34.47,61.31-2.21,1.6-.08,5.3,2.16,3.69Z"/><path class="cls-8" d="M962.64,542.17l-7.13,11c-1.43,2.2-3.41,4.27-2.7,7,1.47,5.78,8.13,12.13,12.27,16.06,2,1.89,5-1.13,3-3a66.49,66.49,0,0,1-5.64-6c-1.33-1.62-5-5.44-5.27-7.7s2.35-4.77,3.54-6.6l5.6-8.65c1.5-2.31-2.2-4.45-3.69-2.15Z"/><path class="cls-8" d="M968.63,577a105.79,105.79,0,0,0,8.58-10.54c1.83-2.59,5.2-6.09,3.7-9.47-1.3-2.95-4.18-5.52-5.8-8.44-1.89-3.42-3.74-6.63-6.85-9.07-2.14-1.68-5.18,1.32-3,3,4.48,3.51,6,9,9.38,13.39,1.37,1.81,2.37,2,1.33,4.8-.55,1.5-2,3-2.93,4.32a98,98,0,0,1-7.41,9c-1.86,2,1.15,5,3,3Z"/><path class="cls-8" d="M962.8,572.72,957,593c-1.94,6.78-4.72,13.81-5.92,20.75-.68,3.93,2.39,6.43,5.08,8.94a49.1,49.1,0,0,0,14.07,9.14c2.5,1.09,4.67-2.59,2.16-3.68a46.07,46.07,0,0,1-12.65-7.95c-1.41-1.28-4.21-3.46-4.47-5.26-.31-2.1,1.58-5.89,2.15-7.9l9.5-33.17c.76-2.65-3.36-3.78-4.11-1.14Z"/><path class="cls-8" d="M968,573.32l9,28c1.74,5.4,3.59,9.79.73,15.13a78.9,78.9,0,0,1-8,12c-1.7,2.12,1.3,5.16,3,3,4.95-6.17,13.13-15.41,10.76-23.83-3.34-11.93-7.64-23.67-11.44-35.46-.84-2.61-5-1.49-4.12,1.13Z"/><path class="cls-8" d="M952.3,461.17c1.73,1,3.86-.21,5.82-.51,12.47-1.87,24.36-6.47,33.75-14.89-5.6,9.62-8.77,14.54-16.85,22.2-1,1-7.19,4.91-8.61,5.19-1.65.32-3.3-.46-4.79-1.24-4.16-2.2-8.49-5-9.92-9.49a1,1,0,0,1,.08-1.07c.28-.26.87.15.6.41"/><path class="cls-8" d="M951.87,462.74c3.24.88,6.69-.44,9.92-1.05a73.93,73.93,0,0,0,11.78-3.25A62.28,62.28,0,0,0,993,446.92l-2.56-2c-4.49,7.7-9.27,15.29-16,21.28-1.87,1.67-5.25,4.62-7.72,5-2.7.47-5.87-1.47-8-2.93-1.3-.88-6.15-4.54-5.38-6.55l-1.58,1.2h.51l-1.58-1.2.09.4c.47,2.05,3.62,1.18,3.15-.87l-.09-.4a1.67,1.67,0,0,0-1.57-1.2h-.51a1.68,1.68,0,0,0-1.57,1.2c-1.48,3.9,4.17,8.4,6.88,10.24,4.49,3,8.24,4.74,13.09,2,10.5-6,17.15-16.36,23.1-26.55a1.64,1.64,0,0,0-2.57-2,57.75,57.75,0,0,1-18,10.68,71.5,71.5,0,0,1-8.57,2.57c-2.91.68-8.52,2.51-11.39,1.73a1.63,1.63,0,0,0-.87,3.15Z"/><path class="cls-8" d="M1201.74,337.22c-.31,1.76,3.69,5.24,5.09,6.36,19.9,15.94,43.06,21.54,68.09,20.93,26.76-.64,52.13-8,77.3-16.16,30.2-9.78,60.16-20.38,90.51-29.66,19-5.82,38.78-7.91,58.68-4.59,24.7,4.11,43.83,17.48,59.54,36.25.13-1.92.27-3.85.39-5.77,3.86-59.18,6.69-118.91,3.69-178.26-6.6-3.41-12.93-6.93-19.64-9.42-19.39-7.21-39.24-5.72-59-1.47-31.11,6.68-60.05,19.63-89.5,31.13-24,9.38-48.25,18.13-74.19,20.68-28.21,2.76-53.61-3.27-74.09-24.09-4.36-4.43-8.11-9.46-12.5-14.63-1.14,5.13-2.32,9.77-3.19,14.47C1223.43,234.6,1211,285.57,1201.74,337.22Z"/><path class="cls-8" d="M1093,818.16q28.77-125.31,57.25-250.69,29.54-129.74,59.09-259.47,15.77-69.09,31.6-138.15c1.44-6.27-8.2-8.94-9.64-2.66Q1202.52,292.5,1174,417.88q-29.54,129.75-59.09,259.47-15.75,69.09-31.6,138.16c-1.44,6.26,8.2,8.93,9.64,2.65Z"/><path class="cls-5" d="M1188.24,376.62c-2.31,1.52-3.56,4-4.46,6.48a55.42,55.42,0,0,0-2.77,12.15,23.23,23.23,0,0,0,.14,8.64,10.46,10.46,0,0,0,5.24,6.92c3.21,1.61,7.14,1.22,10.72.55a20.22,20.22,0,0,0,7.33-2.53c4.39-2.86,5.85-8.17,6.44-13.07a23.68,23.68,0,0,0,.18-4.83c-.43-4.84-3.66-9.28-8.1-11.86-2.33-1.35-4.7-1.47-7.15-2.32C1193.07,375.79,1191.06,374.77,1188.24,376.62Z"/><path class="cls-7" d="M1194,381.16a66.06,66.06,0,0,0-2.8,15.9c-.25,4.88.33,10.41,4.11,13.52a9,9,0,0,1-11.73-2.85c-1.59-2.49-1.8-5.61-1.71-8.57a52.86,52.86,0,0,1,2.68-15.22,17.57,17.57,0,0,1,2.86-5.74,7.54,7.54,0,0,1,5.51-2.94c1,0,4.13.68,4.06,2.11C1196.93,378.1,1194.35,380,1194,381.16Z"/><path class="cls-3" d="M1379,933.82c0,.11.3.27.4.32a6.3,6.3,0,0,0,4.44.34,17.13,17.13,0,0,0,4.5-2.05c1.71-1,3.4-2.07,5.12-3.06a8.09,8.09,0,0,1,3.53-1.08,6.09,6.09,0,0,1,4.13,1.39c0-.12,0-.24,0-.36a97.1,97.1,0,0,0-2.23-10.93,11.08,11.08,0,0,0-1.33-.31,6.51,6.51,0,0,0-3.62.72,37.84,37.84,0,0,0-5,3.13,17.62,17.62,0,0,1-4.25,2.29,5.43,5.43,0,0,1-4.86-.46c-.32-.21-.62-.46-1-.72,0,.33,0,.63,0,.93C1378.88,927.25,1378.83,930.54,1379,933.82Z"/><path class="cls-3" d="M1378.94,964.68c.06-13.88.06-27.76.12-41.64a.31.31,0,0,0-.62,0c-.06,13.88-.07,27.76-.13,41.64a.32.32,0,0,0,.63,0Z"/><g class="cls-4"><path class="cls-5" d="M1379,933.82c0,.11.3.27.4.32a6.3,6.3,0,0,0,4.44.34,17.13,17.13,0,0,0,4.5-2.05c1.71-1,3.4-2.07,5.12-3.06a8.09,8.09,0,0,1,3.53-1.08,6.09,6.09,0,0,1,4.13,1.39c0-.12,0-.24,0-.36a97.1,97.1,0,0,0-2.23-10.93,11.08,11.08,0,0,0-1.33-.31,6.51,6.51,0,0,0-3.62.72,37.84,37.84,0,0,0-5,3.13,17.62,17.62,0,0,1-4.25,2.29,5.43,5.43,0,0,1-4.86-.46c-.32-.21-.62-.46-1-.72,0,.33,0,.63,0,.93C1378.88,927.25,1378.83,930.54,1379,933.82Z"/><path class="cls-5" d="M1378.94,964.68c.06-13.88.06-27.76.12-41.64a.31.31,0,0,0-.62,0c-.06,13.88-.07,27.76-.13,41.64a.32.32,0,0,0,.63,0Z"/></g><path class="cls-3" d="M675.17,780.34c0,.11.3.27.4.32A6.33,6.33,0,0,0,680,781a16.78,16.78,0,0,0,4.5-2c1.71-1,3.39-2.07,5.12-3.05a7.93,7.93,0,0,1,3.52-1.09,6,6,0,0,1,4.13,1.4c0-.12,0-.24,0-.36A96.82,96.82,0,0,0,695,764.91a10.65,10.65,0,0,0-1.33-.31,6.51,6.51,0,0,0-3.62.72,36.9,36.9,0,0,0-5,3.14,17.59,17.59,0,0,1-4.25,2.28,5.37,5.37,0,0,1-4.85-.45c-.33-.21-.63-.47-1-.73,0,.33,0,.63,0,.93C675.09,773.78,675,777.06,675.17,780.34Z"/><path class="cls-3" d="M675.14,811.2c.06-13.88.07-27.76.12-41.64a.31.31,0,0,0-.62,0c-.06,13.88-.07,27.76-.13,41.64a.32.32,0,0,0,.63,0Z"/><g class="cls-4"><path class="cls-5" d="M675.17,780.34c0,.11.3.27.4.32A6.33,6.33,0,0,0,680,781a16.78,16.78,0,0,0,4.5-2c1.71-1,3.39-2.07,5.12-3.05a7.93,7.93,0,0,1,3.52-1.09,6,6,0,0,1,4.13,1.4c0-.12,0-.24,0-.36A96.82,96.82,0,0,0,695,764.91a10.65,10.65,0,0,0-1.33-.31,6.51,6.51,0,0,0-3.62.72,36.9,36.9,0,0,0-5,3.14,17.59,17.59,0,0,1-4.25,2.28,5.37,5.37,0,0,1-4.85-.45c-.33-.21-.63-.47-1-.73,0,.33,0,.63,0,.93C675.09,773.78,675,777.06,675.17,780.34Z"/><path class="cls-5" d="M675.14,811.2c.06-13.88.07-27.76.12-41.64a.31.31,0,0,0-.62,0c-.06,13.88-.07,27.76-.13,41.64a.32.32,0,0,0,.63,0Z"/></g><path class="cls-8" d="M1185.68,375.48c-3.57,4.34-4.22,10.39-5,15.8-.76,5.05-1.89,11.14-.28,16.13,3.31,10.3,18.27,5,24.73,1.15,8.17-4.85,10.58-17.92,4.81-25.53-4.27-5.63-16.92-13.14-23.79-7.89-2.15,1.65,0,5.36,2.16,3.69,4.5-3.44,13.28,1.85,16.63,5,6.46,6.15,4.37,17.73-3.29,21.71a25.4,25.4,0,0,1-10.8,3.21c-3,.13-5,.76-6.53-3.12-.55-1.43-.31-3.54-.27-5a73.73,73.73,0,0,1,1.19-10.89c.64-3.6,1.1-8.36,3.5-11.28C1190.43,376.39,1187.43,373.35,1185.68,375.48Z"/></svg>