<svg xmlns="http://www.w3.org/2000/svg" xmlns:xlink="http://www.w3.org/1999/xlink" width="591" height="906" viewBox="0 0 591 906"><defs><style>.a,.ad,.i,.n,.s,.z{fill:#fff;}.a,.j{stroke:#f3f3f9;}.b,.t,.v{fill:#252b43;}.c{fill:#ce7419;}.d{fill:#fcba29;}.e{fill:#e99a23;}.f,.m{fill:#363a57;}.f,.t,.v,.z{font-size:16px;}.f,.k,.v{font-family:SegoeUI-Semibold, Segoe UI;font-weight:600;}.g,.x{fill:#9297a5;}.af,.g,.i,.k,.m{font-size:14px;}.af,.g,.t{font-family:SegoeUI, Segoe UI;}.h{fill:#31b198;}.i,.m,.s,.z{font-family:SegoeUI-Bold, Segoe UI;font-weight:700;}.aa,.ab,.ac,.ae,.ah,.j,.l,.o,.p,.q{fill:none;}.af,.k,.u{fill:#353596;}.l{stroke:#353596;}.aa,.ab,.ac,.l,.q{stroke-linecap:round;stroke-linejoin:round;stroke-width:2px;}.o{stroke:rgba(37,43,67,0.07);}.p{stroke:rgba(53,53,150,0.1);}.q{stroke:#9297a5;}.r{fill:#f27d35;}.s{font-size:10px;}.w{fill:#28a9c1;}.y{fill:#bc2d4f;}.aa,.ab,.ac,.ae{stroke:#fff;}.ab{opacity:0.388;}.ac{opacity:0.174;}.ad{stroke:rgba(53,53,150,0.2);}.ae{stroke-width:1.5px;}.ag{stroke:none;}.ai{filter:url(#e);}.aj{filter:url(#c);}.ak{filter:url(#a);}</style><filter id="a" x="0" y="0" width="365" height="381" filterUnits="userSpaceOnUse"><feOffset dy="25" input="SourceAlpha"/><feGaussianBlur stdDeviation="25" result="b"/><feFlood flood-opacity="0.059"/><feComposite operator="in" in2="b"/><feComposite in="SourceGraphic"/></filter><filter id="c" x="226" y="0" width="365" height="381" filterUnits="userSpaceOnUse"><feOffset dy="25" input="SourceAlpha"/><feGaussianBlur stdDeviation="25" result="d"/><feFlood flood-opacity="0.059"/><feComposite operator="in" in2="d"/><feComposite in="SourceGraphic"/></filter><filter id="e" x="66" y="261" width="525" height="645" filterUnits="userSpaceOnUse"><feOffset dy="25" input="SourceAlpha"/><feGaussianBlur stdDeviation="25" result="f"/><feFlood flood-opacity="0.059"/><feComposite operator="in" in2="f"/><feComposite in="SourceGraphic"/></filter></defs><g transform="translate(-227 -20647.001)"><g transform="translate(-20)"><g class="ak" transform="matrix(1, 0, 0, 1, 247, 20647)"><g class="a" transform="translate(75 50)"><rect class="ag" width="215" height="231" rx="10"/><rect class="ah" x="0.5" y="0.5" width="214" height="230" rx="9.5"/></g></g><g transform="translate(-4675 19283)"><circle class="b" cx="31.5" cy="31.5" r="31.5" transform="translate(5021 1432)"/><g transform="translate(5034 1432.92)"><path class="c" d="M36.859,327.32H64.182a2.3,2.3,0,0,1,2.3,2.3h0a2.3,2.3,0,0,1-2.3,2.3H36.859a2.3,2.3,0,0,1-2.3-2.3h0A2.3,2.3,0,0,1,36.859,327.32Z" transform="translate(-31.025 -285.688)"/><g transform="translate(0 13.589)"><path class="d" d="M0,67.227c4.869.4,10.892-5.614,15.057,1.416l-1.866-9.337,6.2-6.145,6.415,6.145-1.866,9.337C28.108,61.613,34.131,67.619,39,67.227c-4.3,7.446-7.847,7.414-8.06,13.977H20.752V61.654l.057-.065,1.309-1.358-1.309-1.358L19.5,57.513l-1.309,1.358L16.881,60.23l1.309,1.358.057.065V81.2H8.044C7.847,74.64,4.3,74.673,0,67.227Z" transform="translate(0 -53.16)"/><path class="e" d="M189.6,53.16l6.415,6.145-1.866,9.337c4.165-7.029,10.188-1.023,15.057-1.416-4.3,7.446-7.847,7.414-8.06,13.977H190.958V61.654l.057-.065,1.309-1.358-1.309-1.358-1.309-1.358-.106.106Z" transform="translate(-170.206 -53.16)"/></g><circle class="d" cx="2.25" cy="2.25" r="2.25" transform="translate(17.25 9.08)"/><g transform="translate(6.391 17.942)"><path class="c" d="M65,203.56l.524,1.285.524,1.277-1.252.573-1.26.581-.524-1.285-.532-1.277,1.26-.573Z" transform="translate(-62.48 -192.529)"/><path class="c" d="M284.967,203.56l-.524,1.285-.524,1.277,1.252.573,1.26.581.524-1.285.532-1.277-1.26-.573Z" transform="translate(-261.27 -192.529)"/><path class="c" d="M167.659,95.72l-2.619,2.725,1.367,1.416V119.41h2.5V99.861l1.367-1.416Z" transform="translate(-154.549 -95.72)"/></g></g></g><text class="f" transform="translate(346 20809)"><tspan x="0" y="0">Physio - Ultra (Monthly)</tspan></text><text class="g" transform="translate(346 20823)"><tspan x="0" y="15">Get everything at just the </tspan></text><g transform="translate(-4673 19288)"><path class="h" d="M-10,0H74.369V30H-10L.029,15.141Z" transform="translate(5135.631 1427)"/><text class="i" transform="translate(5145 1447)"><tspan x="0" y="0">10% OFF</tspan></text></g><line class="j" x2="215" transform="translate(322.5 20878.5)"/><g transform="translate(-4658 19381)"><text class="k" transform="translate(5086 1525)"><tspan x="0" y="0">Recommend</tspan></text><g transform="translate(4834 865.819)"><path class="l" d="M3510.748,301.181l4.64,4.64-4.64,4.64" transform="translate(-3174 349)"/></g></g><text class="m" transform="translate(346 20907)"><tspan x="0" y="0">MYR 432</tspan></text><g class="aj" transform="matrix(1, 0, 0, 1, 247, 20647)"><g class="a" transform="translate(301 50)"><rect class="ag" width="215" height="231" rx="10"/><rect class="ah" x="0.5" y="0.5" width="214" height="230" rx="9.5"/></g></g><g transform="translate(-4449 19283)"><circle class="b" cx="31.5" cy="31.5" r="31.5" transform="translate(5021 1432)"/><g transform="translate(5034 1432.92)"><path class="c" d="M36.859,327.32H64.182a2.3,2.3,0,0,1,2.3,2.3h0a2.3,2.3,0,0,1-2.3,2.3H36.859a2.3,2.3,0,0,1-2.3-2.3h0A2.3,2.3,0,0,1,36.859,327.32Z" transform="translate(-31.025 -285.688)"/><g transform="translate(0 13.589)"><path class="d" d="M0,67.227c4.869.4,10.892-5.614,15.057,1.416l-1.866-9.337,6.2-6.145,6.415,6.145-1.866,9.337C28.108,61.613,34.131,67.619,39,67.227c-4.3,7.446-7.847,7.414-8.06,13.977H20.752V61.654l.057-.065,1.309-1.358-1.309-1.358L19.5,57.513l-1.309,1.358L16.881,60.23l1.309,1.358.057.065V81.2H8.044C7.847,74.64,4.3,74.673,0,67.227Z" transform="translate(0 -53.16)"/><path class="e" d="M189.6,53.16l6.415,6.145-1.866,9.337c4.165-7.029,10.188-1.023,15.057-1.416-4.3,7.446-7.847,7.414-8.06,13.977H190.958V61.654l.057-.065,1.309-1.358-1.309-1.358-1.309-1.358-.106.106Z" transform="translate(-170.206 -53.16)"/></g><circle class="d" cx="2.25" cy="2.25" r="2.25" transform="translate(17.25 9.08)"/><g transform="translate(6.391 17.942)"><path class="c" d="M65,203.56l.524,1.285.524,1.277-1.252.573-1.26.581-.524-1.285-.532-1.277,1.26-.573Z" transform="translate(-62.48 -192.529)"/><path class="c" d="M284.967,203.56l-.524,1.285-.524,1.277,1.252.573,1.26.581.524-1.285.532-1.277-1.26-.573Z" transform="translate(-261.27 -192.529)"/><path class="c" d="M167.659,95.72l-2.619,2.725,1.367,1.416V119.41h2.5V99.861l1.367-1.416Z" transform="translate(-154.549 -95.72)"/></g></g></g><text class="f" transform="translate(572 20809)"><tspan x="0" y="0">Physio - Ultra (Monthly)</tspan></text><text class="g" transform="translate(572 20823)"><tspan x="0" y="15">Get everything at just the </tspan></text><g transform="translate(-4447 19288)"><path class="h" d="M-10,0H74.369V30H-10L.029,15.141Z" transform="translate(5135.631 1427)"/><text class="i" transform="translate(5145 1447)"><tspan x="0" y="0">10% OFF</tspan></text></g><line class="j" x2="215" transform="translate(548.5 20878.5)"/><g transform="translate(-4432 19381)"><text class="k" transform="translate(5086 1525)"><tspan x="0" y="0">Recommend</tspan></text><g transform="translate(4834 865.819)"><path class="l" d="M3510.748,301.181l4.64,4.64-4.64,4.64" transform="translate(-3174 349)"/></g></g><text class="m" transform="translate(572 20907)"><tspan x="0" y="0">MYR 432</tspan></text></g><g transform="translate(-20)"><g class="ai" transform="matrix(1, 0, 0, 1, 247, 20647)"><path class="n" d="M15,0H360a15,15,0,0,1,15,15V495a0,0,0,0,1,0,0H0a0,0,0,0,1,0,0V15A15,15,0,0,1,15,0Z" transform="translate(141 311)"/></g><text class="m" transform="translate(457 20996)"><tspan x="0" y="0">SELECT CLIENTS</tspan></text><line class="o" x2="375" transform="translate(388.5 21024.5)"/><g transform="translate(75 20782)"><g class="p" transform="translate(328 192)"><circle class="ag" cx="15.5" cy="15.5" r="15.5"/><circle class="ah" cx="15.5" cy="15.5" r="15"/></g><g transform="translate(343.5 200.135) rotate(45)"><line class="q" y2="10.416" transform="translate(5.208)"/><line class="q" x2="10.416" transform="translate(0 5.208)"/></g></g><g transform="translate(412.5 21049)"><circle class="r" cx="16" cy="16" r="16"/><text class="s" transform="translate(10 19)"><tspan x="0" y="0">AK</tspan></text><text class="t" transform="translate(50 21)"><tspan x="0" y="0">Arun Kumar</tspan></text></g><g transform="translate(388 20848)"><circle class="u" cx="16" cy="16" r="16" transform="translate(24.5 246)"/><text class="s" transform="translate(34.5 265)"><tspan x="0" y="0">BC</tspan></text><text class="t" transform="translate(74.5 267)"><tspan x="0" y="0">Bobby Cameron</tspan></text></g><g transform="translate(412.5 21185)"><circle class="b" cx="16" cy="16" r="16"/><text class="s" transform="translate(9 19)"><tspan x="0" y="0">MJ</tspan></text><text class="v" transform="translate(50 21)"><tspan x="0" y="0">Micheal Jackson</tspan></text></g><g transform="translate(388 20848)"><circle class="w" cx="16" cy="16" r="16" transform="translate(24.5 292)"/><text class="s" transform="translate(34.5 311)"><tspan x="0" y="0">CS</tspan></text><text class="t" transform="translate(74.5 313)"><tspan x="0" y="0">Chandra sekar</tspan></text></g><g transform="translate(388 20848)"><circle class="x" cx="16" cy="16" r="16" transform="translate(24.5 382)"/><text class="s" transform="translate(34.5 401)"><tspan x="0" y="0">PR</tspan></text><text class="v" transform="translate(74.5 403)"><tspan x="0" y="0">Praveen Raj</tspan></text></g><g transform="translate(388 20848)"><circle class="y" cx="16" cy="16" r="16" transform="translate(24.5 428)"/><text class="s" transform="translate(34.5 447)"><tspan x="0" y="0">SN</tspan></text><text class="t" transform="translate(74.5 449)"><tspan x="0" y="0">Sarveshwara Narayanan</tspan></text></g><g transform="translate(388 20848)"><circle class="h" cx="16" cy="16" r="16" transform="translate(24.5 473)"/><text class="s" transform="translate(34.5 492)"><tspan x="0" y="0">AR</tspan></text><text class="t" transform="translate(74.5 494)"><tspan x="0" y="0">Ashwin Ravi</tspan></text></g><g transform="translate(388 21398)"><rect class="u" width="375" height="55"/><g transform="translate(-4535 -1450)"><text class="z" transform="translate(4640 1483)"><tspan x="0" y="0">Start Assessment</tspan></text><g transform="translate(4463 822.819)"><path class="aa" d="M3510.748,301.181l4.64,4.64-4.64,4.64" transform="translate(-3174 349)"/><path class="ab" d="M3510.748,301.181l4.64,4.64-4.64,4.64" transform="translate(-3180 349)"/><path class="ac" d="M3510.748,301.181l4.64,4.64-4.64,4.64" transform="translate(-3186 349)"/></g></g></g><g class="ad" transform="translate(718 20983)"><rect class="ag" width="16.885" height="16.26" rx="4"/><rect class="ah" x="0.5" y="0.5" width="15.885" height="15.26" rx="3.5"/></g><g class="ad" transform="translate(718 21057)"><rect class="ag" width="16.885" height="16.26" rx="4"/><rect class="ah" x="0.5" y="0.5" width="15.885" height="15.26" rx="3.5"/></g><g class="ad" transform="translate(718 21102)"><rect class="ag" width="16.885" height="16.26" rx="4"/><rect class="ah" x="0.5" y="0.5" width="15.885" height="15.26" rx="3.5"/></g><g class="ad" transform="translate(718 21148)"><rect class="ag" width="16.885" height="16.26" rx="4"/><rect class="ah" x="0.5" y="0.5" width="15.885" height="15.26" rx="3.5"/></g><g transform="translate(718 21193)"><rect class="r" width="16.885" height="16.26" rx="4"/><path class="ae" d="M5231,2128.4l2.6,2.6,5.2-5.2" transform="translate(-5226 -2120)"/></g><g transform="translate(718 21284)"><g class="ad"><rect class="ag" width="16.885" height="16.26" rx="4"/><rect class="ah" x="0.5" y="0.5" width="15.885" height="15.26" rx="3.5"/></g></g><g class="ad" transform="translate(718 21329)"><rect class="ag" width="16.885" height="16.26" rx="4"/><rect class="ah" x="0.5" y="0.5" width="15.885" height="15.26" rx="3.5"/></g><text class="af" transform="translate(646 20996)"><tspan x="0" y="0">Select All</tspan></text><g transform="translate(388 20641)"><rect class="r" width="16.885" height="16.26" rx="4" transform="translate(330 597)"/><path class="ae" d="M5231,2128.4l2.6,2.6,5.2-5.2" transform="translate(-4896 -1523.303)"/></g></g></g></svg>