<svg xmlns="http://www.w3.org/2000/svg" width="100.488" height="133.059" viewBox="0 0 100.488 133.059">
  <defs>
    <style>
      .cls-1 {
        fill: #fff;
      }
    </style>
  </defs>
  <g id="Group_4868" data-name="Group 4868" transform="matrix(0.999, 0.052, -0.052, 0.999, -657.189, -64.818)">
    <g id="Group_4859" data-name="Group 4859" transform="translate(666.387 29.983)">
      <path id="Path_11148" data-name="Path 11148" class="cls-1" d="M759.742,158.3A301.657,301.657,0,0,1,706.7,153.6c-7.952-1.425-16.972-3.427-23.38-9.2-5.733-5.161-8.329-12.438-10.5-19.448-3.2-10.337-6.188-21.5-6.422-33.068-.177-8.776,1.294-21.541,9.3-32.511,6.451-8.838,16.736-15.952,30.571-21.143,18.939-7.107,30.005-10.118,49.588-7.057l-.482,2.642c-18.855-2.949-29.6-.015-48.021,6.9C694.07,45.7,684.225,52.485,678.1,60.875c-7.585,10.39-8.976,22.57-8.806,30.96.227,11.262,3.166,22.218,6.31,32.38,2.061,6.663,4.51,13.562,9.733,18.264,5.835,5.254,14.37,7.136,21.913,8.487a298.466,298.466,0,0,0,52.491,4.657h.541l.006,2.68Z" transform="translate(-666.387 -29.983)"/>
    </g>
    <g id="Group_4860" data-name="Group 4860" transform="translate(674.125 42.501)">
      <path id="Path_11149" data-name="Path 11149" class="cls-1" d="M746.3,150.24c-16.538,0-31.851-3.671-44.06-10.684-17.867-10.264-28.886-28.128-28.07-45.51a42.5,42.5,0,0,1,8.592-23.4A57.739,57.739,0,0,1,694.943,59c17.2-12.589,39.587-18.4,61.411-15.951L756,45.711c-21.062-2.361-42.648,3.245-59.239,15.388a55.011,55.011,0,0,0-11.607,11.08,39.929,39.929,0,0,0-8.072,21.982c-.772,16.435,9.71,33.362,26.7,43.122,14.77,8.486,34.325,11.883,55.071,9.57l.352,2.66A116.389,116.389,0,0,1,746.3,150.24Z" transform="translate(-674.125 -42.501)"/>
    </g>
    <g id="Group_4861" data-name="Group 4861" transform="translate(695.606 50.987)">
      <path id="Path_11150" data-name="Path 11150" class="cls-1" d="M743.348,141.521a96.061,96.061,0,0,1-16.019-1.109c-8.795-1.487-15.988-4.663-21.378-9.441-7.214-6.393-11.015-15.74-13.246-22.214-5.257-15.253-5.362-27.813-.313-37.331,4.5-8.479,13.633-15.049,25.066-18.027,10.117-2.634,20.645-2.434,30.836-2.217a1.046,1.046,0,0,1,.6-.195v1.786a.733.733,0,0,0,.422-.124,1.313,1.313,0,0,1-.784.325c-10.155-.218-20.655-.441-30.62,2.154-10.95,2.852-19.675,9.1-23.938,17.135-4.807,9.063-4.665,21.146.424,35.912,2.166,6.283,5.842,15.345,12.741,21.459,5.138,4.553,12.031,7.586,20.492,9.016,7.557,1.279,15.386,1.135,22.956,1l.033,1.786C748.214,141.476,745.787,141.521,743.348,141.521Z" transform="translate(-688.682 -50.987)"/>
    </g>
    <g id="Group_4862" data-name="Group 4862" transform="translate(707.91 55.98)">
      <path id="Path_11151" data-name="Path 11151" class="cls-1" d="M737.452,135.717a60.3,60.3,0,0,1-8.619-.561c-5.175-.746-12.5-2.759-17.988-8.111-4.062-3.958-6.974-9.676-8.42-16.534-1.281-6.074-1.35-12.335-1.417-18.389-.083-7.51-.2-17.794,5.166-25.269,4.1-5.712,11.367-9.564,19.946-10.568,7.627-.893,15.248.343,22.616,1.538l-.286,1.763c-7.249-1.176-14.742-2.391-22.123-1.527-8.08.947-14.9,4.531-18.7,9.835-4.645,6.473-4.936,14.793-4.831,24.207.065,5.968.133,12.14,1.378,18.041,1.373,6.511,4.111,11.914,7.919,15.623,5.147,5.017,12.083,6.914,16.995,7.623,6.37.919,12.93.481,19.277.059l.118,1.782C744.856,135.471,741.16,135.717,737.452,135.717Z" transform="translate(-700.986 -55.98)"/>
    </g>
    <g id="Group_4863" data-name="Group 4863" transform="translate(715.595 67.104)">
      <path id="Path_11152" data-name="Path 11152" class="cls-1" d="M747.467,126.386a102.94,102.94,0,0,1-24.922-3.366c-3.332-.875-6.735-2.035-9.054-4.569-2.606-2.85-3.316-6.752-3.867-10.838-1.264-9.4-2.154-20.1,3.339-28.185,3.385-4.984,9.209-8.741,16.4-10.578,6.375-1.63,12.992-1.689,19.39-1.746l.016,1.786c-6.292.056-12.8.114-18.963,1.69-6.766,1.73-12.222,5.229-15.362,9.852C709.3,88,710.175,98.306,711.4,107.375c.51,3.793,1.156,7.4,3.414,9.87,2.107,2.3,5.332,3.3,8.189,4.047a101.191,101.191,0,0,0,24.49,3.308Z" transform="translate(-708.671 -67.104)"/>
    </g>
    <g id="Group_4864" data-name="Group 4864" transform="translate(721.108 72.418)">
      <path id="Path_11153" data-name="Path 11153" class="cls-1" d="M747.037,118.042c-5.262-.789-10.7-1.605-15.84-3.463-5.81-2.1-10.439-5.348-13.387-9.393-3.553-4.877-4.585-11.023-2.694-16.04a18.442,18.442,0,0,1,7.485-8.711,41.1,41.1,0,0,1,10.428-4.414,114.78,114.78,0,0,1,16.294-3.6l.258,1.768a113.135,113.135,0,0,0-16.041,3.546,39.5,39.5,0,0,0-9.976,4.208,16.68,16.68,0,0,0-6.776,7.836c-1.682,4.46-.737,9.962,2.467,14.358,2.736,3.755,7.076,6.786,12.549,8.765,4.971,1.8,10.323,2.6,15.5,3.377Z" transform="translate(-714.184 -72.418)"/>
    </g>
    <g id="Group_4865" data-name="Group 4865" transform="translate(730.709 78.369)">
      <path id="Path_11154" data-name="Path 11154" class="cls-1" d="M744.653,110.047A21.718,21.718,0,0,1,724.93,96.756c-.915-2.293-1.752-5.7-.542-8.941,1.025-2.74,3.48-5.1,7.1-6.835a27.033,27.033,0,0,1,14.749-2.422l-.215,1.773a25.251,25.251,0,0,0-13.763,2.26c-2.228,1.066-5.111,2.946-6.2,5.85-1.01,2.7-.27,5.652.528,7.653a19.832,19.832,0,0,0,19.027,12.14l.1,1.784C745.36,110.038,745.006,110.047,744.653,110.047Z" transform="translate(-723.785 -78.369)"/>
    </g>
    <g id="Group_4866" data-name="Group 4866" transform="translate(740.222 85.977)">
      <path id="Path_11155" data-name="Path 11155" class="cls-1" d="M745.263,107.391l-6.322-4.658a20.993,20.993,0,0,1-3.658-3.164A6.981,6.981,0,0,1,736.865,88.6a21.157,21.157,0,0,1,6.316-2.627l.5,1.715a19.577,19.577,0,0,0-5.793,2.377,6.057,6.057,0,0,0-2.8,4.714,5.925,5.925,0,0,0,1.557,3.626A19.583,19.583,0,0,0,740,101.294l6.321,4.658Z" transform="translate(-733.298 -85.977)"/>
    </g>
    <g id="Group_4867" data-name="Group 4867" transform="translate(746.487 89.024)">
      <path id="Path_11156" data-name="Path 11156" class="cls-1" d="M748.963,101.379a13.391,13.391,0,0,1-6.238-1.868,6.565,6.565,0,0,1-3.129-6,4.914,4.914,0,0,1,2.088-3.412,4.033,4.033,0,0,1,3.3-.677,3.587,3.587,0,0,0,1.553-.156,7.05,7.05,0,0,1,1.608-.243v1.787a5.623,5.623,0,0,0-1.2.2,5.033,5.033,0,0,1-2.391.149,2.275,2.275,0,0,0-1.851.412,3.155,3.155,0,0,0-1.332,2.145,4.887,4.887,0,0,0,2.342,4.309,11.37,11.37,0,0,0,5.413,1.578Z" transform="translate(-739.563 -89.024)"/>
    </g>
  </g>
</svg>
