<svg xmlns="http://www.w3.org/2000/svg" xmlns:xlink="http://www.w3.org/1999/xlink" width="601.318" height="287.207" viewBox="0 0 601.318 287.207"><defs><style>.a,.k{fill:#fff;}.a,.d,.q{opacity:0.1;}.b{fill:#eaecf0;}.c{fill:#3a3768;}.e{fill:#efc6cd;}.f{fill:#d48a9b;}.g{fill:#dfe6f5;}.h{opacity:0.15;}.i{fill:#4c4c56;}.j{fill:#d1d9ec;}.l{fill:url(#a);}.m{fill:#d38884;}.n{fill:#a36468;}.o{fill:#444053;}.p{fill:#67647e;}.r{fill:#d3dae1;}.s{fill:#d5e1f4;}.t{fill:url(#b);}.u{fill:#efb7b9;}.v{opacity:0.05;}.w{opacity:0.7;}.x{fill:#2e001e;}.y{fill:#ff2bc2;}.z{fill:#ea6c00;}.aa{fill:#fdad00;}.ab{fill:#fdd231;}.ac{fill:#feeeb7;}</style><linearGradient id="a" y1="0.5" x2="1" y2="0.5" gradientUnits="objectBoundingBox"><stop offset="0" stop-color="gray" stop-opacity="0.251"/><stop offset="0.54" stop-color="gray" stop-opacity="0.122"/><stop offset="1" stop-color="gray" stop-opacity="0.102"/></linearGradient><linearGradient id="b" x1="-8.171" y1="1" x2="-8.171" y2="0" xlink:href="#a"/></defs><g transform="translate(-0.005 0.03)"><path class="a" d="M614.7,428.25a43.2,43.2,0,0,1-11.881,14.257c-.7.563-1.421,1.105-2.149,1.637q-1.472,1.033-3.017,2.03c-8,5.078-17.372,8.549-26.52,11.08q-3.74,1.033-7.506,1.942-3.177.77-6.359,1.436c-.806.176-1.612.341-2.418.517s-1.73.346-2.583.517l-1.224.233c-23.669,4.365-47.647,5.2-71.8,4.1l-1.147-.057-1.834-.093q-7.356-.382-14.727-.976l-1.86-.15-.821-.067q-4.132-.346-8.265-.759-5.445-.517-10.9-1.142l-.47-.052-.382-.047h0c-12.991-1.462-26.014-3.218-39.052-5.021l-1.844-.258-3.311-.46-2.789-.387h0l-.826-.114q-6.6-.925-13.2-1.829l-.713-.1c-8.265-1.131-16.576-2.221-24.862-3.213l-1.08-.129h0q-5.088-.6-10.171-1.152l-2.583-.274-3.435-.346c-9.52-.945-19.035-1.7-28.53-2.169q-6.85-.341-13.73-.517-5.682-.129-11.364-.15-7.707-.036-15.445.088h-1.167c-7.268.119-14.551.325-21.84.573l-1.312.041h-.434c-15.5.548-30.994,1.276-46.449,1.8l-3.776.124h-.548q-8.058.258-16.1.4h-3.192l-2.4.031q-3.735.036-7.454.041h-3.043c-9.1-.026-18.167-.227-27.176-.7l-1-.057a343.951,343.951,0,0,1-51.816-6.447q-2.64-.553-5.269-1.157a241.964,241.964,0,0,1-34.506-10.491c-5.29-2.066-10.61-4.453-14.634-8.492-10.207-10.331-6.374-30.565,6.906-36.448,10.388-4.6,22.558-.858,33.731-2.934a17.238,17.238,0,0,0,2.03-.517,28.2,28.2,0,0,0,4.132-1.7c.455-.227.909-.47,1.369-.723A34.856,34.856,0,0,0,75,378.1a46.921,46.921,0,0,0,4.649-3.528q.981-.837,1.911-1.736a36.554,36.554,0,0,0,5.641-6.752,23.853,23.853,0,0,0,1.55-2.913,15.386,15.386,0,0,0,.641-1.612,15.011,15.011,0,0,0,.615-2.387,11.045,11.045,0,0,0-4.07-10.734,10.832,10.832,0,0,0-1.033-.78,15.78,15.78,0,0,0-2.242-1.3c-.315-.15-.641-.295-.971-.434-4.721-1.989-10.812-2.753-15.946-4.132h0a28.151,28.151,0,0,1-4.566-1.586c-.935-.434-1.865-.888-2.779-1.364h0l-.243-.134h0a62.189,62.189,0,0,1-20.146-16.53,53.847,53.847,0,0,1-3.75-5.445c-.346-.568-.682-1.152-1-1.736-9.076-16.375-10.011-37.358-.568-53.459a50.584,50.584,0,0,1,3.823-5.61q.682-.883,1.41-1.736c8.988-10.605,21.9-17.79,34.94-23.111,17.5-7.139,35.823-11.648,54.5-14.619q5.682-.9,11.364-1.622c15.858-2.025,31.9-3.1,47.833-3.915q22.352-1.131,44.9-1.462,7.64-.1,15.3-.088,17.248,0,34.5.666,5.682.217,11.364.517,14.572.754,29.087,2.066,6.974.63,13.916,1.39c35.25,3.854,69.989,10.388,103.529,20.549q5.708,1.725,11.364,3.616a438.874,438.874,0,0,1,41.526,16.05q1.922.863,3.833,1.736,12.7,5.827,25.043,12.558a278.509,278.509,0,0,1,31.3,19.629q5.847,4.287,11.364,8.947a163.453,163.453,0,0,1,18.136,17.894q.744.863,1.472,1.736,3.781,4.541,7.18,9.407c11.054,15.889,18.472,34.062,23.948,52.627C619.145,394.962,622.358,413.15,614.7,428.25Z" transform="translate(-17.96 -190.099)"/><path class="a" d="M622.042,372.8h-44.13V316.667h19.629q-.728-.873-1.472-1.736H577.933V297.037q-5.507-4.649-11.364-8.947v26.861H464.833V255.9h45.359q-1.916-.873-3.833-1.736H464.833V238.113q-5.682-1.875-11.364-3.616v19.629H308.274l-.346-.331,42-39.868q-6.943-.765-13.916-1.39l-29.087,27.6V210.493q-5.682-.3-11.364-.517V242.05l-34.5-32.74q-7.65,0-15.3.088l46.78,44.4-.346.331H153.027V214.832q-5.682.718-11.364,1.622v37.709H52.215q-.728.852-1.41,1.736h90.847v59.032H47.53c.32.584.656,1.167,1,1.736h93.12V372.8h-45.8q-.93.9-1.911,1.736h47.715v57.441q5.682.811,11.364,1.694V374.537H295.551v71.972q5.682,0,11.364.15V374.537H453.458v88.11l.47.052q5.455.61,10.9,1.142v-89.3H566.538v87.071c.868-.16,1.736-.331,2.583-.516s1.612-.326,2.418-.517q3.182-.677,6.359-1.436v-84.6h44.486Zm-326.492,0H153.027V316.667H295.551Zm0-57.855H153.027V255.9h140.5l2,1.581ZM453.458,372.8H306.925V316.667H453.458Zm0-57.855H306.925V255.9H453.458ZM566.538,372.8H464.833V316.667H566.538Z" transform="translate(-32.253 -190.067)"/><path class="b" d="M315.1,679.24a.738.738,0,0,1-.057.17h0a.456.456,0,0,1,.062-.17Z" transform="translate(-161.578 -417.25)"/><path class="b" d="M313.283,653.2H310.09l-2.4.031-.263-2.722-.243-2.583-1.126-11.783-.036-.362v-.16l-.315-3.316,4.825-1.808.589,4.809.041.356v.041l1.193,9.763.367,3,.212,1.741.181,1.493v.052Z" transform="translate(-157.067 -393.687)"/><path class="c" d="M335.582,507.2l.057.17h-.382l-.057-.17Z" transform="translate(-162.047 -245.216)"/><path class="c" d="M439.4,679.55Z" transform="translate(-221.699 -417.4)"/><path class="c" d="M411.17,542.019v.222s-4.5,12.31-5.971,22.816q-.15,1.033-.248,2.066c-.072.728-.129,1.441-.16,2.133-.041.811-.052,1.6-.031,2.345v.517c0,.346.036.7.057,1.069s.052.734.083,1.116.062.718.1,1.085c1.111,11.364,5.331,28,5.331,28s.14.449.32,1.214H409.48c-7.268.119-14.552.325-21.84.573l-1.312.041h-.434c-15.5.548-30.994,1.276-46.449,1.8l-3.776.124h-.547q-8.058.258-16.1.4H317.6a8.707,8.707,0,0,1,1.25-1.41,9.1,9.1,0,0,1,1.266-.982,28.487,28.487,0,0,1,7.929-3.4,6.325,6.325,0,0,1,1.813-.222l3.616.072h.558l5.548.108,47.585.945h.119l.336-.067a8.914,8.914,0,0,0,1.606-.568,5.641,5.641,0,0,0,3.389-4.38c0-.16.041-.331.052-.517a6.073,6.073,0,0,0,0-.754,2.562,2.562,0,0,0-.041-.553c-.041-.191-.052-.382-.088-.579-1.147-6.41-3.1-26.143-3.1-26.143v.062s0-.842.046-2.257v-.651c0-.315.036-.656.057-1.033,0-.222.031-.449.046-.687.026-.346.057-.7.088-1.074a.294.294,0,0,1,0-.067q.031-.351.062-.713v-.077c.77-7.619,3.192-19.681,10.848-24.149,3.59-2.1,5.966-2.526,7.531-2.113,2.283.6,2.857,2.975,2.98,4.52v.3a7.545,7.545,0,0,1,.072.873Z" transform="translate(-162.815 -348.092)"/><path class="d" d="M315.1,679.24a.738.738,0,0,1-.057.17h0a.456.456,0,0,1,.062-.17Z" transform="translate(-161.578 -417.25)"/><path class="d" d="M335.582,507.2l.057.17h-.382l-.057-.17Z" transform="translate(-162.047 -245.216)"/><path class="d" d="M439.4,679.55Z" transform="translate(-221.699 -417.4)"/><path class="d" d="M411.136,541.835v.16a140.584,140.584,0,0,0-5.486,19.882h0q-.186,1.033-.341,2c-.052.331-.1.661-.145.992q-.15,1.033-.248,2.066c-.072.728-.129,1.441-.16,2.133-.041.811-.052,1.6-.031,2.345v.517c0,.346.036.7.057,1.069s.052.739.083,1.116.062.718.1,1.085.072.718.114,1.08c.165,1.462.372,3,.61,4.556,1.617,10.522,4.608,22.31,4.608,22.31s.15.475.331,1.271h-1.167c-7.268.119-14.551.325-21.84.573l-1.312.041h-.434c-15.5.548-30.994,1.276-46.449,1.8l-3.776.124H335.1q-8.058.258-16.1.4H317.53a8.876,8.876,0,0,1,1.291-1.462,8.563,8.563,0,0,1,1.271-.992,28.8,28.8,0,0,1,7.929-3.4,6.5,6.5,0,0,1,1.813-.217l3.616.072h.558l5.563.109,47.622.94h.083a1.312,1.312,0,0,0,.372-.077,8.353,8.353,0,0,0,1.617-.584,5.636,5.636,0,0,0,3.342-4.293c0-.16.041-.331.052-.516a6.109,6.109,0,0,0,0-.754,2.56,2.56,0,0,0-.041-.553c-.041-.191-.052-.418-.088-.635-1.147-6.41-3.1-26.143-3.1-26.143s0-.842.047-2.257v-.651c0-.315.036-.656.057-1.033,0-.222.031-.449.046-.687.026-.346.057-.7.088-1.074a.3.3,0,0,1,0-.067q.031-.351.062-.713v-.077c.093-.95.217-1.973.372-3.043,1.074-7.48,3.761-17.248,10.455-21.179,3.5-2.066,5.837-2.5,7.407-2.144,2.417.553,2.991,3.043,3.1,4.613v.3a7.538,7.538,0,0,1,.072,1.007Z" transform="translate(-162.782 -347.907)"/><path class="c" d="M315.1,679.24a.738.738,0,0,1-.057.17h0a.456.456,0,0,1,.062-.17Z" transform="translate(-161.578 -417.25)"/><path class="c" d="M335.582,507.2l.057.17h-.382l-.057-.17Z" transform="translate(-162.047 -245.216)"/><path class="c" d="M439.4,679.55Z" transform="translate(-221.699 -417.4)"/><path class="c" d="M408.2,541.005s-6.741,18.42-6.416,29.444,5.589,31.737,5.589,31.737.227.728.47,1.891c-7.268.119-14.552.325-21.84.573l-1.312.041h-.434c-15.5.548-30.994,1.276-46.449,1.8l-3.776.124h-.548q-8.058.258-16.1.4H314.19a9.3,9.3,0,0,1,2.836-2.981l.139-.1a28.756,28.756,0,0,1,7.924-3.332,6.509,6.509,0,0,1,1.813-.217l4.773.093h.558l5.749.114,46.361.925a7.8,7.8,0,0,0,1.916-.625,5.5,5.5,0,0,0,.589-.315h0a6.194,6.194,0,0,0,1.55-1.266,5.851,5.851,0,0,0,1.193-5.166c-1.152-6.411-3.1-26.143-3.1-26.143s-.331-24.01,11.178-30.751c4.649-2.722,7.263-2.629,8.725-1.55a.958.958,0,0,1,.124.093C408.534,537.415,408.2,541.005,408.2,541.005Z" transform="translate(-161.167 -347.517)"/><path class="b" d="M130.921,632.438l-.186,1.927-1.126,11.824q-2.64-.553-5.269-1.157l1.317-10.75.444-3.652Z" transform="translate(-69.386 -393.75)"/><path class="e" d="M55.12,398.664,83.252,338.79l113.318,8.838,10.445,51.036Z" transform="translate(-26.645 -163.799)"/><path class="f" d="M55.12,459.922V454.7H207.014v7.635Z" transform="translate(-26.645 -219.835)"/><path class="g" d="M154.943,582.379l67.959,1.384a.94.94,0,0,0,.914-1.235l-10.595-28.576-45.772-.873L153.91,580.8a1.126,1.126,0,0,0,1.033,1.581Z" transform="translate(-83.635 -356.259)"/><path class="h" d="M154.943,582.379l67.959,1.384a.94.94,0,0,0,.914-1.235l-10.595-28.576-45.772-.873L153.91,580.8a1.126,1.126,0,0,0,1.033,1.581Z" transform="translate(-83.635 -356.259)"/><path class="g" d="M154.94,580.1l68.661,1.446-9.334-28.271a2.33,2.33,0,0,0-2.164-1.6l-44.124-.837Z" transform="translate(-84.179 -355.177)"/><path class="i" d="M165.738,576.956l8.229-18.105a2.2,2.2,0,0,1,1.994-1.281h20.451a2.185,2.185,0,0,1,2.185,2.185v19.562A2.19,2.19,0,0,1,196.3,581.5l-28.685-1.462a2.185,2.185,0,0,1-1.88-3.084Z" transform="translate(-89.305 -358.43)"/><path class="j" d="M244,579.541l.351-10.331a1.586,1.586,0,0,1,1.581-1.55h6.044a1.581,1.581,0,0,1,1.55,1.312l1.777,10.274a1.586,1.586,0,0,1-1.55,1.854l-8.177.072A1.581,1.581,0,0,1,244,579.541Z" transform="translate(-127.233 -363.308)"/><path class="i" d="M86.7,458.788l22.785-1.9a1.55,1.55,0,0,1,1.622.914l21.546,48.768-12.026,27c.377-.847.656,5.744-2.066.031L84.32,462.162C83.86,461.206,85.632,458.923,86.7,458.788Z" transform="translate(-50.002 -309.75)"/><path class="h" d="M86.7,458.788l22.785-1.9a1.55,1.55,0,0,1,1.622.914l21.546,48.768-12.026,27c.377-.847.656,5.744-2.066.031L84.32,462.162C83.86,461.206,85.632,458.923,86.7,458.788Z" transform="translate(-50.002 -309.75)"/><path class="i" d="M87.709,457.706l23.943-3.058a1.55,1.55,0,0,1,1.622.914l21.551,48.768-13.038,29.263-35.3-73.672a1.55,1.55,0,0,1,1.224-2.216Z" transform="translate(-51.01 -308.667)"/><path class="k" d="M99.331,464.679l17.31-2.7a1.55,1.55,0,0,1,1.679.951l18.131,44.352a1.4,1.4,0,0,1-.031,1.136l-8.3,17.346a1.4,1.4,0,0,1-2.536,0L98.159,466.879a1.55,1.55,0,0,1,1.173-2.2Z" transform="translate(-56.656 -312.21)"/><path class="k" d="M439.4,679.55Z" transform="translate(-221.699 -417.4)"/><path class="l" d="M326.99,531.022s-.356.589-.878,1.55l-.046.088c-.465.826-1.033,1.911-1.612,3.1l-1.312.041h-.434c-15.5.547-30.994,1.276-46.449,1.8l-3.776.124h-.548q-8.058.258-16.1.4h-3.192l-2.4.031q-3.735.036-7.454.041h-2.955c-9.1-.026-18.167-.227-27.176-.7l-1-.057c1.772-3.854,4.938-10.171,7.511-12.191,1.989-1.55,16.272-3.27,29.408-4.53l1.384-.134h.031l3.668-.341c5.026-.46,9.587-.832,12.842-1.085l.3-.026-1.694-5.682-2.454-8.265.7-6.943.057-.558h-.078a4.562,4.562,0,0,1-2.066-.258l-24.531-.847h-.444l-9.422-.336h0c-5.052-.181-8.642-.315-8.782-.341a2.236,2.236,0,0,1-.434-.119,1.953,1.953,0,0,1-.6-.362,2.4,2.4,0,0,1-.517-.62H216.2l-1.333.088-.677.047c-.026-.072-.046-.145-.072-.212-.062-.2-.124-.393-.181-.589h-.356l-4.649-.1h-.083s-11.995.914-18.26-1.369h0c-2.3-.837-3.828-2.1-3.709-4a4.323,4.323,0,0,1,.269-1.26c-2.015-3.766,7.826-10.636,15.326-8.74a13.277,13.277,0,0,0,6.23.258,8.017,8.017,0,0,0,3.1-1.41c.093-.067.176-.134.253-.2-.124-.078-.253-.145-.372-.207a5.776,5.776,0,0,0-1.638-.568l2.035-.594h.031s7.232-.661,11.938-.925h.031c1.4-.072,2.583-.119,3.285-.1,3.1.088,9.138-2.128,9.4-2.81s3.017,0,3.017,0l2.412-.94c2.412-.935,3.792-2.211,3.792-3.151s2.154-1.958,2.154-1.958a20.368,20.368,0,0,1,4.876-4.933c1.731-1.338,3.528-2.531,4.861-3.363a98,98,0,0,1,2.066-9.939c.914-3.053,3.75-5.315,4.768-6.049l.372-.248a26.778,26.778,0,0,0-1.136-3.781,2.921,2.921,0,0,0-.124-.31c-.1-.243-.212-.48-.32-.7l-.16-.31c-.263.052-.517.1-.8.134a18.091,18.091,0,0,1-2.583.191,17.723,17.723,0,0,1-17.124-12.914s0,0,0-.031a17.49,17.49,0,0,1-.62-4.649,17,17,0,0,1,.589-4.463h0c.077-.31.17-.615.269-.919a.814.814,0,0,1,.036-.1c.046-.14.093-.284.145-.424a18.166,18.166,0,0,1-2.309.2h-.517a10.93,10.93,0,0,1-4.324-.718h0a5.865,5.865,0,0,1-.956-.517.123.123,0,0,1-.041-.031,4.844,4.844,0,0,1-1.064-.842,5.476,5.476,0,0,0,2.1-3.657c.139-1.116-.046-2.361.62-3.27a4.69,4.69,0,0,1,1.209-1.033c2.748-1.875,4.928-4.448,7.413-6.664s5.491-4.132,8.833-4.236c4.484-.139,8.43,2.981,12.873,3.569a34.87,34.87,0,0,1,4.1.46,14.1,14.1,0,0,1,4.158,2.108,10.441,10.441,0,0,1,2.965,2.521,8.89,8.89,0,0,1,1.209,2.888,31.931,31.931,0,0,1,1.033,6.617c.119,2.34,0,4.7.248,7.02a12.041,12.041,0,0,0,1.984,5.646h.067a7.758,7.758,0,0,0,.641.785c-.439.139-.878.263-1.328.372a20.939,20.939,0,0,1-2.268.449,6.612,6.612,0,0,1-1.059.088,3.163,3.163,0,0,1-.734-.067l.455.3,1.26.847h0l.475.315.956.635c.217-.635.517-.806.863-.764.7-.661,1.751.77,1.751.77a10.368,10.368,0,0,0,3.73,3.218,29.469,29.469,0,0,0,2.65,1.384c19.3,11.5,18.08,28.716,19.216,30.079s1.209,6.3,1.209,6.3,2.846,16.783,4.132,18.234.083,1.958,1.2,3.58.863,5.961.863,5.961.775,10.223,3.533,12.439c2.474,1.989,5.78,18.72,6.436,22.14Z" transform="translate(-99.619 -278.62)"/><path class="m" d="M215.179,556.44s-2.681,4.22-10.274,2.278-17.641,5.4-14.774,9.029,21.355-1.033,21.355-1.033l7.092-1.436-.465-5.9Z" transform="translate(-100.95 -357.884)"/><path class="d" d="M215.179,556.44s-2.681,4.22-10.274,2.278-17.641,5.4-14.774,9.029,21.355-1.033,21.355-1.033l7.092-1.436-.465-5.9Z" transform="translate(-100.95 -357.884)"/><path class="n" d="M238.9,555.84l-3.29-.17-2.025.589s6.416.93,4.649,9.623l6.917-.418Z" transform="translate(-122.197 -357.512)"/><path class="d" d="M238.9,555.84l-3.29-.17-2.025.589s6.416.93,4.649,9.623l6.917-.418Z" transform="translate(-122.197 -357.512)"/><path class="o" d="M284.347,518.36s-9.029,5.166-11.566,9.458c0,0-2.108,1.033-2.108,1.942s-1.353,2.19-3.714,3.1l-2.366.93s-2.7-.677-2.955,0-6.157,2.867-9.2,2.784-14.939,1.033-14.939,1.033a10.574,10.574,0,0,1,5.992,11.731L271.6,548.16l10.631-2.366,6.25-6.245Z" transform="translate(-124.092 -339.474)"/><path class="d" d="M284.347,518.36s-9.029,5.166-11.566,9.458c0,0-2.108,1.033-2.108,1.942s-1.353,2.19-3.714,3.1l-2.366.93s-2.7-.677-2.955,0-6.157,2.867-9.2,2.784-14.939,1.033-14.939,1.033a10.574,10.574,0,0,1,5.992,11.731L271.6,548.16l10.631-2.366,6.25-6.245Z" transform="translate(-124.092 -339.474)"/><path class="m" d="M219.776,577.881,215.8,577.8l-4.649-.1s-21.954,1.689-21.525-5.331,17.315-9.484,19.665-7.469c1.782,1.524,5.9,2.753,7.785,3.254.6.16.966.248.966.248Z" transform="translate(-100.944 -361.648)"/><path class="d" d="M243.7,581.576l-3.978-.077c-1.586-5.45.253-8.451,1.3-9.629.6.16.966.248.966.248Z" transform="translate(-124.866 -365.343)"/><path class="n" d="M246.66,581.286l-4.133.289-1.963.134c-2.7-7.934,1.663-11.059,1.663-11.059h1.291l2.113.253Z" transform="translate(-125.147 -364.754)"/><path class="m" d="M340.7,470.174l-4.9,9.3s-.749-9.417-2.929-13.854a3.93,3.93,0,0,0-1.968-2.185c-2.066-.651,9.815-13.673,9.815-13.673a47.281,47.281,0,0,1,5.455,3.445c3.063,2.066,6.751,4.587,9.231,6.2C360.11,462.405,340.7,470.174,340.7,470.174Z" transform="translate(-169.131 -306.31)"/><path class="o" d="M331.244,489.62s-3.936,2.526-5.031,6.24a104.228,104.228,0,0,0-2.113,10.383s1.777,15.951,2.7,16.711,4.442,16.711,4.442,16.711l3.409-2.278L330.18,517.3S333.155,491.485,331.244,489.62Z" transform="translate(-165.958 -325.58)"/><path class="d" d="M331.244,489.62s-3.936,2.526-5.031,6.24a104.228,104.228,0,0,0-2.113,10.383s1.777,15.951,2.7,16.711,4.442,16.711,4.442,16.711l3.409-2.278L330.18,517.3S333.155,491.485,331.244,489.62Z" transform="translate(-165.958 -325.58)"/><path class="n" d="M334.716,357.43H315.04l3.187-31.04h16.489Z" transform="translate(-152.3 -157.805)"/><path class="p" d="M282.647,679.24h.238l-.444.17Z" transform="translate(-145.818 -417.25)"/><path class="p" d="M297.594,644.681l-3.848,1.477-.517.191-13.854,5.326-5.284,2.03-7.19,2.764h-2.934c-9.1-.026-18.167-.227-27.176-.7,1.746-3.828,4.8-9.954,7.289-11.933,1.942-1.55,15.838-3.223,28.664-4.484,1.6-.155,3.182-.3,4.721-.444l.367-.036c5.093-.465,9.7-.842,12.914-1.1l.517-.041,4.04-.31.424-.424.517,2.211.429,1.767Z" transform="translate(-123.749 -396.83)"/><path class="d" d="M282.647,679.24h.238l-.444.17Z" transform="translate(-145.818 -417.25)"/><path class="d" d="M297.594,644.681l-3.848,1.477-.517.191-13.854,5.326-5.284,2.03-7.19,2.764h-2.934c-9.1-.026-18.167-.227-27.176-.7,1.746-3.828,4.8-9.954,7.289-11.933,1.942-1.55,15.838-3.223,28.664-4.484,1.6-.155,3.182-.3,4.721-.444l.367-.036c5.093-.465,9.7-.842,12.914-1.1l.517-.041,4.04-.31.424-.424.517,2.211.429,1.767Z" transform="translate(-123.749 -396.83)"/><path class="p" d="M282.647,679.24h.238l-.444.17Z" transform="translate(-145.818 -417.25)"/><path class="p" d="M315.1,679.24a.738.738,0,0,1-.057.17h0a.456.456,0,0,1,.062-.17Z" transform="translate(-161.578 -417.25)"/><path class="p" d="M335.639,507.37h-.382l-.057-.17h.382Z" transform="translate(-162.047 -245.216)"/><path class="p" d="M326.318,641.357,326,651.988v.63l-.16,5.264-3.776.124h-.548q-8.058.258-16.1.4h-3.192l-2.4.031q-3.735.036-7.454.041H289.4c2.686-1.663,6.163-3.5,9.9-5.331,1.679-.827,3.42-1.648,5.166-2.459,4.649-2.159,9.355-4.2,13.193-5.827l.491-.207c1.488-.63,2.836-1.193,3.988-1.668,2.49-1.033,4.07-1.653,4.179-1.694Z" transform="translate(-149.182 -398.904)"/><path class="d" d="M293.488,554.8a19.4,19.4,0,0,0,3.559,5.641c.253.248.692.475.92.2a.651.651,0,0,0,.1-.382,4.929,4.929,0,0,0-.93-2.635c-.517-.8-1.126-1.519-1.586-2.345s-.987-2.417-2.02-2.635C292.2,552.364,293.193,554.188,293.488,554.8Z" transform="translate(-150.853 -356.034)"/><path class="d" d="M346.153,453.175c-.072.258-.15.517-.232.764a17.4,17.4,0,0,1-13.048,11.648A3.93,3.93,0,0,0,330.9,463.4c-2.066-.651,9.815-13.673,9.815-13.673A55.024,55.024,0,0,1,346.153,453.175Z" transform="translate(-169.131 -306.296)"/><path class="m" d="M329.3,430.517a17.351,17.351,0,1,1-5.082-12.305A17.387,17.387,0,0,1,329.3,430.517Z" transform="translate(-151.663 -288.602)"/><path class="p" d="M338.2,496.79s-3.616,4.391-3.037,7.263h4.386l3.208-3.616Z" transform="translate(-171.275 -329.047)"/><path class="d" d="M353.092,460.9,339.3,479.863s3.544,5.067,5.233,5.32,11.323-22.429,11.323-22.429Z" transform="translate(-173.306 -311.696)"/><path class="n" d="M353.427,460.24l-13.8,18.989s3.544,5.062,5.233,5.315,11.323-22.424,11.323-22.424Z" transform="translate(-173.466 -311.377)"/><path class="p" d="M334.652,507.26S333.975,517.891,333.3,520s0,21.52,0,21.52l6.333-2.614-1.1-29.8Z" transform="translate(-170.259 -334.108)"/><path class="d" d="M335.582,507.2l.057.17h-.382l-.057-.17Z" transform="translate(-162.047 -245.216)"/><path class="d" d="M439.4,679.55Z" transform="translate(-221.699 -417.4)"/><path class="d" d="M395.853,564.275s-.119.2-.315.517-.408.718-.682,1.224a.391.391,0,0,0-.036.062c-.382.708-.837,1.576-1.3,2.521-15.5.548-30.994,1.276-46.449,1.8l-3.776.124h-.548l-1.622-5.475v-.057l-.17-.579-1.033-3.44-1.033-3.5-1.069-3.73-.393-1.353-.1-.341-1.684-5.734-2.283-7.784.739-7.428h0l.052-.563.666-6.653.093-1.973h0l.052-1.033v-.294h0l.114-2.4.341-7.129.176-3.647h0l.031-.553h0l.351-7.32,1-2.991.517-1.488,1.147-3.456.248-.852h0c.362-1.3,1.09-3.859,1.772-6.323h0l.062-.212h0l.047-.16.486-1.751.6-2.247c.227-.863.377-1.477.413-1.689a33.119,33.119,0,0,1,2.314-4.132h0c2.583-4.272,6.467-10.559,6.912-12.666a.227.227,0,0,0,0-.052,2.574,2.574,0,0,1,.108-.377c.212-.63.517-.8.837-.759a1.034,1.034,0,0,1,.408.16,3.251,3.251,0,0,1,.806.775,10.283,10.283,0,0,0,3.652,3.187l.279.16.165.1c1.188.677,2.149,1.111,2.149,1.111,18.906,11.4,17.728,28.447,18.823,29.8s1.183,6.25,1.183,6.25,2.784,16.628,4.05,18.08.088,1.942,1.183,3.549.842,5.853.842,5.853.759,10.125,3.461,12.32S395.853,564.275,395.853,564.275Z" transform="translate(-170.434 -311.444)"/><path class="o" d="M396.838,563.935l-.227.393h0c-.181.32-.47.826-.816,1.462l-.036.072c-.393.728-.858,1.612-1.317,2.583h-.434c-15.5.548-30.994,1.276-46.449,1.8l-3.776.124-1.617-5.5v-.057l-.171-.578-1.069-3.616-1.033-3.513L338.86,553.6l-.408-1.405h0l-1.767-6.033-2.335-7.95.646-6.462.088-.863.713-7.34h0l.274-5.723.336-6.917.088-1.813.1-2.1.041-.883.336-6.912,1-2.986.429-1.286,1-3.022.212-.641s.966-3.394,1.9-6.757c.036-.124.072-.248.1-.372.083-.289.16-.579.243-.863h0c.083-.289.16-.573.233-.857.263-.94.517-1.818.692-2.542.253-.945.424-1.632.46-1.854a30.417,30.417,0,0,1,2.361-4.2c2.443-4.04,6.008-9.815,6.762-12.211a3.882,3.882,0,0,0,.1-.377h0a1.969,1.969,0,0,1,.449-1.033c.692-.666,1.72.764,1.72.764a10.234,10.234,0,0,0,3.652,3.187,27.4,27.4,0,0,0,2.583,1.369c18.906,11.4,17.728,28.447,18.823,29.8s1.183,6.245,1.183,6.245,2.784,16.628,4.05,18.08.088,1.942,1.183,3.544.842,5.909.842,5.909.759,10.13,3.461,12.325S396.838,563.935,396.838,563.935Z" transform="translate(-170.913 -311.269)"/><path class="d" d="M361.681,464.812c-1.854,2.7-4.876,7.438-5.682,10.848,0,0-2.955,3.043-4.055,2.872s1.033,2.278,1.033,2.278L341.37,496.9l1.648-4.943s3.461-12.155,3.616-13.25,8.559-13.642,9.226-16.8c.517-2.526,2.17-.253,2.17-.253A10.3,10.3,0,0,0,361.681,464.812Z" transform="translate(-174.307 -311.605)"/><path class="o" d="M361.681,464.136c-1.854,2.691-4.876,7.438-5.682,10.822,0,0-2.955,3.037-4.055,2.872s1.033,2.278,1.033,2.278L341.37,496.194l1.648-4.943S346.479,479.1,346.634,478s8.559-13.637,9.226-16.793c.517-2.531,2.17-.253,2.17-.253A10.2,10.2,0,0,0,361.681,464.136Z" transform="translate(-174.307 -311.264)"/><path class="d" d="M374.467,511.843c.088,3.688-5.315,8.725-5.569,9.019s-16.8,13.947-16.8,13.947l-11.881,9.112a10.093,10.093,0,0,1-4.649,2.149l.811-8.151.8-16.53c1.854-2.066,3.652-4.236,3.693-4.928.083-1.431,3.1-2.955,3.1-2.955s2.113-1.772,1.772-2.784,1.121-5.863,1.121-5.863c.759-13.761,14.939-15.109,14.939-15.109a97.2,97.2,0,0,1,11.648,5.568C378.264,498.185,374.384,508.16,374.467,511.843Z" transform="translate(-171.503 -325.643)"/><path class="d" d="M248.727,581.286l-4.132.289c-1.746-2.97.656-10.925.656-10.925h.336l2.113.253Z" transform="translate(-127.214 -364.754)"/><path class="o" d="M317.886,488.13s-14.18,1.353-14.939,15.109c0,0-1.436,4.814-1.1,5.827s-1.772,2.784-1.772,2.784-3.037,1.519-3.1,2.955-7.748,9.267-7.748,9.267-3.2,3.647-10.631,4.029-10.889,2.655-10.889,2.655-3.616-2.531-6.25-1.772-15.445,1.772-15.445,1.772-3.4,11.282.842,11.989c.517.083,42.306,1.519,42.306,1.519s2.857,1.348,7.16-1.942S308.2,533.2,308.2,533.2s16.53-13.673,16.8-13.947,5.682-5.336,5.569-9.019,3.8-13.648-1.033-16.53A97.373,97.373,0,0,0,317.886,488.13Z" transform="translate(-127.582 -324.86)"/><path class="d" d="M330.083,430.466a17.353,17.353,0,0,1-.852,5.388,7.266,7.266,0,0,1-.641-.883q-1.209-1.86-2.423-3.719a10.053,10.053,0,0,0-2.464-2.9,3.44,3.44,0,0,0-3.616-.382,3.621,3.621,0,0,0-1.55,2.9,32.893,32.893,0,0,0,.088,3.42,1.885,1.885,0,0,1-.315,1.235,2.025,2.025,0,0,1-1.333.516l-1.55.212a1.11,1.11,0,0,1-1.426-.708c-1.286-2.33-2.175-5.222-4.587-6.343-1.488-.692-3.451-.646-4.406-1.978a4.31,4.31,0,0,1-.372-3.249,25.645,25.645,0,0,1,.9-3.678c.274-.847.883-2.536-.47-2.707a3.564,3.564,0,0,0-2.655,1.55,13.8,13.8,0,0,0-.909,2.407,5.75,5.75,0,0,1-3.177,2.95,9.111,9.111,0,0,1-2.19.594,17.387,17.387,0,0,1,33.938,5.341Z" transform="translate(-152.441 -288.551)"/><path class="o" d="M294.188,410.266a14.124,14.124,0,0,0-.909,2.4,5.754,5.754,0,0,1-3.172,2.95,12.2,12.2,0,0,1-4.355.775c-2.407.072-5.093-.294-6.643-2.139a5.439,5.439,0,0,0,2.066-3.616c.134-1.105-.046-2.34.61-3.244a4.65,4.65,0,0,1,1.178-1c2.7-1.86,4.825-4.411,7.263-6.6s5.377-4.1,8.652-4.2c4.386-.134,8.265,2.955,12.6,3.538a34.486,34.486,0,0,1,4.008.455,13.669,13.669,0,0,1,4.076,2.066,10.429,10.429,0,0,1,2.908,2.5,8.992,8.992,0,0,1,1.183,2.862,31.954,31.954,0,0,1,1.033,6.555c.119,2.314,0,4.649.248,6.953a11.016,11.016,0,0,0,2.557,6.354,22.72,22.72,0,0,1-3.518.811,3.663,3.663,0,0,1-2.237-.176,3.94,3.94,0,0,1-1.364-1.472l-2.423-3.719a10.052,10.052,0,0,0-2.464-2.9,3.441,3.441,0,0,0-3.616-.382,3.635,3.635,0,0,0-1.55,2.9,32.918,32.918,0,0,0,.088,3.42,1.885,1.885,0,0,1-.315,1.235,2.03,2.03,0,0,1-1.338.517l-1.55.212a1.111,1.111,0,0,1-1.426-.708c-1.286-2.335-2.175-5.222-4.587-6.343-1.488-.692-3.451-.646-4.406-1.978a4.31,4.31,0,0,1-.372-3.249,25.642,25.642,0,0,1,.9-3.678c.274-.847.883-2.536-.47-2.712A3.566,3.566,0,0,0,294.188,410.266Z" transform="translate(-144.208 -280.123)"/><path class="d" d="M377.541,502.571a7.566,7.566,0,0,1,3.905.2,14.286,14.286,0,0,0-11.276.992C370.433,504.369,376.529,502.71,377.541,502.571Z" transform="translate(-188.23 -331.584)"/><path class="d" d="M379.292,509.808c3.177.212,6.457.656,9.468-.377-2.521-.868-5.295-.32-7.95-.584-2.118-.212-4.272-.945-6.338-.408-.863.222-4.04,1.684-3.823,2.753A17.164,17.164,0,0,1,379.292,509.808Z" transform="translate(-188.457 -334.585)"/><path class="d" d="M371.1,524.2a4.774,4.774,0,0,1,1.973.207,30.177,30.177,0,0,0,7.273.8c1.87,0,3.885-.284,5.248-1.55Z" transform="translate(-188.68 -342.037)"/><path class="d" d="M351.29,554.439a14.558,14.558,0,0,0,7.1,1.292,31.359,31.359,0,0,0,7.149-1.374,4.78,4.78,0,0,0,2.764-1.586Z" transform="translate(-179.103 -356.11)"/><path class="d" d="M394.057,559.752a37.945,37.945,0,0,0,15.765,4.881q-4.2-1.684-8.461-3.187a61.272,61.272,0,0,0-8.911-2.387A4.532,4.532,0,0,1,394.057,559.752Z" transform="translate(-199.001 -359.151)"/><path class="d" d="M406.527,553.167a13.321,13.321,0,0,0,2.939.16,1.676,1.676,0,0,0,1.436-.516,25.2,25.2,0,0,1-6.566-.966c-.615-.145-1.72-.486-2.237-.119A14.2,14.2,0,0,0,406.527,553.167Z" transform="translate(-203.666 -355.526)"/><path class="d" d="M433.222,635.883a21.348,21.348,0,0,0,6.906,8.224c-1.916-4.887-3.864-9.815-6.932-14.087-.775-1.075-1.932-2.614-3.342-2.81-.4,1.193.615,3.306,1.105,4.427A42.608,42.608,0,0,0,433.222,635.883Z" transform="translate(-217.039 -392.097)"/><path class="d" d="M327.072,571.23a3.509,3.509,0,0,0,.325,2.417,1.745,1.745,0,0,0,.981.677c-.248-.062-.517-2.49-.579-2.82-.114-.677,0-1.942-.48-2.443C327.2,569.773,327.149,570.506,327.072,571.23Z" transform="translate(-167.364 -363.985)"/><path class="d" d="M331.924,570.163a5.506,5.506,0,0,0,2.583,3.5c-.9-1.116-1.2-2.583-1.984-3.807-.253-.393-.548-.956-1.033-1.033q.183.682.434,1.343Z" transform="translate(-169.53 -363.869)"/><path class="d" d="M322.107,541.925a6.452,6.452,0,0,1-5.114.646c-.387-.114-1.291-.517-1.074-1.085s1.266-.176,1.694-.124l2.247.284C320.274,541.7,321.772,542.121,322.107,541.925Z" transform="translate(-161.987 -350.507)"/><path class="d" d="M313.21,549.648c1.059-.134,2.009.6,3,1a9.145,9.145,0,0,0,3.409.454,1.9,1.9,0,0,0,1.591-.516C318.52,549.968,316,549.291,313.21,549.648Z" transform="translate(-160.693 -354.552)"/><path class="n" d="M319.97,317.58h.17l1.266,4.551-1.436,1.529Z" transform="translate(-154.684 -153.546)"/><g class="q" transform="translate(134.974 127.499)"><path d="M283.532,419.76a10.66,10.66,0,0,0-.232,2.247,4.967,4.967,0,0,0,.139-.723C283.5,420.788,283.5,420.266,283.532,419.76Z" transform="translate(-281.208 -419.307)"/><path d="M296.983,419.925a.909.909,0,0,1,.847,1.033c.243-.858.377-1.911-.677-2.066a3.547,3.547,0,0,0-2.655,1.576,14.451,14.451,0,0,0-.909,2.407,5.739,5.739,0,0,1-3.172,2.95,12.207,12.207,0,0,1-4.355.775c-2.19.067-4.613-.238-6.2-1.684a5.259,5.259,0,0,1-.615.558c1.55,1.844,4.236,2.211,6.648,2.139a12.2,12.2,0,0,0,4.349-.775,5.765,5.765,0,0,0,3.177-2.95,14.1,14.1,0,0,1,.9-2.4A3.523,3.523,0,0,1,296.983,419.925Z" transform="translate(-279.25 -418.882)"/><path d="M353.6,447.326a3.663,3.663,0,0,1-2.237-.176A3.989,3.989,0,0,1,350,445.678q-1.209-1.86-2.423-3.719a9.971,9.971,0,0,0-2.459-2.9,3.43,3.43,0,0,0-3.616-.382,3.7,3.7,0,0,0-1.576,2.9v.139a3.265,3.265,0,0,1,1.41-2.025,3.444,3.444,0,0,1,3.616.382,10.135,10.135,0,0,1,2.464,2.9q1.209,1.86,2.423,3.719a3.9,3.9,0,0,0,1.364,1.472,3.647,3.647,0,0,0,2.232.176,22.906,22.906,0,0,0,3.523-.811,7.551,7.551,0,0,1-.63-.78,22.175,22.175,0,0,1-2.728.579Z" transform="translate(-308.585 -428.276)"/><path d="M326.426,443.328a2.066,2.066,0,0,1-1.333.516l-1.55.212a1.111,1.111,0,0,1-1.426-.708c-1.286-2.335-2.175-5.222-4.587-6.343-1.488-.692-3.445-.646-4.4-1.978a3.8,3.8,0,0,1-.46-2.707c-.026.16-.062.315-.088.47a4.311,4.311,0,0,0,.377,3.249c.956,1.333,2.919,1.286,4.4,1.979,2.417,1.121,3.306,4.008,4.592,6.343a1.477,1.477,0,0,0,.594.708,1.514,1.514,0,0,0,.832.036l1.55-.212a2.025,2.025,0,0,0,1.333-.517,1.855,1.855,0,0,0,.315-1.235h0A1.541,1.541,0,0,1,326.426,443.328Z" transform="translate(-295.298 -425.379)"/></g><path class="b" d="M750.3,643.252l-3.311-.46V593.91l.677.207,2.066.635v4.706l.026,2.123.047,4.37v5.961l.248,22.011v.589l.088,7.748v.119Z" transform="translate(-370.4 -375.998)"/><path class="r" d="M754.892,644.288l-1.844-.258v-1l-.088-7.748v-.589l-.248-22.01v-5.961l-.047-4.37-.026-2.123V595.52h1.989v6.318l.041,4.721v5h0l.191,23.1v.594l.062,7.681v.124Z" transform="translate(-373.131 -376.777)"/><path class="r" d="M757,695.27Z" transform="translate(-375.239 -425)"/><path class="b" d="M1143.138,582.18v42.193q-1.472,1.033-3.017,2.03l-.041-35.126v-3.729Z" transform="translate(-560.436 -370.328)"/><path class="r" d="M1148.149,581v41.17c-.7.563-1.421,1.105-2.149,1.637v-42.2Z" transform="translate(-563.298 -369.757)"/><path class="b" d="M1053.679,658.713c-1.271.258-2.547.517-3.822.739l-.047-38.179V619.62l3.683-1.55v3.5Z" transform="translate(-516.795 -387.678)"/><path class="r" d="M1059.578,615.73v41.325c-.806.176-1.612.341-2.418.517l-.17-37.125v-3.5l.243-.114h0Z" transform="translate(-520.267 -386.547)"/><path class="b" d="M634.524,632.077l-3.435-.346-.439-43.05V586.63h3.373v2.34Z" transform="translate(-314.157 -372.479)"/><path class="r" d="M640.2,632.351l-2.583-.274L637.1,588.97v-2.34h2.609V589.2Z" transform="translate(-317.275 -372.479)"/><path class="d" d="M1039.45,444.8l2.361-1.111V448.9l-2.3.77Z" transform="translate(-502.51 -214.512)"/><path class="d" d="M1127.312,408.95v7.976l-2.144.718-3.063,1.018-.005-3.73,3.068-5.367Z" transform="translate(-542.466 -197.718)"/><path class="f" d="M1087.124,379.27v22.083L1039.28,417.3l-.31-23.617Z" transform="translate(-502.278 -183.369)"/><path class="e" d="M611.46,365.1l62.876-11.964,206.112,13.5L832.294,381.05Z" transform="translate(-295.602 -170.737)"/><path class="d" d="M618.632,414.6l.021,2.562-2.6-.227-3.383-.289-.016-2.046Z" transform="translate(-296.177 -200.449)"/><path class="d" d="M733.808,425.744l-1.989-.176-2.789-.238V421.88l2.758.837h1.994Z" transform="translate(-352.44 -203.968)"/><path class="f" d="M611.46,376.3v20.549L832.6,415.863l-.31-23.617Z" transform="translate(-295.602 -181.933)"/><path class="f" d="M923.866,413.791H894.98V403.31l28.886,2.035Z" transform="translate(-432.667 -194.991)"/><path class="d" d="M923.866,413.791H894.98V403.31l28.886,2.035Z" transform="translate(-432.667 -194.991)"/><path class="d" d="M819.87,398.86v16.561l110.879,8.435V406.221L887.5,403.767l-4.3,3.833-17.635-1.224-6.286-4.6Z" transform="translate(-396.356 -192.84)"/><path class="k" d="M818.68,397.67v16.566l110.88,8.43V405.031l-43.246-2.454-4.292,3.838-17.641-1.229-6.287-4.6Z" transform="translate(-395.78 -192.264)"/><path class="f" d="M683.785,389.06l26.226,1.844-.3,8.332H692.582l-11.452-4.5Z" transform="translate(-329.283 -188.102)"/><path class="d" d="M683.785,389.06l26.226,1.844-.3,8.332H692.582l-11.452-4.5Z" transform="translate(-329.283 -188.102)"/><path class="d" d="M618.59,384.61v14.877l100.6,7.976v-15.8l-38.8-2.3-4.143,3.068-15.641-.919-6.441-3.988Z" transform="translate(-299.049 -185.951)"/><path class="k" d="M617.4,383.42V398.3L718,406.273v-15.8l-38.8-2.3-4.138,3.063-15.647-.919-6.442-3.988Z" transform="translate(-298.474 -185.375)"/><path class="d" d="M1014.733,383.53l14.1.925-23.364,6.994-11.9-.857Z" transform="translate(-480.329 -185.428)"/><path class="k" d="M1014.733,382.35l14.1.919-23.364,6.994-11.9-.858Z" transform="translate(-480.329 -184.858)"/><path class="r" d="M1049.24,557.384c.558-.243,1.152.207,1.746.32.336.067.687,0,1.033.067.692.093,1.374.553,2.035.32Z" transform="translate(-516.52 -358.306)"/><path class="r" d="M1047.83,558.2c.553-.238,1.147.212,1.741.325.341.062.692,0,1.033.062.687.093,1.374.558,2.035.325Z" transform="translate(-515.838 -358.7)"/><path class="r" d="M1044.59,559.836c.552-.238,1.147.207,1.741.32.341.067.687,0,1.033.067.692.093,1.379.558,2.035.32Z" transform="translate(-514.272 -359.492)"/><path class="d" d="M841.155,368.55l31.443,2.061-6.7,9.623-34.568-3.693Z" transform="translate(-401.896 -178.186)"/><path class="c" d="M839.96,367.36l31.443,2.056-6.7,9.629-34.573-3.693Z" transform="translate(-401.316 -177.611)"/><path class="s" d="M843.82,368.73l27.424,1.679L865.4,378.25l-30.152-3.012Z" transform="translate(-403.791 -178.274)"/><path class="c" d="M757,695.27Z" transform="translate(-375.239 -425)"/><path class="d" d="M757,695.27Z" transform="translate(-375.239 -425)"/><path class="c" d="M756.54,695.27Z" transform="translate(-375.017 -425)"/><path class="c" d="M750.969,625.482a2.5,2.5,0,0,1-.026.439,2.957,2.957,0,0,1-.041.387,8.719,8.719,0,0,1-.749,2.629h0c-12.992-1.462-26.014-3.218-39.052-5.021l-1.844-.258-3.311-.46-2.789-.387h0a67.183,67.183,0,0,1-9.112-.852,47.138,47.138,0,0,1-5.63-1.188c-8.265-1.131-16.576-2.221-24.862-3.213l-1.08-.129c.2-.878.362-1.41.362-1.41s1.777-6.984,3.254-14.789c.326-1.694.635-3.42.9-5.129.217-1.369.413-2.722.578-4.024.093-.718.171-1.421.238-2.108.036-.341.067-.682.093-1.033s.057-.734.083-1.09.036-.672.052-1v-.486c0-.7,0-1.426-.026-2.175a64.056,64.056,0,0,0-1.756-11.06c-.145-.62-.294-1.24-.449-1.844-.046-.2-.1-.387-.15-.578-1.669-6.462-3.616-11.741-3.616-11.741a.57.57,0,0,1,0-.088.293.293,0,0,0,0-.062,1.168,1.168,0,0,0,0-.129v-.92a7.923,7.923,0,0,1,.279-1.6q.084-.278.2-.548a3.4,3.4,0,0,1,2.325-2.149h0c1.462-.377,3.673,0,7.01,1.978a12.059,12.059,0,0,1,1.55,1.064,6.536,6.536,0,0,1,.723.625c3.823,3.559,5.858,9.432,6.943,14.794.041.191.077.382.114.573.129.661.238,1.307.336,1.942.176,1.116.315,2.19.418,3.187,0,.269.057.517.083.79s.052.516.067.764c.067.806.114,1.55.145,2.18.088,1.674.072,2.7.072,2.7v.052a1.416,1.416,0,0,1-.026.222.1.1,0,0,0,0,.041v.465q-.031.325-.078.759c-.046.444-.1.966-.16,1.55-.041.434-.093.9-.145,1.4-.114,1.033-.238,2.232-.372,3.492-.031.238-.057.475-.083.713-.119,1.08-.243,2.206-.372,3.342h0c-.139,1.291-.294,2.583-.444,3.859-.036.279-.072.558-.1.832-.382,3.1-.764,5.915-1.074,7.666a7.221,7.221,0,0,0-.1.785,2.417,2.417,0,0,0,0,.268,5.334,5.334,0,0,0,0,.7c.253,4.411,5.021,5.166,5.021,5.166l21.649-.429,3.213-.062,1.87-.036,16.876-.336h0l1.55-.031,8.394-.165a6,6,0,0,1,1.689.2,26.812,26.812,0,0,1,7.335,3.208,8.623,8.623,0,0,1,1.9,1.653.549.549,0,0,1,.072.083,8.935,8.935,0,0,1,2.03,4.835v.356A4.628,4.628,0,0,1,750.969,625.482Z" transform="translate(-329.33 -356.384)"/><path class="d" d="M756.54,695.27Z" transform="translate(-375.017 -425)"/><path class="d" d="M750.971,625.441a2.5,2.5,0,0,1-.026.439,2.936,2.936,0,0,1-.041.387,9.032,9.032,0,0,1-.775,2.629c-12.991-1.462-26.014-3.218-39.052-5.021l-1.844-.258-3.311-.46-2.789-.387h0a67.194,67.194,0,0,1-9.112-.852,47.132,47.132,0,0,1-5.63-1.188c-8.265-1.131-16.576-2.221-24.862-3.213l-1.08-.129h0c.2-.909.372-1.462.372-1.462s1.452-5.682,2.831-12.568h0c.1-.475.191-.95.284-1.431l.139-.728c.32-1.689.63-3.425.9-5.129.217-1.369.413-2.722.579-4.024.093-.718.17-1.421.238-2.108.036-.341.067-.682.093-1.033s.057-.733.083-1.09.036-.672.052-1v-.485c0-.7,0-1.426-.026-2.175a63.54,63.54,0,0,0-1.741-11.06q-.217-.94-.45-1.844c-.052-.2-.1-.387-.15-.579-1.674-6.483-3.616-11.793-3.616-11.793a.171.171,0,0,0,0-.036.285.285,0,0,0,0-.062,1.2,1.2,0,0,0,0-.129v-.92a7.934,7.934,0,0,1,.264-1.6c.057-.181.119-.367.191-.548a3.414,3.414,0,0,1,2.448-2.226c1.462-.341,3.647.083,6.912,1.994a12.511,12.511,0,0,1,1.612,1.126h0c.243.2.475.4.7.62,3.792,3.58,5.811,9.443,6.886,14.789.041.191.077.387.114.579.129.656.238,1.307.336,1.937.176,1.116.31,2.185.413,3.177.026.274.057.542.078.8s.052.517.067.765c.067.806.114,1.55.145,2.18.088,1.674.072,2.7.072,2.7v.274a.1.1,0,0,0,0,.041v.465q-.031.325-.077.759c-.047.444-.1.966-.16,1.55-.052.429-.1.9-.15,1.4-.114,1.033-.238,2.232-.372,3.492-.031.238-.057.475-.083.713-.119,1.08-.248,2.216-.372,3.353h0c-.15,1.291-.3,2.583-.455,3.853-.036.279-.067.558-.1.832-.377,3.1-.754,5.873-1.064,7.614a7.19,7.19,0,0,0-.1.842,2.392,2.392,0,0,0,0,.269,5.3,5.3,0,0,0,0,.7c.294,4.36,5.021,5.088,5.021,5.088l21.649-.424,3.208-.067,1.875-.036L728,614.417l1.581-.031,8.363-.165a5.649,5.649,0,0,1,1.689.2,26.516,26.516,0,0,1,7.392,3.177,8.509,8.509,0,0,1,1.922,1.684.559.559,0,0,1,.072.083,8.849,8.849,0,0,1,2,4.856q0,.178,0,.356A6,6,0,0,0,750.971,625.441Z" transform="translate(-329.332 -356.343)"/><path class="c" d="M756.54,695.27Z" transform="translate(-375.017 -425)"/><path class="c" d="M752.129,628.415l-.852-.1h0c-12.991-1.462-26.014-3.218-39.052-5.021l-1.844-.258-3.311-.46-2.79-.387h0a67.193,67.193,0,0,1-9.112-.852,47.133,47.133,0,0,1-5.63-1.188c-8.265-1.131-16.576-2.221-24.862-3.213a21.139,21.139,0,0,1,.516-2.149s4.907-19.325,5.212-29.6a53.327,53.327,0,0,0-1.607-12.552h0c-.144-.625-.289-1.245-.444-1.854l-.139-.578c-1.751-6.793-3.833-12.475-3.833-12.475a8.39,8.39,0,0,1,.119-2.1,5.629,5.629,0,0,1,.124-.553,4.214,4.214,0,0,1,1.333-2.231h0a.681.681,0,0,1,.1-.072c1.359-1.033,3.8-1.105,8.136,1.436a12.724,12.724,0,0,1,2.423,1.854c.207.2.413.4.61.615,3.487,3.776,5.336,9.562,6.307,14.738l.108.573c.114.646.212,1.281.3,1.9v.052h0c.119.816.217,1.6.3,2.34h0a61.627,61.627,0,0,1,.372,6.6s-.2,2.04-.517,4.979c-.119,1.152-.258,2.443-.408,3.807v.207l-.077.723c-.264,2.381-.553,4.923-.847,7.278-.031.289-.067.573-.1.852-.331,2.65-.661,5.005-.935,6.54-1.074,5.982,4.907,6.9,4.907,6.9l20.425-.4,3.2-.062,1.875-.041h1.038l16.2-.32h1.55l9.3-.186a5.808,5.808,0,0,1,1.689.207,26.652,26.652,0,0,1,7.4,3.172A8.79,8.79,0,0,1,751.05,618a.854.854,0,0,1,.088.1A8.947,8.947,0,0,1,752.129,628.415Z" transform="translate(-330.454 -355.785)"/><path class="i" d="M955.659,347.05l6.318,13.534h-1.059L953.51,347.21Z" transform="translate(-460.963 -167.793)"/><path class="d" d="M955.659,347.05l6.318,13.534h-1.059L953.51,347.21Z" transform="translate(-460.963 -167.793)"/><path class="i" d="M957.67,373.25h6.317v1.415l-6.317.16Z" transform="translate(-462.974 -180.459)"/><path class="d" d="M957.67,373.25h6.317v1.415l-6.317.16Z" transform="translate(-462.974 -180.459)"/><path class="i" d="M880.5,419.387v47.26a3.507,3.507,0,0,0,3.507,3.507h78.775a3.487,3.487,0,0,0,3.487-3.554l-.894-47.3a3.487,3.487,0,0,0-3.487-3.42H884.007A3.508,3.508,0,0,0,880.5,419.387Z" transform="translate(-434.944 -289.931)"/><path class="d" d="M880.5,419.387v47.26a3.507,3.507,0,0,0,3.507,3.507h78.775a3.487,3.487,0,0,0,3.487-3.554l-.894-47.3a3.487,3.487,0,0,0-3.487-3.42H884.007A3.508,3.508,0,0,0,880.5,419.387Z" transform="translate(-434.944 -289.931)"/><path class="i" d="M875,419.387v47.26a3.508,3.508,0,0,0,3.507,3.507h78.775a3.482,3.482,0,0,0,3.482-3.554l-.894-47.3a3.487,3.487,0,0,0-3.482-3.42H878.528A3.507,3.507,0,0,0,875,419.387Z" transform="translate(-432.285 -289.931)"/><path class="k" d="M881,425.107v41.609a3.507,3.507,0,0,0,3.507,3.507h72.943a3.487,3.487,0,0,0,3.487-3.487V425.082a3.487,3.487,0,0,0-3.487-3.482H884.507A3.507,3.507,0,0,0,881,425.107Z" transform="translate(-435.186 -292.697)"/><path class="i" d="M924.14,345.622l6.927,13.343h15.652L938.893,343.7Z" transform="translate(-446.764 -166.173)"/><path class="i" d="M912.377,373.25l-1.157,1.415h23.994V373.25Z" transform="translate(-440.518 -180.459)"/><path class="t" d="M712.825,418.11c-1.72-4.835-1.71-10.2-3.8-14.887a18.118,18.118,0,0,1-.873-2.066,6.048,6.048,0,0,1-.238-1.348l-.129.031-.129.036-.129.052h0l-.119.072a4.522,4.522,0,0,0,.119.455,17.391,17.391,0,0,0,.883,2.066c2.128,4.711,2.113,10.1,3.864,14.98a1.407,1.407,0,0,0,.325.573.77.77,0,0,0,.263.16C712.851,418.178,712.836,418.147,712.825,418.11Zm0,0c-1.72-4.835-1.71-10.2-3.8-14.887a18.118,18.118,0,0,1-.873-2.066,6.048,6.048,0,0,1-.238-1.348l-.129.031-.129.036-.129.052h0l-.119.072a4.522,4.522,0,0,0,.119.455,17.391,17.391,0,0,0,.883,2.066c2.128,4.711,2.113,10.1,3.864,14.98a1.407,1.407,0,0,0,.325.573.77.77,0,0,0,.263.16C712.851,418.178,712.836,418.147,712.825,418.11Zm0,0c-1.72-4.835-1.71-10.2-3.8-14.887a18.118,18.118,0,0,1-.873-2.066,6.048,6.048,0,0,1-.238-1.348l-.129.031-.129.036-.129.052h0l-.119.072a4.522,4.522,0,0,0,.119.455,17.391,17.391,0,0,0,.883,2.066c2.128,4.711,2.113,10.1,3.864,14.98a1.407,1.407,0,0,0,.325.573.77.77,0,0,0,.263.16C712.851,418.178,712.836,418.147,712.825,418.11Zm0,0c-1.72-4.835-1.71-10.2-3.8-14.887a18.118,18.118,0,0,1-.873-2.066,6.048,6.048,0,0,1-.238-1.348l-.129.031-.129.036-.129.052h0l-.119.072a4.522,4.522,0,0,0,.119.455,17.391,17.391,0,0,0,.883,2.066c2.128,4.711,2.113,10.1,3.864,14.98a1.407,1.407,0,0,0,.325.573.77.77,0,0,0,.263.16C712.851,418.178,712.836,418.147,712.825,418.11Zm0,0c-1.72-4.835-1.71-10.2-3.8-14.887a18.118,18.118,0,0,1-.873-2.066,6.048,6.048,0,0,1-.238-1.348l-.129.031-.129.036-.129.052h0l-.119.072a4.522,4.522,0,0,0,.119.455,17.391,17.391,0,0,0,.883,2.066c2.128,4.711,2.113,10.1,3.864,14.98a1.407,1.407,0,0,0,.325.573.77.77,0,0,0,.263.16C712.851,418.178,712.836,418.147,712.825,418.11Zm0,0c-1.72-4.835-1.71-10.2-3.8-14.887a18.118,18.118,0,0,1-.873-2.066,6.048,6.048,0,0,1-.238-1.348l-.129.031-.129.036-.129.052h0l-.119.072a4.522,4.522,0,0,0,.119.455,17.391,17.391,0,0,0,.883,2.066c2.128,4.711,2.113,10.1,3.864,14.98a1.407,1.407,0,0,0,.325.573.77.77,0,0,0,.263.16C712.851,418.178,712.836,418.147,712.825,418.11Zm0,0c-1.72-4.835-1.71-10.2-3.8-14.887a18.118,18.118,0,0,1-.873-2.066,6.048,6.048,0,0,1-.238-1.348l-.129.031-.129.036-.129.052h0l-.119.072a4.522,4.522,0,0,0,.119.455,17.391,17.391,0,0,0,.883,2.066c2.128,4.711,2.113,10.1,3.864,14.98a1.407,1.407,0,0,0,.325.573.77.77,0,0,0,.263.16C712.851,418.178,712.836,418.147,712.825,418.11Zm89.752,48.143h0l-.4-.072.516-.114h0a.786.786,0,0,0,.15-.036h0c.573-.124,1.142-.263,1.7-.413h0l.584-.165h0l.083-.026c4.814-1.421-.8-2.727-7.939-3.7h-.021c-7.707-1.033-17.16-1.71-17.16-1.71l-2.96.393h-.026c-3.616.475-9.324,1.26-10.233,1.55-1.105.367-10.486.816-13.756.961a1.425,1.425,0,0,0-.485-.517l-9.644-.444v1.328h0l-.073-.031a13.227,13.227,0,0,0-1.307-5.166l-.072-.145c-2.49-4.721-2.991-5.9-2.991-5.9h0a.973.973,0,0,0-.067-.253c-.837-2.9-3.921-7.95-9.148-15.192l-.181-.253-.656-3.213-.114-.563h-3.291a43.036,43.036,0,0,1,2.283-8.167c.067-.165.134-.331.207-.491l.041-.093c.072-.17.155-.341.232-.517h.573a15.719,15.719,0,0,0,15.1-14.619.1.1,0,0,0,0-.041q.031-.48.031-.961a15.378,15.378,0,0,0-2.066-7.748c-.041-.072-.083-.145-.129-.217l-.083-.139-.186-.289c1.178-.279,2.583.258,3.616-.4a2.644,2.644,0,0,0,.883-1.064,5.529,5.529,0,0,0,.517-1.55h0a.5.5,0,0,0,0-.088.07.07,0,0,0,0-.031,6.1,6.1,0,0,0,.078-1.064,5.733,5.733,0,0,0-.362-2.149A5.92,5.92,0,0,0,742.5,389.6a22.533,22.533,0,0,0-2.417-.656c-3.306-.883-6.1-3.063-9.3-4.277a16.866,16.866,0,0,0-6.969-1.074,9.969,9.969,0,0,0-4.132,1.033,17.688,17.688,0,0,0-2.758,2c-2.3,1.813-4.907,3.363-6.906,5.527a12.362,12.362,0,0,0-1,1.24c-.176.253-.336.517-.517.775a1.384,1.384,0,0,0-1.245-.517h0a2.029,2.029,0,0,0-.253,0,5.013,5.013,0,0,0-.641.067c-.517.088-4.365,1.105-4.365,1.632a18.177,18.177,0,0,0-4.422,2.717c-3.1,2.836-3.792,7.33-4.184,11.473A106.311,106.311,0,0,0,692.876,424c.072,1.756.212,3.513.129,5.269a39.194,39.194,0,0,1-.914,6.137q-.666,3.151-1.441,6.281c-.248,1.033-.646,2.185-1.658,2.51l.377.052a1.81,1.81,0,0,1-.377.181,11.3,11.3,0,0,0,1.312.129h.3a3.569,3.569,0,0,0,.739-.088,2.757,2.757,0,0,0,.935-.434c.041-.1.078-.207.114-.315a1.746,1.746,0,0,0,.62-.961,6.83,6.83,0,0,1-.1,1.746,1.1,1.1,0,0,1-.052.253,7.129,7.129,0,0,1-1.777,3.368l.517-.393a7.632,7.632,0,0,1-.517.625q1.116-.837,2.231-1.71h0a1.061,1.061,0,0,0,.129-.1h0l1.271-1v1h0v.232c-.1,3.564-.253,12.32.558,14.412.047.124.1.248.14.367.925,2.381,1.322,3.409,1.2,4.649a38.4,38.4,0,0,0,.92,5.295,6.576,6.576,0,0,1,.165,2.392,3.411,3.411,0,0,0,.093,1.426c.047.227.1.47.165.723a1.112,1.112,0,0,0,.067.274c.47,1.88,1.136,4.2.439,5.129a4.1,4.1,0,0,0-.516,1.033c-.573,1.55-.666,3.668-1.328,4.525a4.239,4.239,0,0,0-.455,3,.1.1,0,0,1,0,.026s-.036.2-.109.517c-.088.434-.227,1.1-.4,1.839v.052a26.273,26.273,0,0,1-.894,3.063h0c-.263.7-.516,1.209-.811,1.307-1.033.377-1.55,5.228-1.55,5.228s-2.366,3.838-1.916,4.783a6.328,6.328,0,0,0,.336.635l-.227.351c-1.266,2.03-3.1,5.718-1.322,7.7a8.783,8.783,0,0,0,2.118,1.617c-.093.207-.191.429-.295.672-1.953,4.577-4.959,15.208,6.607,19.691a36.7,36.7,0,0,0,3.507,1.152,47.157,47.157,0,0,0,5.63,1.188,69,69,0,0,0,8.265.739c1.229.041,2.443.052,3.616.041s2.237-.036,3.3-.083q.945-.036,1.844-.093a96.469,96.469,0,0,0,10.6-1.162l16.53-2.96s6.943.248,9.5,1.715l.077.047s.418-.243,1.121-.718h0c.3-.207.666-.455,1.064-.749a34.9,34.9,0,0,0,9.851-10.961l.057-.1.563-.072h.129l.4-.057.837-.119h.15c2.092-.3,4.07-.641,4.07-.641s.078,2.309.171,4.985c.031.816.057,1.669.088,2.5.1,2.831.186,5.4.186,5.491s2.128,5.682,4.51,11.323l1.86.15q7.366.589,14.727.976l1.834.093,1.147.057c-.827-5.006-1.477-9.779-1.477-9.779L798.8,526.159s-.32-2.96-2.619-16.117c-1.86-10.662-12.811-9.716-16.912-8.967-.418.077-.759.15-1.033.207v-.8s-7.867.661-14.98.981l-1.73.072c-1.648.062-3.213.1-4.587.1a33.561,33.561,0,0,1-3.616-.145c-5.491-.63-11.752,1.255-11.752,1.255s-8,1.3-9.071.821a2.753,2.753,0,0,0-.9-.186h-.516a.827.827,0,0,0,.517-.919,5.6,5.6,0,0,1,.449-4.411c.393-.558,1.033-1.436,1.606-2.237l1.395-1.917v-.15l.036-.563.336-5.021.806-4.649.052-.294.072-.413.052-.3.155.052h0c2.288.8,4.882,1.353,6.715.713h.036a3.072,3.072,0,0,0,.423-.181h.083v.346l.031.6,8.621-.47h.129s.336-1.663.7-3.957c.026-.186.057-.377.088-.573s.078-.517.114-.754a3.18,3.18,0,0,1,.052-.367h.517c4-.145,9.577-.486,11.85-1.312h0a2.582,2.582,0,0,0,.78-.418c.966-.837,4.432-2.035,7.836-3.068h0l1.359-.4c.986-.289,1.937-.558,2.779-.8,1.953-.517,3.347-.9,3.347-.9s13.431,1.245,23.462-1.653h0l.165-.047C809.411,468.118,807.066,467.106,802.577,466.254Zm-95.3-67.153a2.8,2.8,0,0,0,.057.46h0a1.3,1.3,0,0,0,.031.2.356.356,0,0,0,.041.2,4.559,4.559,0,0,0,.119.455,17.411,17.411,0,0,0,.883,2.066c2.128,4.711,2.113,10.1,3.864,14.98a1.4,1.4,0,0,0,.325.573.769.769,0,0,0,.263.16l.124.041h.145l-.057.1a.529.529,0,0,1-.042.072l-.036.057c-.692,1.167-1.431,2.314-2.175,3.327a4.855,4.855,0,0,0-1.792.733l-.289.191-.124.093c-.181-.888-.429-1.767-.656-2.645a61.038,61.038,0,0,1-1.994-14.329v-.976c0-1.25.031-2.495.108-3.745a3.1,3.1,0,0,1,.439-1.643h0a1.13,1.13,0,0,1,.764-.372Zm5.548,19.015c-1.72-4.835-1.71-10.2-3.8-14.887a18.127,18.127,0,0,1-.873-2.066,6.05,6.05,0,0,1-.238-1.348l-.129.031-.129.036-.129.052h0l-.119.072a4.529,4.529,0,0,0,.119.455,17.391,17.391,0,0,0,.883,2.066c2.128,4.711,2.113,10.1,3.864,14.98a1.406,1.406,0,0,0,.325.573.77.77,0,0,0,.264.16c-.016-.062-.031-.093-.041-.129Zm0,0c-1.72-4.835-1.71-10.2-3.8-14.887a18.127,18.127,0,0,1-.873-2.066,6.05,6.05,0,0,1-.238-1.348l-.129.031-.129.036-.129.052h0l-.119.072a4.529,4.529,0,0,0,.119.455,17.391,17.391,0,0,0,.883,2.066c2.128,4.711,2.113,10.1,3.864,14.98a1.406,1.406,0,0,0,.325.573.77.77,0,0,0,.264.16c-.016-.062-.031-.093-.041-.129Zm0,0c-1.72-4.835-1.71-10.2-3.8-14.887a18.127,18.127,0,0,1-.873-2.066,6.05,6.05,0,0,1-.238-1.348l-.129.031-.129.036-.129.052h0l-.119.072a4.529,4.529,0,0,0,.119.455,17.391,17.391,0,0,0,.883,2.066c2.128,4.711,2.113,10.1,3.864,14.98a1.406,1.406,0,0,0,.325.573.77.77,0,0,0,.264.16c-.016-.062-.031-.093-.041-.129Zm0,0c-1.72-4.835-1.71-10.2-3.8-14.887a18.127,18.127,0,0,1-.873-2.066,6.05,6.05,0,0,1-.238-1.348l-.129.031-.129.036-.129.052h0l-.119.072a4.529,4.529,0,0,0,.119.455,17.391,17.391,0,0,0,.883,2.066c2.128,4.711,2.113,10.1,3.864,14.98a1.406,1.406,0,0,0,.325.573.77.77,0,0,0,.264.16c-.016-.062-.031-.093-.041-.129Zm0,0c-1.72-4.835-1.71-10.2-3.8-14.887a18.127,18.127,0,0,1-.873-2.066,6.05,6.05,0,0,1-.238-1.348l-.129.031-.129.036-.129.052h0l-.119.072a4.529,4.529,0,0,0,.119.455,17.391,17.391,0,0,0,.883,2.066c2.128,4.711,2.113,10.1,3.864,14.98a1.406,1.406,0,0,0,.325.573.77.77,0,0,0,.264.16c-.016-.062-.031-.093-.041-.129Zm0,0c-1.72-4.835-1.71-10.2-3.8-14.887a18.127,18.127,0,0,1-.873-2.066,6.05,6.05,0,0,1-.238-1.348l-.129.031-.129.036-.129.052h0l-.119.072a4.529,4.529,0,0,0,.119.455,17.391,17.391,0,0,0,.883,2.066c2.128,4.711,2.113,10.1,3.864,14.98a1.406,1.406,0,0,0,.325.573.77.77,0,0,0,.264.16c-.016-.062-.031-.093-.041-.129Z" transform="translate(-342.14 -274.31)"/><path class="u" d="M748.84,446.776a12.044,12.044,0,0,0-1.984,3.068c-.078.17-.155.336-.227.517-2.283,5.166-3.058,12.475-3.058,12.475s-1.416-.635-3.42-1.627c-3.735-1.849-9.5-4.928-11.829-7.382-1.033-1.111-1.4-2.092-.547-2.779a6.347,6.347,0,0,0,.568-.517,16.434,16.434,0,0,0,1.8-2.138c.744-1.033,1.477-2.185,2.17-3.368.408-.692.8-1.39,1.157-2.066l.145-.269c1.55-2.939,2.681-5.45,2.681-5.45s.517.165,1.353.46C741.51,439.079,752.135,443.268,748.84,446.776Z" transform="translate(-360.88 -300.258)"/><path class="u" d="M877.628,650.331s.63,4.68,1.431,9.618l-1.834-.093q-7.356-.382-14.727-.976c-2.789-6.462-5.682-14.133-5.682-14.252s-.088-2.645-.186-5.465c-.031-.992-.067-2.015-.1-2.975h0c-.052-1.457-.1-2.769-.124-3.585,0-.558-.031-.888-.031-.888s-2.655.465-5.042.79l-1.059.139c-.547.067-1.033.119-1.472.15a3.784,3.784,0,0,1-1.142,0c-.816-.315.878-8.265.878-8.265l4.215-10.2,1.178-2.841.516-.129c.253-.062.594-.134,1-.212,4.024-.739,14.774-1.679,16.6,8.931,2.257,13.105,2.583,16.049,2.583,16.049Z" transform="translate(-418.962 -384.132)"/><path class="u" d="M912.576,728h-.015Z" transform="translate(-449.834 -440.823)"/><path class="v" d="M877.628,650.331s.63,4.68,1.431,9.618l-1.834-.093q-7.356-.382-14.727-.976c-2.789-6.462-5.682-14.133-5.682-14.252s-.088-2.645-.186-5.465c-.031-.992-.067-2.015-.1-2.975h0c-.052-1.457-.1-2.769-.124-3.585,0-.558-.031-.888-.031-.888s-2.655.465-5.042.79l-1.059.139c-.547.067-1.033.119-1.472.15a3.784,3.784,0,0,1-1.142,0c-.816-.315.878-8.265.878-8.265l4.215-10.2,1.178-2.841.516-.129c.253-.062.594-.134,1-.212,4.024-.739,14.774-1.679,16.6,8.931,2.257,13.105,2.583,16.049,2.583,16.049Z" transform="translate(-418.962 -384.132)"/><path class="v" d="M912.576,728h-.015Z" transform="translate(-449.834 -440.823)"/><path class="u" d="M875.934,662.531q-7.356-.382-14.727-.976l-1.86-.15-.821-.067c-2.314-5.584-4.37-11.044-4.37-11.142s-.088-2.645-.186-5.465c-.119-3.523-.253-7.449-.253-7.449l-.346.057-.145.026h-.186l-.832.14-.455.072c-.821.134-1.813.284-2.784.424l-.217.031-.568.072-.516.062h0c-.4.052-.775.093-1.116.124l-.418.036a3.614,3.614,0,0,1-1.142,0c-.816-.315.878-8.265.878-8.265l5.393-13.043.186-.052c.284-.072.883-.212,1.694-.351.3-.052.641-.1,1-.15,4.68-.6,13.586-.429,15.233,9.143,2.258,13.105,2.583,16.05,2.583,16.05l3.012,14.247S875.366,658.847,875.934,662.531Z" transform="translate(-417.671 -386.806)"/><path class="d" d="M855.256,662.476c-.119-3.523-.253-7.454-.253-7.454s-5.166.9-7.573,1.08l.486-1.643s8.844-2.443,9.03-1.064C857.079,654.361,855.943,659.5,855.256,662.476Z" transform="translate(-418.957 -404.552)"/><path class="d" d="M854.165,611.48v3.735a74.5,74.5,0,0,1-3.89,16.99c-.072.222-.15.439-.232.656a23.418,23.418,0,0,1-1.281,2.883c-.971.134-1.911.248-2.609.3a3.776,3.776,0,0,1-1.142,0c-.816-.315.873-8.265.873-8.265l5.393-13.038.191-.052,1.173-2.846A13.634,13.634,0,0,1,854.165,611.48Z" transform="translate(-417.68 -384.492)"/><path class="o" d="M779.2,610.34v4.324a74.584,74.584,0,0,1-3.89,16.995c-.088.269-.186.517-.284.79s-.227.6-.357.888c-.284.687-.6,1.353-.94,1.994h0a34.5,34.5,0,0,1-9.432,10.8c-.382.294-.739.553-1.033.77h-.026c-.516.351-.888.6-1.126.754s-.258.16-.258.16c-2.448-1.5-9.406-1.756-9.406-1.756L736.2,649a94.129,94.129,0,0,1-10.729,1.219l-1.844.088c-1.064.041-2.17.067-3.3.072-.914,0-1.844,0-2.789-.036h0a67.18,67.18,0,0,1-9.112-.852,45.536,45.536,0,0,1-4.918-1.09,34.6,34.6,0,0,1-3.4-1.137c-11.364-4.463-8.4-15.047-6.488-19.629.1-.243.2-.465.294-.672.424-.935.739-1.483.739-1.483l.754-1.823h0l1.235-2.991.274-.656.077-.191.914-2.216,12.914-1.674,9.489-1.229,2.888-.372,1.958-.253,3.735-.485,1.405-.181a17.493,17.493,0,0,1,2.619-.206,3.661,3.661,0,0,1,1.395.206c1.033.47,8.905-.816,8.905-.816s6.142-1.88,11.535-1.255a64.151,64.151,0,0,0,8.012.052h0l.661-.031.857-.036h.186C771.448,611,779.2,610.34,779.2,610.34Z" transform="translate(-343.713 -383.941)"/><path class="d" d="M764.829,634.933s-6.2,14.107-6.457,14.355-.248,4.649,0,4.391,8.844-19.309,8.844-19.309Z" transform="translate(-375.811 -395.558)"/><path class="d" d="M809.888,612.3s-3.136,2.025-4.076,3.657-9.53,17.868-11.659,20.249a52.029,52.029,0,0,0-4.768,6.782c-.248.429-.248,3.125,1.255.553s1.131-3.006,4.076-6.2,6.2-10.409,7.459-11.85,3.012-5.77,5.207-8.342l4.2-4.912Z" transform="translate(-390.836 -384.86)"/><path class="d" d="M826.274,665.881s-2.2-1.5-4.262,1.064S826.274,665.881,826.274,665.881Z" transform="translate(-406.468 -410.58)"/><path class="d" d="M833.217,667.79s-1.818,3.172-2.7,3.425S833.217,667.79,833.217,667.79Z" transform="translate(-410.715 -411.715)"/><path class="d" d="M828.127,669.32s-1.441,2.51-2.7,2.257Z" transform="translate(-408.321 -412.455)"/><path class="u" d="M808.418,535.354s13.291-.563,14.608-1S836,532.41,836,532.41s34.547,2.443,24.707,5.393-23.2,1.689-23.2,1.689-13.043,3.389-15.047,5.166-16.8,1.818-16.8,1.818Z" transform="translate(-398.763 -346.267)"/><path class="v" d="M808.418,535.354s13.291-.563,14.608-1S836,532.41,836,532.41s34.547,2.443,24.707,5.393-23.2,1.689-23.2,1.689-13.043,3.389-15.047,5.166-16.8,1.818-16.8,1.818Z" transform="translate(-398.763 -346.267)"/><path class="n" d="M712.092,479.222s-12.165,4.133-6.271,14.67a47.01,47.01,0,0,0,13.482,15.5l19.562,13.544s8.213,4.7,11.974,2.758l6.142-.517,1.033-16.117s-5.166,4.014-10.786-1.55-12.542-9.345-13.105-12.351S719.174,476.649,712.092,479.222Z" transform="translate(-349.718 -320.415)"/><path class="p" d="M793.87,541s6.333,2.257,6.085,2.381-6.085,2.319-6.085,2.319l.439,8.59,8.59-.47s3.135-15.641.439-17.212l-9.469-.439Z" transform="translate(-393.064 -348.084)"/><path class="d" d="M793.87,541s6.333,2.257,6.085,2.381-6.085,2.319-6.085,2.319l.439,8.59,8.59-.47s3.135-15.641.439-17.212l-9.469-.439Z" transform="translate(-393.064 -348.084)"/><path class="d" d="M754.618,446.79a12.045,12.045,0,0,0-1.984,3.068c-.078.17-.155.336-.227.517-4.613,0-7.929-3.585-10.76-6.793-.517-.594-1.823.3-2.252-.362-.046-.078-.093-.155-.145-.232l.145-.269c1.55-2.939,2.681-5.45,2.681-5.45s.516.165,1.353.46C747.288,439.093,757.913,443.283,754.618,446.79Z" transform="translate(-366.658 -300.272)"/><path class="u" d="M765.887,416.981a15.548,15.548,0,0,1-15.4,15.543h-.15a15.523,15.523,0,0,1-11.664-5.269,15.844,15.844,0,0,1-1.426-1.885,15.554,15.554,0,1,1,28.643-8.389Z" transform="translate(-364.497 -282.938)"/><path class="d" d="M730.965,618.22s-1.183,1.446-2.49,2.794a9.711,9.711,0,0,1-2.717,2.221c-1.55.568-8.652,5.956-8.652,5.956s-5.641,3.828-7.082,4.954-6.648.439-6.648.439a29.865,29.865,0,0,1-8.115-3.1,20.2,20.2,0,0,1,1.033-2.149l3.259-7.9,12.914-1.668Z" transform="translate(-345.392 -387.751)"/><path class="p" d="M728.353,616.28s-1.178,1.446-2.485,2.795a10.086,10.086,0,0,1-2.717,2.221c-1.55.563-8.652,5.956-8.652,5.956s-5.646,3.828-7.087,4.954-6.643.439-6.643.439-7.149-1.55-9.66-4.391c-1.756-1.978.062-5.646,1.3-7.666a15.51,15.51,0,0,1,.956-1.426Z" transform="translate(-343.033 -386.813)"/><path class="p" d="M764.722,501.548c-4.267-.377-18.312-17.563-18.312-17.563l.32-.439,2.944-4.076h6.886l.759,3.761c5.238,7.345,8.322,12.454,9.159,15.378C767.083,500.737,766.509,501.708,764.722,501.548Z" transform="translate(-370.12 -320.673)"/><path class="d" d="M764.722,505.362c-4.267-.377-18.312-17.563-18.312-17.563l.32-.439a79.319,79.319,0,0,1,7.082,7.4c10.28,12.1,12.315,8.72,12.666,7.666C767.083,504.551,766.509,505.522,764.722,505.362Z" transform="translate(-370.12 -324.488)"/><path class="d" d="M730.252,616.28s-1.178,1.446-2.485,2.795a7.042,7.042,0,0,1-2.154.465c-1.632-.062-5.393,2.511-5.393,2.511s-6.643-.377-7.9.31-6.085.816-6.085.816c-8.838,2.521-11.282-1.307-11.927-2.583a15.5,15.5,0,0,1,.956-1.426Z" transform="translate(-344.932 -386.813)"/><path class="n" d="M745.451,510.527a5.451,5.451,0,0,1-.078.718c-.031.232-.062.47-.1.692a11.363,11.363,0,0,1-1.131,3.662c-1.126,1.88-4.577,9.216-4.577,9.216l-.233,1.353-.119.708-.124.7-.842,4.944-.377,5.708s-2.066,2.882-2.944,4.133a5.659,5.659,0,0,0-.439,4.391c.315,1.317-2.882,1.5-2.882,1.5s-4.515,2.2-6.147,2.133-5.393,2.5-5.393,2.5-6.643-.377-7.9.315-6.085.816-6.085.816c-9.463,2.691-11.6-1.885-12.036-2.826s1.88-4.763,1.88-4.763.517-4.83,1.5-5.207,2.2-6.767,2.2-6.767a4.471,4.471,0,0,1,.439-3.012c.816-1.064.754-4.076,1.818-5.517s-1.126-6.271-.749-7.526-1.193-6.333-1.069-7.65-.31-2.381-1.317-5.016c-.857-2.247-.615-12.232-.517-15.094,0-.486.026-.765.026-.765s.878-2.826,3.2-8.466a11.493,11.493,0,0,1,7.521-6.416,9.473,9.473,0,0,1,.945-.232,6.633,6.633,0,0,1,1.333.336c1.829.615,5.486,2.355,10.7,7.232a80.243,80.243,0,0,1,6.524,6.881c11.762,13.823,12.723,7.371,12.723,7.371s.516,1.178,2.939,5.878A14.958,14.958,0,0,1,745.451,510.527Z" transform="translate(-344.779 -318.396)"/><path class="d" d="M739.456,469.192l-11.8-9.412s-4.251.517-6.008,7.655l12.144,10.636Z" transform="translate(-358.15 -311.154)"/><path class="p" d="M739.233,468.752l-2.066,2.888-2.1,2.96-1.581,2.319-9.7-8.167-1.668-1.446-.935-.8c.945-3.859,2.624-5.785,3.962-6.715a4.922,4.922,0,0,1,2.066-.925Z" transform="translate(-357.927 -310.715)"/><path class="u" d="M861.694,545.083c-9.845,2.944-23.2,1.694-23.2,1.694s-13.043,3.384-15.047,5.166c-1.291,1.131-7.888,1.55-12.4,1.72-2.505.093-4.38.1-4.38.1l2.753-11.121,1.591-.072c3.57-.165,11.984-.589,13.017-.935,1.317-.439,12.976-1.942,12.976-1.942S871.534,542.133,861.694,545.083Z" transform="translate(-399.252 -349.786)"/><path class="d" d="M750.683,518.143a11.363,11.363,0,0,1-1.131,3.662c-1.126,1.88-4.577,9.215-4.577,9.215L744.5,533.8a33.974,33.974,0,0,1-4.649-2.139l-19.578-13.56a46.94,46.94,0,0,1-13.482-15.5c-5.894-10.543,6.271-14.67,6.271-14.67,7.082-2.583,21.442,12.914,22.005,15.925s7.464,6.772,13.105,12.351A11.468,11.468,0,0,0,750.683,518.143Z" transform="translate(-350.187 -324.628)"/><path class="d" d="M750.859,515.347c-.046.491-.1.961-.176,1.41a11.362,11.362,0,0,1-1.131,3.662c-1.126,1.88-4.577,9.215-4.577,9.215l-.232,1.353a33.493,33.493,0,0,1-4.907-2.232l-19.562-13.565a46.94,46.94,0,0,1-13.482-15.5c-5.894-10.543,6.271-14.675,6.271-14.675,7.082-2.583,21.442,12.914,22.005,15.926s7.464,6.772,13.105,12.356A11.312,11.312,0,0,0,750.859,515.347Z" transform="translate(-350.187 -323.217)"/><path class="n" d="M758.959,516.337l-1,16.111-6.147.517a3.027,3.027,0,0,1-.418.181c-3.916,1.436-11.555-2.939-11.555-2.939l-19.562-13.56a46.939,46.939,0,0,1-13.482-15.5c-5.894-10.543,6.271-14.67,6.271-14.67,7.082-2.583,21.442,12.914,22.005,15.925s7.464,6.772,13.105,12.351a11.26,11.26,0,0,0,2.821,2.066A7.7,7.7,0,0,0,758.959,516.337Z" transform="translate(-350.187 -323.922)"/><path class="d" d="M801.835,544.55l-1,16.112-6.147.516a3.009,3.009,0,0,1-.418.181l-.4-7.831s5.832-2.2,6.085-2.319-6.085-2.381-6.085-2.381v-3.745A7.7,7.7,0,0,0,801.835,544.55Z" transform="translate(-393.064 -352.136)"/><path class="d" d="M811,556.33c-2.505.093-4.38.1-4.38.1l2.779-11.1,1.591-.072C812.013,547.021,811.574,552.2,811,556.33Z" transform="translate(-399.228 -352.479)"/><path class="p" d="M794.84,548.28s6.333,2.257,6.085,2.381-6.085,2.319-6.085,2.319l.439,8.59,8.59-.47s3.136-15.641.439-17.212l-9.469-.439Z" transform="translate(-393.533 -351.604)"/><path class="d" d="M718.5,572.71a12.973,12.973,0,0,1-3.89,2.536Z" transform="translate(-354.746 -365.749)"/><path class="d" d="M712.31,582.8s5.2-.191,5.827-1.255S712.31,582.8,712.31,582.8Z" transform="translate(-353.634 -369.887)"/><path class="d" d="M707.33,597.094c.315,0,6.581-.878,6.834-1.694Z" transform="translate(-351.227 -376.719)"/><path class="d" d="M703.57,605.56c2.257-.067,6.08-2.51,6.08-2.51Z" transform="translate(-349.409 -380.417)"/><path class="d" d="M731.85,607.329s13.606,0,14.231-2.505S731.85,607.329,731.85,607.329Z" transform="translate(-363.081 -380.935)"/><path class="d" d="M751.63,540.753c.253,0,10.724,0,11.726-1.441S751.63,540.753,751.63,540.753Z" transform="translate(-372.643 -349.409)"/><path class="d" d="M716.194,461.869a10.019,10.019,0,0,1,.134,1.55,9.587,9.587,0,0,1-.155,1.72,14.885,14.885,0,0,1-.971,3.135l-.108.253c-.155.362-.32.713-.491,1.064a29.271,29.271,0,0,1-2.707,4.463,48.8,48.8,0,0,1-8.12,8.446q-.79.666-1.6,1.317c0-.486.026-.765.026-.765s.878-2.826,3.2-8.466a11.492,11.492,0,0,1,7.521-6.416l-.935-.8c.945-3.859,2.624-5.785,3.962-6.715C716.034,461.042,716.132,461.445,716.194,461.869Z" transform="translate(-348.737 -311.58)"/><path class="d" d="M763.676,409.063a1.819,1.819,0,0,0-.455.181c-.981.542-1.266,1.829-2.066,2.64-.925.956-2.371,1.1-3.688,1.266s-2.789.491-3.487,1.622a8.306,8.306,0,0,0-.656,2.872.915.915,0,0,1-.2.475.93.93,0,0,1-.63.207c-2.583.181-4.463-.708-6.88-1.333a3.676,3.676,0,0,0-3.327.517,3.783,3.783,0,0,0-.981,2.924v.093a19.972,19.972,0,0,1,.093,3.1,5.114,5.114,0,0,1-2.7,3.786,4.779,4.779,0,0,1-1.953.558,1.581,1.581,0,0,1-.775-.114c.46-.785.9-1.55,1.3-2.33a15.553,15.553,0,1,1,26.388-16.469Z" transform="translate(-364.558 -283.094)"/><path class="o" d="M746.88,398.983a2.624,2.624,0,0,1-.863,1.059c-1.178.765-2.867-.077-4.1.6-.987.542-1.266,1.829-2.066,2.64-.92.956-2.366,1.1-3.688,1.266s-2.784.491-3.487,1.622a8.393,8.393,0,0,0-.656,2.872.874.874,0,0,1-.2.475.945.945,0,0,1-.63.207c-2.583.181-4.463-.713-6.881-1.333a3.667,3.667,0,0,0-3.321.517A3.6,3.6,0,0,0,720,411.84a22.627,22.627,0,0,1,.1,3.182,5.166,5.166,0,0,1-4.649,4.344,1.271,1.271,0,0,1-.956-.243,1.368,1.368,0,0,1-.315-.568c-1.72-4.835-1.7-10.2-3.792-14.892a16.814,16.814,0,0,1-.873-2.066c-.041-.145-.083-.294-.114-.444a6.81,6.81,0,0,1-.124-.9,1.291,1.291,0,0,0-.589.243,1.083,1.083,0,0,0-.165.176,3.062,3.062,0,0,0-.434,1.637,61.991,61.991,0,0,0,1.86,19.2,20.072,20.072,0,0,1,.894,4.82,12.879,12.879,0,0,1-1.24,5.109c-3.239,7.469-9.747,12.94-16.22,17.883a7.2,7.2,0,0,0,1.922-5.336,2.107,2.107,0,0,1-1.637,1.467,6.311,6.311,0,0,1-2.309-.036c.992-.325,1.379-1.493,1.627-2.505q.759-3.1,1.41-6.255a39.376,39.376,0,0,0,.909-6.106c.078-1.746-.057-3.5-.129-5.248a106.242,106.242,0,0,1,.516-14.386c.382-4.132,1.074-8.6,4.107-11.421a17.842,17.842,0,0,1,4.339-2.707c0-.517,3.786-1.55,4.287-1.622a4.072,4.072,0,0,1,.63-.072,1.3,1.3,0,0,1,1.348.708c.186-.336.393-.666.61-.981A11.429,11.429,0,0,1,712,393.58c1.968-2.169,4.52-3.7,6.8-5.538a17.49,17.49,0,0,1,2.707-1.994,9.74,9.74,0,0,1,4.055-1.033,16.452,16.452,0,0,1,6.845,1.074c3.141,1.209,5.883,3.378,9.133,4.256A21.719,21.719,0,0,1,743.9,391a5.744,5.744,0,0,1,3,7.965Z" transform="translate(-343.506 -274.998)"/><g class="q" transform="translate(347.833 119.869)"><path d="M694.548,498.8a7.138,7.138,0,0,0,.47-3.048,2.118,2.118,0,0,1-1.643,1.467,3.344,3.344,0,0,1-.6.088,2.594,2.594,0,0,1-1.457,1.88,6.319,6.319,0,0,0,2.309.041,2.583,2.583,0,0,0,.92-.429Z" transform="translate(-691.32 -448.413)"/><path d="M762.566,404.11a5.777,5.777,0,0,1-.62,2.345,2.658,2.658,0,0,1-.868,1.033c-1.173.764-2.867-.072-4.1.6-.981.542-1.265,1.834-2.066,2.64-.925.956-2.371,1.105-3.688,1.266s-2.789.517-3.487,1.622a8.3,8.3,0,0,0-.656,2.872.723.723,0,0,1-.832.687c-2.583.181-4.463-.713-6.88-1.338a3.676,3.676,0,0,0-3.327.517,3.8,3.8,0,0,0-.981,2.929,21.755,21.755,0,0,1,.093,3.177,5.135,5.135,0,0,1-4.649,4.349,1.286,1.286,0,0,1-.956-.243,1.388,1.388,0,0,1-.315-.573c-1.72-4.835-1.71-10.2-3.8-14.887a18.085,18.085,0,0,1-.868-2.066,6.067,6.067,0,0,1-.243-1.348,1.136,1.136,0,0,0-.754.418,3.174,3.174,0,0,0-.434,1.637,62.353,62.353,0,0,0,.516,12.4,62.505,62.505,0,0,1-.253-10.4,3.063,3.063,0,0,1,.434-1.637,1.085,1.085,0,0,1,.754-.418,6.1,6.1,0,0,0,.238,1.348,17.693,17.693,0,0,0,.873,2.066c2.066,4.69,2.066,10.052,3.792,14.887a1.428,1.428,0,0,0,.32.573,1.25,1.25,0,0,0,.95.284,5.166,5.166,0,0,0,4.649-4.344,22.628,22.628,0,0,0-.1-3.182,3.878,3.878,0,0,1,.987-2.929,3.593,3.593,0,0,1,3.321-.517c2.417.62,4.287,1.514,6.88,1.333a.945.945,0,0,0,.63-.207.9.9,0,0,0,.2-.48,8.248,8.248,0,0,1,.656-2.867c.7-1.131,2.17-1.462,3.487-1.627s2.769-.3,3.693-1.26c.78-.811,1.059-2.1,2.066-2.645,1.224-.677,2.918.165,4.1-.6a2.625,2.625,0,0,0,.862-1.059,5.858,5.858,0,0,0,.367-4.355Z" transform="translate(-706.653 -404.11)"/><path d="M712.5,461.4a12.91,12.91,0,0,1-1.235,5.109c-2.9,6.679-8.415,11.762-14.174,16.292a7.232,7.232,0,0,1-1.8,3.616c6.467-4.938,12.986-10.409,16.22-17.878a12.88,12.88,0,0,0,1.24-5.109,11.315,11.315,0,0,0-.264-2.247C712.491,461.232,712.5,461.314,712.5,461.4Z" transform="translate(-693.239 -431.7)"/></g><path class="d" d="M727.7,404c-.465,2.139-1.106,4.918-1.586,6.348a7.732,7.732,0,0,1-.124-.9,1.276,1.276,0,0,0-.584.243c0-1.5.181-3.74.336-5.414a1.3,1.3,0,0,1,1.353.708A8.974,8.974,0,0,1,727.7,404Z" transform="translate(-359.967 -284.188)"/><path class="p" d="M727.219,404c-.465,2.139-1.105,4.918-1.586,6.348a6.79,6.79,0,0,1-.124-.9,1.291,1.291,0,0,0-.589.243c0-1.5.181-3.74.341-5.414a1.3,1.3,0,0,1,1.348.708C726.8,404.651,727.028,404.32,727.219,404Z" transform="translate(-359.73 -284.188)"/><g class="w" transform="translate(468.806 -0.03)"><path class="x" d="M933,179.57h85.578v83.238H933Z" transform="translate(-929.131 -175.66)"/><path class="y" d="M925.51,172v91.038h93.358V172Zm3.89,3.895h85.578v83.254h-85.6Z" transform="translate(-925.51 -172)"/><path class="y" d="M1009.766,230.5a5.314,5.314,0,0,0-2.257-.393c-4.9,0-8.167,3.776-8.167,10.037,0,7.16,3.347,10.037,7.7,10.037a7.263,7.263,0,0,0,2.686-.429V230.5Zm-17.439,9.959c0-9.066,5.832-16.148,15.4-16.148a16.17,16.17,0,0,1,2.02.083V214.277a.392.392,0,0,1,.392-.393h6.261c.31,0,.387.119.387.315v35.55a27.4,27.4,0,0,0,.2,3.812c0,.274,0,.315-.233.429a23.209,23.209,0,0,1-9.959,2.257c-8.441,0-14.464-5.212-14.464-15.791Zm-13.265-6.3,10.9,21.107c.2.31.078.62-.232.62h-6.767a.759.759,0,0,1-.816-.517q-3.735-7.7-7.624-15.988h-.078c-2.335,5.212-4.9,10.894-7.392,16.013a.749.749,0,0,1-.7.429H959.9c-.387,0-.424-.315-.233-.548l10.657-20.5-10.305-20.321a.346.346,0,0,1,.274-.584h6.689c.388,0,.584.078.7.429,2.454,5.166,4.943,10.269,7.278,15.5h.078c2.252-5.135,4.742-10.331,7.118-15.4.191-.315.31-.517.7-.517h6.266c.31,0,.424.232.233.584L979.077,234.18Z" transform="translate(-941.967 -192.241)"/></g><g class="w" transform="translate(98.051 5.678)"><path class="z" d="M227.678,244.46l29.248,57.24L207.77,244.46Z" transform="translate(-207.77 -212.738)"/><path class="z" d="M332.188,244.46,302.94,301.7,352.1,244.46Z" transform="translate(-253.779 -212.738)"/><path class="aa" d="M246.31,244.46H304.8L275.558,301.7Z" transform="translate(-226.402 -212.738)"/><path class="ab" d="M275.548,183.05l-27.708,2.929-1.55,28.793Z" transform="translate(-226.392 -183.05)"/><path class="ab" d="M302.93,183.05l27.7,2.929,1.55,28.793Z" transform="translate(-253.774 -183.05)"/><path class="aa" d="M378.028,217.513,356.58,188.72l1.55,28.793Z" transform="translate(-279.711 -185.791)"/><path class="aa" d="M207.77,217.513l21.448-28.793-1.55,28.793Z" transform="translate(-207.77 -185.791)"/><path class="ac" d="M275.558,183.05,246.31,214.772H304.8Z" transform="translate(-226.402 -183.05)"/></g></g></svg>