<svg xmlns="http://www.w3.org/2000/svg" width="24.444" height="22" viewBox="0 0 24.444 22">
  <defs>
    <style>
      .cls-1 {
        fill: #382f9c;
      }
    </style>
  </defs>
  <g id="surface1063484" transform="translate(-4 -6)">
    <path id="Path_11197" data-name="Path 11197" class="cls-1" d="M5.833,6A1.837,1.837,0,0,0,4,7.833v5.5H5.222V25.556A2.446,2.446,0,0,0,7.667,28H24.778a2.446,2.446,0,0,0,2.444-2.444V13.333h1.222v-5.5A1.837,1.837,0,0,0,26.611,6Zm.611,2.444H26v2.444H6.444Zm1.222,4.889H24.778l0,12.222H7.667Zm9.778,7.333v2.444h4.889V20.667Zm0,0" transform="translate(0 0)"/>
  </g>
</svg>
