<svg xmlns="http://www.w3.org/2000/svg" width="409" height="423" viewBox="0 0 409 423">
  <defs>
    <style>
      .cls-1 {
        fill: #ff616e;
      }

      .cls-2 {
        fill: #fff;
      }
    </style>
  </defs>
  <g id="Group_5215" data-name="Group 5215" transform="translate(-1478 -774)">
    <path id="Union_5" data-name="Union 5" class="cls-1" d="M0,409V0H218.4V.465C324.854,7.614,409,96.232,409,204.5S324.854,401.386,218.4,408.535V409Z" transform="translate(1478 788)"/>
    <g id="Group_5214" data-name="Group 5214" transform="translate(160 222)">
      <circle id="Ellipse_96" data-name="Ellipse 96" class="cls-2" cx="2.5" cy="2.5" r="2.5" transform="translate(1407 552)"/>
      <circle id="Ellipse_96-2" data-name="Ellipse 96" class="cls-2" cx="2.5" cy="2.5" r="2.5" transform="translate(1428 552)"/>
      <circle id="Ellipse_96-3" data-name="Ellipse 96" class="cls-2" cx="2.5" cy="2.5" r="2.5" transform="translate(1449 552)"/>
      <circle id="Ellipse_96-4" data-name="Ellipse 96" class="cls-2" cx="2.5" cy="2.5" r="2.5" transform="translate(1470 552)"/>
      <circle id="Ellipse_96-5" data-name="Ellipse 96" class="cls-2" cx="2.5" cy="2.5" r="2.5" transform="translate(1491 552)"/>
      <circle id="Ellipse_96-6" data-name="Ellipse 96" class="cls-2" cx="2.5" cy="2.5" r="2.5" transform="translate(1512 552)"/>
      <circle id="Ellipse_96-7" data-name="Ellipse 96" class="cls-2" cx="2.5" cy="2.5" r="2.5" transform="translate(1533 552)"/>
      <circle id="Ellipse_96-8" data-name="Ellipse 96" class="cls-2" cx="2.5" cy="2.5" r="2.5" transform="translate(1554 552)"/>
      <circle id="Ellipse_96-9" data-name="Ellipse 96" class="cls-2" cx="2.5" cy="2.5" r="2.5" transform="translate(1575 552)"/>
      <circle id="Ellipse_96-10" data-name="Ellipse 96" class="cls-2" cx="2.5" cy="2.5" r="2.5" transform="translate(1596 552)"/>
      <circle id="Ellipse_96-11" data-name="Ellipse 96" class="cls-2" cx="2.5" cy="2.5" r="2.5" transform="translate(1617 552)"/>
      <circle id="Ellipse_96-12" data-name="Ellipse 96" class="cls-2" cx="2.5" cy="2.5" r="2.5" transform="translate(1638 552)"/>
      <circle id="Ellipse_96-13" data-name="Ellipse 96" class="cls-2" cx="2.5" cy="2.5" r="2.5" transform="translate(1659 552)"/>
      <circle id="Ellipse_96-14" data-name="Ellipse 96" class="cls-2" cx="2.5" cy="2.5" r="2.5" transform="translate(1680 552)"/>
      <circle id="Ellipse_96-15" data-name="Ellipse 96" class="cls-2" cx="2.5" cy="2.5" r="2.5" transform="translate(1701 552)"/>
      <circle id="Ellipse_96-16" data-name="Ellipse 96" class="cls-2" cx="2.5" cy="2.5" r="2.5" transform="translate(1722 552)"/>
      <circle id="Ellipse_96-17" data-name="Ellipse 96" class="cls-2" cx="2.5" cy="2.5" r="2.5" transform="translate(1407 573)"/>
      <circle id="Ellipse_96-18" data-name="Ellipse 96" class="cls-2" cx="2.5" cy="2.5" r="2.5" transform="translate(1428 573)"/>
      <circle id="Ellipse_96-19" data-name="Ellipse 96" class="cls-2" cx="2.5" cy="2.5" r="2.5" transform="translate(1449 573)"/>
      <circle id="Ellipse_96-20" data-name="Ellipse 96" class="cls-2" cx="2.5" cy="2.5" r="2.5" transform="translate(1470 573)"/>
      <circle id="Ellipse_96-21" data-name="Ellipse 96" class="cls-2" cx="2.5" cy="2.5" r="2.5" transform="translate(1491 573)"/>
      <circle id="Ellipse_96-22" data-name="Ellipse 96" class="cls-2" cx="2.5" cy="2.5" r="2.5" transform="translate(1512 573)"/>
      <circle id="Ellipse_96-23" data-name="Ellipse 96" class="cls-2" cx="2.5" cy="2.5" r="2.5" transform="translate(1533 573)"/>
      <circle id="Ellipse_96-24" data-name="Ellipse 96" class="cls-2" cx="2.5" cy="2.5" r="2.5" transform="translate(1554 573)"/>
      <circle id="Ellipse_96-25" data-name="Ellipse 96" class="cls-2" cx="2.5" cy="2.5" r="2.5" transform="translate(1575 573)"/>
      <circle id="Ellipse_96-26" data-name="Ellipse 96" class="cls-2" cx="2.5" cy="2.5" r="2.5" transform="translate(1596 573)"/>
      <circle id="Ellipse_96-27" data-name="Ellipse 96" class="cls-2" cx="2.5" cy="2.5" r="2.5" transform="translate(1617 573)"/>
      <circle id="Ellipse_96-28" data-name="Ellipse 96" class="cls-2" cx="2.5" cy="2.5" r="2.5" transform="translate(1638 573)"/>
      <circle id="Ellipse_96-29" data-name="Ellipse 96" class="cls-2" cx="2.5" cy="2.5" r="2.5" transform="translate(1659 573)"/>
      <circle id="Ellipse_96-30" data-name="Ellipse 96" class="cls-2" cx="2.5" cy="2.5" r="2.5" transform="translate(1680 573)"/>
      <circle id="Ellipse_96-31" data-name="Ellipse 96" class="cls-2" cx="2.5" cy="2.5" r="2.5" transform="translate(1701 573)"/>
      <circle id="Ellipse_96-32" data-name="Ellipse 96" class="cls-2" cx="2.5" cy="2.5" r="2.5" transform="translate(1722 573)"/>
      <circle id="Ellipse_96-33" data-name="Ellipse 96" class="cls-2" cx="2.5" cy="2.5" r="2.5" transform="translate(1407 594)"/>
      <circle id="Ellipse_96-34" data-name="Ellipse 96" class="cls-2" cx="2.5" cy="2.5" r="2.5" transform="translate(1428 594)"/>
      <circle id="Ellipse_96-35" data-name="Ellipse 96" class="cls-2" cx="2.5" cy="2.5" r="2.5" transform="translate(1449 594)"/>
      <circle id="Ellipse_96-36" data-name="Ellipse 96" class="cls-2" cx="2.5" cy="2.5" r="2.5" transform="translate(1470 594)"/>
      <circle id="Ellipse_96-37" data-name="Ellipse 96" class="cls-2" cx="2.5" cy="2.5" r="2.5" transform="translate(1491 594)"/>
      <circle id="Ellipse_96-38" data-name="Ellipse 96" class="cls-2" cx="2.5" cy="2.5" r="2.5" transform="translate(1512 594)"/>
      <circle id="Ellipse_96-39" data-name="Ellipse 96" class="cls-2" cx="2.5" cy="2.5" r="2.5" transform="translate(1533 594)"/>
      <circle id="Ellipse_96-40" data-name="Ellipse 96" class="cls-2" cx="2.5" cy="2.5" r="2.5" transform="translate(1554 594)"/>
      <circle id="Ellipse_96-41" data-name="Ellipse 96" class="cls-2" cx="2.5" cy="2.5" r="2.5" transform="translate(1575 594)"/>
      <circle id="Ellipse_96-42" data-name="Ellipse 96" class="cls-2" cx="2.5" cy="2.5" r="2.5" transform="translate(1596 594)"/>
      <circle id="Ellipse_96-43" data-name="Ellipse 96" class="cls-2" cx="2.5" cy="2.5" r="2.5" transform="translate(1617 594)"/>
      <circle id="Ellipse_96-44" data-name="Ellipse 96" class="cls-2" cx="2.5" cy="2.5" r="2.5" transform="translate(1638 594)"/>
      <circle id="Ellipse_96-45" data-name="Ellipse 96" class="cls-2" cx="2.5" cy="2.5" r="2.5" transform="translate(1659 594)"/>
      <circle id="Ellipse_96-46" data-name="Ellipse 96" class="cls-2" cx="2.5" cy="2.5" r="2.5" transform="translate(1680 594)"/>
      <circle id="Ellipse_96-47" data-name="Ellipse 96" class="cls-2" cx="2.5" cy="2.5" r="2.5" transform="translate(1701 594)"/>
      <circle id="Ellipse_96-48" data-name="Ellipse 96" class="cls-2" cx="2.5" cy="2.5" r="2.5" transform="translate(1722 594)"/>
      <circle id="Ellipse_96-49" data-name="Ellipse 96" class="cls-2" cx="2.5" cy="2.5" r="2.5" transform="translate(1407 615)"/>
      <circle id="Ellipse_96-50" data-name="Ellipse 96" class="cls-2" cx="2.5" cy="2.5" r="2.5" transform="translate(1428 615)"/>
      <circle id="Ellipse_96-51" data-name="Ellipse 96" class="cls-2" cx="2.5" cy="2.5" r="2.5" transform="translate(1449 615)"/>
      <circle id="Ellipse_96-52" data-name="Ellipse 96" class="cls-2" cx="2.5" cy="2.5" r="2.5" transform="translate(1470 615)"/>
      <circle id="Ellipse_96-53" data-name="Ellipse 96" class="cls-2" cx="2.5" cy="2.5" r="2.5" transform="translate(1491 615)"/>
      <circle id="Ellipse_96-54" data-name="Ellipse 96" class="cls-2" cx="2.5" cy="2.5" r="2.5" transform="translate(1512 615)"/>
      <circle id="Ellipse_96-55" data-name="Ellipse 96" class="cls-2" cx="2.5" cy="2.5" r="2.5" transform="translate(1533 615)"/>
      <circle id="Ellipse_96-56" data-name="Ellipse 96" class="cls-2" cx="2.5" cy="2.5" r="2.5" transform="translate(1554 615)"/>
      <circle id="Ellipse_96-57" data-name="Ellipse 96" class="cls-2" cx="2.5" cy="2.5" r="2.5" transform="translate(1575 615)"/>
      <circle id="Ellipse_96-58" data-name="Ellipse 96" class="cls-2" cx="2.5" cy="2.5" r="2.5" transform="translate(1596 615)"/>
      <circle id="Ellipse_96-59" data-name="Ellipse 96" class="cls-2" cx="2.5" cy="2.5" r="2.5" transform="translate(1617 615)"/>
      <circle id="Ellipse_96-60" data-name="Ellipse 96" class="cls-2" cx="2.5" cy="2.5" r="2.5" transform="translate(1638 615)"/>
      <circle id="Ellipse_96-61" data-name="Ellipse 96" class="cls-2" cx="2.5" cy="2.5" r="2.5" transform="translate(1659 615)"/>
      <circle id="Ellipse_96-62" data-name="Ellipse 96" class="cls-2" cx="2.5" cy="2.5" r="2.5" transform="translate(1680 615)"/>
      <circle id="Ellipse_96-63" data-name="Ellipse 96" class="cls-2" cx="2.5" cy="2.5" r="2.5" transform="translate(1701 615)"/>
      <circle id="Ellipse_96-64" data-name="Ellipse 96" class="cls-2" cx="2.5" cy="2.5" r="2.5" transform="translate(1722 615)"/>
      <circle id="Ellipse_96-65" data-name="Ellipse 96" class="cls-2" cx="2.5" cy="2.5" r="2.5" transform="translate(1407 636)"/>
      <circle id="Ellipse_96-66" data-name="Ellipse 96" class="cls-2" cx="2.5" cy="2.5" r="2.5" transform="translate(1428 636)"/>
      <circle id="Ellipse_96-67" data-name="Ellipse 96" class="cls-2" cx="2.5" cy="2.5" r="2.5" transform="translate(1449 636)"/>
      <circle id="Ellipse_96-68" data-name="Ellipse 96" class="cls-2" cx="2.5" cy="2.5" r="2.5" transform="translate(1470 636)"/>
      <circle id="Ellipse_96-69" data-name="Ellipse 96" class="cls-2" cx="2.5" cy="2.5" r="2.5" transform="translate(1491 636)"/>
      <circle id="Ellipse_96-70" data-name="Ellipse 96" class="cls-2" cx="2.5" cy="2.5" r="2.5" transform="translate(1512 636)"/>
      <circle id="Ellipse_96-71" data-name="Ellipse 96" class="cls-2" cx="2.5" cy="2.5" r="2.5" transform="translate(1533 636)"/>
      <circle id="Ellipse_96-72" data-name="Ellipse 96" class="cls-2" cx="2.5" cy="2.5" r="2.5" transform="translate(1554 636)"/>
      <circle id="Ellipse_96-73" data-name="Ellipse 96" class="cls-2" cx="2.5" cy="2.5" r="2.5" transform="translate(1575 636)"/>
      <circle id="Ellipse_96-74" data-name="Ellipse 96" class="cls-2" cx="2.5" cy="2.5" r="2.5" transform="translate(1596 636)"/>
      <circle id="Ellipse_96-75" data-name="Ellipse 96" class="cls-2" cx="2.5" cy="2.5" r="2.5" transform="translate(1617 636)"/>
      <circle id="Ellipse_96-76" data-name="Ellipse 96" class="cls-2" cx="2.5" cy="2.5" r="2.5" transform="translate(1638 636)"/>
      <circle id="Ellipse_96-77" data-name="Ellipse 96" class="cls-2" cx="2.5" cy="2.5" r="2.5" transform="translate(1659 636)"/>
      <circle id="Ellipse_96-78" data-name="Ellipse 96" class="cls-2" cx="2.5" cy="2.5" r="2.5" transform="translate(1680 636)"/>
      <circle id="Ellipse_96-79" data-name="Ellipse 96" class="cls-2" cx="2.5" cy="2.5" r="2.5" transform="translate(1701 636)"/>
      <circle id="Ellipse_96-80" data-name="Ellipse 96" class="cls-2" cx="2.5" cy="2.5" r="2.5" transform="translate(1722 636)"/>
      <circle id="Ellipse_96-81" data-name="Ellipse 96" class="cls-2" cx="2.5" cy="2.5" r="2.5" transform="translate(1407 657)"/>
      <circle id="Ellipse_96-82" data-name="Ellipse 96" class="cls-2" cx="2.5" cy="2.5" r="2.5" transform="translate(1428 657)"/>
      <circle id="Ellipse_96-83" data-name="Ellipse 96" class="cls-2" cx="2.5" cy="2.5" r="2.5" transform="translate(1449 657)"/>
      <circle id="Ellipse_96-84" data-name="Ellipse 96" class="cls-2" cx="2.5" cy="2.5" r="2.5" transform="translate(1470 657)"/>
      <circle id="Ellipse_96-85" data-name="Ellipse 96" class="cls-2" cx="2.5" cy="2.5" r="2.5" transform="translate(1491 657)"/>
      <circle id="Ellipse_96-86" data-name="Ellipse 96" class="cls-2" cx="2.5" cy="2.5" r="2.5" transform="translate(1512 657)"/>
      <circle id="Ellipse_96-87" data-name="Ellipse 96" class="cls-2" cx="2.5" cy="2.5" r="2.5" transform="translate(1533 657)"/>
      <circle id="Ellipse_96-88" data-name="Ellipse 96" class="cls-2" cx="2.5" cy="2.5" r="2.5" transform="translate(1554 657)"/>
      <circle id="Ellipse_96-89" data-name="Ellipse 96" class="cls-2" cx="2.5" cy="2.5" r="2.5" transform="translate(1575 657)"/>
      <circle id="Ellipse_96-90" data-name="Ellipse 96" class="cls-2" cx="2.5" cy="2.5" r="2.5" transform="translate(1596 657)"/>
      <circle id="Ellipse_96-91" data-name="Ellipse 96" class="cls-2" cx="2.5" cy="2.5" r="2.5" transform="translate(1617 657)"/>
      <circle id="Ellipse_96-92" data-name="Ellipse 96" class="cls-2" cx="2.5" cy="2.5" r="2.5" transform="translate(1638 657)"/>
      <circle id="Ellipse_96-93" data-name="Ellipse 96" class="cls-2" cx="2.5" cy="2.5" r="2.5" transform="translate(1659 657)"/>
      <circle id="Ellipse_96-94" data-name="Ellipse 96" class="cls-2" cx="2.5" cy="2.5" r="2.5" transform="translate(1680 657)"/>
      <circle id="Ellipse_96-95" data-name="Ellipse 96" class="cls-2" cx="2.5" cy="2.5" r="2.5" transform="translate(1701 657)"/>
      <circle id="Ellipse_96-96" data-name="Ellipse 96" class="cls-2" cx="2.5" cy="2.5" r="2.5" transform="translate(1722 657)"/>
      <circle id="Ellipse_96-97" data-name="Ellipse 96" class="cls-2" cx="2.5" cy="2.5" r="2.5" transform="translate(1407 678)"/>
      <circle id="Ellipse_96-98" data-name="Ellipse 96" class="cls-2" cx="2.5" cy="2.5" r="2.5" transform="translate(1428 678)"/>
      <circle id="Ellipse_96-99" data-name="Ellipse 96" class="cls-2" cx="2.5" cy="2.5" r="2.5" transform="translate(1449 678)"/>
      <circle id="Ellipse_96-100" data-name="Ellipse 96" class="cls-2" cx="2.5" cy="2.5" r="2.5" transform="translate(1470 678)"/>
      <circle id="Ellipse_96-101" data-name="Ellipse 96" class="cls-2" cx="2.5" cy="2.5" r="2.5" transform="translate(1491 678)"/>
      <circle id="Ellipse_96-102" data-name="Ellipse 96" class="cls-2" cx="2.5" cy="2.5" r="2.5" transform="translate(1512 678)"/>
      <circle id="Ellipse_96-103" data-name="Ellipse 96" class="cls-2" cx="2.5" cy="2.5" r="2.5" transform="translate(1533 678)"/>
      <circle id="Ellipse_96-104" data-name="Ellipse 96" class="cls-2" cx="2.5" cy="2.5" r="2.5" transform="translate(1554 678)"/>
      <circle id="Ellipse_96-105" data-name="Ellipse 96" class="cls-2" cx="2.5" cy="2.5" r="2.5" transform="translate(1575 678)"/>
      <circle id="Ellipse_96-106" data-name="Ellipse 96" class="cls-2" cx="2.5" cy="2.5" r="2.5" transform="translate(1596 678)"/>
      <circle id="Ellipse_96-107" data-name="Ellipse 96" class="cls-2" cx="2.5" cy="2.5" r="2.5" transform="translate(1617 678)"/>
      <circle id="Ellipse_96-108" data-name="Ellipse 96" class="cls-2" cx="2.5" cy="2.5" r="2.5" transform="translate(1638 678)"/>
      <circle id="Ellipse_96-109" data-name="Ellipse 96" class="cls-2" cx="2.5" cy="2.5" r="2.5" transform="translate(1659 678)"/>
      <circle id="Ellipse_96-110" data-name="Ellipse 96" class="cls-2" cx="2.5" cy="2.5" r="2.5" transform="translate(1680 678)"/>
      <circle id="Ellipse_96-111" data-name="Ellipse 96" class="cls-2" cx="2.5" cy="2.5" r="2.5" transform="translate(1701 678)"/>
      <circle id="Ellipse_96-112" data-name="Ellipse 96" class="cls-2" cx="2.5" cy="2.5" r="2.5" transform="translate(1722 678)"/>
      <circle id="Ellipse_96-113" data-name="Ellipse 96" class="cls-2" cx="2.5" cy="2.5" r="2.5" transform="translate(1407 699)"/>
      <circle id="Ellipse_96-114" data-name="Ellipse 96" class="cls-2" cx="2.5" cy="2.5" r="2.5" transform="translate(1428 699)"/>
      <circle id="Ellipse_96-115" data-name="Ellipse 96" class="cls-2" cx="2.5" cy="2.5" r="2.5" transform="translate(1449 699)"/>
      <circle id="Ellipse_96-116" data-name="Ellipse 96" class="cls-2" cx="2.5" cy="2.5" r="2.5" transform="translate(1470 699)"/>
      <circle id="Ellipse_96-117" data-name="Ellipse 96" class="cls-2" cx="2.5" cy="2.5" r="2.5" transform="translate(1491 699)"/>
      <circle id="Ellipse_96-118" data-name="Ellipse 96" class="cls-2" cx="2.5" cy="2.5" r="2.5" transform="translate(1512 699)"/>
      <circle id="Ellipse_96-119" data-name="Ellipse 96" class="cls-2" cx="2.5" cy="2.5" r="2.5" transform="translate(1533 699)"/>
      <circle id="Ellipse_96-120" data-name="Ellipse 96" class="cls-2" cx="2.5" cy="2.5" r="2.5" transform="translate(1554 699)"/>
      <circle id="Ellipse_96-121" data-name="Ellipse 96" class="cls-2" cx="2.5" cy="2.5" r="2.5" transform="translate(1575 699)"/>
      <circle id="Ellipse_96-122" data-name="Ellipse 96" class="cls-2" cx="2.5" cy="2.5" r="2.5" transform="translate(1596 699)"/>
      <circle id="Ellipse_96-123" data-name="Ellipse 96" class="cls-2" cx="2.5" cy="2.5" r="2.5" transform="translate(1617 699)"/>
      <circle id="Ellipse_96-124" data-name="Ellipse 96" class="cls-2" cx="2.5" cy="2.5" r="2.5" transform="translate(1638 699)"/>
      <circle id="Ellipse_96-125" data-name="Ellipse 96" class="cls-2" cx="2.5" cy="2.5" r="2.5" transform="translate(1659 699)"/>
      <circle id="Ellipse_96-126" data-name="Ellipse 96" class="cls-2" cx="2.5" cy="2.5" r="2.5" transform="translate(1680 699)"/>
      <circle id="Ellipse_96-127" data-name="Ellipse 96" class="cls-2" cx="2.5" cy="2.5" r="2.5" transform="translate(1701 699)"/>
      <circle id="Ellipse_96-128" data-name="Ellipse 96" class="cls-2" cx="2.5" cy="2.5" r="2.5" transform="translate(1722 699)"/>
      <circle id="Ellipse_96-129" data-name="Ellipse 96" class="cls-2" cx="2.5" cy="2.5" r="2.5" transform="translate(1407 720)"/>
      <circle id="Ellipse_96-130" data-name="Ellipse 96" class="cls-2" cx="2.5" cy="2.5" r="2.5" transform="translate(1428 720)"/>
      <circle id="Ellipse_96-131" data-name="Ellipse 96" class="cls-2" cx="2.5" cy="2.5" r="2.5" transform="translate(1449 720)"/>
      <circle id="Ellipse_96-132" data-name="Ellipse 96" class="cls-2" cx="2.5" cy="2.5" r="2.5" transform="translate(1470 720)"/>
      <circle id="Ellipse_96-133" data-name="Ellipse 96" class="cls-2" cx="2.5" cy="2.5" r="2.5" transform="translate(1491 720)"/>
      <circle id="Ellipse_96-134" data-name="Ellipse 96" class="cls-2" cx="2.5" cy="2.5" r="2.5" transform="translate(1512 720)"/>
      <circle id="Ellipse_96-135" data-name="Ellipse 96" class="cls-2" cx="2.5" cy="2.5" r="2.5" transform="translate(1533 720)"/>
      <circle id="Ellipse_96-136" data-name="Ellipse 96" class="cls-2" cx="2.5" cy="2.5" r="2.5" transform="translate(1554 720)"/>
      <circle id="Ellipse_96-137" data-name="Ellipse 96" class="cls-2" cx="2.5" cy="2.5" r="2.5" transform="translate(1575 720)"/>
      <circle id="Ellipse_96-138" data-name="Ellipse 96" class="cls-2" cx="2.5" cy="2.5" r="2.5" transform="translate(1596 720)"/>
      <circle id="Ellipse_96-139" data-name="Ellipse 96" class="cls-2" cx="2.5" cy="2.5" r="2.5" transform="translate(1617 720)"/>
      <circle id="Ellipse_96-140" data-name="Ellipse 96" class="cls-2" cx="2.5" cy="2.5" r="2.5" transform="translate(1638 720)"/>
      <circle id="Ellipse_96-141" data-name="Ellipse 96" class="cls-2" cx="2.5" cy="2.5" r="2.5" transform="translate(1659 720)"/>
      <circle id="Ellipse_96-142" data-name="Ellipse 96" class="cls-2" cx="2.5" cy="2.5" r="2.5" transform="translate(1680 720)"/>
      <circle id="Ellipse_96-143" data-name="Ellipse 96" class="cls-2" cx="2.5" cy="2.5" r="2.5" transform="translate(1701 720)"/>
      <circle id="Ellipse_96-144" data-name="Ellipse 96" class="cls-2" cx="2.5" cy="2.5" r="2.5" transform="translate(1722 720)"/>
      <circle id="Ellipse_96-145" data-name="Ellipse 96" class="cls-2" cx="2.5" cy="2.5" r="2.5" transform="translate(1407 741)"/>
      <circle id="Ellipse_96-146" data-name="Ellipse 96" class="cls-2" cx="2.5" cy="2.5" r="2.5" transform="translate(1428 741)"/>
      <circle id="Ellipse_96-147" data-name="Ellipse 96" class="cls-2" cx="2.5" cy="2.5" r="2.5" transform="translate(1449 741)"/>
      <circle id="Ellipse_96-148" data-name="Ellipse 96" class="cls-2" cx="2.5" cy="2.5" r="2.5" transform="translate(1470 741)"/>
      <circle id="Ellipse_96-149" data-name="Ellipse 96" class="cls-2" cx="2.5" cy="2.5" r="2.5" transform="translate(1491 741)"/>
      <circle id="Ellipse_96-150" data-name="Ellipse 96" class="cls-2" cx="2.5" cy="2.5" r="2.5" transform="translate(1512 741)"/>
      <circle id="Ellipse_96-151" data-name="Ellipse 96" class="cls-2" cx="2.5" cy="2.5" r="2.5" transform="translate(1533 741)"/>
      <circle id="Ellipse_96-152" data-name="Ellipse 96" class="cls-2" cx="2.5" cy="2.5" r="2.5" transform="translate(1554 741)"/>
      <circle id="Ellipse_96-153" data-name="Ellipse 96" class="cls-2" cx="2.5" cy="2.5" r="2.5" transform="translate(1575 741)"/>
      <circle id="Ellipse_96-154" data-name="Ellipse 96" class="cls-2" cx="2.5" cy="2.5" r="2.5" transform="translate(1596 741)"/>
      <circle id="Ellipse_96-155" data-name="Ellipse 96" class="cls-2" cx="2.5" cy="2.5" r="2.5" transform="translate(1617 741)"/>
      <circle id="Ellipse_96-156" data-name="Ellipse 96" class="cls-2" cx="2.5" cy="2.5" r="2.5" transform="translate(1638 741)"/>
      <circle id="Ellipse_96-157" data-name="Ellipse 96" class="cls-2" cx="2.5" cy="2.5" r="2.5" transform="translate(1659 741)"/>
      <circle id="Ellipse_96-158" data-name="Ellipse 96" class="cls-2" cx="2.5" cy="2.5" r="2.5" transform="translate(1680 741)"/>
      <circle id="Ellipse_96-159" data-name="Ellipse 96" class="cls-2" cx="2.5" cy="2.5" r="2.5" transform="translate(1701 741)"/>
      <circle id="Ellipse_96-160" data-name="Ellipse 96" class="cls-2" cx="2.5" cy="2.5" r="2.5" transform="translate(1722 741)"/>
      <circle id="Ellipse_96-161" data-name="Ellipse 96" class="cls-2" cx="2.5" cy="2.5" r="2.5" transform="translate(1407 762)"/>
      <circle id="Ellipse_96-162" data-name="Ellipse 96" class="cls-2" cx="2.5" cy="2.5" r="2.5" transform="translate(1428 762)"/>
      <circle id="Ellipse_96-163" data-name="Ellipse 96" class="cls-2" cx="2.5" cy="2.5" r="2.5" transform="translate(1449 762)"/>
      <circle id="Ellipse_96-164" data-name="Ellipse 96" class="cls-2" cx="2.5" cy="2.5" r="2.5" transform="translate(1470 762)"/>
      <circle id="Ellipse_96-165" data-name="Ellipse 96" class="cls-2" cx="2.5" cy="2.5" r="2.5" transform="translate(1491 762)"/>
      <circle id="Ellipse_96-166" data-name="Ellipse 96" class="cls-2" cx="2.5" cy="2.5" r="2.5" transform="translate(1512 762)"/>
      <circle id="Ellipse_96-167" data-name="Ellipse 96" class="cls-2" cx="2.5" cy="2.5" r="2.5" transform="translate(1533 762)"/>
      <circle id="Ellipse_96-168" data-name="Ellipse 96" class="cls-2" cx="2.5" cy="2.5" r="2.5" transform="translate(1554 762)"/>
      <circle id="Ellipse_96-169" data-name="Ellipse 96" class="cls-2" cx="2.5" cy="2.5" r="2.5" transform="translate(1575 762)"/>
      <circle id="Ellipse_96-170" data-name="Ellipse 96" class="cls-2" cx="2.5" cy="2.5" r="2.5" transform="translate(1596 762)"/>
      <circle id="Ellipse_96-171" data-name="Ellipse 96" class="cls-2" cx="2.5" cy="2.5" r="2.5" transform="translate(1617 762)"/>
      <circle id="Ellipse_96-172" data-name="Ellipse 96" class="cls-2" cx="2.5" cy="2.5" r="2.5" transform="translate(1638 762)"/>
      <circle id="Ellipse_96-173" data-name="Ellipse 96" class="cls-2" cx="2.5" cy="2.5" r="2.5" transform="translate(1659 762)"/>
      <circle id="Ellipse_96-174" data-name="Ellipse 96" class="cls-2" cx="2.5" cy="2.5" r="2.5" transform="translate(1680 762)"/>
      <circle id="Ellipse_96-175" data-name="Ellipse 96" class="cls-2" cx="2.5" cy="2.5" r="2.5" transform="translate(1701 762)"/>
      <circle id="Ellipse_96-176" data-name="Ellipse 96" class="cls-2" cx="2.5" cy="2.5" r="2.5" transform="translate(1722 762)"/>
      <circle id="Ellipse_96-177" data-name="Ellipse 96" class="cls-2" cx="2.5" cy="2.5" r="2.5" transform="translate(1407 783)"/>
      <circle id="Ellipse_96-178" data-name="Ellipse 96" class="cls-2" cx="2.5" cy="2.5" r="2.5" transform="translate(1428 783)"/>
      <circle id="Ellipse_96-179" data-name="Ellipse 96" class="cls-2" cx="2.5" cy="2.5" r="2.5" transform="translate(1449 783)"/>
      <circle id="Ellipse_96-180" data-name="Ellipse 96" class="cls-2" cx="2.5" cy="2.5" r="2.5" transform="translate(1470 783)"/>
      <circle id="Ellipse_96-181" data-name="Ellipse 96" class="cls-2" cx="2.5" cy="2.5" r="2.5" transform="translate(1491 783)"/>
      <circle id="Ellipse_96-182" data-name="Ellipse 96" class="cls-2" cx="2.5" cy="2.5" r="2.5" transform="translate(1512 783)"/>
      <circle id="Ellipse_96-183" data-name="Ellipse 96" class="cls-2" cx="2.5" cy="2.5" r="2.5" transform="translate(1533 783)"/>
      <circle id="Ellipse_96-184" data-name="Ellipse 96" class="cls-2" cx="2.5" cy="2.5" r="2.5" transform="translate(1554 783)"/>
      <circle id="Ellipse_96-185" data-name="Ellipse 96" class="cls-2" cx="2.5" cy="2.5" r="2.5" transform="translate(1575 783)"/>
      <circle id="Ellipse_96-186" data-name="Ellipse 96" class="cls-2" cx="2.5" cy="2.5" r="2.5" transform="translate(1596 783)"/>
      <circle id="Ellipse_96-187" data-name="Ellipse 96" class="cls-2" cx="2.5" cy="2.5" r="2.5" transform="translate(1617 783)"/>
      <circle id="Ellipse_96-188" data-name="Ellipse 96" class="cls-2" cx="2.5" cy="2.5" r="2.5" transform="translate(1638 783)"/>
      <circle id="Ellipse_96-189" data-name="Ellipse 96" class="cls-2" cx="2.5" cy="2.5" r="2.5" transform="translate(1659 783)"/>
      <circle id="Ellipse_96-190" data-name="Ellipse 96" class="cls-2" cx="2.5" cy="2.5" r="2.5" transform="translate(1680 783)"/>
      <circle id="Ellipse_96-191" data-name="Ellipse 96" class="cls-2" cx="2.5" cy="2.5" r="2.5" transform="translate(1701 783)"/>
      <circle id="Ellipse_96-192" data-name="Ellipse 96" class="cls-2" cx="2.5" cy="2.5" r="2.5" transform="translate(1722 783)"/>
    </g>
  </g>
</svg>
