<svg xmlns="http://www.w3.org/2000/svg" xmlns:xlink="http://www.w3.org/1999/xlink" width="1440" height="1252" viewBox="0 0 1440 1252">
  <defs>
    <style>
      .cls-1 {
        clip-path: url(#clip-_01-Gallery-web);
      }

      .cls-12, .cls-2 {
        fill: #dcdcdc;
      }

      .cls-3, .cls-4, .cls-7, .cls-8 {
        fill: #191710;
      }

      .cls-3 {
        font-size: 20px;
      }

      .cls-3, .cls-5, .cls-6 {
        font-family: Gotham-Bold, Gotham;
      }

      .cls-14, .cls-3, .cls-5, .cls-6 {
        font-weight: 700;
      }

      .cls-13, .cls-14, .cls-18, .cls-5 {
        fill: #fff;
      }

      .cls-13, .cls-5 {
        font-size: 16px;
      }

      .cls-6 {
        fill: #cdcdcd;
        font-size: 18px;
      }

      .cls-14, .cls-7, .cls-8 {
        font-size: 14px;
      }

      .cls-7, .cls-8 {
        font-family: ProximaNova-Semibold, Proxima Nova;
        font-weight: 600;
      }

      .cls-8, .cls-9 {
        opacity: 0.997;
      }

      .cls-10, .cls-11, .cls-15, .cls-17 {
        fill: none;
      }

      .cls-10, .cls-12 {
        stroke: #191710;
      }

      .cls-10 {
        stroke-linecap: round;
        stroke-width: 4px;
      }

      .cls-11 {
        stroke: rgba(0,0,0,0.2);
      }

      .cls-13 {
        font-family: ProximaNova-Regular, Proxima Nova;
      }

      .cls-14 {
        font-family: ProximaNova-Bold, Proxima Nova;
      }

      .cls-15 {
        stroke: rgba(255,255,255,0.26);
      }

      .cls-16 {
        stroke: none;
      }
    </style>
    <clipPath id="clip-_01-Gallery-web">
      <rect width="1440" height="1252"/>
    </clipPath>
  </defs>
  <g id="_01-Gallery-web" data-name="01-Gallery-web" class="cls-1">
    <rect class="cls-18" width="1440" height="1252"/>
    <rect id="Screenshot_2020-02-08_at_7.48.17_PM" data-name="Screenshot 2020-02-08 at 7.48.17 PM" class="cls-2" width="1170" height="96" rx="8" transform="translate(135 103)"/>
    <text id="Gallery" class="cls-3" transform="translate(135 304)"><tspan x="0" y="0">Gallery</tspan></text>
    <g id="Group_140" data-name="Group 140" transform="translate(0 -4)">
      <rect id="Rectangle_115" data-name="Rectangle 115" class="cls-4" width="60" height="30" rx="5" transform="translate(135 229)"/>
      <text id="_2008" data-name="2008" class="cls-5" transform="translate(144 250)"><tspan x="0" y="0">2008</tspan></text>
      <text id="_2009" data-name="2009" class="cls-6" transform="translate(217.999 251)"><tspan x="0" y="0">2009</tspan></text>
      <text id="_2010" data-name="2010" class="cls-6" transform="translate(297 251)"><tspan x="0" y="0">2010</tspan></text>
      <text id="_2011" data-name="2011" class="cls-6" transform="translate(373 251)"><tspan x="0" y="0">2011</tspan></text>
      <text id="_2012" data-name="2012" class="cls-6" transform="translate(442.001 251)"><tspan x="0" y="0">2012</tspan></text>
      <text id="_2013" data-name="2013" class="cls-6" transform="translate(516 251)"><tspan x="0" y="0">2013</tspan></text>
      <text id="_2014" data-name="2014" class="cls-6" transform="translate(589.999 251)"><tspan x="0" y="0">2014</tspan></text>
      <text id="_2015" data-name="2015" class="cls-6" transform="translate(664 251)"><tspan x="0" y="0">2015</tspan></text>
      <text id="_2016" data-name="2016" class="cls-6" transform="translate(737.999 251)"><tspan x="0" y="0">2016</tspan></text>
      <text id="_2017" data-name="2017" class="cls-6" transform="translate(812.001 251)"><tspan x="0" y="0">2017</tspan></text>
      <text id="_2018" data-name="2018" class="cls-6" transform="translate(886 251)"><tspan x="0" y="0">2018</tspan></text>
      <text id="_2019" data-name="2019" class="cls-6" transform="translate(959.001 251)"><tspan x="0" y="0">2019</tspan></text>
      <text id="_2020" data-name="2020" class="cls-6" transform="translate(1034 251)"><tspan x="0" y="0">2020</tspan></text>
    </g>
    <rect id="_01_1_" data-name="01 (1)" class="cls-2" width="280.747" height="210.56" rx="8" transform="translate(135 323.107)"/>
    <rect id="_02" data-name="02" class="cls-2" width="280.747" height="210.56" rx="8" transform="translate(430.999 323.107)"/>
    <rect id="_03" data-name="03" class="cls-2" width="280.747" height="210.56" rx="8" transform="translate(728.001 323.107)"/>
    <rect id="_04" data-name="04" class="cls-2" width="280.747" height="210.56" rx="8" transform="translate(1024 323.107)"/>
    <rect id="_05" data-name="05" class="cls-2" width="280.747" height="210.56" rx="8" transform="translate(135 549.107)"/>
    <rect id="_06" data-name="06" class="cls-2" width="280.747" height="210.56" rx="8" transform="translate(430.999 549.107)"/>
    <rect id="_07" data-name="07" class="cls-2" width="280.747" height="210.56" rx="8" transform="translate(728.001 549.107)"/>
    <rect id="_08" data-name="08" class="cls-2" width="280.747" height="210.56" rx="8" transform="translate(1024 549.107)"/>
    <rect id="_09" data-name="09" class="cls-2" width="280.747" height="210.56" rx="8" transform="translate(135 780.107)"/>
    <rect id="_10" data-name="10" class="cls-2" width="280.747" height="210.56" rx="8" transform="translate(430.999 780.107)"/>
    <rect id="_01_2_" data-name="01 (2)" class="cls-2" width="280.747" height="210.56" rx="8" transform="translate(728.001 780.107)"/>
    <rect id="_04_1_" data-name="04 (1)" class="cls-2" width="280.747" height="210.56" rx="8" transform="translate(1024 780.107)"/>
    <rect id="Rectangle_38" data-name="Rectangle 38" class="cls-2" width="1440" height="79" transform="translate(1)"/>
    <g id="Group_37" data-name="Group 37" transform="translate(-26.5 -1)">
      <text id="Home" class="cls-7" transform="translate(306 44)"><tspan x="-18.802" y="0">Home</tspan></text>
      <text id="News" class="cls-8" transform="translate(388 44)"><tspan x="-17.521" y="0">News</tspan></text>
      <text id="CSK_TV" data-name="CSK TV" class="cls-8" transform="translate(619 44)"><tspan x="-23.828" y="0">CSK TV</tspan></text>
      <text id="More" class="cls-8" transform="translate(796 44)"><tspan x="-16.184" y="0">More</tspan></text>
      <g id="Group_35" data-name="Group 35" class="cls-9" transform="translate(44 -14)">
        <text id="Match_Centre" data-name="Match Centre" class="cls-7" transform="translate(449 58)"><tspan x="-42.287" y="0">Match Centre</tspan></text>
        <path id="Path_4" data-name="Path 4" class="cls-4" d="M373,433l3.88,3.88L373,440.76" transform="translate(938.82 -320.06) rotate(90)"/>
      </g>
      <g id="Group_34" data-name="Group 34" class="cls-9" transform="translate(59 -14)">
        <text id="Shop" class="cls-7" transform="translate(645 58)"><tspan x="-16.205" y="0">Shop</tspan></text>
        <path id="Path_29" data-name="Path 29" class="cls-4" d="M373,433l3.88,3.88L373,440.76" transform="translate(1108.82 -320.06) rotate(90)"/>
      </g>
      <line id="Line_2" data-name="Line 2" class="cls-10" x2="50" transform="translate(684.5 77.5)"/>
    </g>
    <line id="Line_3" data-name="Line 3" class="cls-11" y2="21" transform="translate(1240.5 29.5)"/>
    <g id="Group_123" data-name="Group 123" transform="translate(2 -1)">
      <g id="Rectangle_113" data-name="Rectangle 113" class="cls-12" transform="translate(1258 17)">
        <rect class="cls-16" width="47" height="47" rx="15"/>
        <rect class="cls-17" x="0.5" y="0.5" width="46" height="46" rx="14.5"/>
      </g>
    </g>
    <g id="Group_206" data-name="Group 206" transform="translate(2744 -12522)">
      <rect id="Rectangle_55" data-name="Rectangle 55" class="cls-4" width="1440" height="221" transform="translate(-2744 13553)"/>
      <text id="_CSK._All_rights_reserved._" data-name="© CSK. All rights reserved. " class="cls-13" transform="translate(-2024 13672)"><tspan x="-94.544" y="0">© CSK. All rights reserved. </tspan></text>
      <g id="Group_46" data-name="Group 46" transform="translate(-3011 10902)">
        <text id="Privacy_Policy" data-name="Privacy Policy" class="cls-14" transform="translate(727 2822)"><tspan x="-55.216" y="0">PRIVACY POLICY</tspan></text>
        <text id="Terms_conditions" data-name="Terms &amp; conditions" class="cls-14" transform="translate(924 2822)"><tspan x="-73.808" y="0">TERMS &amp; CONDITIONS</tspan></text>
        <text id="Disclaimer" class="cls-14" transform="translate(1107 2822)"><tspan x="-40.887" y="0">DISCLAIMER</tspan></text>
        <text id="Contact_Us" data-name="Contact Us" class="cls-14" transform="translate(1259 2822)"><tspan x="-43.414" y="0">CONTACT US</tspan></text>
      </g>
      <line id="Line_4" data-name="Line 4" class="cls-15" y2="17" transform="translate(-2198.5 13710.5)"/>
      <line id="Line_5" data-name="Line 5" class="cls-15" y2="17" transform="translate(-1973.5 13710.5)"/>
      <line id="Line_6" data-name="Line 6" class="cls-15" y2="17" transform="translate(-1817.5 13710.5)"/>
    </g>
  </g>
</svg>
