<svg xmlns="http://www.w3.org/2000/svg" xmlns:xlink="http://www.w3.org/1999/xlink" width="594.412" height="321.277" viewBox="0 0 594.412 321.277"><defs><style>.a,.j{fill:none;}.a{stroke:#27a2ff;stroke-width:2px;}.b{fill:#15202b;}.c{fill:#0066b3;}.d,.k{fill:#fff;}.d{font-size:12px;}.d,.g,.h,.k,.n{font-family:ProximaNova-Semibold, Proxima Nova;font-weight:600;}.e{fill:rgba(255,255,255,0.08);}.f{fill:rgba(255,255,255,0.07);}.g{fill:rgba(255,255,255,0.7);}.g,.h,.i,.k,.m{font-size:14px;}.h{fill:#848484;}.i,.l{fill:#ffcb05;}.i,.m,.o{font-family:ProximaNova-Bold, Proxima Nova;font-weight:700;}.j{stroke:rgba(255,255,255,0.1);}.n{fill:#27a2ff;font-size:18px;}.o{font-size:20px;}.p{filter:url(#a);}</style><filter id="a" x="0" y="33" width="594.412" height="288.277" filterUnits="userSpaceOnUse"><feOffset dy="13" input="SourceAlpha"/><feGaussianBlur stdDeviation="8" result="b"/><feFlood flood-color="#15202b" flood-opacity="0.18"/><feComposite operator="in" in2="b"/><feComposite in="SourceGraphic"/></filter></defs><g transform="translate(-877.606 -8942)"><path class="a" d="M3969,502l5.56,5.56-5.56,5.56" transform="translate(-2867.395 8446)"/><g class="p" transform="matrix(1, 0, 0, 1, 877.61, 8942)"><rect class="b" width="546.412" height="240.277" rx="10" transform="translate(24 44)"/></g><g transform="translate(-40.394 8346)"><path class="c" d="M10,0H536a10,10,0,0,1,10,10V43a0,0,0,0,1,0,0H0a0,0,0,0,1,0,0V10A10,10,0,0,1,10,0Z" transform="translate(943 640)"/><text class="d" transform="translate(961 665)"><tspan x="0" y="0">Pos</tspan></text><text class="d" transform="translate(1036 665)"><tspan x="0" y="0">Team</tspan></text><text class="d" transform="translate(1179 665)"><tspan x="0" y="0">Pld</tspan></text><text class="d" transform="translate(1237 665)"><tspan x="0" y="0">Won</tspan></text><text class="d" transform="translate(1298 665)"><tspan x="0" y="0">Loss</tspan></text><text class="d" transform="translate(1361 665)"><tspan x="0" y="0">Net RR</tspan></text><text class="d" transform="translate(1449 665)"><tspan x="0" y="0">Pts</tspan></text><rect class="e" width="545" height="50" transform="translate(943 732)"/><rect class="f" width="545" height="49" transform="translate(941 831)"/><text class="g" transform="translate(1183 712)"><tspan x="0" y="0">5</tspan></text><text class="h" transform="translate(967 712)"><tspan x="0" y="0">1</tspan></text><text class="g" transform="translate(1245 712)"><tspan x="0" y="0">3</tspan></text><text class="g" transform="translate(1305 712)"><tspan x="0" y="0">2</tspan></text><text class="g" transform="translate(1361 712)"><tspan x="0" y="0">+0.62</tspan></text><text class="g" transform="translate(1454 712)"><tspan x="0" y="0">6</tspan></text><text class="g" transform="translate(1183 762)"><tspan x="0" y="0">5</tspan></text><text class="h" transform="translate(967 762)"><tspan x="0" y="0">2</tspan></text><text class="g" transform="translate(1245 762)"><tspan x="0" y="0">3</tspan></text><text class="g" transform="translate(1305 762)"><tspan x="0" y="0">2</tspan></text><text class="g" transform="translate(1363 762)"><tspan x="0" y="0">+0.14</tspan></text><text class="g" transform="translate(1454 762)"><tspan x="0" y="0">6</tspan></text><text class="g" transform="translate(1183 810)"><tspan x="0" y="0">5</tspan></text><text class="h" transform="translate(967 810)"><tspan x="0" y="0">3</tspan></text><text class="g" transform="translate(1245 810)"><tspan x="0" y="0">2</tspan></text><text class="g" transform="translate(1305 810)"><tspan x="0" y="0">3</tspan></text><text class="g" transform="translate(1380 810)"><tspan x="-17.255" y="0">+0.27</tspan></text><text class="g" transform="translate(1454 810)"><tspan x="0" y="0">4</tspan></text><text class="i" transform="translate(1183 860)"><tspan x="0" y="0">5</tspan></text><text class="i" transform="translate(967 860)"><tspan x="0" y="0">5</tspan></text><text class="i" transform="translate(1245 860)"><tspan x="0" y="0">2</tspan></text><text class="i" transform="translate(1305 860)"><tspan x="0" y="0">3</tspan></text><text class="i" transform="translate(1379 860)"><tspan x="-15.953" y="0">+0.19</tspan></text><text class="i" transform="translate(1454 860)"><tspan x="0" y="0">4</tspan></text><line class="j" x2="545.5" transform="translate(941.5 732.322)"/><line class="j" x2="545.5" transform="translate(941.5 831.085)"/><line class="j" x2="545.5" transform="translate(941.5 782.133)"/><text class="k" transform="translate(1041 712)"><tspan x="0" y="0">RR</tspan></text><text class="k" transform="translate(1043 762)"><tspan x="0" y="0">MI</tspan></text><text class="k" transform="translate(1037 811)"><tspan x="0" y="0">KKR</tspan></text><rect class="l" width="53" height="27" rx="6" transform="translate(1024 842)"/><text class="m" transform="translate(1037 860)"><tspan x="0" y="0">CSK</tspan></text></g><text class="n" transform="translate(1074.606 8959)"><tspan x="-20.025" y="0">View</tspan></text><text class="o" transform="translate(968.606 8960)"><tspan x="-67.94" y="0">POINTS TABLE</tspan></text></g></svg>