<svg xmlns="http://www.w3.org/2000/svg" xmlns:xlink="http://www.w3.org/1999/xlink" width="225" height="225" viewBox="0 0 225 225">
  <defs>
    <style>
      .cls-1, .cls-2, .cls-4 {
        fill: none;
      }

      .cls-1 {
        stroke: #191710;
        stroke-width: 31px;
      }

      .cls-2 {
        opacity: 0.4;
      }

      .cls-3, .cls-5 {
        stroke: none;
      }

      .cls-5 {
        fill: #fff;
      }

      .cls-6 {
        filter: url(#Ellipse_164);
      }
    </style>
    <filter id="Ellipse_164" x="0" y="0" width="225" height="225" filterUnits="userSpaceOnUse">
      <feOffset dy="19" input="SourceAlpha"/>
      <feGaussianBlur stdDeviation="12.5" result="blur"/>
      <feFlood flood-color="#191710" flood-opacity="0.6"/>
      <feComposite operator="in" in2="blur"/>
      <feComposite in="SourceGraphic"/>
    </filter>
  </defs>
  <g id="Group_6180" data-name="Group 6180" transform="translate(-243.5 -7948.5)">
    <g class="cls-6" transform="matrix(1, 0, 0, 1, 243.5, 7948.5)">
      <g id="Ellipse_164-2" data-name="Ellipse 164" class="cls-1" transform="translate(37.5 18.5)">
        <circle class="cls-3" cx="75" cy="75" r="75"/>
        <circle class="cls-4" cx="75" cy="75" r="59.5"/>
      </g>
    </g>
    <g id="Intersection_1" data-name="Intersection 1" class="cls-2" transform="translate(430.946 8116.878) rotate(180)">
      <path class="cls-3" d="M75,0a74.781,74.781,0,0,1,53.589,22.529L.217,69.252A75.006,75.006,0,0,1,75,0Z"/>
      <path class="cls-5" d="M 74.99969482421875 -1.52587890625e-05 C 95.99364471435547 -1.52587890625e-05 114.9746398925781 8.627731323242188 128.5885467529297 22.52848052978516 L 0.217041015625 69.25157928466797 C 3.152847290039063 30.51648330688477 35.51299285888672 -1.52587890625e-05 74.99969482421875 -1.52587890625e-05 Z"/>
    </g>
  </g>
</svg>
