<svg xmlns="http://www.w3.org/2000/svg" xmlns:xlink="http://www.w3.org/1999/xlink" width="278" height="278" viewBox="0 0 278 278">
  <defs>
    <style>
      .cls-1 {
        fill: #0066b3;
      }

      .cls-2, .cls-3, .cls-5 {
        fill: #fff;
      }

      .cls-2 {
        font-size: 70px;
        font-family: ProximaNova-Bold, Proxima Nova;
        font-weight: 700;
      }

      .cls-3 {
        font-size: 16px;
        font-family: ProximaNova-Semibold, Proxima Nova;
        font-weight: 600;
      }

      .cls-4, .cls-5 {
        stroke: none;
      }

      .cls-6 {
        filter: url(#Path_11363);
      }
    </style>
    <filter id="Path_11363" x="0" y="0" width="278" height="278" filterUnits="userSpaceOnUse">
      <feOffset dy="13" input="SourceAlpha"/>
      <feGaussianBlur stdDeviation="13" result="blur"/>
      <feFlood flood-opacity="0.161"/>
      <feComposite operator="in" in2="blur"/>
      <feComposite in="SourceGraphic"/>
    </filter>
  </defs>
  <g id="Group_5277" data-name="Group 5277" transform="translate(-821 -10215)">
    <g class="cls-6" transform="matrix(1, 0, 0, 1, 821, 10215)">
      <g id="Path_11363-2" data-name="Path 11363" class="cls-1" transform="translate(39 26)">
        <path class="cls-4" d="M 170 198.5 L 30 198.5 C 26.15186882019043 198.5 22.41963195800781 197.7466888427734 18.90697288513184 196.2609405517578 C 15.51339435577393 194.8255767822266 12.46534252166748 192.7704162597656 9.847474098205566 190.1525573730469 C 7.229578971862793 187.5346832275391 5.174420833587646 184.4866027832031 3.739052534103394 181.0930328369141 C 2.253315687179565 177.5803680419922 1.5 173.8481292724609 1.5 170 L 1.5 30 C 1.5 26.15186882019043 2.253315687179565 22.41963195800781 3.739052534103394 18.90697288513184 C 5.174420833587646 15.51339435577393 7.229578971862793 12.46534252166748 9.847474098205566 9.847474098205566 C 12.46534252166748 7.229578971862793 15.51339435577393 5.174420833587646 18.90697288513184 3.739052534103394 C 22.41963195800781 2.253315687179565 26.15186882019043 1.5 30 1.5 L 170 1.5 C 173.8481292724609 1.5 177.5803680419922 2.253315687179565 181.0930328369141 3.739052534103394 C 184.4866027832031 5.174420833587646 187.5346832275391 7.229578971862793 190.1525573730469 9.847474098205566 C 192.7704162597656 12.46534252166748 194.8255767822266 15.51339435577393 196.2609405517578 18.90697288513184 C 197.7466888427734 22.41963195800781 198.5 26.15186882019043 198.5 30 L 198.5 170 C 198.5 173.8481292724609 197.7466888427734 177.5803680419922 196.2609405517578 181.0930328369141 C 194.8255767822266 184.4866027832031 192.7704162597656 187.5346832275391 190.1525573730469 190.1525573730469 C 187.5346832275391 192.7704162597656 184.4866027832031 194.8255767822266 181.0930328369141 196.2609405517578 C 177.5803680419922 197.7466888427734 173.8481292724609 198.5 170 198.5 Z"/>
        <path class="cls-5" d="M 30 3 C 26.35369873046875 3 22.81805419921875 3.713470458984375 19.49130249023438 5.120559692382813 C 16.27650451660156 6.480300903320313 13.38871765136719 8.427505493164063 10.90811157226563 10.90811157226563 C 8.427505493164063 13.38871765136719 6.480300903320313 16.27650451660156 5.120559692382813 19.49130249023438 C 3.713470458984375 22.81805419921875 3 26.35369873046875 3 30 L 3 170 C 3 173.6463012695313 3.713470458984375 177.1819152832031 5.120559692382813 180.5086975097656 C 6.480300903320313 183.7234802246094 8.427505493164063 186.6112823486328 10.90811157226563 189.0918884277344 C 13.38871765136719 191.5724792480469 16.27653503417969 193.5196990966797 19.49130249023438 194.8794403076172 C 22.81805419921875 196.2865295410156 26.35369873046875 197 30 197 L 170 197 C 173.6463012695313 197 177.1819152832031 196.2865295410156 180.5086975097656 194.8794403076172 C 183.7234802246094 193.5196990966797 186.6112823486328 191.5724792480469 189.0918884277344 189.0918884277344 C 191.5724792480469 186.6112823486328 193.5196990966797 183.7234802246094 194.8794403076172 180.5086975097656 C 196.2865295410156 177.1819152832031 197 173.6463012695313 197 170 L 197 30 C 197 26.35369873046875 196.2865295410156 22.81805419921875 194.8794403076172 19.49130249023438 C 193.5196990966797 16.27653503417969 191.5724792480469 13.38871765136719 189.0918884277344 10.90811157226563 C 186.6112823486328 8.427505493164063 183.7234802246094 6.480300903320313 180.5086975097656 5.120559692382813 C 177.1819152832031 3.713470458984375 173.6463012695313 3 170 3 L 30 3 M 30 0 L 170 0 C 186.5685272216797 0 200 13.43144226074219 200 30 L 200 170 C 200 186.5685272216797 186.5685272216797 200 170 200 L 30 200 C 13.43144226074219 200 0 186.5685272216797 0 170 L 0 30 C 0 13.43144226074219 13.43144226074219 0 30 0 Z"/>
      </g>
    </g>
    <g id="Group_5276" data-name="Group 5276" transform="translate(-6 8)">
      <text id="_90" data-name="+90" class="cls-2" transform="translate(901 10347)"><tspan x="0" y="0">+90</tspan></text>
      <text id="SCREENS_TOTAL" data-name="SCREENS TOTAL" class="cls-3" transform="translate(908 10392)"><tspan x="0" y="0">SCREENS TOTAL</tspan></text>
    </g>
  </g>
</svg>
