<svg xmlns="http://www.w3.org/2000/svg" xmlns:xlink="http://www.w3.org/1999/xlink" width="1440" height="2116" viewBox="0 0 1440 2116">
  <defs>
    <style>
      .cls-1 {
        clip-path: url(#clip-Shop_Catagories);
      }

      .cls-2, .cls-21 {
        fill: #dcdcdc;
      }

      .cls-10, .cls-12, .cls-16, .cls-17, .cls-3, .cls-4, .cls-5, .cls-9 {
        fill: #191710;
      }

      .cls-3 {
        font-size: 20px;
      }

      .cls-3, .cls-5 {
        font-family: Gotham-Bold, Gotham;
      }

      .cls-23, .cls-3, .cls-5, .cls-9 {
        font-weight: 700;
      }

      .cls-10, .cls-22, .cls-4, .cls-5 {
        font-size: 16px;
      }

      .cls-4 {
        font-family: Gotham-Book, Gotham;
      }

      .cls-11, .cls-15, .cls-19, .cls-20, .cls-24, .cls-27, .cls-6 {
        fill: none;
      }

      .cls-15, .cls-19, .cls-21, .cls-6 {
        stroke: #191710;
      }

      .cls-6 {
        stroke-width: 2px;
      }

      .cls-14, .cls-22, .cls-23, .cls-28, .cls-7 {
        fill: #fff;
      }

      .cls-8 {
        fill: #555;
        font-size: 18px;
      }

      .cls-10, .cls-22, .cls-8 {
        font-family: ProximaNova-Regular, Proxima Nova;
      }

      .cls-9 {
        font-size: 21px;
      }

      .cls-23, .cls-9 {
        font-family: ProximaNova-Bold, Proxima Nova;
      }

      .cls-11 {
        stroke: #ffcb05;
      }

      .cls-11, .cls-19 {
        stroke-linecap: round;
        stroke-width: 4px;
      }

      .cls-13 {
        fill: rgba(0,0,0,0.28);
      }

      .cls-14 {
        stroke: #eee;
      }

      .cls-15 {
        stroke-width: 3px;
      }

      .cls-16, .cls-17, .cls-23 {
        font-size: 14px;
      }

      .cls-16, .cls-17 {
        font-family: ProximaNova-Semibold, Proxima Nova;
        font-weight: 600;
      }

      .cls-17, .cls-18 {
        opacity: 0.997;
      }

      .cls-20 {
        stroke: rgba(0,0,0,0.2);
      }

      .cls-24 {
        stroke: rgba(255,255,255,0.26);
      }

      .cls-25, .cls-26 {
        stroke: none;
      }

      .cls-26 {
        fill: rgba(84,119,144,0.12);
      }

      .cls-29 {
        filter: url(#Ellipse_1-2);
      }

      .cls-30 {
        filter: url(#Ellipse_1);
      }

      .cls-31 {
        filter: url(#wp2496939);
      }

      .cls-32 {
        filter: url(#Path_35-12);
      }

      .cls-33 {
        filter: url(#Path_35-11);
      }

      .cls-34 {
        filter: url(#Path_35-10);
      }

      .cls-35 {
        filter: url(#Path_35-9);
      }

      .cls-36 {
        filter: url(#Path_35-8);
      }

      .cls-37 {
        filter: url(#Path_35-7);
      }

      .cls-38 {
        filter: url(#Path_35-6);
      }

      .cls-39 {
        filter: url(#Path_35-5);
      }

      .cls-40 {
        filter: url(#Path_35-4);
      }

      .cls-41 {
        filter: url(#Path_35-3);
      }

      .cls-42 {
        filter: url(#Path_35-2);
      }

      .cls-43 {
        filter: url(#Path_35);
      }
    </style>
    <filter id="Path_35" x="998.5" y="764.5" width="359" height="416" filterUnits="userSpaceOnUse">
      <feOffset dy="30" input="SourceAlpha"/>
      <feGaussianBlur stdDeviation="17.5" result="blur"/>
      <feFlood flood-opacity="0.059"/>
      <feComposite operator="in" in2="blur"/>
      <feComposite in="SourceGraphic"/>
    </filter>
    <filter id="Path_35-2" x="998.5" y="1490.5" width="359" height="416" filterUnits="userSpaceOnUse">
      <feOffset dy="30" input="SourceAlpha"/>
      <feGaussianBlur stdDeviation="17.5" result="blur-2"/>
      <feFlood flood-opacity="0.059"/>
      <feComposite operator="in" in2="blur-2"/>
      <feComposite in="SourceGraphic"/>
    </filter>
    <filter id="Path_35-3" x="998.5" y="1127.5" width="359" height="416" filterUnits="userSpaceOnUse">
      <feOffset dy="30" input="SourceAlpha"/>
      <feGaussianBlur stdDeviation="17.5" result="blur-3"/>
      <feFlood flood-opacity="0.059"/>
      <feComposite operator="in" in2="blur-3"/>
      <feComposite in="SourceGraphic"/>
    </filter>
    <filter id="Path_35-4" x="692.5" y="764.5" width="359" height="416" filterUnits="userSpaceOnUse">
      <feOffset dy="30" input="SourceAlpha"/>
      <feGaussianBlur stdDeviation="17.5" result="blur-4"/>
      <feFlood flood-opacity="0.059"/>
      <feComposite operator="in" in2="blur-4"/>
      <feComposite in="SourceGraphic"/>
    </filter>
    <filter id="Path_35-5" x="692.5" y="1490.5" width="359" height="416" filterUnits="userSpaceOnUse">
      <feOffset dy="30" input="SourceAlpha"/>
      <feGaussianBlur stdDeviation="17.5" result="blur-5"/>
      <feFlood flood-opacity="0.059"/>
      <feComposite operator="in" in2="blur-5"/>
      <feComposite in="SourceGraphic"/>
    </filter>
    <filter id="Path_35-6" x="692.5" y="1127.5" width="359" height="416" filterUnits="userSpaceOnUse">
      <feOffset dy="30" input="SourceAlpha"/>
      <feGaussianBlur stdDeviation="17.5" result="blur-6"/>
      <feFlood flood-opacity="0.059"/>
      <feComposite operator="in" in2="blur-6"/>
      <feComposite in="SourceGraphic"/>
    </filter>
    <filter id="Path_35-7" x="387.5" y="764.5" width="359" height="416" filterUnits="userSpaceOnUse">
      <feOffset dy="30" input="SourceAlpha"/>
      <feGaussianBlur stdDeviation="17.5" result="blur-7"/>
      <feFlood flood-opacity="0.059"/>
      <feComposite operator="in" in2="blur-7"/>
      <feComposite in="SourceGraphic"/>
    </filter>
    <filter id="Path_35-8" x="387.5" y="1490.5" width="359" height="416" filterUnits="userSpaceOnUse">
      <feOffset dy="30" input="SourceAlpha"/>
      <feGaussianBlur stdDeviation="17.5" result="blur-8"/>
      <feFlood flood-opacity="0.059"/>
      <feComposite operator="in" in2="blur-8"/>
      <feComposite in="SourceGraphic"/>
    </filter>
    <filter id="Path_35-9" x="387.5" y="1127.5" width="359" height="416" filterUnits="userSpaceOnUse">
      <feOffset dy="30" input="SourceAlpha"/>
      <feGaussianBlur stdDeviation="17.5" result="blur-9"/>
      <feFlood flood-opacity="0.059"/>
      <feComposite operator="in" in2="blur-9"/>
      <feComposite in="SourceGraphic"/>
    </filter>
    <filter id="Path_35-10" x="82.5" y="764.5" width="359" height="416" filterUnits="userSpaceOnUse">
      <feOffset dy="30" input="SourceAlpha"/>
      <feGaussianBlur stdDeviation="17.5" result="blur-10"/>
      <feFlood flood-opacity="0.059"/>
      <feComposite operator="in" in2="blur-10"/>
      <feComposite in="SourceGraphic"/>
    </filter>
    <filter id="Path_35-11" x="82.5" y="1490.5" width="359" height="416" filterUnits="userSpaceOnUse">
      <feOffset dy="30" input="SourceAlpha"/>
      <feGaussianBlur stdDeviation="17.5" result="blur-11"/>
      <feFlood flood-opacity="0.059"/>
      <feComposite operator="in" in2="blur-11"/>
      <feComposite in="SourceGraphic"/>
    </filter>
    <filter id="Path_35-12" x="82.5" y="1127.5" width="359" height="416" filterUnits="userSpaceOnUse">
      <feOffset dy="30" input="SourceAlpha"/>
      <feGaussianBlur stdDeviation="17.5" result="blur-12"/>
      <feFlood flood-opacity="0.059"/>
      <feComposite operator="in" in2="blur-12"/>
      <feComposite in="SourceGraphic"/>
    </filter>
    <filter id="wp2496939" x="117" y="252" width="1206" height="436" filterUnits="userSpaceOnUse">
      <feOffset dy="7" input="SourceAlpha"/>
      <feGaussianBlur stdDeviation="6" result="blur-13"/>
      <feFlood flood-opacity="0.098"/>
      <feComposite operator="in" in2="blur-13"/>
      <feComposite in="SourceGraphic"/>
    </filter>
    <filter id="Ellipse_1" x="64" y="437" width="57" height="57" filterUnits="userSpaceOnUse">
      <feOffset dy="2" input="SourceAlpha"/>
      <feGaussianBlur stdDeviation="2" result="blur-14"/>
      <feFlood flood-opacity="0.161"/>
      <feComposite operator="in" in2="blur-14"/>
      <feComposite in="SourceGraphic"/>
    </filter>
    <filter id="Ellipse_1-2" x="1319" y="437" width="57" height="57" filterUnits="userSpaceOnUse">
      <feOffset dy="2" input="SourceAlpha"/>
      <feGaussianBlur stdDeviation="2" result="blur-15"/>
      <feFlood flood-opacity="0.161"/>
      <feComposite operator="in" in2="blur-15"/>
      <feComposite in="SourceGraphic"/>
    </filter>
    <clipPath id="clip-Shop_Catagories">
      <rect width="1440" height="2116"/>
    </clipPath>
  </defs>
  <g id="Shop_Catagories" data-name="Shop Catagories" class="cls-1">
    <rect class="cls-28" width="1440" height="2116"/>
    <rect id="Screenshot_2020-02-08_at_7.48.17_PM" data-name="Screenshot 2020-02-08 at 7.48.17 PM" class="cls-2" width="1170" height="96" rx="8" transform="translate(135 103)"/>
    <text id="recomended" class="cls-3" transform="translate(135 238)"><tspan x="0" y="0">Recomended</tspan></text>
    <text id="Shop_by_CAtegory" data-name="Shop by CAtegory" class="cls-3" transform="translate(135 706)"><tspan x="0" y="0">Shop By Category</tspan></text>
    <g id="Group_64" data-name="Group 64" transform="translate(0 84)">
      <text id="Women" class="cls-4" transform="translate(197 662)"><tspan x="0" y="0">Women</tspan></text>
      <text id="Kids" class="cls-4" transform="translate(288 662)"><tspan x="0" y="0">Kids</tspan></text>
      <text id="Food" class="cls-4" transform="translate(349 662)"><tspan x="0" y="0">Food</tspan></text>
      <text id="Watches" class="cls-4" transform="translate(419 662)"><tspan x="0" y="0">Watches</tspan></text>
      <text id="Mobile_Cases" data-name="Mobile Cases" class="cls-4" transform="translate(516 662)"><tspan x="0" y="0">Mobile Cases</tspan></text>
      <text id="Back_to_School" data-name="Back to School" class="cls-4" transform="translate(648 662)"><tspan x="0" y="0">Back to School</tspan></text>
      <text id="Laptop_Service" data-name="Laptop Service" class="cls-4" transform="translate(795 662)"><tspan x="0" y="0">Laptop Service</tspan></text>
      <text id="CSK_Diary_Calender-2020" data-name="CSK Diary &amp; 
Calender-2020" class="cls-4" transform="translate(1003 662)"><tspan x="-50.504" y="0">CSK Diary &amp; </tspan><tspan x="-59.88" y="18">Calender-2020</tspan></text>
      <text id="Accessories" class="cls-4" transform="translate(1090 662)"><tspan x="0" y="0">Accessories</tspan></text>
      <text id="Collectibles" class="cls-4" transform="translate(1213 662)"><tspan x="0" y="0">Collectibles</tspan></text>
      <g id="Group_63" data-name="Group 63" transform="translate(19)">
        <text id="Men" class="cls-5" transform="translate(116 662)"><tspan x="0" y="0">Men</tspan></text>
        <line id="Line_8" data-name="Line 8" class="cls-6" x2="34" transform="translate(116.5 676.5)"/>
      </g>
    </g>
    <g class="cls-43" transform="matrix(1, 0, 0, 1, 0, 0)">
      <g id="Path_35-13" data-name="Path 35" class="cls-7" transform="translate(1051 787)">
        <path class="cls-25" d="M8,0H246a8,8,0,0,1,8,8V303a8,8,0,0,1-8,8H8a8,8,0,0,1-8-8V8A8,8,0,0,1,8,0Z"/>
        <path class="cls-26" d="M 8 1 C 4.14019775390625 1 1 4.14019775390625 1 8 L 1 303 C 1 306.8598022460938 4.14019775390625 310 8 310 L 246 310 C 249.8598022460938 310 253 306.8598022460938 253 303 L 253 8 C 253 4.14019775390625 249.8598022460938 1 246 1 L 8 1 M 8 0 L 246 0 C 250.4182739257813 0 254 3.58172607421875 254 8 L 254 303 C 254 307.4182739257813 250.4182739257813 311 246 311 L 8 311 C 3.58172607421875 311 0 307.4182739257813 0 303 L 0 8 C 0 3.58172607421875 3.58172607421875 0 8 0 Z"/>
      </g>
    </g>
    <text id="T-shirt_:_Thala_Dhoni_by_the_Souled_Store" data-name="T-shirt : Thala Dhoni by 
the Souled Store" class="cls-8" transform="translate(1083 999)"><tspan x="0" y="0">T-shirt : Thala Dhoni by </tspan><tspan x="0" y="22">the Souled Store</tspan></text>
    <text id="_1000" data-name="₹1000" class="cls-9" transform="translate(1083 1064)"><tspan x="0" y="0">₹1000</tspan></text>
    <text id="_40_OFF" data-name="40% OFF" class="cls-10" transform="translate(1216 1062)"><tspan x="0" y="0">40% OFF</tspan></text>
    <g class="cls-42" transform="matrix(1, 0, 0, 1, 0, 0)">
      <g id="Path_35-14" data-name="Path 35" class="cls-7" transform="translate(1051 1513)">
        <path class="cls-25" d="M8,0H246a8,8,0,0,1,8,8V303a8,8,0,0,1-8,8H8a8,8,0,0,1-8-8V8A8,8,0,0,1,8,0Z"/>
        <path class="cls-26" d="M 8 1 C 4.14019775390625 1 1 4.14019775390625 1 8 L 1 303 C 1 306.8598022460938 4.14019775390625 310 8 310 L 246 310 C 249.8598022460938 310 253 306.8598022460938 253 303 L 253 8 C 253 4.14019775390625 249.8598022460938 1 246 1 L 8 1 M 8 0 L 246 0 C 250.4182739257813 0 254 3.58172607421875 254 8 L 254 303 C 254 307.4182739257813 250.4182739257813 311 246 311 L 8 311 C 3.58172607421875 311 0 307.4182739257813 0 303 L 0 8 C 0 3.58172607421875 3.58172607421875 0 8 0 Z"/>
      </g>
    </g>
    <text id="T-shirt_:_Thala_Dhoni_by_the_Souled_Store-2" data-name="T-shirt : Thala Dhoni by 
the Souled Store" class="cls-8" transform="translate(1083 1725)"><tspan x="0" y="0">T-shirt : Thala Dhoni by </tspan><tspan x="0" y="22">the Souled Store</tspan></text>
    <text id="_1000-2" data-name="₹1000" class="cls-9" transform="translate(1083 1790)"><tspan x="0" y="0">₹1000</tspan></text>
    <text id="_10_OFF" data-name="10% OFF" class="cls-10" transform="translate(1216 1788)"><tspan x="0" y="0">10% OFF</tspan></text>
    <g class="cls-41" transform="matrix(1, 0, 0, 1, 0, 0)">
      <g id="Path_35-15" data-name="Path 35" class="cls-7" transform="translate(1051 1150)">
        <path class="cls-25" d="M8,0H246a8,8,0,0,1,8,8V303a8,8,0,0,1-8,8H8a8,8,0,0,1-8-8V8A8,8,0,0,1,8,0Z"/>
        <path class="cls-26" d="M 8 1 C 4.14019775390625 1 1 4.14019775390625 1 8 L 1 303 C 1 306.8598022460938 4.14019775390625 310 8 310 L 246 310 C 249.8598022460938 310 253 306.8598022460938 253 303 L 253 8 C 253 4.14019775390625 249.8598022460938 1 246 1 L 8 1 M 8 0 L 246 0 C 250.4182739257813 0 254 3.58172607421875 254 8 L 254 303 C 254 307.4182739257813 250.4182739257813 311 246 311 L 8 311 C 3.58172607421875 311 0 307.4182739257813 0 303 L 0 8 C 0 3.58172607421875 3.58172607421875 0 8 0 Z"/>
      </g>
    </g>
    <text id="T-shirt_:_Whistle_Podu_by_the_Souled_Store" data-name="T-shirt : Whistle Podu by 
the Souled Store" class="cls-8" transform="translate(1083 1362)"><tspan x="0" y="0">T-shirt : Whistle Podu by </tspan><tspan x="0" y="22">the Souled Store</tspan></text>
    <text id="_2500" data-name="₹2500" class="cls-9" transform="translate(1083 1427)"><tspan x="0" y="0">₹2500</tspan></text>
    <text id="_30_OFF" data-name="30% OFF" class="cls-10" transform="translate(1216 1425)"><tspan x="0" y="0">30% OFF</tspan></text>
    <g class="cls-40" transform="matrix(1, 0, 0, 1, 0, 0)">
      <g id="Path_35-16" data-name="Path 35" class="cls-7" transform="translate(745 787)">
        <path class="cls-25" d="M8,0H246a8,8,0,0,1,8,8V303a8,8,0,0,1-8,8H8a8,8,0,0,1-8-8V8A8,8,0,0,1,8,0Z"/>
        <path class="cls-26" d="M 8 1 C 4.14019775390625 1 1 4.14019775390625 1 8 L 1 303 C 1 306.8598022460938 4.14019775390625 310 8 310 L 246 310 C 249.8598022460938 310 253 306.8598022460938 253 303 L 253 8 C 253 4.14019775390625 249.8598022460938 1 246 1 L 8 1 M 8 0 L 246 0 C 250.4182739257813 0 254 3.58172607421875 254 8 L 254 303 C 254 307.4182739257813 250.4182739257813 311 246 311 L 8 311 C 3.58172607421875 311 0 307.4182739257813 0 303 L 0 8 C 0 3.58172607421875 3.58172607421875 0 8 0 Z"/>
      </g>
    </g>
    <text id="T-shirt_:_Champion_by_the_Souled_Store" data-name="T-shirt : Champion by the 
Souled Store" class="cls-8" transform="translate(777 999)"><tspan x="0" y="0">T-shirt : Champion by the </tspan><tspan x="0" y="22">Souled Store</tspan></text>
    <text id="_1100" data-name="₹1100" class="cls-9" transform="translate(777 1064)"><tspan x="0" y="0">₹1100</tspan></text>
    <text id="_20_OFF" data-name="20% OFF" class="cls-10" transform="translate(910 1062)"><tspan x="0" y="0">20% OFF</tspan></text>
    <g class="cls-39" transform="matrix(1, 0, 0, 1, 0, 0)">
      <g id="Path_35-17" data-name="Path 35" class="cls-7" transform="translate(745 1513)">
        <path class="cls-25" d="M8,0H246a8,8,0,0,1,8,8V303a8,8,0,0,1-8,8H8a8,8,0,0,1-8-8V8A8,8,0,0,1,8,0Z"/>
        <path class="cls-26" d="M 8 1 C 4.14019775390625 1 1 4.14019775390625 1 8 L 1 303 C 1 306.8598022460938 4.14019775390625 310 8 310 L 246 310 C 249.8598022460938 310 253 306.8598022460938 253 303 L 253 8 C 253 4.14019775390625 249.8598022460938 1 246 1 L 8 1 M 8 0 L 246 0 C 250.4182739257813 0 254 3.58172607421875 254 8 L 254 303 C 254 307.4182739257813 250.4182739257813 311 246 311 L 8 311 C 3.58172607421875 311 0 307.4182739257813 0 303 L 0 8 C 0 3.58172607421875 3.58172607421875 0 8 0 Z"/>
      </g>
    </g>
    <text id="T-shirt_:_Champion_by_the_Souled_Store-2" data-name="T-shirt : Champion by the 
Souled Store" class="cls-8" transform="translate(777 1725)"><tspan x="0" y="0">T-shirt : Champion by the </tspan><tspan x="0" y="22">Souled Store</tspan></text>
    <text id="_1100-2" data-name="₹1100" class="cls-9" transform="translate(777 1790)"><tspan x="0" y="0">₹1100</tspan></text>
    <text id="_30_OFF-2" data-name="30% OFF" class="cls-10" transform="translate(910 1788)"><tspan x="0" y="0">30% OFF</tspan></text>
    <g class="cls-38" transform="matrix(1, 0, 0, 1, 0, 0)">
      <g id="Path_35-18" data-name="Path 35" class="cls-7" transform="translate(745 1150)">
        <path class="cls-25" d="M8,0H246a8,8,0,0,1,8,8V303a8,8,0,0,1-8,8H8a8,8,0,0,1-8-8V8A8,8,0,0,1,8,0Z"/>
        <path class="cls-26" d="M 8 1 C 4.14019775390625 1 1 4.14019775390625 1 8 L 1 303 C 1 306.8598022460938 4.14019775390625 310 8 310 L 246 310 C 249.8598022460938 310 253 306.8598022460938 253 303 L 253 8 C 253 4.14019775390625 249.8598022460938 1 246 1 L 8 1 M 8 0 L 246 0 C 250.4182739257813 0 254 3.58172607421875 254 8 L 254 303 C 254 307.4182739257813 250.4182739257813 311 246 311 L 8 311 C 3.58172607421875 311 0 307.4182739257813 0 303 L 0 8 C 0 3.58172607421875 3.58172607421875 0 8 0 Z"/>
      </g>
    </g>
    <text id="T-shirt_:_Chennai_Super_Kings" data-name="T-shirt : Chennai Super 
Kings" class="cls-8" transform="translate(777 1362)"><tspan x="0" y="0">T-shirt : Chennai Super </tspan><tspan x="0" y="22">Kings</tspan></text>
    <text id="_3000" data-name="₹3000" class="cls-9" transform="translate(777 1427)"><tspan x="0" y="0">₹3000</tspan></text>
    <text id="_40_OFF-2" data-name="40% OFF" class="cls-10" transform="translate(910 1425)"><tspan x="0" y="0">40% OFF</tspan></text>
    <g class="cls-37" transform="matrix(1, 0, 0, 1, 0, 0)">
      <g id="Path_35-19" data-name="Path 35" class="cls-7" transform="translate(440 787)">
        <path class="cls-25" d="M8,0H246a8,8,0,0,1,8,8V303a8,8,0,0,1-8,8H8a8,8,0,0,1-8-8V8A8,8,0,0,1,8,0Z"/>
        <path class="cls-26" d="M 8 1 C 4.14019775390625 1 1 4.14019775390625 1 8 L 1 303 C 1 306.8598022460938 4.14019775390625 310 8 310 L 246 310 C 249.8598022460938 310 253 306.8598022460938 253 303 L 253 8 C 253 4.14019775390625 249.8598022460938 1 246 1 L 8 1 M 8 0 L 246 0 C 250.4182739257813 0 254 3.58172607421875 254 8 L 254 303 C 254 307.4182739257813 250.4182739257813 311 246 311 L 8 311 C 3.58172607421875 311 0 307.4182739257813 0 303 L 0 8 C 0 3.58172607421875 3.58172607421875 0 8 0 Z"/>
      </g>
    </g>
    <text id="T-shirt_:_Yellove_by_the_Souled_Store" data-name="T-shirt : Yellove by the 
Souled Store" class="cls-8" transform="translate(472 999)"><tspan x="0" y="0">T-shirt : Yellove by the </tspan><tspan x="0" y="22">Souled Store</tspan></text>
    <text id="_1200" data-name="₹1200" class="cls-9" transform="translate(472 1064)"><tspan x="0" y="0">₹1200</tspan></text>
    <text id="_30_OFF-3" data-name="30% OFF" class="cls-10" transform="translate(605 1062)"><tspan x="0" y="0">30% OFF</tspan></text>
    <g class="cls-36" transform="matrix(1, 0, 0, 1, 0, 0)">
      <g id="Path_35-20" data-name="Path 35" class="cls-7" transform="translate(440 1513)">
        <path class="cls-25" d="M8,0H246a8,8,0,0,1,8,8V303a8,8,0,0,1-8,8H8a8,8,0,0,1-8-8V8A8,8,0,0,1,8,0Z"/>
        <path class="cls-26" d="M 8 1 C 4.14019775390625 1 1 4.14019775390625 1 8 L 1 303 C 1 306.8598022460938 4.14019775390625 310 8 310 L 246 310 C 249.8598022460938 310 253 306.8598022460938 253 303 L 253 8 C 253 4.14019775390625 249.8598022460938 1 246 1 L 8 1 M 8 0 L 246 0 C 250.4182739257813 0 254 3.58172607421875 254 8 L 254 303 C 254 307.4182739257813 250.4182739257813 311 246 311 L 8 311 C 3.58172607421875 311 0 307.4182739257813 0 303 L 0 8 C 0 3.58172607421875 3.58172607421875 0 8 0 Z"/>
      </g>
    </g>
    <text id="T-shirt_:_Yellove_by_the_Souled_Store-2" data-name="T-shirt : Yellove by the 
Souled Store" class="cls-8" transform="translate(472 1725)"><tspan x="0" y="0">T-shirt : Yellove by the </tspan><tspan x="0" y="22">Souled Store</tspan></text>
    <text id="_1200-2" data-name="₹1200" class="cls-9" transform="translate(472 1790)"><tspan x="0" y="0">₹1200</tspan></text>
    <text id="_40_OFF-3" data-name="40% OFF" class="cls-10" transform="translate(605 1788)"><tspan x="0" y="0">40% OFF</tspan></text>
    <g class="cls-35" transform="matrix(1, 0, 0, 1, 0, 0)">
      <g id="Path_35-21" data-name="Path 35" class="cls-7" transform="translate(440 1150)">
        <path class="cls-25" d="M8,0H246a8,8,0,0,1,8,8V303a8,8,0,0,1-8,8H8a8,8,0,0,1-8-8V8A8,8,0,0,1,8,0Z"/>
        <path class="cls-26" d="M 8 1 C 4.14019775390625 1 1 4.14019775390625 1 8 L 1 303 C 1 306.8598022460938 4.14019775390625 310 8 310 L 246 310 C 249.8598022460938 310 253 306.8598022460938 253 303 L 253 8 C 253 4.14019775390625 249.8598022460938 1 246 1 L 8 1 M 8 0 L 246 0 C 250.4182739257813 0 254 3.58172607421875 254 8 L 254 303 C 254 307.4182739257813 250.4182739257813 311 246 311 L 8 311 C 3.58172607421875 311 0 307.4182739257813 0 303 L 0 8 C 0 3.58172607421875 3.58172607421875 0 8 0 Z"/>
      </g>
    </g>
    <text id="T-shirt_:_Rohit_Sharma_Souled_Store" data-name="T-shirt : Rohit Sharma 
Souled Store" class="cls-8" transform="translate(472 1362)"><tspan x="0" y="0">T-shirt : Rohit Sharma </tspan><tspan x="0" y="22">Souled Store</tspan></text>
    <text id="_1200-3" data-name="₹1200" class="cls-9" transform="translate(472 1427)"><tspan x="0" y="0">₹1200</tspan></text>
    <text id="_20_OFF-2" data-name="20% OFF" class="cls-10" transform="translate(605 1425)"><tspan x="0" y="0">20% OFF</tspan></text>
    <line id="Line_2" data-name="Line 2" class="cls-11" x2="50" transform="translate(656 76.5)"/>
    <g class="cls-34" transform="matrix(1, 0, 0, 1, 0, 0)">
      <g id="Path_35-22" data-name="Path 35" class="cls-7" transform="translate(135 787)">
        <path class="cls-25" d="M8,0H246a8,8,0,0,1,8,8V303a8,8,0,0,1-8,8H8a8,8,0,0,1-8-8V8A8,8,0,0,1,8,0Z"/>
        <path class="cls-26" d="M 8 1 C 4.14019775390625 1 1 4.14019775390625 1 8 L 1 303 C 1 306.8598022460938 4.14019775390625 310 8 310 L 246 310 C 249.8598022460938 310 253 306.8598022460938 253 303 L 253 8 C 253 4.14019775390625 249.8598022460938 1 246 1 L 8 1 M 8 0 L 246 0 C 250.4182739257813 0 254 3.58172607421875 254 8 L 254 303 C 254 307.4182739257813 250.4182739257813 311 246 311 L 8 311 C 3.58172607421875 311 0 307.4182739257813 0 303 L 0 8 C 0 3.58172607421875 3.58172607421875 0 8 0 Z"/>
      </g>
    </g>
    <text id="T-shirt_:_Dhoni_Signed_CSK_Jersey" data-name="T-shirt : Dhoni Signed 
CSK Jersey" class="cls-8" transform="translate(167 999)"><tspan x="0" y="0">T-shirt : Dhoni Signed </tspan><tspan x="0" y="24">CSK Jersey</tspan></text>
    <text id="_1500" data-name="₹1500" class="cls-9" transform="translate(167 1064)"><tspan x="0" y="0">₹1500</tspan></text>
    <text id="_40_OFF-4" data-name="40% OFF" class="cls-10" transform="translate(300 1062)"><tspan x="0" y="0">40% OFF</tspan></text>
    <g class="cls-33" transform="matrix(1, 0, 0, 1, 0, 0)">
      <g id="Path_35-23" data-name="Path 35" class="cls-7" transform="translate(135 1513)">
        <path class="cls-25" d="M8,0H246a8,8,0,0,1,8,8V303a8,8,0,0,1-8,8H8a8,8,0,0,1-8-8V8A8,8,0,0,1,8,0Z"/>
        <path class="cls-26" d="M 8 1 C 4.14019775390625 1 1 4.14019775390625 1 8 L 1 303 C 1 306.8598022460938 4.14019775390625 310 8 310 L 246 310 C 249.8598022460938 310 253 306.8598022460938 253 303 L 253 8 C 253 4.14019775390625 249.8598022460938 1 246 1 L 8 1 M 8 0 L 246 0 C 250.4182739257813 0 254 3.58172607421875 254 8 L 254 303 C 254 307.4182739257813 250.4182739257813 311 246 311 L 8 311 C 3.58172607421875 311 0 307.4182739257813 0 303 L 0 8 C 0 3.58172607421875 3.58172607421875 0 8 0 Z"/>
      </g>
    </g>
    <text id="T-shirt_:_Dhoni_Signed_CSK_Jersey-2" data-name="T-shirt : Dhoni Signed 
CSK Jersey" class="cls-8" transform="translate(167 1725)"><tspan x="0" y="0">T-shirt : Dhoni Signed </tspan><tspan x="0" y="24">CSK Jersey</tspan></text>
    <text id="_1500-2" data-name="₹1500" class="cls-9" transform="translate(167 1790)"><tspan x="0" y="0">₹1500</tspan></text>
    <text id="_50_OFF" data-name="50% OFF" class="cls-10" transform="translate(300 1788)"><tspan x="0" y="0">50% OFF</tspan></text>
    <g class="cls-32" transform="matrix(1, 0, 0, 1, 0, 0)">
      <g id="Path_35-24" data-name="Path 35" class="cls-7" transform="translate(135 1150)">
        <path class="cls-25" d="M8,0H246a8,8,0,0,1,8,8V303a8,8,0,0,1-8,8H8a8,8,0,0,1-8-8V8A8,8,0,0,1,8,0Z"/>
        <path class="cls-26" d="M 8 1 C 4.14019775390625 1 1 4.14019775390625 1 8 L 1 303 C 1 306.8598022460938 4.14019775390625 310 8 310 L 246 310 C 249.8598022460938 310 253 306.8598022460938 253 303 L 253 8 C 253 4.14019775390625 249.8598022460938 1 246 1 L 8 1 M 8 0 L 246 0 C 250.4182739257813 0 254 3.58172607421875 254 8 L 254 303 C 254 307.4182739257813 250.4182739257813 311 246 311 L 8 311 C 3.58172607421875 311 0 307.4182739257813 0 303 L 0 8 C 0 3.58172607421875 3.58172607421875 0 8 0 Z"/>
      </g>
    </g>
    <text id="T-shirt_:_Chepauk_by_the_Souled_Store" data-name="T-shirt : Chepauk by the 
Souled Store" class="cls-8" transform="translate(167 1362)"><tspan x="0" y="0">T-shirt : Chepauk by the </tspan><tspan x="0" y="22">Souled Store</tspan></text>
    <text id="_560" data-name="₹560" class="cls-9" transform="translate(167 1427)"><tspan x="0" y="0">₹560</tspan></text>
    <text id="_30_OFF-4" data-name="30% OFF" class="cls-10" transform="translate(300 1425)"><tspan x="0" y="0">30% OFF</tspan></text>
    <g class="cls-31" transform="matrix(1, 0, 0, 1, 0, 0)">
      <rect id="wp2496939-2" data-name="wp2496939" class="cls-2" width="1170" height="400" rx="8" transform="translate(135 263)"/>
    </g>
    <g id="Group_59" data-name="Group 59" transform="translate(521 259)">
      <circle id="Ellipse_18" data-name="Ellipse 18" class="cls-12" cx="5" cy="5" r="5" transform="translate(154 436)"/>
      <circle id="Ellipse_18-2" data-name="Ellipse 18" class="cls-13" cx="5" cy="5" r="5" transform="translate(174 436)"/>
      <circle id="Ellipse_18-3" data-name="Ellipse 18" class="cls-13" cx="5" cy="5" r="5" transform="translate(194 436)"/>
      <circle id="Ellipse_18-4" data-name="Ellipse 18" class="cls-13" cx="5" cy="5" r="5" transform="translate(214 436)"/>
      <circle id="Ellipse_18-5" data-name="Ellipse 18" class="cls-13" cx="5" cy="5" r="5" transform="translate(234 436)"/>
    </g>
    <g id="Group_105" data-name="Group 105" transform="translate(0 101)">
      <g class="cls-30" transform="matrix(1, 0, 0, 1, 0, -101)">
        <g id="Ellipse_1-3" data-name="Ellipse 1" class="cls-14" transform="translate(70 441)">
          <circle class="cls-25" cx="22.5" cy="22.5" r="22.5"/>
          <circle class="cls-27" cx="22.5" cy="22.5" r="22"/>
        </g>
      </g>
      <path id="Path_32" data-name="Path 32" class="cls-15" d="M3976.948,502l-7.95,7.95,7.95,7.95" transform="translate(-3880.498 -147.5)"/>
    </g>
    <g id="Group_106" data-name="Group 106" transform="translate(1325 441)">
      <g class="cls-29" transform="matrix(1, 0, 0, 1, -1325, -441)">
        <g id="Ellipse_1-4" data-name="Ellipse 1" class="cls-14" transform="translate(1325 441)">
          <circle class="cls-25" cx="22.5" cy="22.5" r="22.5"/>
          <circle class="cls-27" cx="22.5" cy="22.5" r="22"/>
        </g>
      </g>
      <path id="Path_32-2" data-name="Path 32" class="cls-15" d="M3969,502l7.95,7.95L3969,517.9" transform="translate(-3950.448 -487.5)"/>
    </g>
    <rect id="Rectangle_38" data-name="Rectangle 38" class="cls-2" width="1440" height="79" transform="translate(1)"/>
    <g id="Group_37" data-name="Group 37" transform="translate(-26.5 -1)">
      <text id="Home" class="cls-16" transform="translate(306 44)"><tspan x="-18.802" y="0">Home</tspan></text>
      <text id="News" class="cls-17" transform="translate(388 44)"><tspan x="-17.521" y="0">News</tspan></text>
      <text id="CSK_TV" data-name="CSK TV" class="cls-17" transform="translate(619 44)"><tspan x="-23.828" y="0">CSK TV</tspan></text>
      <text id="More" class="cls-17" transform="translate(796 44)"><tspan x="-16.184" y="0">More</tspan></text>
      <g id="Group_35" data-name="Group 35" class="cls-18" transform="translate(44 -14)">
        <text id="Match_Centre" data-name="Match Centre" class="cls-16" transform="translate(449 58)"><tspan x="-42.287" y="0">Match Centre</tspan></text>
        <path id="Path_4" data-name="Path 4" class="cls-12" d="M373,433l3.88,3.88L373,440.76" transform="translate(938.82 -320.06) rotate(90)"/>
      </g>
      <g id="Group_34" data-name="Group 34" class="cls-18" transform="translate(59 -14)">
        <text id="Shop" class="cls-16" transform="translate(645 58)"><tspan x="-16.205" y="0">Shop</tspan></text>
        <path id="Path_29" data-name="Path 29" class="cls-12" d="M373,433l3.88,3.88L373,440.76" transform="translate(1108.82 -320.06) rotate(90)"/>
      </g>
      <line id="Line_2-2" data-name="Line 2" class="cls-19" x2="50" transform="translate(684.5 77.5)"/>
    </g>
    <line id="Line_3" data-name="Line 3" class="cls-20" y2="21" transform="translate(1240.5 29.5)"/>
    <g id="Group_123" data-name="Group 123" transform="translate(2 -1)">
      <g id="Rectangle_113" data-name="Rectangle 113" class="cls-21" transform="translate(1258 17)">
        <rect class="cls-25" width="47" height="47" rx="15"/>
        <rect class="cls-27" x="0.5" y="0.5" width="46" height="46" rx="14.5"/>
      </g>
    </g>
    <g id="Group_206" data-name="Group 206" transform="translate(2744 -11658)">
      <rect id="Rectangle_55" data-name="Rectangle 55" class="cls-12" width="1440" height="221" transform="translate(-2744 13553)"/>
      <text id="_CSK._All_rights_reserved._" data-name="© CSK. All rights reserved. " class="cls-22" transform="translate(-2024 13672)"><tspan x="-94.544" y="0">© CSK. All rights reserved. </tspan></text>
      <g id="Group_46" data-name="Group 46" transform="translate(-3011 10902)">
        <text id="Privacy_Policy" data-name="Privacy Policy" class="cls-23" transform="translate(727 2822)"><tspan x="-55.216" y="0">PRIVACY POLICY</tspan></text>
        <text id="Terms_conditions" data-name="Terms &amp; conditions" class="cls-23" transform="translate(924 2822)"><tspan x="-73.808" y="0">TERMS &amp; CONDITIONS</tspan></text>
        <text id="Disclaimer" class="cls-23" transform="translate(1107 2822)"><tspan x="-40.887" y="0">DISCLAIMER</tspan></text>
        <text id="Contact_Us" data-name="Contact Us" class="cls-23" transform="translate(1259 2822)"><tspan x="-43.414" y="0">CONTACT US</tspan></text>
      </g>
      <line id="Line_4" data-name="Line 4" class="cls-24" y2="17" transform="translate(-2198.5 13710.5)"/>
      <line id="Line_5" data-name="Line 5" class="cls-24" y2="17" transform="translate(-1973.5 13710.5)"/>
      <line id="Line_6" data-name="Line 6" class="cls-24" y2="17" transform="translate(-1817.5 13710.5)"/>
    </g>
  </g>
</svg>
