<svg xmlns="http://www.w3.org/2000/svg" xmlns:xlink="http://www.w3.org/1999/xlink" width="1440" height="1149" viewBox="0 0 1440 1149">
  <defs>
    <style>
      .cls-1 {
        clip-path: url(#clip-Web_1366_1);
      }

      .cls-16, .cls-17, .cls-2, .cls-20 {
        fill: none;
      }

      .cls-2 {
        stroke: #ffcb05;
      }

      .cls-16, .cls-2 {
        stroke-linecap: round;
        stroke-width: 4px;
      }

      .cls-18, .cls-3 {
        fill: #dcdcdc;
      }

      .cls-11, .cls-12, .cls-13, .cls-14, .cls-4, .cls-5, .cls-9 {
        fill: #191710;
      }

      .cls-4 {
        font-size: 20px;
      }

      .cls-11, .cls-4, .cls-6, .cls-7 {
        font-family: Gotham-Bold, Gotham;
        font-weight: 700;
      }

      .cls-21, .cls-6, .cls-8 {
        fill: #fff;
      }

      .cls-11, .cls-6, .cls-9 {
        font-size: 16px;
      }

      .cls-7 {
        fill: #cdcdcd;
      }

      .cls-12, .cls-7 {
        font-size: 18px;
      }

      .cls-8 {
        stroke: #e8e8e8;
      }

      .cls-13, .cls-14, .cls-9 {
        font-family: ProximaNova-Semibold, Proxima Nova;
        font-weight: 600;
      }

      .cls-10 {
        fill: #848484;
        font-family: ProximaNova-Regular, Proxima Nova;
      }

      .cls-10, .cls-13, .cls-14 {
        font-size: 14px;
      }

      .cls-11 {
        opacity: 0.85;
      }

      .cls-12 {
        font-family: Gotham-Book, Gotham;
        opacity: 0.796;
      }

      .cls-14, .cls-15 {
        opacity: 0.997;
      }

      .cls-16, .cls-18 {
        stroke: #191710;
      }

      .cls-17 {
        stroke: rgba(0,0,0,0.2);
      }

      .cls-19 {
        stroke: none;
      }

      .cls-22 {
        filter: url(#_268ce71fce8a4d159ad89156aa2a0c00);
      }

      .cls-23 {
        filter: url(#Rectangle_96);
      }

      .cls-24 {
        filter: url(#Rectangle_50);
      }

      .cls-25 {
        filter: url(#Rectangle_114);
      }
    </style>
    <filter id="Rectangle_114" x="473" y="707" width="485" height="391" filterUnits="userSpaceOnUse">
      <feOffset dy="30" input="SourceAlpha"/>
      <feGaussianBlur stdDeviation="18" result="blur"/>
      <feFlood flood-opacity="0.059"/>
      <feComposite operator="in" in2="blur"/>
      <feComposite in="SourceGraphic"/>
    </filter>
    <filter id="Rectangle_50" x="865" y="707" width="485" height="391" filterUnits="userSpaceOnUse">
      <feOffset dy="30" input="SourceAlpha"/>
      <feGaussianBlur stdDeviation="18" result="blur-2"/>
      <feFlood flood-opacity="0.059"/>
      <feComposite operator="in" in2="blur-2"/>
      <feComposite in="SourceGraphic"/>
    </filter>
    <filter id="Rectangle_96" x="81" y="707" width="485" height="391" filterUnits="userSpaceOnUse">
      <feOffset dy="30" input="SourceAlpha"/>
      <feGaussianBlur stdDeviation="18" result="blur-3"/>
      <feFlood flood-opacity="0.039"/>
      <feComposite operator="in" in2="blur-3"/>
      <feComposite in="SourceGraphic"/>
    </filter>
    <filter id="_268ce71fce8a4d159ad89156aa2a0c00" x="117" y="258" width="1206" height="436" filterUnits="userSpaceOnUse">
      <feOffset dy="7" input="SourceAlpha"/>
      <feGaussianBlur stdDeviation="6" result="blur-4"/>
      <feFlood flood-opacity="0.098"/>
      <feComposite operator="in" in2="blur-4"/>
      <feComposite in="SourceGraphic"/>
    </filter>
    <clipPath id="clip-Web_1366_1">
      <rect width="1440" height="1149"/>
    </clipPath>
  </defs>
  <g id="Web_1366_1" data-name="Web 1366 – 1" class="cls-1">
    <rect class="cls-21" width="1440" height="1149"/>
    <line id="Line_2" data-name="Line 2" class="cls-2" x2="50" transform="translate(336.5 76.5)"/>
    <rect id="Screenshot_2020-02-08_at_7.48.17_PM" data-name="Screenshot 2020-02-08 at 7.48.17 PM" class="cls-3" width="1170" height="96" rx="8" transform="translate(135 93)"/>
    <text id="News" class="cls-4" transform="translate(135 712)"><tspan x="0" y="0">News</tspan></text>
    <g id="Group_139" data-name="Group 139">
      <rect id="Rectangle_115" data-name="Rectangle 115" class="cls-5" width="60" height="30" rx="5" transform="translate(135 215)"/>
      <text id="ALL" class="cls-6" transform="translate(147 236)"><tspan x="0" y="0">ALL</tspan></text>
      <text id="CSK" class="cls-7" transform="translate(215 237)"><tspan x="0" y="0">CSK</tspan></text>
      <text id="DHONI" class="cls-7" transform="translate(273 237)"><tspan x="0" y="0">DHONI</tspan></text>
      <text id="TEAM" class="cls-7" transform="translate(356 237)"><tspan x="0" y="0">TEAM</tspan></text>
      <text id="PLAYER" class="cls-7" transform="translate(430 237)"><tspan x="0" y="0">PLAYER</tspan></text>
      <text id="SPONSORS" class="cls-7" transform="translate(523 237)"><tspan x="0" y="0">SPONSORS</tspan></text>
      <text id="JSK" class="cls-7" transform="translate(644 237)"><tspan x="0" y="0">JSK</tspan></text>
    </g>
    <g class="cls-25" transform="matrix(1, 0, 0, 1, 0, 0)">
      <g id="Rectangle_114-2" data-name="Rectangle 114" class="cls-8" transform="translate(527 731)">
        <rect class="cls-19" width="377" height="283" rx="8"/>
        <rect class="cls-20" x="0.5" y="0.5" width="376" height="282" rx="7.5"/>
      </g>
    </g>
    <path id="CHENNAI_PLAYERS" class="cls-3" d="M8,0H369a8,8,0,0,1,8,8V165.228a0,0,0,0,1,0,0H0a0,0,0,0,1,0,0V8A8,8,0,0,1,8,0Z" transform="translate(527 731)"/>
    <text id="IPL_2019_Was_the_Best_Thing_to_Happen_to_Me_in_my_life_" data-name="IPL 2019 Was the Best Thing to Happen to Me in my life…" class="cls-9" transform="translate(552 917.469)"><tspan x="0" y="15">IPL 2019 Was the Best Thing to Happen to </tspan><tspan x="0" y="39">Me in my life…</tspan></text>
    <text id="Saturday_08_Feb_2020" data-name="Saturday 08 Feb,2020" class="cls-10" transform="translate(552 989)"><tspan x="0" y="0">Saturday 08 Feb,2020</tspan></text>
    <g id="Group_125" data-name="Group 125" transform="translate(1 -935)">
      <g class="cls-24" transform="matrix(1, 0, 0, 1, -1, 935)">
        <g id="Rectangle_50-2" data-name="Rectangle 50" class="cls-8" transform="translate(919 731)">
          <rect class="cls-19" width="377" height="283" rx="8"/>
          <rect class="cls-20" x="0.5" y="0.5" width="376" height="282" rx="7.5"/>
        </g>
      </g>
      <path id="harbhajan-singh-csk-chennai-1528775390" class="cls-3" d="M8,0H369a8,8,0,0,1,8,8V165.228a0,0,0,0,1,0,0H0a0,0,0,0,1,0,0V8A8,8,0,0,1,8,0Z" transform="translate(918 1666)"/>
      <text id="Withdrawing_Name_From_The_Hundred_Draft_" data-name="Withdrawing Name From  ‘The Hundred Draft…" class="cls-9" transform="translate(943 1852.469)"><tspan x="0" y="15" xml:space="preserve">Withdrawing Name From  ‘The Hundred </tspan><tspan x="0" y="39">Draft…</tspan></text>
      <text id="Saturday_08_Feb_2020-2" data-name="Saturday 08 Feb,2020" class="cls-10" transform="translate(943 1924)"><tspan x="0" y="0">Saturday 08 Feb,2020</tspan></text>
    </g>
    <g id="Group_126" data-name="Group 126" transform="translate(1 -935)">
      <g class="cls-23" transform="matrix(1, 0, 0, 1, -1, 935)">
        <g id="Rectangle_96-2" data-name="Rectangle 96" class="cls-8" transform="translate(135 731)">
          <rect class="cls-19" width="377" height="283" rx="8"/>
          <rect class="cls-20" x="0.5" y="0.5" width="376" height="282" rx="7.5"/>
        </g>
      </g>
      <path id="_676925-dhoni-afp" data-name="676925-dhoni-afp" class="cls-3" d="M8,0H368.637a8,8,0,0,1,8,8V165.228a0,0,0,0,1,0,0H0a0,0,0,0,1,0,0V8A8,8,0,0,1,8,0Z" transform="translate(134 1666)"/>
      <text id="MS_Dhoni_Will_be_Retained_by_Chennai_Super_Kings_" data-name="MS Dhoni Will be Retained by Chennai Super Kings…" class="cls-9" transform="translate(164 1851.469)"><tspan x="0" y="15">MS Dhoni Will be Retained by Chennai </tspan><tspan x="0" y="39">Super Kings…</tspan></text>
      <text id="Saturday_08_Feb_2020-3" data-name="Saturday 08 Feb,2020" class="cls-10" transform="translate(164 1918)"><tspan x="0" y="0">Saturday 08 Feb,2020</tspan></text>
    </g>
    <g class="cls-22" transform="matrix(1, 0, 0, 1, 0, 0)">
      <rect id="_268ce71fce8a4d159ad89156aa2a0c00-2" data-name="268ce71fce8a4d159ad89156aa2a0c00" class="cls-3" width="1170" height="400" rx="8" transform="translate(135 269)"/>
    </g>
    <g id="Group_128" data-name="Group 128">
      <text id="India_Handed_Rare_Bilateral_ODI_Series_Whitewash" data-name="India Handed Rare Bilateral ODI 
Series Whitewash" class="cls-4" transform="translate(185 338)"><tspan x="0" y="0">India Handed Rare Bilateral ODI </tspan><tspan x="0" y="28">Series Whitewash</tspan></text>
      <text id="Highlights_CSK" data-name="Highlights  |  CSK" class="cls-11" transform="translate(185 401)"><tspan x="0" y="0" xml:space="preserve">Highlights  |  CSK</tspan></text>
      <text id="Start_your_weekend_with_Super_Thala_Goosebumbps_Are_you_excited_to_experience_such_euphoria_very_soo_" data-name="Start your weekend with Super Thala 
Goosebumbps! Are you excited to experience 
such euphoria very soo?" class="cls-12" transform="translate(185 436)"><tspan x="0" y="0">Start your weekend with Super Thala </tspan><tspan x="0" y="30">Goosebumbps! Are you excited to experience </tspan><tspan x="0" y="60">such euphoria very soo?</tspan></text>
    </g>
    <rect id="Rectangle_38" data-name="Rectangle 38" class="cls-3" width="1440" height="79" transform="translate(1)"/>
    <g id="Group_37" data-name="Group 37" transform="translate(-26.5 -1)">
      <text id="Home" class="cls-13" transform="translate(306 44)"><tspan x="-18.802" y="0">Home</tspan></text>
      <text id="News-2" data-name="News" class="cls-14" transform="translate(388 44)"><tspan x="-17.521" y="0">News</tspan></text>
      <text id="CSK_TV" data-name="CSK TV" class="cls-14" transform="translate(619 44)"><tspan x="-23.828" y="0">CSK TV</tspan></text>
      <text id="More" class="cls-14" transform="translate(796 44)"><tspan x="-16.184" y="0">More</tspan></text>
      <g id="Group_35" data-name="Group 35" class="cls-15" transform="translate(44 -14)">
        <text id="Match_Centre" data-name="Match Centre" class="cls-13" transform="translate(449 58)"><tspan x="-42.287" y="0">Match Centre</tspan></text>
        <path id="Path_4" data-name="Path 4" class="cls-5" d="M373,433l3.88,3.88L373,440.76" transform="translate(938.82 -320.06) rotate(90)"/>
      </g>
      <g id="Group_34" data-name="Group 34" class="cls-15" transform="translate(59 -14)">
        <text id="Shop" class="cls-13" transform="translate(645 58)"><tspan x="-16.205" y="0">Shop</tspan></text>
        <path id="Path_29" data-name="Path 29" class="cls-5" d="M373,433l3.88,3.88L373,440.76" transform="translate(1108.82 -320.06) rotate(90)"/>
      </g>
      <line id="Line_2-2" data-name="Line 2" class="cls-16" x2="50" transform="translate(684.5 77.5)"/>
    </g>
    <line id="Line_3" data-name="Line 3" class="cls-17" y2="21" transform="translate(1240.5 29.5)"/>
    <g id="Group_123" data-name="Group 123" transform="translate(2 -1)">
      <g id="Rectangle_113" data-name="Rectangle 113" class="cls-18" transform="translate(1258 17)">
        <rect class="cls-19" width="47" height="47" rx="15"/>
        <rect class="cls-20" x="0.5" y="0.5" width="46" height="46" rx="14.5"/>
      </g>
    </g>
  </g>
</svg>
